M48
;Layer_Color=9474304
;FILE_FORMAT=2:4
INCH,LZ
;TYPE=PLATED
T1F00S00C0.0098
T2F00S00C0.1575
%
T01
X048858Y037283
X049331Y037428
Y037926
X049646Y038307
X050066Y038661
X050512Y03878
X049449Y039068
X049567Y039606
X050827Y039843
X051339
X051604Y039616
X052008Y039843
X05249Y039038
X052795Y039055
X053032Y038504
X052795Y037889
X052362Y037795
X051988Y037382
X051693Y037638
Y03685
X051142Y036299
X050551Y03626
X049961Y036299
X049488Y036772
X048307Y037943
X051673Y038543
T02
X050554Y037473
M30
