G04*
G04 #@! TF.GenerationSoftware,Altium Limited,Altium Designer,18.1.6 (161)*
G04*
G04 Layer_Color=2752767*
%FSTAX24Y24*%
%MOIN*%
G70*
G01*
G75*
%ADD11C,0.0039*%
%ADD30C,0.0020*%
%ADD31C,0.0027*%
D11*
X053507Y037473D02*
G03*
X053507Y037473I-002953J0D01*
G01*
D30*
X050474Y037393D02*
Y037553D01*
X050634D01*
Y037393D01*
X050474D01*
D31*
X050146Y038661D02*
G03*
X050146Y038661I-00008J0D01*
G01*
X050592Y03878D02*
G03*
X050592Y03878I-00008J0D01*
G01*
X049647Y039606D02*
G03*
X049647Y039606I-00008J0D01*
G01*
X049529Y039068D02*
G03*
X049529Y039068I-00008J0D01*
G01*
X050907Y039843D02*
G03*
X050907Y039843I-00008J0D01*
G01*
X049568Y036772D02*
G03*
X049568Y036772I-00008J0D01*
G01*
X053112Y038504D02*
G03*
X053112Y038504I-00008J0D01*
G01*
X049411Y037428D02*
G03*
X049411Y037428I-00008J0D01*
G01*
Y037926D02*
G03*
X049411Y037926I-00008J0D01*
G01*
X049726Y038307D02*
G03*
X049726Y038307I-00008J0D01*
G01*
X051419Y039843D02*
G03*
X051419Y039843I-00008J0D01*
G01*
X052088D02*
G03*
X052088Y039843I-00008J0D01*
G01*
X052875Y039055D02*
G03*
X052875Y039055I-00008J0D01*
G01*
Y037889D02*
G03*
X052875Y037889I-00008J0D01*
G01*
X052442Y037795D02*
G03*
X052442Y037795I-00008J0D01*
G01*
X051773Y037638D02*
G03*
X051773Y037638I-00008J0D01*
G01*
Y03685D02*
G03*
X051773Y03685I-00008J0D01*
G01*
X051222Y036299D02*
G03*
X051222Y036299I-00008J0D01*
G01*
X050631Y03626D02*
G03*
X050631Y03626I-00008J0D01*
G01*
X050041Y036299D02*
G03*
X050041Y036299I-00008J0D01*
G01*
X048938Y037283D02*
G03*
X048938Y037283I-00008J0D01*
G01*
X048387Y037943D02*
G03*
X048387Y037943I-00008J0D01*
G01*
X05257Y039038D02*
G03*
X05257Y039038I-00008J0D01*
G01*
X051684Y039616D02*
G03*
X051684Y039616I-00008J0D01*
G01*
X051753Y038543D02*
G03*
X051753Y038543I-00008J0D01*
G01*
X052068Y037382D02*
G03*
X052068Y037382I-00008J0D01*
G01*
M02*
