G04*
G04 #@! TF.GenerationSoftware,Altium Limited,Altium Designer,18.1.6 (161)*
G04*
G04 Layer_Color=128*
%FSTAX24Y24*%
%MOIN*%
G70*
G01*
G75*
%ADD30C,0.0020*%
D30*
X049767Y037473D02*
X051341D01*
X050554Y036685D02*
Y03826D01*
X050017Y038661D02*
X050115D01*
X050066Y038612D02*
Y038711D01*
X050463Y03878D02*
X050561D01*
X050512Y03873D02*
Y038829D01*
X049518Y039606D02*
X049616D01*
X049567Y039557D02*
Y039656D01*
X0494Y039068D02*
X049498D01*
X049449Y039018D02*
Y039117D01*
X050778Y039843D02*
X050876D01*
X050827Y039793D02*
Y039892D01*
X049439Y036772D02*
X049537D01*
X049488Y036722D02*
Y036821D01*
X052982Y038504D02*
X053081D01*
X053032Y038455D02*
Y038553D01*
X049282Y037428D02*
X04938D01*
X049331Y037378D02*
Y037477D01*
X049282Y037926D02*
X04938D01*
X049331Y037877D02*
Y037975D01*
X049596Y038307D02*
X049695D01*
X049646Y038258D02*
Y038356D01*
X051289Y039843D02*
X051388D01*
X051339Y039793D02*
Y039892D01*
X051959Y039843D02*
X052057D01*
X052008Y039793D02*
Y039892D01*
X052746Y039055D02*
X052844D01*
X052795Y039006D02*
Y039104D01*
X052746Y037889D02*
X052844D01*
X052795Y037839D02*
Y037938D01*
X052313Y037795D02*
X052411D01*
X052362Y037746D02*
Y037844D01*
X051644Y037638D02*
X051742D01*
X051693Y037589D02*
Y037687D01*
X051644Y03685D02*
X051742D01*
X051693Y036801D02*
Y0369D01*
X051093Y036299D02*
X051191D01*
X051142Y03625D02*
Y036348D01*
X050502Y03626D02*
X0506D01*
X050551Y036211D02*
Y036309D01*
X049911Y036299D02*
X05001D01*
X049961Y03625D02*
Y036348D01*
X048809Y037283D02*
X048907D01*
X048858Y037234D02*
Y037333D01*
X048258Y037943D02*
X048356D01*
X048307Y037893D02*
Y037992D01*
X052441Y039038D02*
X052539D01*
X05249Y038989D02*
Y039087D01*
X051555Y039616D02*
X051654D01*
X051604Y039567D02*
Y039665D01*
X051624Y038543D02*
X051722D01*
X051673Y038494D02*
Y038593D01*
X051939Y037382D02*
X052037D01*
X051988Y037333D02*
Y037431D01*
M02*
