G04*
G04 #@! TF.GenerationSoftware,Altium Limited,Altium Designer,18.1.6 (161)*
G04*
G04 Layer_Physical_Order=1*
G04 Layer_Color=255*
%FSTAX24Y24*%
%MOIN*%
G70*
G01*
G75*
%ADD13R,0.0433X0.0394*%
%ADD14R,0.0295X0.0354*%
%ADD15R,0.0394X0.0433*%
%ADD16O,0.0138X0.0551*%
%ADD17R,0.0551X0.0787*%
%ADD26C,0.0130*%
%ADD27C,0.0100*%
%ADD28C,0.1772*%
%ADD29C,0.0157*%
G36*
X049626Y039658D02*
X049629Y039657D01*
X049632Y039656D01*
X049636Y039656D01*
X049641Y039655D01*
X049653Y039654D01*
X049677Y039654D01*
X049673Y039554D01*
X049664Y039554D01*
X049628Y039552D01*
X049625Y039551D01*
X049623Y03955D01*
X049621Y039549D01*
X049625Y039659D01*
X049626Y039658D01*
D02*
G37*
G36*
X049393Y039013D02*
X049391Y039013D01*
X049389Y039014D01*
X049386Y039015D01*
X049382Y039016D01*
X049372Y039017D01*
X049358Y039017D01*
X049341Y039018D01*
Y039118D01*
X04935Y039118D01*
X049386Y03912D01*
X049389Y039121D01*
X049391Y039122D01*
X049393Y039123D01*
Y039013D01*
D02*
G37*
G36*
X049069Y039158D02*
X049072Y03915D01*
X049077Y039142D01*
X049084Y039136D01*
X049093Y03913D01*
X049104Y039126D01*
X049117Y039122D01*
X049132Y03912D01*
X049149Y039118D01*
X049168Y039118D01*
Y039018D01*
X049149Y039017D01*
X049132Y039016D01*
X049117Y039013D01*
X049104Y03901D01*
X049093Y039005D01*
X049084Y039D01*
X049077Y038993D01*
X049072Y038986D01*
X049069Y038977D01*
X049068Y038968D01*
Y039168D01*
X049069Y039158D01*
D02*
G37*
G36*
X049848Y038937D02*
X049839Y038941D01*
X04983Y038943D01*
X049819Y038943D01*
X049806Y03894D01*
X049793Y038934D01*
X049778Y038925D01*
X049762Y038914D01*
X049745Y0389D01*
X049706Y038865D01*
X049616Y038916D01*
X049637Y038937D01*
X049669Y038975D01*
X049681Y038992D01*
X04969Y039007D01*
X049696Y03902D01*
X049698Y039032D01*
X049698Y039042D01*
X049694Y03905D01*
X049688Y039057D01*
X049848Y038937D01*
D02*
G37*
G36*
X049069Y038489D02*
X049072Y03848D01*
X049077Y038473D01*
X049084Y038466D01*
X049093Y038461D01*
X049104Y038456D01*
X049117Y038453D01*
X049132Y03845D01*
X049149Y038449D01*
X049168Y038448D01*
Y038348D01*
X049149Y038348D01*
X049132Y038346D01*
X049117Y038344D01*
X049104Y03834D01*
X049093Y038336D01*
X049084Y03833D01*
X049077Y038324D01*
X049072Y038316D01*
X049069Y038308D01*
X049068Y038298D01*
Y038498D01*
X049069Y038489D01*
D02*
G37*
G36*
X048678Y038298D02*
X048677Y038308D01*
X048674Y038316D01*
X048669Y038324D01*
X048662Y03833D01*
X048653Y038336D01*
X048641Y03834D01*
X048628Y038344D01*
X048613Y038346D01*
X048596Y038348D01*
X048577Y038348D01*
Y038448D01*
X048596Y038449D01*
X048613Y03845D01*
X048628Y038453D01*
X048641Y038456D01*
X048653Y038461D01*
X048662Y038466D01*
X048669Y038473D01*
X048674Y03848D01*
X048677Y038489D01*
X048678Y038498D01*
Y038298D01*
D02*
G37*
G36*
X048365Y037997D02*
X048367Y037996D01*
X04837Y037995D01*
X048374Y037994D01*
X048384Y037993D01*
X048398Y037993D01*
X048415Y037993D01*
Y037893D01*
X048406Y037892D01*
X04837Y03789D01*
X048367Y037889D01*
X048365Y037888D01*
X048363Y037887D01*
Y037998D01*
X048365Y037997D01*
D02*
G37*
G36*
X049287Y037992D02*
X049264Y037884D01*
X049263Y037886D01*
X04926Y037887D01*
X049257Y037888D01*
X049253Y037889D01*
X049248Y03789D01*
X049243Y037891D01*
X049229Y037892D01*
X049212Y037893D01*
X049241Y037993D01*
X049287Y037992D01*
D02*
G37*
G36*
X048343Y037884D02*
X048344Y037878D01*
X048351Y037877D01*
X048349Y037876D01*
X048348Y037873D01*
X048347Y03787D01*
X048346Y037866D01*
X048345Y037864D01*
X048347Y037852D01*
X048351Y037839D01*
X048355Y037828D01*
X048361Y037819D01*
X048367Y037811D01*
X048373Y037808D01*
X048618D01*
X048483Y037628D01*
X048618Y037448D01*
X048143D01*
Y037808D01*
X048212D01*
X048218Y037811D01*
X048225Y037819D01*
X04823Y037828D01*
X048235Y037839D01*
X048238Y037852D01*
X048241Y037867D01*
X048242Y037884D01*
X048243Y037904D01*
X048343D01*
X048343Y037884D01*
D02*
G37*
G36*
X049023Y037566D02*
X049031Y037551D01*
X049042Y037536D01*
X049055Y037519D01*
X049071Y0375D01*
X04909Y037481D01*
X049049Y037381D01*
X049027Y037402D01*
X048988Y037435D01*
X048971Y037447D01*
X048971Y037448D01*
X048698Y037448D01*
X048563Y037628D01*
X048698Y037808D01*
X049023D01*
Y037566D01*
D02*
G37*
G36*
X048912Y037226D02*
X048912Y037224D01*
X048911Y03722D01*
X04891Y037217D01*
X048909Y037206D01*
X048909Y037204D01*
X04891Y037189D01*
X048913Y037174D01*
X048916Y037161D01*
X048921Y037149D01*
X048926Y03714D01*
X048933Y037133D01*
X04894Y037128D01*
X048949Y037125D01*
X048958Y037124D01*
X048758D01*
X048768Y037125D01*
X048776Y037128D01*
X048784Y037133D01*
X04879Y03714D01*
X048796Y037149D01*
X0488Y037161D01*
X048804Y037174D01*
X048806Y037189D01*
X048807Y037199D01*
X048806Y03722D01*
X048805Y037224D01*
X048804Y037226D01*
X048803Y037227D01*
X048913D01*
X048912Y037226D01*
D02*
G37*
G36*
X048003Y037206D02*
X048005Y037189D01*
X048007Y037174D01*
X048011Y037161D01*
X048015Y03715D01*
X048021Y03714D01*
X048027Y037133D01*
X048035Y037128D01*
X048043Y037125D01*
X048053Y037124D01*
X047878Y037125D01*
X047883Y037126D01*
X047887Y037129D01*
X047891Y037134D01*
X047894Y037141D01*
X047897Y03715D01*
X047899Y037161D01*
X047901Y037174D01*
X047903Y037206D01*
X047903Y037225D01*
X048003D01*
X048003Y037206D01*
D02*
G37*
G36*
X048869Y036733D02*
X048855Y036731D01*
X048841Y036728D01*
X048827Y036723D01*
X048813Y036716D01*
X048798Y036709D01*
X048784Y036699D01*
X04877Y036689D01*
X048756Y036677D01*
X048742Y036663D01*
X048609Y036672D01*
X04862Y036684D01*
X048629Y036694D01*
X048634Y036704D01*
X048638Y036712D01*
X048638Y036718D01*
X048636Y036724D01*
X048631Y036728D01*
X048623Y036732D01*
X048613Y036733D01*
X0486Y036734D01*
X048883D01*
X048869Y036733D01*
D02*
G37*
G36*
X048695Y036461D02*
X048696Y036444D01*
X048699Y036429D01*
X048702Y036416D01*
X048707Y036405D01*
X048712Y036396D01*
X048719Y036389D01*
X048726Y036383D01*
X048735Y03638D01*
X048744Y036379D01*
X048544D01*
X048554Y03638D01*
X048562Y036383D01*
X04857Y036389D01*
X048576Y036396D01*
X048582Y036405D01*
X048586Y036416D01*
X04859Y036429D01*
X048592Y036444D01*
X048594Y036461D01*
X048594Y036481D01*
X048694D01*
X048695Y036461D01*
D02*
G37*
G36*
X049527Y036082D02*
X049528Y036077D01*
X049531Y036071D01*
X049536Y036063D01*
X049543Y036053D01*
X049564Y036028D01*
X049613Y035978D01*
X049509Y035897D01*
X04949Y035917D01*
X049419Y035979D01*
X04941Y035985D01*
X049403Y035989D01*
X049398Y03599D01*
X049394Y035989D01*
X049529Y036085D01*
X049527Y036082D01*
D02*
G37*
G36*
X049633Y035813D02*
X049635Y03579D01*
X049638Y035771D01*
X049642Y035753D01*
X049648Y035739D01*
X049655Y035727D01*
X049664Y035718D01*
X049674Y035712D01*
X049685Y035708D01*
X049697Y035706D01*
X049437D01*
X049449Y035708D01*
X04946Y035712D01*
X04947Y035718D01*
X049479Y035727D01*
X049486Y035739D01*
X049492Y035753D01*
X049496Y035771D01*
X049499Y03579D01*
X049501Y035813D01*
X049502Y035837D01*
X049632D01*
X049633Y035813D01*
D02*
G37*
G36*
X050849Y035503D02*
X050844Y035498D01*
X05084Y035492D01*
X050837Y035486D01*
X050834Y03548D01*
X050831Y035473D01*
X050829Y035466D01*
X050828Y035458D01*
X050827Y03545D01*
X050826Y035441D01*
X050826Y035432D01*
X050566Y035431D01*
X05058Y035431D01*
X050594Y035434D01*
X050608Y035437D01*
X050622Y035442D01*
X050636Y035449D01*
X05065Y035457D01*
X050665Y035466D01*
X050679Y035477D01*
X050693Y035489D01*
X050707Y035503D01*
X050849D01*
D02*
G37*
G36*
X051473Y036114D02*
X051492Y036114D01*
X05151Y036116D01*
X051525Y036118D01*
X051538Y036122D01*
X051549Y036126D01*
X051558Y036132D01*
X051565Y036138D01*
X05157Y036146D01*
X051573Y036154D01*
X051575Y036164D01*
X051573Y035985D01*
X051572Y03599D01*
X051569Y035995D01*
X051564Y036D01*
X051557Y036003D01*
X051548Y036006D01*
X051537Y036009D01*
X051524Y036011D01*
X051509Y036012D01*
X051473Y036014D01*
Y036114D01*
D02*
G37*
G36*
X05193Y035265D02*
X05191Y035264D01*
X051893Y035263D01*
X051878Y03526D01*
X051865Y035257D01*
X051854Y035252D01*
X051845Y035247D01*
X051837Y03524D01*
X051832Y035233D01*
X051829Y035224D01*
X051828Y035215D01*
Y035415D01*
X051829Y035405D01*
X051832Y035397D01*
X051837Y035389D01*
X051845Y035383D01*
X051854Y035377D01*
X051865Y035373D01*
X051878Y035369D01*
X051893Y035367D01*
X05191Y035365D01*
X05193Y035365D01*
Y035265D01*
D02*
G37*
G36*
X052028Y037263D02*
X052028Y037244D01*
X052033Y037172D01*
X052035Y037162D01*
X052037Y037154D01*
X052039Y037147D01*
X052042Y037143D01*
X051915D01*
X051917Y037147D01*
X05192Y037154D01*
X051922Y037162D01*
X051923Y037172D01*
X051926Y037196D01*
X051928Y037226D01*
X051928Y037263D01*
X052028D01*
D02*
G37*
G36*
X051928Y037283D02*
X051926Y037333D01*
X052036Y037319D01*
X052034Y037318D01*
X052033Y037315D01*
X052032Y037312D01*
X052031Y037308D01*
X05203Y037303D01*
X052029Y037291D01*
X052028Y037276D01*
X052028Y037267D01*
X051928Y037283D01*
D02*
G37*
G36*
X052408Y035885D02*
X052407Y035904D01*
X052406Y035921D01*
X052403Y035937D01*
X0524Y03595D01*
X052395Y035961D01*
X05239Y03597D01*
X052383Y035977D01*
X052376Y035982D01*
X052367Y035985D01*
X052358Y035986D01*
X052558D01*
X052548Y035985D01*
X05254Y035982D01*
X052532Y035977D01*
X052526Y03597D01*
X05252Y035961D01*
X052516Y03595D01*
X052512Y035937D01*
X05251Y035921D01*
X052508Y035904D01*
X052508Y035885D01*
X052408D01*
D02*
G37*
G36*
X052744Y036278D02*
X05273Y036264D01*
X052718Y03625D01*
X052707Y036236D01*
X052698Y036221D01*
X05269Y036207D01*
X052684Y036193D01*
X052679Y036179D01*
X052675Y036165D01*
X052673Y036151D01*
X052672Y036137D01*
X052673Y036376D01*
X052679Y036376D01*
X052688Y036377D01*
X052692Y036378D01*
X052696Y036379D01*
X0527Y03638D01*
X052703Y036381D01*
X052706Y036383D01*
X052708Y036385D01*
X052711Y036386D01*
X052744Y036278D01*
D02*
G37*
G36*
X052696Y036556D02*
X052696Y036575D01*
X052691Y036647D01*
X052689Y036657D01*
X052687Y036665D01*
X052685Y036671D01*
X052682Y036676D01*
X05281D01*
X052807Y036671D01*
X052805Y036665D01*
X052803Y036657D01*
X052801Y036647D01*
X052798Y036623D01*
X052797Y036593D01*
X052796Y036556D01*
X052696D01*
D02*
G37*
G36*
X052422Y036809D02*
X052421Y036819D01*
X052418Y036827D01*
X052413Y036835D01*
X052406Y036841D01*
X052397Y036847D01*
X052386Y036851D01*
X052373Y036855D01*
X052362Y036857D01*
X052352Y036855D01*
X052339Y036851D01*
X052327Y036847D01*
X052318Y036841D01*
X052311Y036835D01*
X052306Y036827D01*
X052303Y036819D01*
X052302Y036809D01*
Y037009D01*
X052303Y037D01*
X052306Y036991D01*
X052311Y036984D01*
X052318Y036977D01*
X052327Y036972D01*
X052339Y036967D01*
X052352Y036964D01*
X052362Y036962D01*
X052373Y036964D01*
X052386Y036967D01*
X052397Y036972D01*
X052406Y036977D01*
X052413Y036984D01*
X052418Y036991D01*
X052421Y037D01*
X052422Y037009D01*
Y036809D01*
D02*
G37*
G36*
X051042Y038412D02*
X051022Y038389D01*
X051006Y038366D01*
X050996Y038344D01*
X050992Y038321D01*
X050992Y038299D01*
X050998Y038277D01*
X051009Y038255D01*
X051026Y038233D01*
X051047Y038211D01*
X051074Y03819D01*
X050628Y038356D01*
X050667Y038354D01*
X050705Y038355D01*
X050742Y03836D01*
X050778Y038368D01*
X050813Y038379D01*
X050847Y038393D01*
X05088Y038411D01*
X050911Y038432D01*
X050942Y038456D01*
X050971Y038483D01*
X051042Y038412D01*
D02*
G37*
G36*
X050957Y038996D02*
X050957Y039015D01*
X050952Y039092D01*
X05095Y039095D01*
X050949Y039096D01*
X051107D01*
X051097Y039095D01*
X051089Y039092D01*
X051081Y039087D01*
X051075Y03908D01*
X051069Y039071D01*
X051065Y03906D01*
X051061Y039047D01*
X051059Y039032D01*
X051057Y039015D01*
X051057Y038996D01*
X050957D01*
D02*
G37*
G36*
X051781Y038493D02*
X051772Y038493D01*
X051736Y038491D01*
X051733Y03849D01*
X051731Y038489D01*
X051729Y038488D01*
Y038598D01*
X051731Y038597D01*
X051733Y038597D01*
X051736Y038596D01*
X05174Y038595D01*
X051751Y038594D01*
X051764Y038594D01*
X051781Y038593D01*
Y038493D01*
D02*
G37*
G36*
X051809Y038593D02*
X051829Y038594D01*
X051846Y038595D01*
X051861Y038598D01*
X051874Y038601D01*
X051885Y038606D01*
X051894Y038611D01*
X051901Y038618D01*
X051906Y038625D01*
X05191Y038634D01*
X051911Y038643D01*
Y038443D01*
X05191Y038453D01*
X051906Y038461D01*
X051901Y038469D01*
X051894Y038475D01*
X051885Y038481D01*
X051874Y038485D01*
X051861Y038489D01*
X051846Y038491D01*
X051829Y038493D01*
X051809Y038493D01*
Y038593D01*
D02*
G37*
G36*
X052045Y039026D02*
X052025Y039045D01*
X051989Y039076D01*
X051972Y039087D01*
X051958Y039096D01*
X051944Y039102D01*
X051932Y039104D01*
X051921Y039104D01*
X051912Y039102D01*
X051904Y039096D01*
X052049Y039234D01*
X052043Y039227D01*
X05204Y039218D01*
X05204Y039207D01*
X052043Y039195D01*
X052048Y039182D01*
X052057Y039167D01*
X052068Y039151D01*
X052082Y039133D01*
X052119Y039093D01*
X052045Y039026D01*
D02*
G37*
G36*
X052544Y03898D02*
X052543Y038978D01*
X052543Y038975D01*
X052542Y038971D01*
X052541Y038961D01*
X05254Y038947D01*
X05254Y03893D01*
X05244D01*
X05244Y038939D01*
X052438Y038975D01*
X052437Y038978D01*
X052436Y03898D01*
X052435Y038982D01*
X052545D01*
X052544Y03898D01*
D02*
G37*
G36*
X05254Y038858D02*
X052545Y038786D01*
X052547Y038776D01*
X052549Y038768D01*
X052551Y038762D01*
X052554Y038757D01*
X052426D01*
X052429Y038762D01*
X052431Y038768D01*
X052433Y038776D01*
X052435Y038786D01*
X052438Y03881D01*
X05244Y038841D01*
X05244Y038877D01*
X05254D01*
X05254Y038858D01*
D02*
G37*
G36*
X052284D02*
X052289Y038786D01*
X052291Y038776D01*
X052293Y038768D01*
X052295Y038762D01*
X052298Y038757D01*
X05217D01*
X052173Y038762D01*
X052175Y038768D01*
X052178Y038776D01*
X052179Y038786D01*
X052182Y03881D01*
X052184Y038841D01*
X052184Y038877D01*
X052284D01*
X052284Y038858D01*
D02*
G37*
G36*
X052678Y038424D02*
X052677Y038433D01*
X052674Y038442D01*
X052669Y038449D01*
X052662Y038456D01*
X052653Y038461D01*
X052642Y038466D01*
X052629Y038469D01*
X052618Y038471D01*
X052608Y038469D01*
X052594Y038466D01*
X052583Y038461D01*
X052574Y038456D01*
X052567Y038449D01*
X052562Y038442D01*
X052559Y038433D01*
X052558Y038424D01*
Y038624D01*
X052559Y038614D01*
X052562Y038606D01*
X052567Y038598D01*
X052574Y038592D01*
X052583Y038586D01*
X052594Y038582D01*
X052608Y038578D01*
X052618Y038576D01*
X052629Y038578D01*
X052642Y038582D01*
X052653Y038586D01*
X052662Y038592D01*
X052669Y038598D01*
X052674Y038606D01*
X052677Y038614D01*
X052678Y038624D01*
Y038424D01*
D02*
G37*
D13*
X049314Y036185D02*
D03*
X048644Y036185D02*
D03*
X048763Y03693D02*
D03*
X048093Y03693D02*
D03*
X051833Y039292D02*
D03*
X051164Y039292D02*
D03*
X051789Y036181D02*
D03*
X052458Y036181D02*
D03*
D14*
X048293Y037628D02*
D03*
X048873D02*
D03*
D15*
X048872Y039077D02*
D03*
X048872Y038408D02*
D03*
X049882Y039151D02*
D03*
X049882Y03982D02*
D03*
D16*
X052746Y038524D02*
D03*
X05249D02*
D03*
X052234D02*
D03*
X051978D02*
D03*
X052746Y036909D02*
D03*
X05249D02*
D03*
X052234D02*
D03*
X051978D02*
D03*
D17*
X050551Y035039D02*
D03*
X049567Y035315D02*
D03*
X051555D02*
D03*
D26*
X05Y038661D02*
X050066D01*
X049646Y038307D02*
X05Y038661D01*
X049331Y037992D02*
X049646Y038307D01*
X049331Y037926D02*
Y037992D01*
X050066Y038661D02*
X050394D01*
X049488Y036772D02*
X05Y03626D01*
X050394Y038661D02*
X050512Y03878D01*
Y039528D01*
X050827Y039843D01*
X051339D01*
X051142Y036299D02*
X051693Y03685D01*
X051102Y03626D02*
X051142Y036299D01*
X050551Y03626D02*
X051102D01*
X05D02*
X050551D01*
X049331Y036929D02*
X049488Y036772D01*
X049331Y036929D02*
Y037428D01*
Y037926D01*
X051339Y039843D02*
X052008D01*
X052795Y039055D01*
X053032Y038819D01*
Y038504D02*
Y038819D01*
Y038125D02*
Y038504D01*
X052795Y037889D02*
X053032Y038125D01*
X052702Y037795D02*
X052795Y037889D01*
X052362Y037795D02*
X052702D01*
X05185D02*
X052362D01*
X051693Y037638D02*
X05185Y037795D01*
X051693Y03685D02*
Y037638D01*
X049314Y036185D02*
X049387Y036258D01*
X049567Y035315D02*
Y035932D01*
X049314Y036185D02*
X049567Y035932D01*
D27*
X049169Y038398D02*
X049961Y03919D01*
X048241Y038398D02*
X049169D01*
X047953Y037122D02*
X048119Y036956D01*
X04957Y039604D02*
X049705D01*
X049567Y039606D02*
X04957Y039604D01*
X048858Y03685D02*
Y037283D01*
X048644Y036637D02*
X048858Y03685D01*
X048966Y039068D02*
X049449D01*
X051676Y039292D02*
X05185D01*
X049705Y039604D02*
X049961Y03986D01*
X051676Y039292D02*
X051743Y039359D01*
X051604Y039498D02*
X051743Y039359D01*
X051604Y039498D02*
Y039616D01*
X052234Y038524D02*
Y038907D01*
X05185Y039292D02*
X052234Y038907D01*
X049314Y037943D02*
X049331Y037926D01*
X048307Y037943D02*
X049314D01*
X051339Y036064D02*
X051789D01*
X050551Y035276D02*
X051339Y036064D01*
X050551Y035039D02*
Y035276D01*
X048644Y036185D02*
Y036637D01*
Y036064D02*
Y036185D01*
X048873Y037628D02*
X049094Y037406D01*
Y036404D02*
Y037406D01*
Y036404D02*
X049314Y036185D01*
X051789Y036064D02*
Y036181D01*
Y036405D01*
X052458Y036063D02*
X052746Y036351D01*
X051555Y035236D02*
X051634Y035315D01*
X052458Y035814D02*
Y036063D01*
X051959Y035315D02*
X052458Y035814D01*
X051634Y035315D02*
X051959D01*
X051978Y036594D02*
Y036909D01*
X051789Y036405D02*
X051978Y036594D01*
X047953Y037122D02*
Y03811D01*
X048241Y038398D01*
X048293Y037928D02*
X048307Y037943D01*
X048293Y037628D02*
Y037928D01*
X051007Y038448D02*
Y039292D01*
X050709Y03815D02*
X051007Y038448D01*
X050709Y037628D02*
Y03815D01*
X05249Y038524D02*
X052746D01*
X05249D02*
Y039038D01*
X050554Y037473D02*
X050709Y037628D01*
X051959Y038543D02*
X051978Y038524D01*
X051673Y038543D02*
X051959D01*
X051978Y037372D02*
X051988Y037382D01*
X051978Y036909D02*
Y037372D01*
X052234Y036909D02*
X05249D01*
X052746Y036351D02*
Y036909D01*
D28*
X050554Y037473D02*
D03*
D29*
X050066Y038661D02*
D03*
X050512Y03878D02*
D03*
X049567Y039606D02*
D03*
X049449Y039068D02*
D03*
X050827Y039843D02*
D03*
X049488Y036772D02*
D03*
X053032Y038504D02*
D03*
X049331Y037428D02*
D03*
Y037926D02*
D03*
X049646Y038307D02*
D03*
X051339Y039843D02*
D03*
X052008D02*
D03*
X052795Y039055D02*
D03*
Y037889D02*
D03*
X052362Y037795D02*
D03*
X051693Y037638D02*
D03*
Y03685D02*
D03*
X051142Y036299D02*
D03*
X050551Y03626D02*
D03*
X049961Y036299D02*
D03*
X048858Y037283D02*
D03*
X048307Y037943D02*
D03*
X05249Y039038D02*
D03*
X051604Y039616D02*
D03*
X051673Y038543D02*
D03*
X051988Y037382D02*
D03*
M02*
