G04*
G04 #@! TF.GenerationSoftware,Altium Limited,Altium Designer,18.1.6 (161)*
G04*
G04 Layer_Color=65535*
%FSTAX24Y24*%
%MOIN*%
G70*
G01*
G75*
%ADD10C,0.0098*%
%ADD11C,0.0039*%
%ADD12C,0.0079*%
G36*
X05131Y036037D02*
X051261D01*
Y036083D01*
X05131D01*
Y036037D01*
D02*
G37*
G36*
X050654D02*
X050605D01*
Y036083D01*
X050654D01*
Y036037D01*
D02*
G37*
G36*
X050465Y036087D02*
X050469Y036087D01*
X050474Y036086D01*
X050479Y036085D01*
X050484Y036084D01*
X05049Y036083D01*
X050497Y036081D01*
X050503Y036079D01*
X05051Y036076D01*
X050516Y036073D01*
X050522Y036069D01*
X050528Y036065D01*
X050534Y03606D01*
X050534D01*
X050534Y036059D01*
X050535Y036058D01*
X050537Y036057D01*
X050538Y036055D01*
X05054Y036053D01*
X050544Y036048D01*
X050548Y036041D01*
X050552Y036033D01*
X050556Y036024D01*
X05056Y036013D01*
X050509Y036001D01*
Y036001D01*
X050508Y036001D01*
Y036003D01*
X050508Y036004D01*
X050507Y036007D01*
X050505Y036012D01*
X050502Y036017D01*
X050499Y036022D01*
X050494Y036027D01*
X05049Y036032D01*
X050489Y036032D01*
X050487Y036034D01*
X050484Y036035D01*
X05048Y036038D01*
X050475Y03604D01*
X050469Y036042D01*
X050462Y036043D01*
X050455Y036044D01*
X050452D01*
X05045Y036043D01*
X050448Y036043D01*
X050445Y036042D01*
X050439Y036041D01*
X050431Y036038D01*
X050423Y036035D01*
X050419Y036032D01*
X050416Y03603D01*
X050412Y036027D01*
X050409Y036023D01*
Y036023D01*
X050408Y036022D01*
X050407Y036021D01*
X050406Y036019D01*
X050404Y036017D01*
X050403Y036014D01*
X050402Y036011D01*
X0504Y036007D01*
X050398Y036003D01*
X050397Y035998D01*
X050395Y035992D01*
X050394Y035986D01*
X050393Y03598D01*
X050392Y035973D01*
X050392Y035965D01*
X050391Y035956D01*
Y035956D01*
Y035954D01*
Y035951D01*
X050392Y035949D01*
Y035944D01*
X050392Y03594D01*
X050393Y035935D01*
X050393Y035929D01*
X050396Y035918D01*
X050399Y035906D01*
X0504Y035901D01*
X050403Y035896D01*
X050406Y035891D01*
X050409Y035887D01*
X050409Y035886D01*
X050409Y035886D01*
X05041Y035885D01*
X050412Y035883D01*
X050416Y03588D01*
X050421Y035877D01*
X050427Y035873D01*
X050435Y03587D01*
X050444Y035867D01*
X050448Y035867D01*
X050454Y035866D01*
X050456D01*
X050457Y035867D01*
X050461Y035867D01*
X050466Y035868D01*
X050471Y03587D01*
X050477Y035872D01*
X050483Y035875D01*
X050489Y035879D01*
X05049Y03588D01*
X050491Y035882D01*
X050494Y035885D01*
X050497Y035889D01*
X050501Y035895D01*
X050504Y035902D01*
X050507Y035911D01*
X05051Y035921D01*
X050561Y035905D01*
Y035905D01*
X05056Y035903D01*
X05056Y035901D01*
X050558Y035898D01*
X050557Y035895D01*
X050555Y035891D01*
X050554Y035886D01*
X050551Y035882D01*
X050546Y035872D01*
X05054Y035861D01*
X050531Y035851D01*
X050527Y035847D01*
X050522Y035843D01*
X050522Y035842D01*
X050521Y035842D01*
X05052Y035841D01*
X050517Y035839D01*
X050515Y035838D01*
X050511Y035836D01*
X050508Y035835D01*
X050504Y035833D01*
X050499Y03583D01*
X050494Y035829D01*
X050488Y035827D01*
X050482Y035826D01*
X050476Y035824D01*
X050469Y035823D01*
X050462Y035823D01*
X050454Y035822D01*
X050452D01*
X050449Y035823D01*
X050446Y035823D01*
X050441Y035823D01*
X050436Y035824D01*
X050431Y035825D01*
X050424Y035827D01*
X050418Y035829D01*
X050412Y035831D01*
X050404Y035834D01*
X050397Y035837D01*
X05039Y035841D01*
X050383Y035846D01*
X050377Y035851D01*
X05037Y035857D01*
X05037Y035857D01*
X050369Y035859D01*
X050367Y035861D01*
X050365Y035863D01*
X050363Y035867D01*
X05036Y035871D01*
X050357Y035876D01*
X050354Y035882D01*
X050351Y035889D01*
X050348Y035896D01*
X050345Y035904D01*
X050343Y035912D01*
X050341Y035921D01*
X050339Y035931D01*
X050338Y035941D01*
X050338Y035953D01*
Y035953D01*
Y035953D01*
Y035956D01*
X050338Y035959D01*
Y035963D01*
X050339Y035968D01*
X05034Y035975D01*
X05034Y035981D01*
X050342Y035989D01*
X050344Y035997D01*
X050346Y036005D01*
X050349Y036013D01*
X050352Y036022D01*
X050356Y03603D01*
X05036Y036038D01*
X050365Y036045D01*
X050371Y036052D01*
X050371Y036052D01*
X050372Y036054D01*
X050374Y036055D01*
X050377Y036058D01*
X05038Y03606D01*
X050384Y036063D01*
X050389Y036067D01*
X050394Y03607D01*
X0504Y036073D01*
X050406Y036077D01*
X050414Y036079D01*
X050421Y036082D01*
X05043Y036084D01*
X050438Y036086D01*
X050448Y036087D01*
X050457Y036088D01*
X050462D01*
X050465Y036087D01*
D02*
G37*
G36*
X050796Y036016D02*
X0508Y036015D01*
X050805Y036014D01*
X050811Y036013D01*
X050816Y03601D01*
X050822Y036007D01*
X050807Y035964D01*
X050806Y035965D01*
X050804Y035966D01*
X050802Y035967D01*
X050799Y035968D01*
X050796Y03597D01*
X050792Y035971D01*
X050788Y035972D01*
X050784Y035973D01*
X050782D01*
X05078Y035972D01*
X050778Y035972D01*
X050775Y035971D01*
X050772Y03597D01*
X050769Y035968D01*
X050766Y035967D01*
X050766Y035966D01*
X050765Y035966D01*
X050764Y035964D01*
X050762Y035962D01*
X05076Y035959D01*
X050759Y035956D01*
X050757Y035951D01*
X050755Y035946D01*
Y035945D01*
X050755Y035944D01*
X050754Y035943D01*
Y035941D01*
X050754Y035939D01*
X050754Y035936D01*
X050753Y035933D01*
X050753Y035929D01*
X050753Y035924D01*
X050752Y035919D01*
Y035913D01*
X050752Y035907D01*
X050752Y0359D01*
Y035892D01*
Y035884D01*
Y035827D01*
X050702D01*
Y036013D01*
X050748D01*
Y035986D01*
X050748Y035987D01*
X05075Y035989D01*
X050752Y035992D01*
X050755Y035996D01*
X050758Y036D01*
X050762Y036004D01*
X050765Y036008D01*
X050769Y036011D01*
X050769Y036011D01*
X05077Y036012D01*
X050772Y036013D01*
X050775Y036014D01*
X050778Y036015D01*
X050781Y036016D01*
X050785Y036016D01*
X05079Y036017D01*
X050793D01*
X050796Y036016D01*
D02*
G37*
G36*
X050928D02*
X050931D01*
X050934Y036016D01*
X050938Y036015D01*
X050942Y036015D01*
X05095Y036013D01*
X050959Y03601D01*
X050968Y036007D01*
X050976Y036002D01*
X050976D01*
X050977Y036001D01*
X050978Y036D01*
X050979Y035999D01*
X050983Y035996D01*
X050987Y035991D01*
X050992Y035985D01*
X050997Y035977D01*
X051001Y035968D01*
X051005Y035958D01*
X050957Y035949D01*
Y03595D01*
X050956Y035951D01*
X050955Y035954D01*
X050954Y035957D01*
X050952Y035961D01*
X050951Y035964D01*
X050948Y035968D01*
X050945Y035971D01*
X050945Y035971D01*
X050944Y035972D01*
X050942Y035973D01*
X050939Y035974D01*
X050936Y035976D01*
X050932Y035977D01*
X050928Y035978D01*
X050923Y035978D01*
X050922D01*
X05092Y035978D01*
X050917Y035977D01*
X050912Y035977D01*
X050908Y035975D01*
X050903Y035973D01*
X050898Y03597D01*
X050894Y035965D01*
X050893Y035964D01*
X050892Y035963D01*
X05089Y03596D01*
X050888Y035955D01*
X050886Y035949D01*
X050885Y035946D01*
X050885Y035942D01*
X050884Y035938D01*
X050883Y035933D01*
X050883Y035928D01*
Y035923D01*
Y035923D01*
Y035921D01*
Y03592D01*
X050883Y035917D01*
Y035915D01*
X050884Y035912D01*
X050884Y035904D01*
X050885Y035897D01*
X050888Y035889D01*
X05089Y035882D01*
X050892Y035879D01*
X050894Y035876D01*
X050894Y035875D01*
X050896Y035874D01*
X050898Y035872D01*
X050902Y035869D01*
X050906Y035867D01*
X050911Y035865D01*
X050917Y035863D01*
X050924Y035863D01*
X050926D01*
X050928Y035863D01*
X050932Y035864D01*
X050935Y035865D01*
X050939Y035866D01*
X050943Y035868D01*
X050947Y03587D01*
X050947Y035871D01*
X050948Y035872D01*
X050949Y035874D01*
X050952Y035877D01*
X050954Y03588D01*
X050956Y035885D01*
X050958Y035891D01*
X050959Y035898D01*
X051008Y03589D01*
Y035889D01*
X051007Y035888D01*
X051007Y035886D01*
X051006Y035884D01*
X051005Y035882D01*
X051004Y035878D01*
X051001Y035871D01*
X050997Y035863D01*
X050992Y035855D01*
X050986Y035846D01*
X050982Y035843D01*
X050978Y035839D01*
X050978D01*
X050977Y035839D01*
X050976Y035838D01*
X050975Y035837D01*
X050972Y035836D01*
X05097Y035834D01*
X050967Y035833D01*
X050963Y035831D01*
X050959Y035829D01*
X050955Y035828D01*
X050951Y035826D01*
X050945Y035825D01*
X05094Y035824D01*
X050934Y035823D01*
X050928Y035823D01*
X050921Y035823D01*
X050917D01*
X050915Y035823D01*
X050911Y035823D01*
X050907Y035824D01*
X050903Y035825D01*
X050898Y035826D01*
X050893Y035827D01*
X050888Y035829D01*
X050882Y035831D01*
X050877Y035833D01*
X050871Y035836D01*
X050866Y03584D01*
X050861Y035844D01*
X050857Y035848D01*
X050856Y035849D01*
X050855Y035849D01*
X050854Y035851D01*
X050853Y035853D01*
X050851Y035856D01*
X050849Y035859D01*
X050847Y035862D01*
X050845Y035867D01*
X050842Y035872D01*
X05084Y035877D01*
X050838Y035883D01*
X050836Y035889D01*
X050835Y035896D01*
X050834Y035903D01*
X050833Y035911D01*
X050833Y035919D01*
Y03592D01*
Y035921D01*
Y035924D01*
X050833Y035927D01*
X050833Y035931D01*
X050834Y035935D01*
X050834Y03594D01*
X050836Y035946D01*
X050838Y035957D01*
X05084Y035963D01*
X050843Y035969D01*
X050846Y035975D01*
X050849Y03598D01*
X050853Y035986D01*
X050857Y035991D01*
X050857Y035991D01*
X050858Y035992D01*
X050859Y035993D01*
X050861Y035995D01*
X050864Y035997D01*
X050867Y035999D01*
X05087Y036001D01*
X050874Y036004D01*
X050878Y036006D01*
X050883Y036008D01*
X050889Y036011D01*
X050895Y036013D01*
X050901Y036014D01*
X050908Y036015D01*
X050915Y036016D01*
X050922Y036017D01*
X050925D01*
X050928Y036016D01*
D02*
G37*
G36*
X051211Y035827D02*
X051165D01*
Y035855D01*
X051165Y035854D01*
X051163Y035852D01*
X051161Y035849D01*
X051158Y035846D01*
X051154Y035842D01*
X051149Y035838D01*
X051144Y035834D01*
X051138Y035831D01*
X051137Y03583D01*
X051135Y03583D01*
X051132Y035828D01*
X051127Y035827D01*
X051122Y035825D01*
X051116Y035824D01*
X05111Y035823D01*
X051103Y035823D01*
X0511D01*
X051097Y035823D01*
X051092Y035824D01*
X051087Y035825D01*
X051081Y035826D01*
X051075Y035828D01*
X05107Y035831D01*
X051069Y035831D01*
X051068Y035832D01*
X051065Y035834D01*
X051062Y035837D01*
X051058Y03584D01*
X051055Y035844D01*
X051051Y035849D01*
X051048Y035854D01*
X051048Y035855D01*
X051047Y035856D01*
X051046Y03586D01*
X051045Y035865D01*
X051044Y03587D01*
X051043Y035877D01*
X051042Y035886D01*
X051042Y035895D01*
Y036013D01*
X051091D01*
Y035927D01*
Y035927D01*
Y035925D01*
Y035923D01*
Y035921D01*
Y035918D01*
Y035914D01*
X051091Y035907D01*
X051092Y035898D01*
X051092Y03589D01*
X051092Y035887D01*
X051093Y035884D01*
X051093Y035881D01*
X051093Y035879D01*
Y035879D01*
X051094Y035878D01*
X051095Y035876D01*
X051096Y035874D01*
X051097Y035872D01*
X051099Y03587D01*
X0511Y035867D01*
X051103Y035865D01*
X051103Y035865D01*
X051105Y035865D01*
X051106Y035864D01*
X051108Y035863D01*
X051111Y035862D01*
X051114Y035861D01*
X051117Y035861D01*
X051122Y03586D01*
X051124D01*
X051126Y035861D01*
X051129Y035861D01*
X051133Y035862D01*
X051136Y035863D01*
X05114Y035865D01*
X051144Y035867D01*
X051144Y035867D01*
X051146Y035868D01*
X051147Y03587D01*
X05115Y035872D01*
X051152Y035875D01*
X051154Y035877D01*
X051156Y03588D01*
X051158Y035884D01*
Y035884D01*
X051159Y035886D01*
Y035888D01*
X051159Y03589D01*
X051159Y035892D01*
X05116Y035894D01*
X05116Y035897D01*
X05116Y035901D01*
X051161Y035905D01*
Y03591D01*
X051161Y035915D01*
X051161Y035921D01*
Y035927D01*
Y035934D01*
Y036013D01*
X051211D01*
Y035827D01*
D02*
G37*
G36*
X05131D02*
X051261D01*
Y036013D01*
X05131D01*
Y035827D01*
D02*
G37*
G36*
X050654D02*
X050605D01*
Y036013D01*
X050654D01*
Y035827D01*
D02*
G37*
G36*
X050199Y03604D02*
X050061D01*
Y035983D01*
X050189D01*
Y03594D01*
X050061D01*
Y03587D01*
X050204D01*
Y035827D01*
X050009D01*
Y036083D01*
X050199D01*
Y03604D01*
D02*
G37*
G36*
X049981Y035827D02*
X049925D01*
X049903Y035885D01*
X0498D01*
X049779Y035827D01*
X049724D01*
X049824Y036083D01*
X049878D01*
X049981Y035827D01*
D02*
G37*
G36*
X051412Y036013D02*
X051446D01*
Y035973D01*
X051412D01*
Y035898D01*
Y035898D01*
Y035897D01*
Y035896D01*
Y035894D01*
Y035891D01*
Y035886D01*
X051413Y035882D01*
Y035877D01*
Y035874D01*
X051413Y035873D01*
Y035872D01*
X051413Y035871D01*
X051414Y03587D01*
X051415Y035868D01*
X051418Y035866D01*
X051418Y035865D01*
X05142Y035865D01*
X051422Y035864D01*
X051426Y035863D01*
X051427D01*
X051429Y035864D01*
X051431Y035864D01*
X051434Y035865D01*
X051437Y035865D01*
X051441Y035866D01*
X051446Y035868D01*
X05145Y03583D01*
X05145D01*
X051449Y035829D01*
X051447Y035829D01*
X051443Y035828D01*
X051439Y035826D01*
X051433Y035825D01*
X051426Y035824D01*
X051419Y035823D01*
X051411Y035823D01*
X051409D01*
X051406Y035823D01*
X051403Y035823D01*
X051399Y035824D01*
X051395Y035825D01*
X051391Y035826D01*
X051387Y035827D01*
X051387Y035828D01*
X051385Y035828D01*
X051383Y035829D01*
X051381Y03583D01*
X051376Y035834D01*
X051374Y035836D01*
X051371Y035839D01*
X051371Y035839D01*
X051371Y03584D01*
X05137Y035842D01*
X051369Y035844D01*
X051368Y035846D01*
X051366Y03585D01*
X051365Y035853D01*
X051365Y035857D01*
Y035858D01*
X051364Y035859D01*
Y035862D01*
X051364Y035865D01*
X051364Y03587D01*
Y035876D01*
X051363Y035879D01*
Y035883D01*
Y035887D01*
Y035892D01*
Y035973D01*
X051341D01*
Y036013D01*
X051363D01*
Y03605D01*
X051412Y036078D01*
Y036013D01*
D02*
G37*
G36*
X047985Y038253D02*
X047989Y038252D01*
X047994Y038252D01*
X047998Y038251D01*
X048004Y03825D01*
X048016Y038248D01*
X048022Y038246D01*
X048028Y038244D01*
X048033Y038242D01*
X048039Y038239D01*
X048044Y038235D01*
X048049Y038232D01*
X048049Y038231D01*
X04805Y03823D01*
X048051Y038229D01*
X048053Y038228D01*
X048055Y038226D01*
X048057Y038223D01*
X048059Y03822D01*
X048062Y038217D01*
X048064Y038213D01*
X048066Y038209D01*
X048068Y038204D01*
X04807Y038199D01*
X048072Y038193D01*
X048073Y038187D01*
X048075Y038182D01*
X048075Y038175D01*
X048023Y038173D01*
Y038173D01*
Y038174D01*
X048022Y038176D01*
X048022Y03818D01*
X04802Y038184D01*
X048018Y038189D01*
X048016Y038193D01*
X048012Y038197D01*
X048009Y038201D01*
X048008Y038202D01*
X048007Y038203D01*
X048004Y038204D01*
X048001Y038206D01*
X047996Y038207D01*
X047991Y038209D01*
X047984Y03821D01*
X047976Y03821D01*
X047972D01*
X047968Y03821D01*
X047964Y038209D01*
X047958Y038208D01*
X047952Y038206D01*
X047947Y038204D01*
X047941Y0382D01*
X047941Y0382D01*
X04794Y038199D01*
X047939Y038198D01*
X047937Y038196D01*
X047936Y038194D01*
X047934Y038191D01*
X047934Y038188D01*
X047933Y038185D01*
Y038184D01*
Y038183D01*
X047934Y038181D01*
X047934Y038179D01*
X047935Y038177D01*
X047936Y038174D01*
X047938Y038172D01*
X047941Y038169D01*
X047941Y038169D01*
X047943Y038168D01*
X047944Y038167D01*
X047946Y038166D01*
X047948Y038165D01*
X04795Y038164D01*
X047953Y038163D01*
X047957Y038161D01*
X047961Y03816D01*
X047965Y038158D01*
X04797Y038157D01*
X047975Y038155D01*
X047981Y038154D01*
X047988Y038152D01*
X047988D01*
X04799Y038152D01*
X047992Y038151D01*
X047994Y03815D01*
X047997Y03815D01*
X048001Y038149D01*
X048005Y038148D01*
X048009Y038146D01*
X048018Y038143D01*
X048027Y03814D01*
X048036Y038137D01*
X04804Y038135D01*
X048043Y038133D01*
X048044D01*
X048044Y038133D01*
X048046Y038132D01*
X04805Y038129D01*
X048054Y038126D01*
X048058Y038123D01*
X048063Y038118D01*
X048068Y038113D01*
X048072Y038107D01*
X048072Y038106D01*
X048073Y038104D01*
X048075Y038101D01*
X048077Y038096D01*
X048079Y03809D01*
X048081Y038083D01*
X048082Y038075D01*
X048082Y038066D01*
Y038066D01*
Y038065D01*
Y038064D01*
Y038063D01*
X048082Y038061D01*
X048082Y038058D01*
X048081Y038053D01*
X048079Y038047D01*
X048077Y038039D01*
X048074Y038032D01*
X04807Y038025D01*
Y038025D01*
X048069Y038024D01*
X048068Y038022D01*
X048065Y038018D01*
X048061Y038014D01*
X048056Y03801D01*
X04805Y038005D01*
X048043Y038001D01*
X048035Y037997D01*
X048035D01*
X048034Y037996D01*
X048033Y037996D01*
X048031Y037995D01*
X048029Y037994D01*
X048026Y037994D01*
X048023Y037993D01*
X04802Y037992D01*
X048016Y037991D01*
X048012Y03799D01*
X048002Y037989D01*
X047991Y037988D01*
X047979Y037987D01*
X047975D01*
X047971Y037988D01*
X047967Y037988D01*
X047963Y037988D01*
X047958Y037989D01*
X047952Y03799D01*
X04794Y037993D01*
X047934Y037995D01*
X047928Y037997D01*
X047921Y037999D01*
X047915Y038002D01*
X04791Y038005D01*
X047905Y03801D01*
X047904Y03801D01*
X047904Y038011D01*
X047902Y038012D01*
X047901Y038014D01*
X047898Y038016D01*
X047896Y038019D01*
X047894Y038022D01*
X047891Y038026D01*
X047888Y038031D01*
X047886Y038035D01*
X047883Y038041D01*
X047881Y038047D01*
X047879Y038053D01*
X047877Y03806D01*
X047875Y038068D01*
X047874Y038075D01*
X047924Y03808D01*
Y03808D01*
X047925Y038079D01*
Y038078D01*
X047925Y038076D01*
X047927Y038072D01*
X047928Y038066D01*
X047931Y03806D01*
X047934Y038054D01*
X047938Y038048D01*
X047942Y038043D01*
X047943Y038042D01*
X047945Y038041D01*
X047948Y038039D01*
X047952Y038037D01*
X047958Y038035D01*
X047964Y038033D01*
X047972Y038031D01*
X04798Y038031D01*
X047984D01*
X047989Y038032D01*
X047994Y038032D01*
X048Y038034D01*
X048006Y038035D01*
X048012Y038038D01*
X048018Y038041D01*
X048018Y038042D01*
X04802Y038043D01*
X048022Y038045D01*
X048024Y038048D01*
X048026Y038052D01*
X048029Y038057D01*
X04803Y038061D01*
X048031Y038066D01*
Y038066D01*
Y038068D01*
X04803Y038069D01*
X04803Y038072D01*
X048029Y038074D01*
X048028Y038076D01*
X048027Y038079D01*
X048025Y038082D01*
X048025Y038082D01*
X048024Y038083D01*
X048023Y038084D01*
X048021Y038085D01*
X048018Y038087D01*
X048015Y038089D01*
X048011Y038091D01*
X048006Y038093D01*
X048006D01*
X048005Y038094D01*
X048002Y038094D01*
X048Y038095D01*
X047998Y038095D01*
X047995Y038096D01*
X047992Y038097D01*
X047989Y038098D01*
X047985Y038099D01*
X047981Y0381D01*
X047976Y038101D01*
X047971Y038103D01*
X047965Y038104D01*
X047965D01*
X047963Y038105D01*
X047961Y038105D01*
X047958Y038106D01*
X047955Y038107D01*
X047951Y038108D01*
X047947Y03811D01*
X047942Y038111D01*
X047932Y038115D01*
X047923Y038119D01*
X047918Y038122D01*
X047914Y038124D01*
X04791Y038127D01*
X047907Y038129D01*
X047907Y03813D01*
X047906Y038131D01*
X047905Y038132D01*
X047903Y038133D01*
X047901Y038135D01*
X0479Y038138D01*
X047897Y03814D01*
X047895Y038144D01*
X047891Y038152D01*
X047887Y03816D01*
X047886Y038165D01*
X047885Y03817D01*
X047884Y038176D01*
X047884Y038181D01*
Y038182D01*
Y038182D01*
Y038183D01*
Y038185D01*
X047884Y038188D01*
X047885Y038193D01*
X047886Y038199D01*
X047888Y038205D01*
X047891Y038212D01*
X047894Y038218D01*
Y038218D01*
X047895Y038219D01*
X047897Y038221D01*
X047899Y038224D01*
X047903Y038227D01*
X047907Y038232D01*
X047913Y038236D01*
X047919Y03824D01*
X047926Y038244D01*
X047927D01*
X047927Y038244D01*
X047928Y038244D01*
X04793Y038245D01*
X047932Y038246D01*
X047934Y038247D01*
X047937Y038247D01*
X047941Y038249D01*
X047948Y03825D01*
X047957Y038252D01*
X047966Y038253D01*
X047977Y038253D01*
X047981D01*
X047985Y038253D01*
D02*
G37*
G36*
X048499Y037992D02*
X04845D01*
Y038177D01*
X048449Y038177D01*
X048449Y038176D01*
X048447Y038175D01*
X048445Y038173D01*
X048442Y038171D01*
X048439Y038169D01*
X048436Y038166D01*
X048432Y038163D01*
X048427Y03816D01*
X048422Y038158D01*
X048417Y038154D01*
X048412Y038151D01*
X0484Y038146D01*
X048386Y03814D01*
Y038185D01*
X048387D01*
X048387Y038185D01*
X048388Y038186D01*
X04839Y038186D01*
X048394Y038188D01*
X048399Y03819D01*
X048405Y038193D01*
X048412Y038197D01*
X04842Y038202D01*
X048428Y038208D01*
X048428Y038209D01*
X048429Y038209D01*
X04843Y03821D01*
X048432Y038212D01*
X048436Y038215D01*
X04844Y03822D01*
X048445Y038226D01*
X04845Y038233D01*
X048455Y038241D01*
X048459Y03825D01*
X048499D01*
Y037992D01*
D02*
G37*
G36*
X048246Y038248D02*
X048253Y038247D01*
X04826Y038247D01*
X048267Y038246D01*
X048274Y038246D01*
X048274D01*
X048276Y038245D01*
X048279Y038244D01*
X048282Y038243D01*
X048287Y038242D01*
X048291Y03824D01*
X048296Y038238D01*
X0483Y038235D01*
X048301Y038234D01*
X048302Y038233D01*
X048304Y038232D01*
X048307Y038229D01*
X04831Y038226D01*
X048314Y038222D01*
X048317Y038218D01*
X04832Y038213D01*
X04832Y038213D01*
X048321Y038211D01*
X048322Y038208D01*
X048324Y038205D01*
X048325Y0382D01*
X048327Y038195D01*
X048328Y038189D01*
X048328Y038183D01*
Y038183D01*
Y038183D01*
Y03818D01*
X048328Y038177D01*
X048327Y038173D01*
X048325Y038168D01*
X048324Y038162D01*
X048321Y038156D01*
X048318Y03815D01*
X048318Y03815D01*
X048316Y038148D01*
X048314Y038145D01*
X048311Y038142D01*
X048308Y038139D01*
X048303Y038135D01*
X048298Y038131D01*
X048292Y038128D01*
X048292D01*
X048293Y038128D01*
X048294Y038127D01*
X048296Y038127D01*
X0483Y038125D01*
X048305Y038122D01*
X048311Y038119D01*
X048317Y038115D01*
X048323Y038111D01*
X048328Y038105D01*
X048328Y038104D01*
X04833Y038102D01*
X048332Y038098D01*
X048334Y038094D01*
X048337Y038088D01*
X048339Y038082D01*
X04834Y038074D01*
X048341Y038066D01*
Y038066D01*
Y038065D01*
Y038063D01*
X04834Y03806D01*
X048339Y038055D01*
X048339Y03805D01*
X048337Y038044D01*
X048335Y038038D01*
X048332Y038032D01*
X048332Y038031D01*
X048331Y038029D01*
X048329Y038027D01*
X048327Y038023D01*
X048324Y038018D01*
X04832Y038014D01*
X048315Y03801D01*
X04831Y038006D01*
X04831Y038005D01*
X048308Y038004D01*
X048305Y038002D01*
X048301Y038001D01*
X048295Y037998D01*
X04829Y037997D01*
X048283Y037995D01*
X048275Y037994D01*
X048274D01*
X048273Y037993D01*
X048269D01*
X048266Y037993D01*
X048259D01*
X048255Y037992D01*
X048244D01*
X048237Y037992D01*
X048126D01*
Y038248D01*
X048239D01*
X048246Y038248D01*
D02*
G37*
G36*
X052291Y039055D02*
Y039055D01*
Y039053D01*
Y039051D01*
Y039048D01*
Y039044D01*
X05229Y03904D01*
Y039035D01*
Y03903D01*
X05229Y039019D01*
X052289Y039008D01*
X052289Y039004D01*
X052288Y038999D01*
X052287Y038994D01*
X052286Y03899D01*
Y03899D01*
X052286Y038989D01*
Y038988D01*
X052286Y038987D01*
X052285Y038984D01*
X052283Y038979D01*
X052281Y038974D01*
X052278Y038969D01*
X052275Y038963D01*
X052271Y038958D01*
X05227Y038957D01*
X052269Y038956D01*
X052266Y038954D01*
X052263Y038951D01*
X052259Y038947D01*
X052253Y038944D01*
X052248Y03894D01*
X052241Y038937D01*
X052241D01*
X05224Y038937D01*
X052239Y038937D01*
X052238Y038936D01*
X052236Y038935D01*
X052234Y038935D01*
X052231Y038934D01*
X052228Y038934D01*
X052221Y038932D01*
X052212Y038931D01*
X052202Y03893D01*
X052192Y03893D01*
X052186D01*
X052182Y03893D01*
X052179D01*
X052175Y03893D01*
X052171Y038931D01*
X052162Y038931D01*
X052153Y038933D01*
X052144Y038935D01*
X05214Y038936D01*
X052136Y038938D01*
X052135D01*
X052135Y038938D01*
X052133Y038939D01*
X052129Y038941D01*
X052125Y038944D01*
X05212Y038947D01*
X052115Y038951D01*
X05211Y038955D01*
X052106Y03896D01*
X052105Y038961D01*
X052104Y038962D01*
X052102Y038965D01*
X0521Y038969D01*
X052098Y038973D01*
X052095Y038978D01*
X052093Y038983D01*
X052091Y038988D01*
Y038989D01*
X052091Y038989D01*
Y038991D01*
X052091Y038992D01*
X05209Y038995D01*
X05209Y038998D01*
X05209Y039001D01*
X052089Y039005D01*
X052088Y039009D01*
X052088Y039014D01*
X052088Y039019D01*
X052087Y039025D01*
X052087Y039031D01*
Y039038D01*
X052087Y039046D01*
Y039053D01*
Y03919D01*
X052138D01*
Y039051D01*
Y039051D01*
Y03905D01*
Y039048D01*
Y039046D01*
Y039043D01*
Y03904D01*
X052139Y039033D01*
Y039026D01*
X052139Y039019D01*
X05214Y039016D01*
Y039013D01*
X05214Y039011D01*
X05214Y039008D01*
Y039008D01*
X052141Y039006D01*
X052142Y039003D01*
X052144Y038999D01*
X052145Y038995D01*
X052148Y038991D01*
X052152Y038986D01*
X052156Y038983D01*
X052157Y038982D01*
X052158Y038981D01*
X052161Y03898D01*
X052165Y038978D01*
X05217Y038977D01*
X052176Y038975D01*
X052182Y038974D01*
X05219Y038974D01*
X052194D01*
X052198Y038974D01*
X052202Y038975D01*
X052208Y038976D01*
X052213Y038977D01*
X052219Y038979D01*
X052223Y038982D01*
X052224Y038983D01*
X052225Y038984D01*
X052227Y038986D01*
X052229Y038988D01*
X052231Y038992D01*
X052234Y038995D01*
X052235Y038999D01*
X052236Y039004D01*
Y039005D01*
X052237Y039007D01*
X052237Y03901D01*
X052238Y039015D01*
Y039018D01*
X052238Y039021D01*
Y039025D01*
X052239Y039028D01*
Y039033D01*
X052239Y039038D01*
Y039043D01*
Y039048D01*
Y03919D01*
X052291D01*
Y039055D01*
D02*
G37*
G36*
X05246Y038934D02*
X052411D01*
Y03912D01*
X05241Y039119D01*
X05241Y039119D01*
X052408Y039117D01*
X052406Y039116D01*
X052403Y039113D01*
X0524Y039111D01*
X052397Y039109D01*
X052393Y039106D01*
X052388Y039103D01*
X052383Y0391D01*
X052378Y039096D01*
X052373Y039093D01*
X052361Y039088D01*
X052347Y039083D01*
Y039127D01*
X052348D01*
X052348Y039127D01*
X052349Y039128D01*
X052351Y039128D01*
X052354Y03913D01*
X05236Y039132D01*
X052366Y039135D01*
X052373Y039139D01*
X052381Y039144D01*
X052389Y03915D01*
X052389Y039151D01*
X05239Y039151D01*
X052391Y039152D01*
X052393Y039154D01*
X052397Y039157D01*
X052401Y039162D01*
X052406Y039168D01*
X052411Y039176D01*
X052416Y039183D01*
X05242Y039192D01*
X05246D01*
Y038934D01*
D02*
G37*
G36*
X047972Y0376D02*
X047975Y037599D01*
X047978Y037599D01*
X047982Y037598D01*
X047986Y037597D01*
X047996Y037594D01*
X048Y037593D01*
X048006Y03759D01*
X04801Y037587D01*
X048015Y037585D01*
X04802Y037581D01*
X048024Y037577D01*
X048024Y037576D01*
X048024Y037576D01*
X048026Y037575D01*
X048027Y037573D01*
X04803Y03757D01*
X048033Y037565D01*
X048036Y037558D01*
X048039Y037551D01*
X048041Y037543D01*
X048041Y037539D01*
X048042Y037534D01*
Y037534D01*
Y037533D01*
X048041Y037531D01*
X048041Y037529D01*
X048041Y037526D01*
X04804Y037522D01*
X048039Y037519D01*
X048037Y037515D01*
X048035Y03751D01*
X048033Y037506D01*
X04803Y037502D01*
X048026Y037497D01*
X048022Y037493D01*
X048017Y037488D01*
X048011Y037484D01*
X048005Y03748D01*
X048005D01*
X048006Y03748D01*
X048007D01*
X048009Y037479D01*
X048013Y037478D01*
X048017Y037476D01*
X048023Y037473D01*
X048029Y037469D01*
X048035Y037464D01*
X04804Y037459D01*
X048041Y037458D01*
X048042Y037456D01*
X048044Y037452D01*
X048047Y037448D01*
X048049Y037442D01*
X048051Y037435D01*
X048053Y037428D01*
X048053Y037419D01*
Y037419D01*
Y037418D01*
Y037416D01*
X048053Y037414D01*
X048053Y037411D01*
X048052Y037407D01*
X048051Y037403D01*
X04805Y037399D01*
X048047Y03739D01*
X048045Y037385D01*
X048043Y03738D01*
X04804Y037375D01*
X048037Y037371D01*
X048033Y037366D01*
X048029Y037361D01*
X048028Y037361D01*
X048027Y03736D01*
X048026Y037359D01*
X048024Y037358D01*
X048021Y037356D01*
X048019Y037354D01*
X048015Y037352D01*
X048011Y03735D01*
X048007Y037347D01*
X048003Y037345D01*
X047997Y037343D01*
X047992Y037341D01*
X047986Y03734D01*
X04798Y037339D01*
X047974Y037338D01*
X047967Y037338D01*
X047964D01*
X047961Y037338D01*
X047958Y037338D01*
X047955Y037339D01*
X047951Y03734D01*
X047947Y03734D01*
X047938Y037343D01*
X047928Y037346D01*
X047923Y037348D01*
X047919Y037351D01*
X047914Y037354D01*
X047909Y037358D01*
X047909Y037358D01*
X047908Y037359D01*
X047907Y03736D01*
X047906Y037361D01*
X047904Y037363D01*
X047902Y037366D01*
X0479Y037368D01*
X047898Y037372D01*
X047895Y037375D01*
X047893Y037379D01*
X047889Y037388D01*
X047885Y037398D01*
X047884Y037404D01*
X047883Y03741D01*
X04793Y037416D01*
Y037415D01*
Y037415D01*
X047931Y037413D01*
X047932Y037409D01*
X047933Y037405D01*
X047935Y037401D01*
X047936Y037396D01*
X047939Y037392D01*
X047943Y037388D01*
X047943Y037387D01*
X047945Y037386D01*
X047947Y037385D01*
X047949Y037383D01*
X047953Y037381D01*
X047957Y03738D01*
X047962Y037379D01*
X047967Y037378D01*
X047967D01*
X047969Y037379D01*
X047972Y037379D01*
X047976Y03738D01*
X04798Y037381D01*
X047984Y037383D01*
X047988Y037386D01*
X047992Y03739D01*
X047993Y03739D01*
X047994Y037392D01*
X047996Y037395D01*
X047998Y037398D01*
X048Y037402D01*
X048001Y037408D01*
X048003Y037414D01*
X048003Y037421D01*
Y037422D01*
Y037422D01*
Y037424D01*
X048003Y037428D01*
X048002Y037432D01*
X048Y037437D01*
X047999Y037442D01*
X047996Y037446D01*
X047993Y037451D01*
X047992Y037451D01*
X047991Y037453D01*
X047989Y037455D01*
X047986Y037456D01*
X047982Y037459D01*
X047978Y03746D01*
X047974Y037462D01*
X047969Y037462D01*
X047965D01*
X047962Y037462D01*
X047959Y037461D01*
X047955Y037461D01*
X047951Y037459D01*
X047946Y037458D01*
X047951Y037498D01*
X047955D01*
X047958Y037498D01*
X047963Y037499D01*
X047967Y0375D01*
X047973Y037501D01*
X047977Y037503D01*
X047982Y037506D01*
X047982Y037507D01*
X047984Y037508D01*
X047985Y03751D01*
X047987Y037513D01*
X047989Y037516D01*
X047991Y03752D01*
X047992Y037525D01*
X047993Y037531D01*
Y037532D01*
Y037533D01*
X047992Y037535D01*
X047992Y037538D01*
X047991Y037542D01*
X047989Y037545D01*
X047987Y037549D01*
X047985Y037552D01*
X047984Y037552D01*
X047983Y037553D01*
X047982Y037554D01*
X047979Y037556D01*
X047976Y037557D01*
X047973Y037558D01*
X047969Y037559D01*
X047964Y037559D01*
X047962D01*
X04796Y037559D01*
X047957Y037558D01*
X047953Y037557D01*
X04795Y037556D01*
X047946Y037553D01*
X047943Y03755D01*
X047942Y03755D01*
X047941Y037549D01*
X04794Y037547D01*
X047938Y037544D01*
X047936Y03754D01*
X047935Y037536D01*
X047933Y037531D01*
X047932Y037525D01*
X047887Y037532D01*
Y037533D01*
X047887Y037533D01*
Y037535D01*
X047888Y037536D01*
X047889Y03754D01*
X04789Y037546D01*
X047892Y037552D01*
X047895Y037558D01*
X047898Y037564D01*
X047901Y03757D01*
X047901Y03757D01*
X047903Y037572D01*
X047905Y037575D01*
X047908Y037578D01*
X047912Y037581D01*
X047916Y037585D01*
X047922Y037589D01*
X047928Y037592D01*
X047928D01*
X047928Y037592D01*
X04793Y037593D01*
X047934Y037594D01*
X047939Y037596D01*
X047944Y037597D01*
X047951Y037599D01*
X047958Y0376D01*
X047966Y0376D01*
X047969D01*
X047972Y0376D01*
D02*
G37*
G36*
X047757Y037598D02*
X047761D01*
X047765Y037598D01*
X04777D01*
X047779Y037597D01*
X047789Y037596D01*
X047798Y037594D01*
X047802Y037593D01*
X047806Y037592D01*
X047807D01*
X047807Y037591D01*
X047809Y03759D01*
X047812Y037588D01*
X047817Y037586D01*
X047822Y037582D01*
X047826Y037578D01*
X047831Y037573D01*
X047836Y037567D01*
Y037566D01*
X047836Y037566D01*
X047837Y037565D01*
X047838Y037564D01*
X047839Y03756D01*
X047842Y037555D01*
X047844Y037549D01*
X047845Y037543D01*
X047847Y037535D01*
X047847Y037527D01*
Y037526D01*
Y037526D01*
Y037524D01*
X047847Y037522D01*
Y037519D01*
X047846Y037517D01*
X047845Y03751D01*
X047843Y037502D01*
X04784Y037495D01*
X047836Y037486D01*
X047833Y037483D01*
X04783Y037479D01*
X04783Y037479D01*
X047829Y037478D01*
X047828Y037477D01*
X047827Y037476D01*
X047825Y037475D01*
X047823Y037473D01*
X047821Y037471D01*
X047818Y037469D01*
X047814Y037467D01*
X04781Y037465D01*
X047806Y037463D01*
X047802Y037461D01*
X047797Y037459D01*
X047791Y037458D01*
X047786Y037456D01*
X047779Y037455D01*
X04778D01*
X04778Y037455D01*
X047782Y037454D01*
X047785Y037452D01*
X047789Y037449D01*
X047794Y037446D01*
X047798Y037442D01*
X047803Y037438D01*
X047807Y037434D01*
X047807Y037434D01*
X047809Y037432D01*
X047811Y037429D01*
X047815Y037424D01*
X047819Y037419D01*
X047821Y037415D01*
X047824Y037411D01*
X047827Y037407D01*
X04783Y037403D01*
X047833Y037398D01*
X047836Y037392D01*
X047868Y037343D01*
X047806D01*
X047769Y037398D01*
X047768Y037398D01*
X047768Y037399D01*
X047767Y037401D01*
X047765Y037403D01*
X047764Y037405D01*
X047762Y037408D01*
X047758Y037414D01*
X047753Y037421D01*
X047749Y037427D01*
X047745Y037432D01*
X047743Y037434D01*
X047741Y037436D01*
X047741Y037436D01*
X04774Y037437D01*
X047739Y037438D01*
X047737Y03744D01*
X047734Y037442D01*
X047732Y037444D01*
X047729Y037445D01*
X047726Y037446D01*
X047725D01*
X047724Y037447D01*
X047723Y037448D01*
X04772Y037448D01*
X047716Y037449D01*
X047711Y037449D01*
X047706Y037449D01*
X04769D01*
Y037343D01*
X047638D01*
Y037599D01*
X047753D01*
X047757Y037598D01*
D02*
G37*
G36*
X051519Y038879D02*
X051522Y038879D01*
X051526Y038878D01*
X05153Y038878D01*
X051534Y038877D01*
X051544Y038874D01*
X051554Y038871D01*
X051559Y038868D01*
X051563Y038866D01*
X051568Y038863D01*
X051572Y038859D01*
X051573Y038858D01*
X051573Y038858D01*
X051574Y038857D01*
X051576Y038855D01*
X051577Y038853D01*
X051579Y038851D01*
X051581Y038848D01*
X051583Y038845D01*
X051587Y038837D01*
X051591Y038829D01*
X051592Y038824D01*
X051593Y038819D01*
X051594Y038813D01*
X051594Y038808D01*
Y038807D01*
Y038805D01*
X051594Y038802D01*
X051593Y038797D01*
X051593Y038792D01*
X051591Y038787D01*
X05159Y038781D01*
X051588Y038775D01*
X051587Y038774D01*
X051587Y038772D01*
X051585Y038769D01*
X051583Y038765D01*
X05158Y03876D01*
X051577Y038755D01*
X051573Y038749D01*
X051568Y038742D01*
X051568Y038742D01*
X051566Y03874D01*
X051564Y038737D01*
X051561Y038734D01*
X051556Y038729D01*
X051551Y038723D01*
X051544Y038717D01*
X051536Y038709D01*
X051536Y038709D01*
X051535Y038709D01*
X051534Y038708D01*
X051532Y038706D01*
X051528Y038702D01*
X051523Y038698D01*
X051519Y038693D01*
X051514Y038688D01*
X051509Y038684D01*
X051508Y038682D01*
X051506Y038681D01*
X051506Y038681D01*
X051505Y03868D01*
X051504Y038678D01*
X051503Y038676D01*
X051499Y038672D01*
X051496Y038668D01*
X051594D01*
Y038622D01*
X051422D01*
Y038622D01*
Y038623D01*
X051422Y038625D01*
X051423Y038626D01*
X051423Y038629D01*
X051423Y038631D01*
X051425Y038638D01*
X051427Y038645D01*
X05143Y038654D01*
X051434Y038662D01*
X051439Y038671D01*
Y038671D01*
X051439Y038672D01*
X05144Y038673D01*
X051442Y038675D01*
X051443Y038678D01*
X051445Y03868D01*
X051448Y038683D01*
X051451Y038687D01*
X051454Y038692D01*
X051458Y038696D01*
X051463Y038701D01*
X051468Y038707D01*
X051473Y038712D01*
X05148Y038719D01*
X051486Y038725D01*
X051494Y038732D01*
X051494Y038733D01*
X051495Y038734D01*
X051497Y038735D01*
X051499Y038737D01*
X051502Y03874D01*
X051505Y038743D01*
X051512Y038749D01*
X051518Y038756D01*
X051525Y038763D01*
X051528Y038766D01*
X051531Y03877D01*
X051533Y038772D01*
X051534Y038774D01*
X051535Y038775D01*
X051536Y038777D01*
X051538Y03878D01*
X05154Y038784D01*
X051541Y038789D01*
X051543Y038794D01*
X051544Y038799D01*
X051545Y038804D01*
Y038805D01*
Y038805D01*
Y038807D01*
X051544Y03881D01*
X051544Y038814D01*
X051543Y038818D01*
X051541Y038822D01*
X051539Y038826D01*
X051536Y03883D01*
X051536Y03883D01*
X051534Y038831D01*
X051532Y038833D01*
X05153Y038834D01*
X051526Y038836D01*
X051522Y038837D01*
X051517Y038839D01*
X051512Y038839D01*
X051509D01*
X051506Y038839D01*
X051503Y038838D01*
X051499Y038837D01*
X051494Y038835D01*
X05149Y038833D01*
X051487Y03883D01*
X051486Y038829D01*
X051485Y038828D01*
X051484Y038826D01*
X051482Y038822D01*
X05148Y038818D01*
X051479Y038813D01*
X051477Y038806D01*
X051477Y038799D01*
X051428Y038804D01*
Y038804D01*
X051428Y038806D01*
Y038807D01*
X051429Y03881D01*
X051429Y038814D01*
X05143Y038817D01*
X051432Y038821D01*
X051433Y038826D01*
X051436Y038836D01*
X051441Y038845D01*
X051444Y03885D01*
X051447Y038854D01*
X051451Y038858D01*
X051455Y038862D01*
X051455Y038862D01*
X051456Y038863D01*
X051457Y038863D01*
X051459Y038865D01*
X051461Y038866D01*
X051464Y038867D01*
X051467Y038869D01*
X051471Y038871D01*
X051475Y038873D01*
X051479Y038874D01*
X051489Y038877D01*
X0515Y038879D01*
X051506Y038879D01*
X051513Y03888D01*
X051516D01*
X051519Y038879D01*
D02*
G37*
G36*
X0513Y038878D02*
X051304D01*
X051308Y038877D01*
X051313D01*
X051322Y038876D01*
X051332Y038875D01*
X051342Y038873D01*
X051346Y038872D01*
X051349Y038871D01*
X05135D01*
X05135Y038871D01*
X051352Y03887D01*
X051356Y038868D01*
X05136Y038866D01*
X051365Y038862D01*
X05137Y038858D01*
X051375Y038853D01*
X051379Y038846D01*
Y038846D01*
X051379Y038846D01*
X05138Y038844D01*
X051381Y038843D01*
X051383Y03884D01*
X051385Y038835D01*
X051387Y038829D01*
X051389Y038822D01*
X05139Y038814D01*
X051391Y038806D01*
Y038806D01*
Y038805D01*
Y038803D01*
X05139Y038802D01*
Y038799D01*
X05139Y038796D01*
X051388Y03879D01*
X051386Y038782D01*
X051383Y038774D01*
X051379Y038766D01*
X051376Y038762D01*
X051374Y038759D01*
X051373Y038758D01*
X051373Y038758D01*
X051372Y038757D01*
X05137Y038756D01*
X051369Y038754D01*
X051366Y038752D01*
X051364Y03875D01*
X051361Y038749D01*
X051358Y038746D01*
X051354Y038745D01*
X051349Y038743D01*
X051345Y038741D01*
X05134Y038739D01*
X051335Y038737D01*
X051329Y038736D01*
X051323Y038735D01*
X051323D01*
X051324Y038735D01*
X051326Y038733D01*
X051329Y038731D01*
X051332Y038729D01*
X051337Y038725D01*
X051341Y038722D01*
X051346Y038718D01*
X05135Y038713D01*
X051351Y038713D01*
X051352Y038711D01*
X051355Y038708D01*
X051358Y038704D01*
X051362Y038698D01*
X051365Y038695D01*
X051367Y038691D01*
X05137Y038687D01*
X051373Y038682D01*
X051376Y038677D01*
X05138Y038672D01*
X051411Y038622D01*
X051349D01*
X051312Y038678D01*
X051312Y038678D01*
X051311Y038679D01*
X05131Y038681D01*
X051309Y038682D01*
X051307Y038685D01*
X051305Y038688D01*
X051301Y038693D01*
X051297Y0387D01*
X051292Y038706D01*
X051288Y038712D01*
X051286Y038713D01*
X051285Y038715D01*
X051284Y038716D01*
X051284Y038716D01*
X051282Y038718D01*
X05128Y03872D01*
X051278Y038721D01*
X051275Y038723D01*
X051272Y038725D01*
X051269Y038726D01*
X051269D01*
X051268Y038726D01*
X051266Y038727D01*
X051263Y038728D01*
X051259Y038728D01*
X051255Y038729D01*
X05125Y038729D01*
X051233D01*
Y038622D01*
X051181D01*
Y038878D01*
X051297D01*
X0513Y038878D01*
D02*
G37*
G36*
X049073Y035515D02*
X049024D01*
Y0357D01*
X049024Y0357D01*
X049023Y035699D01*
X049022Y035698D01*
X049019Y035696D01*
X049017Y035694D01*
X049014Y035692D01*
X04901Y035689D01*
X049006Y035686D01*
X049002Y035683D01*
X048997Y03568D01*
X048992Y035677D01*
X048986Y035674D01*
X048974Y035669D01*
X048961Y035663D01*
Y035708D01*
X048961D01*
X048962Y035708D01*
X048963Y035709D01*
X048964Y035709D01*
X048968Y035711D01*
X048973Y035713D01*
X048979Y035716D01*
X048986Y03572D01*
X048994Y035725D01*
X049002Y035731D01*
X049003Y035732D01*
X049003Y035732D01*
X049005Y035733D01*
X049006Y035735D01*
X04901Y035738D01*
X049015Y035743D01*
X04902Y035749D01*
X049025Y035756D01*
X04903Y035764D01*
X049033Y035773D01*
X049073D01*
Y035515D01*
D02*
G37*
G36*
X04882Y035771D02*
X048824D01*
X048828Y03577D01*
X048833D01*
X048842Y035769D01*
X048852Y035768D01*
X048861Y035766D01*
X048865Y035765D01*
X048869Y035764D01*
X04887D01*
X04887Y035764D01*
X048872Y035763D01*
X048875Y035761D01*
X04888Y035759D01*
X048885Y035755D01*
X048889Y035751D01*
X048894Y035746D01*
X048899Y035739D01*
Y035739D01*
X048899Y035739D01*
X0489Y035737D01*
X048901Y035736D01*
X048902Y035733D01*
X048905Y035728D01*
X048907Y035722D01*
X048908Y035715D01*
X04891Y035708D01*
X04891Y035699D01*
Y035699D01*
Y035698D01*
Y035696D01*
X04891Y035695D01*
Y035692D01*
X048909Y035689D01*
X048908Y035683D01*
X048906Y035675D01*
X048903Y035667D01*
X048899Y035659D01*
X048896Y035655D01*
X048893Y035652D01*
X048893Y035651D01*
X048892Y035651D01*
X048891Y03565D01*
X04889Y035649D01*
X048888Y035647D01*
X048886Y035645D01*
X048884Y035643D01*
X048881Y035642D01*
X048877Y035639D01*
X048873Y035638D01*
X048869Y035636D01*
X048865Y035634D01*
X04886Y035632D01*
X048854Y035631D01*
X048849Y035629D01*
X048843Y035628D01*
X048843D01*
X048843Y035628D01*
X048845Y035626D01*
X048848Y035624D01*
X048852Y035622D01*
X048857Y035618D01*
X048861Y035615D01*
X048866Y035611D01*
X04887Y035607D01*
X04887Y035606D01*
X048872Y035604D01*
X048874Y035601D01*
X048878Y035597D01*
X048882Y035591D01*
X048884Y035588D01*
X048887Y035584D01*
X04889Y03558D01*
X048893Y035575D01*
X048896Y03557D01*
X048899Y035565D01*
X048931Y035515D01*
X048869D01*
X048832Y035571D01*
X048831Y035571D01*
X048831Y035572D01*
X04883Y035574D01*
X048828Y035575D01*
X048827Y035578D01*
X048825Y035581D01*
X048821Y035587D01*
X048816Y035593D01*
X048812Y035599D01*
X048808Y035605D01*
X048806Y035607D01*
X048804Y035608D01*
X048804Y035609D01*
X048803Y035609D01*
X048802Y035611D01*
X0488Y035613D01*
X048797Y035614D01*
X048795Y035616D01*
X048792Y035618D01*
X048789Y035619D01*
X048788D01*
X048787Y035619D01*
X048786Y03562D01*
X048783Y035621D01*
X048779Y035621D01*
X048774Y035622D01*
X048769Y035622D01*
X048753D01*
Y035515D01*
X048701D01*
Y035771D01*
X048816D01*
X04882Y035771D01*
D02*
G37*
G36*
X048813Y03968D02*
X048817Y039679D01*
X048822Y039679D01*
X048827Y039678D01*
X048832Y039677D01*
X048838Y039675D01*
X048845Y039673D01*
X048851Y039671D01*
X048858Y039668D01*
X048864Y039665D01*
X04887Y039662D01*
X048876Y039657D01*
X048882Y039652D01*
X048882D01*
X048882Y039652D01*
X048883Y039651D01*
X048885Y039649D01*
X048886Y039648D01*
X048887Y039645D01*
X048892Y03964D01*
X048896Y039634D01*
X0489Y039625D01*
X048904Y039616D01*
X048908Y039605D01*
X048857Y039593D01*
Y039594D01*
X048856Y039594D01*
Y039595D01*
X048856Y039597D01*
X048855Y0396D01*
X048853Y039604D01*
X04885Y039609D01*
X048847Y039615D01*
X048842Y03962D01*
X048838Y039624D01*
X048837Y039625D01*
X048835Y039626D01*
X048832Y039628D01*
X048828Y03963D01*
X048823Y039632D01*
X048817Y039634D01*
X04881Y039636D01*
X048803Y039636D01*
X0488D01*
X048798Y039636D01*
X048796Y039635D01*
X048793Y039635D01*
X048786Y039634D01*
X048779Y039631D01*
X048771Y039627D01*
X048767Y039625D01*
X048764Y039622D01*
X04876Y039619D01*
X048756Y039615D01*
Y039615D01*
X048756Y039614D01*
X048755Y039613D01*
X048754Y039611D01*
X048752Y039609D01*
X048751Y039607D01*
X048749Y039603D01*
X048748Y039599D01*
X048746Y039595D01*
X048745Y03959D01*
X048743Y039585D01*
X048742Y039579D01*
X048741Y039572D01*
X04874Y039565D01*
X048739Y039557D01*
X048739Y039549D01*
Y039548D01*
Y039547D01*
Y039544D01*
X048739Y039541D01*
Y039537D01*
X04874Y039532D01*
X048741Y039527D01*
X048741Y039522D01*
X048744Y03951D01*
X048747Y039499D01*
X048748Y039493D01*
X048751Y039488D01*
X048754Y039483D01*
X048756Y039479D01*
X048757Y039479D01*
X048757Y039478D01*
X048758Y039477D01*
X04876Y039476D01*
X048764Y039473D01*
X048769Y039469D01*
X048775Y039465D01*
X048783Y039462D01*
X048792Y03946D01*
X048796Y039459D01*
X048802Y039459D01*
X048803D01*
X048805Y039459D01*
X048809Y03946D01*
X048814Y03946D01*
X048819Y039462D01*
X048825Y039464D01*
X048831Y039467D01*
X048837Y039472D01*
X048838Y039473D01*
X048839Y039474D01*
X048842Y039477D01*
X048845Y039482D01*
X048849Y039488D01*
X048852Y039495D01*
X048855Y039503D01*
X048858Y039513D01*
X048909Y039498D01*
Y039497D01*
X048908Y039496D01*
X048907Y039494D01*
X048906Y039491D01*
X048905Y039487D01*
X048903Y039483D01*
X048902Y039479D01*
X048899Y039474D01*
X048894Y039464D01*
X048887Y039454D01*
X048879Y039444D01*
X048875Y039439D01*
X04887Y039435D01*
X04887Y039435D01*
X048869Y039434D01*
X048868Y039433D01*
X048865Y039432D01*
X048863Y03943D01*
X048859Y039429D01*
X048856Y039427D01*
X048852Y039425D01*
X048847Y039423D01*
X048842Y039421D01*
X048836Y03942D01*
X04883Y039418D01*
X048824Y039417D01*
X048817Y039416D01*
X04881Y039415D01*
X048802Y039415D01*
X0488D01*
X048797Y039415D01*
X048794Y039416D01*
X048789Y039416D01*
X048784Y039417D01*
X048779Y039418D01*
X048772Y039419D01*
X048766Y039421D01*
X048759Y039423D01*
X048752Y039426D01*
X048745Y03943D01*
X048738Y039433D01*
X048731Y039438D01*
X048725Y039443D01*
X048718Y03945D01*
X048718Y03945D01*
X048717Y039451D01*
X048715Y039453D01*
X048713Y039456D01*
X048711Y03946D01*
X048708Y039464D01*
X048705Y039469D01*
X048702Y039475D01*
X048699Y039481D01*
X048696Y039488D01*
X048693Y039496D01*
X048691Y039505D01*
X048689Y039514D01*
X048687Y039524D01*
X048686Y039534D01*
X048686Y039545D01*
Y039545D01*
Y039546D01*
Y039548D01*
X048686Y039551D01*
Y039556D01*
X048687Y039561D01*
X048688Y039567D01*
X048688Y039574D01*
X04869Y039582D01*
X048692Y039589D01*
X048694Y039598D01*
X048697Y039606D01*
X0487Y039614D01*
X048704Y039622D01*
X048708Y03963D01*
X048713Y039638D01*
X048719Y039645D01*
X048719Y039645D01*
X04872Y039646D01*
X048722Y039648D01*
X048725Y03965D01*
X048728Y039653D01*
X048732Y039656D01*
X048737Y039659D01*
X048742Y039662D01*
X048748Y039666D01*
X048754Y039669D01*
X048762Y039672D01*
X048769Y039675D01*
X048778Y039677D01*
X048786Y039679D01*
X048796Y03968D01*
X048805Y03968D01*
X04881D01*
X048813Y03968D01*
D02*
G37*
G36*
X049029Y039676D02*
X049032Y039676D01*
X049035Y039676D01*
X04904Y039675D01*
X049044Y039674D01*
X049053Y039671D01*
X049058Y039669D01*
X049063Y039667D01*
X049068Y039664D01*
X049072Y039661D01*
X049077Y039658D01*
X049081Y039653D01*
X049081Y039653D01*
X049082Y039653D01*
X049083Y039652D01*
X049084Y03965D01*
X049087Y039646D01*
X04909Y039641D01*
X049094Y039635D01*
X049096Y039628D01*
X049098Y039619D01*
X049099Y039615D01*
X049099Y039611D01*
Y039611D01*
Y039609D01*
X049099Y039608D01*
X049098Y039605D01*
X049098Y039602D01*
X049097Y039599D01*
X049096Y039595D01*
X049095Y039591D01*
X049092Y039587D01*
X04909Y039583D01*
X049087Y039578D01*
X049084Y039574D01*
X049079Y03957D01*
X049074Y039565D01*
X049069Y039561D01*
X049062Y039557D01*
X049062D01*
X049063Y039557D01*
X049064D01*
X049066Y039556D01*
X04907Y039555D01*
X049075Y039552D01*
X04908Y03955D01*
X049086Y039546D01*
X049092Y039541D01*
X049097Y039535D01*
X049098Y039535D01*
X049099Y039533D01*
X049101Y039529D01*
X049104Y039524D01*
X049107Y039519D01*
X049108Y039512D01*
X04911Y039504D01*
X049111Y039496D01*
Y039496D01*
Y039494D01*
Y039493D01*
X04911Y03949D01*
X04911Y039487D01*
X049109Y039484D01*
X049108Y03948D01*
X049108Y039476D01*
X049105Y039467D01*
X049102Y039462D01*
X0491Y039457D01*
X049097Y039452D01*
X049094Y039447D01*
X04909Y039443D01*
X049086Y039438D01*
X049085Y039438D01*
X049085Y039437D01*
X049083Y039436D01*
X049081Y039434D01*
X049079Y039433D01*
X049076Y039431D01*
X049072Y039429D01*
X049069Y039426D01*
X049065Y039424D01*
X04906Y039422D01*
X049055Y03942D01*
X04905Y039418D01*
X049044Y039417D01*
X049038Y039416D01*
X049031Y039415D01*
X049024Y039414D01*
X049021D01*
X049018Y039415D01*
X049015Y039415D01*
X049012Y039416D01*
X049008Y039416D01*
X049004Y039417D01*
X048995Y039419D01*
X048986Y039423D01*
X04898Y039425D01*
X048976Y039428D01*
X048971Y039431D01*
X048967Y039434D01*
X048966Y039435D01*
X048966Y039436D01*
X048964Y039437D01*
X048963Y039438D01*
X048961Y03944D01*
X048959Y039443D01*
X048957Y039445D01*
X048955Y039449D01*
X048953Y039452D01*
X04895Y039456D01*
X048946Y039465D01*
X048943Y039475D01*
X048941Y039481D01*
X04894Y039487D01*
X048988Y039493D01*
Y039492D01*
Y039492D01*
X048988Y03949D01*
X048989Y039486D01*
X04899Y039482D01*
X048992Y039478D01*
X048994Y039473D01*
X048997Y039469D01*
X049Y039464D01*
X049Y039464D01*
X049002Y039463D01*
X049004Y039461D01*
X049007Y03946D01*
X04901Y039458D01*
X049014Y039457D01*
X049019Y039456D01*
X049024Y039455D01*
X049025D01*
X049027Y039456D01*
X049029Y039456D01*
X049033Y039457D01*
X049037Y039458D01*
X049041Y03946D01*
X049045Y039463D01*
X04905Y039467D01*
X04905Y039467D01*
X049051Y039469D01*
X049053Y039471D01*
X049055Y039475D01*
X049057Y039479D01*
X049059Y039485D01*
X04906Y039491D01*
X04906Y039498D01*
Y039498D01*
Y039499D01*
Y039501D01*
X04906Y039504D01*
X049059Y039509D01*
X049058Y039514D01*
X049056Y039518D01*
X049053Y039523D01*
X04905Y039528D01*
X04905Y039528D01*
X049048Y03953D01*
X049046Y039531D01*
X049043Y039533D01*
X04904Y039535D01*
X049035Y039537D01*
X049031Y039538D01*
X049026Y039539D01*
X049022D01*
X04902Y039538D01*
X049016Y039538D01*
X049012Y039537D01*
X049008Y039536D01*
X049003Y039535D01*
X049008Y039575D01*
X049012D01*
X049015Y039575D01*
X04902Y039575D01*
X049025Y039577D01*
X04903Y039578D01*
X049035Y03958D01*
X049039Y039583D01*
X04904Y039584D01*
X049041Y039585D01*
X049043Y039587D01*
X049045Y03959D01*
X049047Y039593D01*
X049048Y039597D01*
X04905Y039602D01*
X04905Y039608D01*
Y039608D01*
Y03961D01*
X04905Y039612D01*
X049049Y039615D01*
X049048Y039618D01*
X049047Y039622D01*
X049045Y039625D01*
X049042Y039628D01*
X049042Y039629D01*
X049041Y039629D01*
X049039Y039631D01*
X049037Y039632D01*
X049034Y039634D01*
X04903Y039635D01*
X049026Y039636D01*
X049021Y039636D01*
X049019D01*
X049017Y039636D01*
X049014Y039635D01*
X049011Y039634D01*
X049007Y039632D01*
X049003Y03963D01*
X049Y039627D01*
X049Y039627D01*
X048998Y039626D01*
X048997Y039624D01*
X048995Y039621D01*
X048993Y039617D01*
X048992Y039613D01*
X04899Y039608D01*
X048989Y039602D01*
X048944Y039609D01*
Y039609D01*
X048944Y03961D01*
Y039611D01*
X048945Y039613D01*
X048946Y039617D01*
X048947Y039623D01*
X04895Y039629D01*
X048952Y039635D01*
X048955Y039641D01*
X048958Y039646D01*
X048959Y039647D01*
X04896Y039649D01*
X048962Y039651D01*
X048965Y039655D01*
X048969Y039658D01*
X048973Y039662D01*
X048979Y039665D01*
X048985Y039669D01*
X048985D01*
X048986Y039669D01*
X048988Y03967D01*
X048991Y039671D01*
X048996Y039673D01*
X049001Y039674D01*
X049008Y039676D01*
X049015Y039676D01*
X049023Y039677D01*
X049026D01*
X049029Y039676D01*
D02*
G37*
G36*
X053041Y036897D02*
X053045Y036897D01*
X053049Y036896D01*
X053054Y036895D01*
X05306Y036894D01*
X053066Y036893D01*
X053072Y036891D01*
X053078Y036889D01*
X053085Y036886D01*
X053091Y036883D01*
X053097Y036879D01*
X053104Y036874D01*
X053109Y03687D01*
X053109D01*
X05311Y036869D01*
X053111Y036868D01*
X053112Y036867D01*
X053114Y036865D01*
X053115Y036863D01*
X053119Y036857D01*
X053123Y036851D01*
X053128Y036843D01*
X053132Y036833D01*
X053135Y036823D01*
X053084Y03681D01*
Y036811D01*
X053084Y036811D01*
Y036812D01*
X053083Y036814D01*
X053082Y036817D01*
X05308Y036822D01*
X053078Y036827D01*
X053074Y036832D01*
X05307Y036837D01*
X053065Y036842D01*
X053064Y036842D01*
X053063Y036843D01*
X05306Y036845D01*
X053055Y036847D01*
X05305Y03685D01*
X053044Y036852D01*
X053038Y036853D01*
X05303Y036853D01*
X053028D01*
X053025Y036853D01*
X053023Y036853D01*
X05302Y036852D01*
X053014Y036851D01*
X053007Y036848D01*
X052999Y036844D01*
X052995Y036842D01*
X052991Y03684D01*
X052987Y036836D01*
X052984Y036833D01*
Y036832D01*
X052983Y036832D01*
X052983Y03683D01*
X052981Y036829D01*
X05298Y036826D01*
X052979Y036824D01*
X052977Y03682D01*
X052976Y036817D01*
X052974Y036812D01*
X052972Y036807D01*
X052971Y036802D01*
X052969Y036796D01*
X052968Y036789D01*
X052967Y036782D01*
X052967Y036775D01*
X052967Y036766D01*
Y036766D01*
Y036764D01*
Y036761D01*
X052967Y036758D01*
Y036754D01*
X052968Y036749D01*
X052968Y036745D01*
X052969Y036739D01*
X052971Y036728D01*
X052974Y036716D01*
X052976Y036711D01*
X052979Y036705D01*
X052981Y036701D01*
X052984Y036696D01*
X052984Y036696D01*
X052985Y036696D01*
X052986Y036695D01*
X052987Y036693D01*
X052991Y03669D01*
X052996Y036686D01*
X053003Y036682D01*
X05301Y036679D01*
X053019Y036677D01*
X053024Y036676D01*
X053029Y036676D01*
X053031D01*
X053033Y036676D01*
X053037Y036677D01*
X053041Y036678D01*
X053047Y036679D01*
X053053Y036682D01*
X053058Y036685D01*
X053064Y036689D01*
X053065Y03669D01*
X053067Y036692D01*
X05307Y036695D01*
X053072Y036699D01*
X053076Y036705D01*
X05308Y036712D01*
X053083Y036721D01*
X053086Y036731D01*
X053136Y036715D01*
Y036715D01*
X053136Y036713D01*
X053135Y036711D01*
X053134Y036708D01*
X053132Y036705D01*
X053131Y036701D01*
X053129Y036696D01*
X053127Y036691D01*
X053122Y036681D01*
X053115Y036671D01*
X053107Y036661D01*
X053102Y036657D01*
X053098Y036652D01*
X053097Y036652D01*
X053097Y036652D01*
X053095Y036651D01*
X053093Y036649D01*
X05309Y036648D01*
X053087Y036646D01*
X053083Y036644D01*
X053079Y036642D01*
X053074Y03664D01*
X053069Y036638D01*
X053064Y036637D01*
X053058Y036635D01*
X053051Y036634D01*
X053044Y036633D01*
X053037Y036632D01*
X05303Y036632D01*
X053027D01*
X053025Y036632D01*
X053021Y036633D01*
X053017Y036633D01*
X053012Y036634D01*
X053006Y036635D01*
X053Y036637D01*
X052994Y036638D01*
X052987Y036641D01*
X05298Y036644D01*
X052973Y036647D01*
X052966Y036651D01*
X052959Y036655D01*
X052952Y036661D01*
X052946Y036667D01*
X052946Y036667D01*
X052944Y036668D01*
X052943Y036671D01*
X052941Y036673D01*
X052939Y036677D01*
X052936Y036681D01*
X052933Y036686D01*
X05293Y036692D01*
X052927Y036698D01*
X052924Y036705D01*
X052921Y036713D01*
X052919Y036722D01*
X052916Y036731D01*
X052915Y036741D01*
X052914Y036751D01*
X052913Y036762D01*
Y036763D01*
Y036763D01*
Y036765D01*
X052914Y036769D01*
Y036773D01*
X052915Y036778D01*
X052915Y036785D01*
X052916Y036791D01*
X052917Y036799D01*
X052919Y036807D01*
X052922Y036815D01*
X052924Y036823D01*
X052927Y036832D01*
X052931Y03684D01*
X052936Y036847D01*
X05294Y036855D01*
X052946Y036862D01*
X052947Y036862D01*
X052948Y036863D01*
X05295Y036865D01*
X052952Y036867D01*
X052956Y03687D01*
X05296Y036873D01*
X052964Y036876D01*
X05297Y03688D01*
X052976Y036883D01*
X052982Y036886D01*
X052989Y036889D01*
X052997Y036892D01*
X053005Y036894D01*
X053014Y036896D01*
X053023Y036897D01*
X053033Y036897D01*
X053037D01*
X053041Y036897D01*
D02*
G37*
G36*
X05326Y036894D02*
X053264Y036893D01*
X053267Y036893D01*
X053272Y036892D01*
X053276Y036891D01*
X053286Y036889D01*
X053295Y036885D01*
X0533Y036883D01*
X053305Y03688D01*
X05331Y036877D01*
X053314Y036873D01*
X053314Y036873D01*
X053315Y036873D01*
X053316Y036871D01*
X053317Y03687D01*
X053319Y036868D01*
X053321Y036865D01*
X053323Y036863D01*
X053325Y036859D01*
X053329Y036852D01*
X053332Y036843D01*
X053334Y036839D01*
X053334Y036833D01*
X053335Y036828D01*
X053336Y036822D01*
Y036822D01*
Y036819D01*
X053335Y036816D01*
X053335Y036812D01*
X053334Y036807D01*
X053333Y036801D01*
X053331Y036795D01*
X053329Y036789D01*
X053329Y036789D01*
X053328Y036787D01*
X053327Y036783D01*
X053324Y036779D01*
X053322Y036775D01*
X053319Y036769D01*
X053314Y036763D01*
X05331Y036757D01*
X053309Y036756D01*
X053308Y036755D01*
X053306Y036752D01*
X053302Y036748D01*
X053298Y036744D01*
X053292Y036738D01*
X053286Y036732D01*
X053277Y036724D01*
X053277Y036723D01*
X053276Y036723D01*
X053275Y036722D01*
X053274Y036721D01*
X05327Y036717D01*
X053265Y036712D01*
X05326Y036708D01*
X053255Y036703D01*
X053251Y036699D01*
X053249Y036697D01*
X053248Y036695D01*
X053247Y036695D01*
X053247Y036694D01*
X053246Y036693D01*
X053244Y036691D01*
X053241Y036687D01*
X053238Y036682D01*
X053336D01*
Y036637D01*
X053164D01*
Y036637D01*
Y036638D01*
X053164Y036639D01*
X053164Y036641D01*
X053165Y036643D01*
X053165Y036646D01*
X053166Y036652D01*
X053169Y03666D01*
X053172Y036668D01*
X053175Y036677D01*
X05318Y036685D01*
Y036686D01*
X053181Y036686D01*
X053182Y036688D01*
X053183Y036689D01*
X053185Y036692D01*
X053187Y036695D01*
X053189Y036698D01*
X053192Y036702D01*
X053196Y036706D01*
X0532Y036711D01*
X053204Y036716D01*
X053209Y036721D01*
X053215Y036727D01*
X053221Y036733D01*
X053228Y03674D01*
X053235Y036747D01*
X053236Y036747D01*
X053237Y036748D01*
X053238Y03675D01*
X05324Y036752D01*
X053243Y036754D01*
X053246Y036757D01*
X053253Y036764D01*
X05326Y036771D01*
X053266Y036778D01*
X053269Y036781D01*
X053272Y036784D01*
X053275Y036787D01*
X053276Y036789D01*
X053276Y03679D01*
X053277Y036792D01*
X053279Y036795D01*
X053281Y036799D01*
X053283Y036803D01*
X053285Y036808D01*
X053286Y036813D01*
X053286Y036819D01*
Y036819D01*
Y03682D01*
Y036822D01*
X053286Y036825D01*
X053285Y036829D01*
X053284Y036833D01*
X053283Y036837D01*
X05328Y036841D01*
X053277Y036844D01*
X053277Y036845D01*
X053276Y036846D01*
X053274Y036847D01*
X053271Y036849D01*
X053267Y03685D01*
X053263Y036852D01*
X053259Y036853D01*
X053253Y036853D01*
X05325D01*
X053247Y036853D01*
X053244Y036852D01*
X05324Y036851D01*
X053236Y036849D01*
X053232Y036847D01*
X053228Y036844D01*
X053228Y036844D01*
X053227Y036842D01*
X053225Y03684D01*
X053224Y036837D01*
X053222Y036833D01*
X05322Y036827D01*
X053219Y036821D01*
X053218Y036813D01*
X053169Y036818D01*
Y036819D01*
X05317Y03682D01*
Y036822D01*
X053171Y036825D01*
X053171Y036828D01*
X053172Y036832D01*
X053173Y036836D01*
X053174Y036841D01*
X053178Y03685D01*
X053182Y03686D01*
X053185Y036864D01*
X053189Y036869D01*
X053192Y036873D01*
X053196Y036876D01*
X053197Y036877D01*
X053198Y036877D01*
X053199Y036878D01*
X053201Y036879D01*
X053203Y03688D01*
X053206Y036882D01*
X053209Y036884D01*
X053212Y036885D01*
X053216Y036887D01*
X053221Y036889D01*
X05323Y036891D01*
X053242Y036893D01*
X053248Y036894D01*
X053254Y036894D01*
X053258D01*
X05326Y036894D01*
D02*
G37*
G36*
X050442Y0403D02*
X050446Y040299D01*
X05045Y040299D01*
X050455Y040298D01*
X050461Y040297D01*
X050467Y040295D01*
X050473Y040294D01*
X050479Y040291D01*
X050486Y040288D01*
X050492Y040285D01*
X050498Y040282D01*
X050505Y040277D01*
X05051Y040272D01*
X050511D01*
X050511Y040272D01*
X050512Y040271D01*
X050513Y04027D01*
X050515Y040268D01*
X050516Y040265D01*
X05052Y04026D01*
X050524Y040254D01*
X050529Y040245D01*
X050533Y040236D01*
X050536Y040225D01*
X050485Y040213D01*
Y040214D01*
X050485Y040214D01*
Y040215D01*
X050484Y040217D01*
X050483Y04022D01*
X050481Y040224D01*
X050479Y04023D01*
X050475Y040235D01*
X050471Y04024D01*
X050466Y040244D01*
X050465Y040245D01*
X050464Y040246D01*
X050461Y040248D01*
X050456Y04025D01*
X050451Y040252D01*
X050445Y040254D01*
X050439Y040256D01*
X050431Y040256D01*
X050429D01*
X050427Y040256D01*
X050424Y040255D01*
X050421Y040255D01*
X050415Y040254D01*
X050408Y040251D01*
X0504Y040247D01*
X050396Y040245D01*
X050392Y040243D01*
X050388Y040239D01*
X050385Y040235D01*
Y040235D01*
X050384Y040234D01*
X050384Y040233D01*
X050382Y040231D01*
X050381Y040229D01*
X05038Y040227D01*
X050378Y040223D01*
X050377Y04022D01*
X050375Y040215D01*
X050373Y04021D01*
X050372Y040205D01*
X05037Y040199D01*
X050369Y040192D01*
X050368Y040185D01*
X050368Y040177D01*
X050368Y040169D01*
Y040168D01*
Y040167D01*
Y040164D01*
X050368Y040161D01*
Y040157D01*
X050369Y040152D01*
X050369Y040147D01*
X05037Y040142D01*
X050372Y04013D01*
X050375Y040119D01*
X050377Y040113D01*
X05038Y040108D01*
X050382Y040103D01*
X050385Y040099D01*
X050385Y040099D01*
X050386Y040099D01*
X050387Y040097D01*
X050388Y040096D01*
X050392Y040093D01*
X050397Y040089D01*
X050404Y040085D01*
X050411Y040082D01*
X05042Y04008D01*
X050425Y040079D01*
X05043Y040079D01*
X050432D01*
X050434Y040079D01*
X050438Y04008D01*
X050442Y04008D01*
X050448Y040082D01*
X050454Y040085D01*
X050459Y040087D01*
X050465Y040092D01*
X050466Y040093D01*
X050468Y040094D01*
X050471Y040097D01*
X050474Y040102D01*
X050477Y040108D01*
X050481Y040115D01*
X050484Y040123D01*
X050487Y040133D01*
X050537Y040118D01*
Y040117D01*
X050537Y040116D01*
X050536Y040114D01*
X050535Y040111D01*
X050533Y040107D01*
X050532Y040103D01*
X05053Y040099D01*
X050528Y040094D01*
X050523Y040084D01*
X050516Y040074D01*
X050508Y040064D01*
X050503Y040059D01*
X050499Y040055D01*
X050498Y040055D01*
X050498Y040055D01*
X050496Y040053D01*
X050494Y040052D01*
X050491Y04005D01*
X050488Y040049D01*
X050484Y040047D01*
X05048Y040045D01*
X050475Y040043D01*
X05047Y040041D01*
X050465Y04004D01*
X050459Y040038D01*
X050452Y040037D01*
X050445Y040036D01*
X050438Y040035D01*
X050431Y040035D01*
X050428D01*
X050426Y040035D01*
X050422Y040036D01*
X050418Y040036D01*
X050413Y040037D01*
X050407Y040038D01*
X050401Y040039D01*
X050395Y040041D01*
X050388Y040043D01*
X050381Y040046D01*
X050374Y04005D01*
X050367Y040053D01*
X05036Y040058D01*
X050353Y040063D01*
X050347Y04007D01*
X050347Y04007D01*
X050345Y040071D01*
X050344Y040073D01*
X050342Y040076D01*
X05034Y04008D01*
X050337Y040084D01*
X050334Y040089D01*
X050331Y040095D01*
X050328Y040101D01*
X050325Y040108D01*
X050322Y040116D01*
X05032Y040125D01*
X050317Y040134D01*
X050316Y040144D01*
X050315Y040154D01*
X050314Y040165D01*
Y040166D01*
Y040166D01*
Y040168D01*
X050315Y040171D01*
Y040176D01*
X050316Y040181D01*
X050316Y040187D01*
X050317Y040194D01*
X050318Y040202D01*
X05032Y04021D01*
X050323Y040218D01*
X050325Y040226D01*
X050328Y040234D01*
X050332Y040243D01*
X050337Y04025D01*
X050341Y040258D01*
X050347Y040265D01*
X050348Y040265D01*
X050349Y040266D01*
X050351Y040268D01*
X050353Y04027D01*
X050357Y040273D01*
X050361Y040276D01*
X050365Y040279D01*
X050371Y040282D01*
X050377Y040286D01*
X050383Y040289D01*
X05039Y040292D01*
X050398Y040295D01*
X050406Y040297D01*
X050415Y040299D01*
X050424Y0403D01*
X050434Y0403D01*
X050438D01*
X050442Y0403D01*
D02*
G37*
G36*
X050696Y040039D02*
X050647D01*
Y040225D01*
X050647Y040224D01*
X050646Y040224D01*
X050644Y040223D01*
X050642Y040221D01*
X05064Y040218D01*
X050637Y040216D01*
X050633Y040214D01*
X050629Y040211D01*
X050624Y040208D01*
X05062Y040205D01*
X050614Y040201D01*
X050609Y040198D01*
X050597Y040193D01*
X050584Y040188D01*
Y040232D01*
X050584D01*
X050585Y040233D01*
X050586Y040233D01*
X050587Y040233D01*
X050591Y040235D01*
X050596Y040237D01*
X050602Y04024D01*
X050609Y040244D01*
X050617Y04025D01*
X050625Y040255D01*
X050626Y040256D01*
X050626Y040256D01*
X050627Y040257D01*
X050629Y040259D01*
X050633Y040262D01*
X050637Y040267D01*
X050643Y040273D01*
X050648Y040281D01*
X050653Y040288D01*
X050656Y040297D01*
X050696D01*
Y040039D01*
D02*
G37*
%LPC*%
G36*
X049851Y036023D02*
X049816Y035928D01*
X049886D01*
X049851Y036023D01*
D02*
G37*
G36*
X04823Y038206D02*
X048178D01*
Y038146D01*
X048228D01*
X048234Y038147D01*
X048246D01*
X048248Y038147D01*
X04825D01*
X048251Y038148D01*
X048254Y038148D01*
X048257Y038149D01*
X04826Y03815D01*
X048264Y038152D01*
X048267Y038153D01*
X04827Y038156D01*
X04827Y038156D01*
X048271Y038158D01*
X048273Y038159D01*
X048274Y038162D01*
X048275Y038165D01*
X048277Y038168D01*
X048277Y038172D01*
X048278Y038176D01*
Y038177D01*
Y038178D01*
X048277Y03818D01*
X048277Y038183D01*
X048276Y038186D01*
X048275Y038189D01*
X048273Y038193D01*
X048271Y038196D01*
X048271Y038196D01*
X04827Y038197D01*
X048268Y038198D01*
X048266Y0382D01*
X048263Y038201D01*
X04826Y038203D01*
X048256Y038204D01*
X048251Y038205D01*
X048251D01*
X04825Y038205D01*
X048246D01*
X048243Y038205D01*
X048234D01*
X04823Y038206D01*
D02*
G37*
G36*
X048232Y038104D02*
X048178D01*
Y038035D01*
X048235D01*
X048241Y038036D01*
X048247D01*
X048253Y038036D01*
X048257Y038037D01*
X04826D01*
X048261Y038037D01*
X048261D01*
X048263Y038037D01*
X048265Y038038D01*
X048268Y038039D01*
X048271Y03804D01*
X048274Y038042D01*
X048277Y038044D01*
X04828Y038047D01*
X04828Y038047D01*
X048281Y038048D01*
X048282Y03805D01*
X048284Y038053D01*
X048285Y038056D01*
X048286Y038059D01*
X048287Y038064D01*
X048287Y038069D01*
Y038069D01*
Y038071D01*
X048287Y038073D01*
X048287Y038075D01*
X048286Y038079D01*
X048285Y038082D01*
X048283Y038085D01*
X048281Y038088D01*
X048281Y038089D01*
X04828Y03809D01*
X048279Y038091D01*
X048277Y038093D01*
X048275Y038095D01*
X048272Y038097D01*
X048269Y038099D01*
X048265Y0381D01*
X048265D01*
X048263Y038101D01*
X04826Y038101D01*
X048258Y038102D01*
X048255Y038102D01*
X048253Y038102D01*
X04825Y038103D01*
X048246Y038103D01*
X048241D01*
X048237Y038103D01*
X048232Y038104D01*
D02*
G37*
G36*
X047749Y037555D02*
X04769D01*
Y03749D01*
X04774D01*
X047747Y037491D01*
X047755Y037491D01*
X047763Y037491D01*
X047766Y037492D01*
X047769Y037492D01*
X047772Y037493D01*
X047774Y037493D01*
X047774D01*
X047775Y037494D01*
X047777Y037495D01*
X047779Y037496D01*
X047784Y037499D01*
X047786Y037501D01*
X047788Y037504D01*
X047789Y037504D01*
X047789Y037505D01*
X04779Y037507D01*
X047791Y037509D01*
X047792Y037512D01*
X047793Y037515D01*
X047794Y037519D01*
X047794Y037523D01*
Y037524D01*
Y037525D01*
X047794Y037528D01*
X047793Y03753D01*
X047792Y037534D01*
X047791Y037537D01*
X047789Y037541D01*
X047787Y037544D01*
X047787Y037544D01*
X047786Y037545D01*
X047784Y037546D01*
X047782Y037548D01*
X047779Y03755D01*
X047776Y037552D01*
X047772Y037553D01*
X047767Y037554D01*
X047767D01*
X047766Y037555D01*
X047764D01*
X04776Y037555D01*
X047752D01*
X047749Y037555D01*
D02*
G37*
G36*
X051292Y038835D02*
X051233D01*
Y03877D01*
X051283D01*
X051291Y03877D01*
X051298Y03877D01*
X051306Y038771D01*
X051309Y038771D01*
X051312Y038772D01*
X051315Y038772D01*
X051317Y038773D01*
X051318D01*
X051319Y038773D01*
X051321Y038774D01*
X051322Y038775D01*
X051327Y038779D01*
X051329Y038781D01*
X051332Y038783D01*
X051332Y038784D01*
X051332Y038785D01*
X051334Y038786D01*
X051335Y038789D01*
X051335Y038792D01*
X051336Y038795D01*
X051337Y038799D01*
X051337Y038803D01*
Y038803D01*
Y038805D01*
X051337Y038807D01*
X051336Y03881D01*
X051335Y038813D01*
X051334Y038817D01*
X051332Y03882D01*
X05133Y038823D01*
X05133Y038824D01*
X051329Y038825D01*
X051327Y038826D01*
X051325Y038828D01*
X051322Y03883D01*
X051319Y038831D01*
X051315Y038833D01*
X051311Y038834D01*
X05131D01*
X051309Y038834D01*
X051307D01*
X051304Y038834D01*
X051295D01*
X051292Y038835D01*
D02*
G37*
G36*
X048812Y035728D02*
X048753D01*
Y035663D01*
X048803D01*
X04881Y035663D01*
X048818Y035663D01*
X048826Y035664D01*
X048829Y035664D01*
X048832Y035665D01*
X048835Y035665D01*
X048837Y035666D01*
X048837D01*
X048838Y035666D01*
X04884Y035667D01*
X048842Y035668D01*
X048847Y035672D01*
X048849Y035674D01*
X048851Y035676D01*
X048852Y035677D01*
X048852Y035678D01*
X048853Y035679D01*
X048854Y035682D01*
X048855Y035685D01*
X048856Y035688D01*
X048857Y035692D01*
X048857Y035696D01*
Y035696D01*
Y035698D01*
X048857Y0357D01*
X048856Y035703D01*
X048855Y035706D01*
X048854Y03571D01*
X048852Y035713D01*
X04885Y035716D01*
X04885Y035717D01*
X048849Y035718D01*
X048847Y035719D01*
X048845Y035721D01*
X048842Y035723D01*
X048839Y035724D01*
X048835Y035726D01*
X04883Y035727D01*
X04883D01*
X048829Y035727D01*
X048827D01*
X048823Y035727D01*
X048815D01*
X048812Y035728D01*
D02*
G37*
%LPD*%
D10*
X0531Y038524D02*
G03*
X0531Y038524I-000049J0D01*
G01*
D11*
X051538Y037473D02*
G03*
X051538Y037473I-000984J0D01*
G01*
X048327Y035869D02*
X049488Y035869D01*
X048327Y036496D02*
X049485Y036496D01*
X048327Y035869D02*
Y036496D01*
X047776Y036614D02*
X048937Y036614D01*
X047776Y037241D02*
X048934Y037241D01*
X047776Y036614D02*
Y037241D01*
X049188Y039252D02*
X049188Y038091D01*
X048561D02*
Y039249D01*
Y038091D02*
X049188D01*
X049567Y038976D02*
Y040138D01*
X050194Y03898D02*
Y040138D01*
X049567D02*
X050194D01*
X050846Y038976D02*
X052008D01*
X050846Y039603D02*
X052005Y039603D01*
X050846Y038976D02*
Y039603D01*
X051614Y036496D02*
X052776Y036496D01*
X051617Y035869D02*
X052776D01*
Y036496D01*
D12*
X051752Y038091D02*
X052972D01*
X051752Y037343D02*
X052972D01*
Y038091D01*
X051752Y037343D02*
Y038091D01*
M02*
