M48
;Layer_Color=9474304
;FILE_FORMAT=2:4
INCH,LZ
;TYPE=PLATED
T1F00S00C0.0079
T2F00S00C0.0118
T3F00S00C0.0315
T4F00S00C0.0394
T5F00S00C0.0433
T6F00S00C0.0512
T7F00S00C0.0591
%
T01
X012478Y012741
X012478Y01312
X013248Y013504
X013563Y014016
X012362Y015118
X012589Y015541
X01444Y012165
X014834
X015787Y01252
X016378Y012559
X017257Y012165
X017651
X018445Y013307
X018957Y013819
X01937Y013425
Y012913
Y012677
X020074Y012165
X020468
X022891
X023285
X025709
X026102
X026654Y013583
X028526Y012165
X02892
X017244Y014724
X032205Y015472
X033091Y013583
X03416Y012165
X034553
X031737
X031343
X032602Y016024
X032602Y016496
X032598Y016929
X032248Y017283
X031854Y017283
X035157Y017638
X035118Y018316
X035118Y01871
X035356Y01937
Y019685
X036417Y020079
Y020433
Y020787
X037323Y021063
X037402Y022756
X035276Y022402
X034921
X033583Y02248
X033583Y022913
X033317Y020896
X032835Y021378
X034136Y01937
X036339Y018583
X037087Y018465
Y018071
X035356Y016693
X035118Y016102
X035118Y015709
X034136Y015748
X029606Y017638
X029213Y017638
X029331Y018504
X028367Y018973
X028372Y01935
Y019744
X027619Y018619
X027835Y016732
X028478
X025427Y018436
X023291Y018623
X023291Y019042
X023291Y019435
X024921Y020748
X024509Y02126
X024724Y021575
X026505Y022008
X026682Y020799
X026682Y020405
X029843Y02248
X029843Y022913
X02374Y023573
X02315Y023652
X02252Y023701
X02248Y023071
X022835Y023031
X02313Y022805
X021732Y022717
X021772Y02189
X022047Y023356
X019567Y019567
Y019173
X019335Y017845
X019406Y017323
X018185Y016535
X018268Y01622
X017126Y017323
X016417Y016654
X016122
X015827
X015866Y018573
X015866Y019606
X016378Y020472
Y020915
X016614Y020709
Y020236
X018346Y020472
X018268Y01874
X020591Y018189
X022008Y016968
X021417Y016181
X016132Y022667
X015098Y023051
X014163Y022697
X013071Y023189
X013465Y02063
X013858
X015079Y019606
X015472
X015295Y015925
X014744Y015689
X013158Y015653
X012835Y016407
X013091Y016722
X012156Y016841
X012141Y015974
X012421Y017707
X012825Y017717
T02
X015856Y014193
X016171
X016181Y014528
X015866
X019394Y015157
X020616Y015157
X023032
X024333
X025633
X026934
X028235Y015157
X029613Y015157
X031857Y015157
X033189Y014921
X033543
X033622Y014331
X033268
X035541Y014547
X035768Y014341
X036299Y014764
X031496Y015787
X031378Y018386
X030945Y018425
X027165Y018898
X027047Y017835
X026575Y018228
X026693Y017047
X026378
X024499Y018425
X02437Y01874
X023987Y018189
X022165Y018622
X022165Y019016
X022154Y019421
X022165Y019803
X022165Y020984
X022154Y021389
X022511Y021527
X023091Y021538
X025059Y021538
X025385Y021614
X025394Y020984
X025405Y019814
X025394Y019409
X026715Y021204
X026715Y021597
X027087Y021575
X028346Y020984
X028858Y015748
X019882Y016142
X01937Y016614
X018386Y016968
X021024Y017677
X020934Y019027
X020138Y018996
X019659Y020498
X019453Y021128
X019659Y021758
X012953Y021339
T03
X016244Y024655
X017244Y024655
X018244Y024655
X019244Y024655
X020244Y024655
X021244
X022244
X023244Y024655
X025512Y024567
X026299Y024567
X027087
X015244Y024655
X014244Y024655
X013244Y024655
T04
X033228Y024247
X035
X031205Y024247
X029433Y024247
T05
X034539Y01378
X035539Y01378
X011535Y020209
X011535Y021209
T06
X031699Y023267
X032734Y023267
X035494Y023267
X028939Y023267
T07
X02439Y024567
X028209Y024567
M30
