G04*
G04 #@! TF.GenerationSoftware,Altium Limited,Altium Designer,18.1.6 (161)*
G04*
G04 Layer_Physical_Order=2*
G04 Layer_Color=36540*
%FSTAX24Y24*%
%MOIN*%
G70*
G01*
G75*
%ADD59C,0.0531*%
%ADD60C,0.0515*%
%ADD63C,0.0571*%
G04:AMPARAMS|DCode=64|XSize=57.1mil|YSize=57.1mil|CornerRadius=14.3mil|HoleSize=0mil|Usage=FLASHONLY|Rotation=180.000|XOffset=0mil|YOffset=0mil|HoleType=Round|Shape=RoundedRectangle|*
%AMROUNDEDRECTD64*
21,1,0.0571,0.0285,0,0,180.0*
21,1,0.0285,0.0571,0,0,180.0*
1,1,0.0285,-0.0143,0.0143*
1,1,0.0285,0.0143,0.0143*
1,1,0.0285,0.0143,-0.0143*
1,1,0.0285,-0.0143,-0.0143*
%
%ADD64ROUNDEDRECTD64*%
%ADD65C,0.0197*%
%ADD66C,0.0177*%
G36*
X036857Y025205D02*
X036902Y025201D01*
X036947Y025193D01*
X036992Y025183D01*
X037036Y02517D01*
X037078Y025153D01*
X03712Y025135D01*
X03716Y025113D01*
X037199Y025089D01*
X037236Y025062D01*
X037272Y025033D01*
X037305Y025002D01*
X037336Y024969D01*
X037365Y024933D01*
X037392Y024896D01*
X037416Y024857D01*
X037438Y024817D01*
X037457Y024775D01*
X037473Y024732D01*
X037486Y024689D01*
X037496Y024644D01*
X037504Y024599D01*
X037508Y024554D01*
X03751Y02451D01*
X03751Y024508D01*
Y022921D01*
X0375Y022911D01*
X03746Y022892D01*
X037458Y022893D01*
X03744Y022899D01*
X037421Y022903D01*
X037402Y022904D01*
X037382Y022903D01*
X037363Y022899D01*
X037345Y022893D01*
X037328Y022884D01*
X037312Y022873D01*
X037297Y022861D01*
X037284Y022846D01*
X037273Y02283D01*
X037265Y022813D01*
X037259Y022794D01*
X037255Y022775D01*
X037254Y022756D01*
X037255Y022737D01*
X037259Y022718D01*
X037265Y022699D01*
X037273Y022682D01*
X037284Y022666D01*
X037297Y022651D01*
X037312Y022639D01*
X037328Y022628D01*
X037345Y022619D01*
X037363Y022613D01*
X037382Y022609D01*
X037402Y022608D01*
X037421Y022609D01*
X03744Y022613D01*
X037458Y022619D01*
X03746Y02262D01*
X0375Y022601D01*
X03751Y02259D01*
Y021128D01*
X03746Y021119D01*
X03746Y02112D01*
X037451Y021137D01*
X03744Y021153D01*
X037427Y021168D01*
X037413Y02118D01*
X037397Y021191D01*
X037379Y0212D01*
X037361Y021206D01*
X037342Y02121D01*
X037323Y021211D01*
X037304Y02121D01*
X037285Y021206D01*
X037266Y0212D01*
X037249Y021191D01*
X037233Y02118D01*
X037218Y021168D01*
X037205Y021153D01*
X037195Y021137D01*
X037186Y02112D01*
X03718Y021101D01*
X037176Y021082D01*
X037175Y021063D01*
X037176Y021044D01*
X03718Y021025D01*
X037186Y021006D01*
X037195Y020989D01*
X037205Y020973D01*
X037218Y020958D01*
X037233Y020946D01*
X037249Y020935D01*
X037266Y020926D01*
X037285Y02092D01*
X037304Y020916D01*
X037323Y020915D01*
X037342Y020916D01*
X037361Y02092D01*
X037379Y020926D01*
X037397Y020935D01*
X037413Y020946D01*
X037427Y020958D01*
X03744Y020973D01*
X037451Y020989D01*
X03746Y021006D01*
X03746Y021007D01*
X03751Y020998D01*
X03751Y011614D01*
X03751Y011612D01*
X037508Y011568D01*
X037504Y011523D01*
X037496Y011478D01*
X037486Y011433D01*
X037473Y01139D01*
X037457Y011347D01*
X037438Y011305D01*
X037416Y011265D01*
X037392Y011226D01*
X037365Y011189D01*
X037336Y011153D01*
X037305Y01112D01*
X037272Y011089D01*
X037236Y01106D01*
X037199Y011033D01*
X03716Y011009D01*
X03712Y010987D01*
X037078Y010969D01*
X037036Y010952D01*
X036992Y010939D01*
X036947Y010929D01*
X036902Y010921D01*
X036857Y010917D01*
X036813Y010915D01*
X036811Y010916D01*
X011614D01*
X011612Y010915D01*
X011568Y010917D01*
X011523Y010921D01*
X011478Y010929D01*
X011433Y010939D01*
X01139Y010952D01*
X011347Y010969D01*
X011305Y010987D01*
X011265Y011009D01*
X011226Y011033D01*
X011189Y01106D01*
X011153Y011089D01*
X01112Y01112D01*
X011089Y011153D01*
X01106Y011189D01*
X011033Y011226D01*
X011009Y011265D01*
X010987Y011305D01*
X010969Y011347D01*
X010952Y01139D01*
X010939Y011433D01*
X010929Y011478D01*
X010921Y011523D01*
X010917Y011568D01*
X010915Y011612D01*
X010916Y011614D01*
Y012402D01*
X010916Y012402D01*
X010916Y024508D01*
X010915Y02451D01*
X010917Y024554D01*
X010921Y024599D01*
X010929Y024644D01*
X010939Y024689D01*
X010952Y024732D01*
X010969Y024775D01*
X010987Y024817D01*
X011009Y024857D01*
X011033Y024896D01*
X01106Y024933D01*
X011089Y024969D01*
X01112Y025002D01*
X011153Y025033D01*
X011189Y025062D01*
X011226Y025089D01*
X011265Y025113D01*
X011305Y025135D01*
X011347Y025153D01*
X01139Y02517D01*
X011433Y025183D01*
X011478Y025193D01*
X011523Y025201D01*
X011568Y025205D01*
X011612Y025207D01*
X011614Y025206D01*
X022144D01*
Y024999D01*
X022144Y024994D01*
X022144Y024988D01*
X022145Y024986D01*
X022145Y024984D01*
X022126Y024979D01*
X022098Y024967D01*
X022072Y024953D01*
X022046Y024937D01*
X022022Y024919D01*
X022Y024898D01*
X02198Y024876D01*
X021962Y024852D01*
X021945Y024827D01*
X021932Y0248D01*
X02192Y024772D01*
X021911Y024744D01*
X021905Y024714D01*
X021901Y024685D01*
X021899Y024655D01*
X021901Y024624D01*
X021905Y024595D01*
X021911Y024565D01*
X02192Y024537D01*
X021932Y024509D01*
X021945Y024482D01*
X021962Y024457D01*
X02198Y024433D01*
X022Y024411D01*
X022022Y02439D01*
X022046Y024372D01*
X022072Y024356D01*
X022098Y024342D01*
X022126Y024331D01*
X022145Y024325D01*
X022145Y024323D01*
X022144Y024321D01*
X022144Y024315D01*
X022144Y02431D01*
Y023529D01*
X022122Y02351D01*
X022094Y023496D01*
X022086Y023499D01*
X022067Y023503D01*
X022047Y023504D01*
X022028Y023503D01*
X022009Y023499D01*
X021991Y023493D01*
X021973Y023484D01*
X021957Y023474D01*
X021943Y023461D01*
X02193Y023446D01*
X021919Y02343D01*
X021911Y023413D01*
X021904Y023395D01*
X021901Y023376D01*
X021899Y023356D01*
X021901Y023337D01*
X021904Y023318D01*
X021911Y0233D01*
X021919Y023282D01*
X02193Y023266D01*
X021943Y023252D01*
X021957Y023239D01*
X021973Y023228D01*
X021991Y02322D01*
X022009Y023213D01*
X022028Y02321D01*
X022047Y023208D01*
X022067Y02321D01*
X022086Y023213D01*
X022094Y023216D01*
X022122Y023203D01*
X022144Y023184D01*
Y021614D01*
X022145Y021598D01*
X022145Y021597D01*
X022142Y021581D01*
X022126Y021552D01*
X022123Y021549D01*
X022121Y021546D01*
X022113Y021542D01*
X022094Y021535D01*
X022075Y021526D01*
X022058Y021514D01*
X022043Y021501D01*
X02203Y021486D01*
X022002Y021503D01*
X021999Y021505D01*
X021995Y021507D01*
X021992Y021508D01*
X021988Y02151D01*
X021984Y021511D01*
X021981Y021513D01*
X021977Y021514D01*
X021973Y021515D01*
X021969Y021516D01*
X021966Y021516D01*
X021961Y021517D01*
X021957Y021517D01*
X021954Y021517D01*
X02195Y021518D01*
X021575D01*
X021559Y021516D01*
X021544Y021513D01*
X021529Y021507D01*
X021516Y021498D01*
X021504Y021488D01*
X021494Y021476D01*
X021485Y021463D01*
X021479Y021448D01*
X021476Y021433D01*
X021474Y021417D01*
Y017758D01*
X021021Y017305D01*
X01957D01*
X019553Y017323D01*
X019552Y017342D01*
X019548Y017361D01*
X019542Y017379D01*
X019534Y017397D01*
X019523Y017413D01*
X01951Y017427D01*
X019496Y01744D01*
X019479Y017451D01*
X019462Y01746D01*
X019444Y017466D01*
X019425Y01747D01*
X019406Y017471D01*
X019386Y01747D01*
X019367Y017466D01*
X019349Y01746D01*
X019332Y017451D01*
X019315Y01744D01*
X019301Y017427D01*
X019288Y017413D01*
X019277Y017397D01*
X019269Y017379D01*
X019263Y017361D01*
X019259Y017342D01*
X019258Y017323D01*
X019241Y017305D01*
X018189D01*
X018173Y017304D01*
X018158Y0173D01*
X018143Y017294D01*
X01813Y017286D01*
X018118Y017276D01*
X017084Y016242D01*
X012992D01*
X012976Y016241D01*
X012961Y016237D01*
X012947Y016231D01*
X012933Y016223D01*
X012921Y016213D01*
X012803Y016095D01*
X012793Y016083D01*
X012785Y016069D01*
X012779Y016055D01*
X012775Y016039D01*
X012774Y016024D01*
Y015611D01*
X012725Y015598D01*
X012717Y015615D01*
X012706Y015631D01*
X012693Y015646D01*
X012679Y015659D01*
X012663Y015669D01*
X012645Y015678D01*
X012627Y015684D01*
X012608Y015688D01*
X012589Y015689D01*
X012569Y015688D01*
X01255Y015684D01*
X012532Y015678D01*
X012515Y015669D01*
X012499Y015659D01*
X012484Y015646D01*
X012471Y015631D01*
X01246Y015615D01*
X012452Y015598D01*
X012446Y01558D01*
X012442Y015561D01*
X012441Y015541D01*
X012442Y015522D01*
X012446Y015503D01*
X012452Y015485D01*
X01246Y015467D01*
X012471Y015451D01*
X012484Y015437D01*
X012499Y015424D01*
X012515Y015413D01*
X012532Y015405D01*
X01255Y015398D01*
X012569Y015395D01*
X012589Y015393D01*
X012608Y015395D01*
X012627Y015398D01*
X012645Y015405D01*
X012663Y015413D01*
X012679Y015424D01*
X012693Y015437D01*
X012706Y015451D01*
X012717Y015467D01*
X012725Y015485D01*
X012774Y015472D01*
Y01421D01*
X012729Y014192D01*
X012724Y014192D01*
X012699Y014219D01*
X012671Y014245D01*
X01264Y014269D01*
X012609Y014292D01*
X012575Y014311D01*
X012541Y014329D01*
X012505Y014343D01*
X012468Y014356D01*
X012431Y014365D01*
X012393Y014372D01*
X012354Y014376D01*
X012316Y014378D01*
X012277Y014376D01*
X012239Y014372D01*
X012201Y014365D01*
X012163Y014356D01*
X012127Y014343D01*
X012091Y014329D01*
X012056Y014311D01*
X012023Y014292D01*
X011991Y014269D01*
X011961Y014245D01*
X011933Y014219D01*
X011906Y014191D01*
X011882Y01416D01*
X01186Y014129D01*
X01184Y014095D01*
X011823Y014061D01*
X011808Y014025D01*
X011796Y013988D01*
X011787Y013951D01*
X01178Y013913D01*
X011776Y013874D01*
X011774Y013836D01*
X011776Y013797D01*
X01178Y013759D01*
X011787Y013721D01*
X011796Y013683D01*
X011808Y013647D01*
X011823Y013611D01*
X01184Y013576D01*
X01186Y013543D01*
X011882Y013511D01*
X011906Y013481D01*
X011933Y013453D01*
X011961Y013426D01*
X011991Y013402D01*
X012023Y01338D01*
X012056Y01336D01*
X012091Y013343D01*
X012127Y013328D01*
X012163Y013316D01*
X012201Y013307D01*
X012239Y0133D01*
X012277Y013296D01*
X012316Y013294D01*
X012354Y013296D01*
X012393Y0133D01*
X012431Y013307D01*
X012468Y013316D01*
X012505Y013328D01*
X012541Y013343D01*
X012575Y01336D01*
X012609Y01338D01*
X01264Y013402D01*
X012671Y013426D01*
X012699Y013453D01*
X012724Y013479D01*
X012729Y013479D01*
X012774Y013462D01*
Y012992D01*
X012775Y012976D01*
X012779Y012961D01*
X012785Y012947D01*
X012793Y012933D01*
X012803Y012921D01*
X013354Y01237D01*
X013366Y01236D01*
X01338Y012352D01*
X013394Y012346D01*
X01341Y012342D01*
X013425Y012341D01*
X014331D01*
X014336Y012333D01*
X01435Y012283D01*
X014335Y01227D01*
X014323Y012255D01*
X014312Y012239D01*
X014303Y012222D01*
X014297Y012204D01*
X014293Y012185D01*
X014292Y012165D01*
X014293Y012146D01*
X014297Y012127D01*
X014303Y012109D01*
X014312Y012091D01*
X014323Y012075D01*
X014335Y012061D01*
X01435Y012048D01*
X014366Y012037D01*
X014383Y012029D01*
X014402Y012022D01*
X014421Y012019D01*
X01444Y012017D01*
X014459Y012019D01*
X014478Y012022D01*
X014497Y012029D01*
X014514Y012037D01*
X01453Y012048D01*
X014545Y012061D01*
X014557Y012075D01*
X014568Y012091D01*
X014577Y012109D01*
X014583Y012127D01*
X014587Y012146D01*
X014588Y012165D01*
X014587Y012185D01*
X014583Y012204D01*
X014577Y012222D01*
X014568Y012239D01*
X014557Y012255D01*
X014545Y01227D01*
X01453Y012283D01*
X014543Y012333D01*
X014549Y012341D01*
X014725D01*
X01473Y012333D01*
X014744Y012283D01*
X014729Y01227D01*
X014716Y012255D01*
X014706Y012239D01*
X014697Y012222D01*
X014691Y012204D01*
X014687Y012185D01*
X014686Y012165D01*
X014687Y012146D01*
X014691Y012127D01*
X014697Y012109D01*
X014706Y012091D01*
X014716Y012075D01*
X014729Y012061D01*
X014744Y012048D01*
X01476Y012037D01*
X014777Y012029D01*
X014795Y012022D01*
X014814Y012019D01*
X014834Y012017D01*
X014853Y012019D01*
X014872Y012022D01*
X01489Y012029D01*
X014908Y012037D01*
X014924Y012048D01*
X014938Y012061D01*
X014951Y012075D01*
X014962Y012091D01*
X01497Y012109D01*
X014977Y012127D01*
X01498Y012146D01*
X014982Y012165D01*
X01498Y012185D01*
X014977Y012204D01*
X01497Y012222D01*
X014962Y012239D01*
X014951Y012255D01*
X014938Y01227D01*
X014924Y012283D01*
X014937Y012333D01*
X014943Y012341D01*
X017148D01*
X017154Y012333D01*
X017167Y012283D01*
X017153Y01227D01*
X01714Y012255D01*
X017129Y012239D01*
X01712Y012222D01*
X017114Y012204D01*
X01711Y012185D01*
X017109Y012165D01*
X01711Y012146D01*
X017114Y012127D01*
X01712Y012109D01*
X017129Y012091D01*
X01714Y012075D01*
X017153Y012061D01*
X017167Y012048D01*
X017183Y012037D01*
X017201Y012029D01*
X017219Y012022D01*
X017238Y012019D01*
X017257Y012017D01*
X017276Y012019D01*
X017295Y012022D01*
X017314Y012029D01*
X017331Y012037D01*
X017347Y012048D01*
X017362Y012061D01*
X017375Y012075D01*
X017385Y012091D01*
X017394Y012109D01*
X0174Y012127D01*
X017404Y012146D01*
X017405Y012165D01*
X017404Y012185D01*
X0174Y012204D01*
X017394Y012222D01*
X017385Y012239D01*
X017375Y012255D01*
X017362Y01227D01*
X017347Y012283D01*
X017361Y012333D01*
X017366Y012341D01*
X017542D01*
X017547Y012333D01*
X017561Y012283D01*
X017546Y01227D01*
X017533Y012255D01*
X017523Y012239D01*
X017514Y012222D01*
X017508Y012204D01*
X017504Y012185D01*
X017503Y012165D01*
X017504Y012146D01*
X017508Y012127D01*
X017514Y012109D01*
X017523Y012091D01*
X017533Y012075D01*
X017546Y012061D01*
X017561Y012048D01*
X017577Y012037D01*
X017594Y012029D01*
X017613Y012022D01*
X017632Y012019D01*
X017651Y012017D01*
X01767Y012019D01*
X017689Y012022D01*
X017707Y012029D01*
X017725Y012037D01*
X017741Y012048D01*
X017755Y012061D01*
X017768Y012075D01*
X017779Y012091D01*
X017788Y012109D01*
X017794Y012127D01*
X017798Y012146D01*
X017799Y012165D01*
X017798Y012185D01*
X017794Y012204D01*
X017788Y012222D01*
X017779Y012239D01*
X017768Y012255D01*
X017755Y01227D01*
X017741Y012283D01*
X017754Y012333D01*
X01776Y012341D01*
X019965D01*
X019971Y012333D01*
X019984Y012283D01*
X01997Y01227D01*
X019957Y012255D01*
X019946Y012239D01*
X019938Y012222D01*
X019931Y012204D01*
X019928Y012185D01*
X019926Y012165D01*
X019928Y012146D01*
X019931Y012127D01*
X019938Y012109D01*
X019946Y012091D01*
X019957Y012075D01*
X01997Y012061D01*
X019984Y012048D01*
X02Y012037D01*
X020018Y012029D01*
X020036Y012022D01*
X020055Y012019D01*
X020074Y012017D01*
X020094Y012019D01*
X020113Y012022D01*
X020131Y012029D01*
X020148Y012037D01*
X020164Y012048D01*
X020179Y012061D01*
X020192Y012075D01*
X020202Y012091D01*
X020211Y012109D01*
X020217Y012127D01*
X020221Y012146D01*
X020222Y012165D01*
X020221Y012185D01*
X020217Y012204D01*
X020211Y012222D01*
X020202Y012239D01*
X020192Y012255D01*
X020179Y01227D01*
X020164Y012283D01*
X020178Y012333D01*
X020183Y012341D01*
X020359D01*
X020365Y012333D01*
X020378Y012283D01*
X020363Y01227D01*
X020351Y012255D01*
X02034Y012239D01*
X020331Y012222D01*
X020325Y012204D01*
X020321Y012185D01*
X02032Y012165D01*
X020321Y012146D01*
X020325Y012127D01*
X020331Y012109D01*
X02034Y012091D01*
X020351Y012075D01*
X020363Y012061D01*
X020378Y012048D01*
X020394Y012037D01*
X020411Y012029D01*
X02043Y012022D01*
X020449Y012019D01*
X020468Y012017D01*
X020487Y012019D01*
X020506Y012022D01*
X020525Y012029D01*
X020542Y012037D01*
X020558Y012048D01*
X020573Y012061D01*
X020585Y012075D01*
X020596Y012091D01*
X020605Y012109D01*
X020611Y012127D01*
X020615Y012146D01*
X020616Y012165D01*
X020615Y012185D01*
X020611Y012204D01*
X020605Y012222D01*
X020596Y012239D01*
X020585Y012255D01*
X020573Y01227D01*
X020558Y012283D01*
X020571Y012333D01*
X020577Y012341D01*
X022782D01*
X022788Y012333D01*
X022801Y012283D01*
X022787Y01227D01*
X022774Y012255D01*
X022763Y012239D01*
X022755Y012222D01*
X022749Y012204D01*
X022745Y012185D01*
X022744Y012165D01*
X022745Y012146D01*
X022749Y012127D01*
X022755Y012109D01*
X022763Y012091D01*
X022774Y012075D01*
X022787Y012061D01*
X022801Y012048D01*
X022818Y012037D01*
X022835Y012029D01*
X022853Y012022D01*
X022872Y012019D01*
X022891Y012017D01*
X022911Y012019D01*
X02293Y012022D01*
X022948Y012029D01*
X022965Y012037D01*
X022982Y012048D01*
X022996Y012061D01*
X023009Y012075D01*
X02302Y012091D01*
X023028Y012109D01*
X023034Y012127D01*
X023038Y012146D01*
X023039Y012165D01*
X023038Y012185D01*
X023034Y012204D01*
X023028Y012222D01*
X02302Y012239D01*
X023009Y012255D01*
X022996Y01227D01*
X022982Y012283D01*
X022995Y012333D01*
X023001Y012341D01*
X023176D01*
X023182Y012333D01*
X023195Y012283D01*
X023181Y01227D01*
X023168Y012255D01*
X023157Y012239D01*
X023148Y012222D01*
X023142Y012204D01*
X023138Y012185D01*
X023137Y012165D01*
X023138Y012146D01*
X023142Y012127D01*
X023148Y012109D01*
X023157Y012091D01*
X023168Y012075D01*
X023181Y012061D01*
X023195Y012048D01*
X023211Y012037D01*
X023229Y012029D01*
X023247Y012022D01*
X023266Y012019D01*
X023285Y012017D01*
X023305Y012019D01*
X023323Y012022D01*
X023342Y012029D01*
X023359Y012037D01*
X023375Y012048D01*
X02339Y012061D01*
X023403Y012075D01*
X023413Y012091D01*
X023422Y012109D01*
X023428Y012127D01*
X023432Y012146D01*
X023433Y012165D01*
X023432Y012185D01*
X023428Y012204D01*
X023422Y012222D01*
X023413Y012239D01*
X023403Y012255D01*
X02339Y01227D01*
X023375Y012283D01*
X023389Y012333D01*
X023394Y012341D01*
X0256D01*
X025605Y012333D01*
X025619Y012283D01*
X025604Y01227D01*
X025591Y012255D01*
X025581Y012239D01*
X025572Y012222D01*
X025566Y012204D01*
X025562Y012185D01*
X025561Y012165D01*
X025562Y012146D01*
X025566Y012127D01*
X025572Y012109D01*
X025581Y012091D01*
X025591Y012075D01*
X025604Y012061D01*
X025619Y012048D01*
X025635Y012037D01*
X025652Y012029D01*
X02567Y012022D01*
X025689Y012019D01*
X025709Y012017D01*
X025728Y012019D01*
X025747Y012022D01*
X025765Y012029D01*
X025783Y012037D01*
X025799Y012048D01*
X025813Y012061D01*
X025826Y012075D01*
X025837Y012091D01*
X025845Y012109D01*
X025852Y012127D01*
X025855Y012146D01*
X025857Y012165D01*
X025855Y012185D01*
X025852Y012204D01*
X025845Y012222D01*
X025837Y012239D01*
X025826Y012255D01*
X025813Y01227D01*
X025799Y012283D01*
X025812Y012333D01*
X025818Y012341D01*
X025993D01*
X025999Y012333D01*
X026012Y012283D01*
X025998Y01227D01*
X025985Y012255D01*
X025974Y012239D01*
X025966Y012222D01*
X025959Y012204D01*
X025956Y012185D01*
X025954Y012165D01*
X025956Y012146D01*
X025959Y012127D01*
X025966Y012109D01*
X025974Y012091D01*
X025985Y012075D01*
X025998Y012061D01*
X026012Y012048D01*
X026028Y012037D01*
X026046Y012029D01*
X026064Y012022D01*
X026083Y012019D01*
X026102Y012017D01*
X026122Y012019D01*
X026141Y012022D01*
X026159Y012029D01*
X026176Y012037D01*
X026192Y012048D01*
X026207Y012061D01*
X02622Y012075D01*
X02623Y012091D01*
X026239Y012109D01*
X026245Y012127D01*
X026249Y012146D01*
X02625Y012165D01*
X026249Y012185D01*
X026245Y012204D01*
X026239Y012222D01*
X02623Y012239D01*
X02622Y012255D01*
X026207Y01227D01*
X026192Y012283D01*
X026206Y012333D01*
X026211Y012341D01*
X028417D01*
X028422Y012333D01*
X028436Y012283D01*
X028421Y01227D01*
X028408Y012255D01*
X028398Y012239D01*
X028389Y012222D01*
X028383Y012204D01*
X028379Y012185D01*
X028378Y012165D01*
X028379Y012146D01*
X028383Y012127D01*
X028389Y012109D01*
X028398Y012091D01*
X028408Y012075D01*
X028421Y012061D01*
X028436Y012048D01*
X028452Y012037D01*
X028469Y012029D01*
X028488Y012022D01*
X028507Y012019D01*
X028526Y012017D01*
X028545Y012019D01*
X028564Y012022D01*
X028582Y012029D01*
X0286Y012037D01*
X028616Y012048D01*
X02863Y012061D01*
X028643Y012075D01*
X028654Y012091D01*
X028663Y012109D01*
X028669Y012127D01*
X028673Y012146D01*
X028674Y012165D01*
X028673Y012185D01*
X028669Y012204D01*
X028663Y012222D01*
X028654Y012239D01*
X028643Y012255D01*
X02863Y01227D01*
X028616Y012283D01*
X028629Y012333D01*
X028635Y012341D01*
X02881D01*
X028816Y012333D01*
X028829Y012283D01*
X028815Y01227D01*
X028802Y012255D01*
X028791Y012239D01*
X028783Y012222D01*
X028777Y012204D01*
X028773Y012185D01*
X028772Y012165D01*
X028773Y012146D01*
X028777Y012127D01*
X028783Y012109D01*
X028791Y012091D01*
X028802Y012075D01*
X028815Y012061D01*
X028829Y012048D01*
X028846Y012037D01*
X028863Y012029D01*
X028881Y012022D01*
X0289Y012019D01*
X02892Y012017D01*
X028939Y012019D01*
X028958Y012022D01*
X028976Y012029D01*
X028994Y012037D01*
X02901Y012048D01*
X029024Y012061D01*
X029037Y012075D01*
X029048Y012091D01*
X029056Y012109D01*
X029062Y012127D01*
X029066Y012146D01*
X029067Y012165D01*
X029066Y012185D01*
X029062Y012204D01*
X029056Y012222D01*
X029048Y012239D01*
X029037Y012255D01*
X029024Y01227D01*
X02901Y012283D01*
X029023Y012333D01*
X029029Y012341D01*
X031234D01*
X03124Y012333D01*
X031253Y012283D01*
X031238Y01227D01*
X031226Y012255D01*
X031215Y012239D01*
X031206Y012222D01*
X0312Y012204D01*
X031196Y012185D01*
X031195Y012165D01*
X031196Y012146D01*
X0312Y012127D01*
X031206Y012109D01*
X031215Y012091D01*
X031226Y012075D01*
X031238Y012061D01*
X031253Y012048D01*
X031269Y012037D01*
X031286Y012029D01*
X031305Y012022D01*
X031324Y012019D01*
X031343Y012017D01*
X031362Y012019D01*
X031381Y012022D01*
X0314Y012029D01*
X031417Y012037D01*
X031433Y012048D01*
X031448Y012061D01*
X03146Y012075D01*
X031471Y012091D01*
X03148Y012109D01*
X031486Y012127D01*
X03149Y012146D01*
X031491Y012165D01*
X03149Y012185D01*
X031486Y012204D01*
X03148Y012222D01*
X031471Y012239D01*
X03146Y012255D01*
X031448Y01227D01*
X031433Y012283D01*
X031446Y012333D01*
X031452Y012341D01*
X031628D01*
X031633Y012333D01*
X031647Y012283D01*
X031632Y01227D01*
X031619Y012255D01*
X031609Y012239D01*
X0316Y012222D01*
X031594Y012204D01*
X03159Y012185D01*
X031589Y012165D01*
X03159Y012146D01*
X031594Y012127D01*
X0316Y012109D01*
X031609Y012091D01*
X031619Y012075D01*
X031632Y012061D01*
X031647Y012048D01*
X031663Y012037D01*
X03168Y012029D01*
X031698Y012022D01*
X031717Y012019D01*
X031737Y012017D01*
X031756Y012019D01*
X031775Y012022D01*
X031793Y012029D01*
X031811Y012037D01*
X031827Y012048D01*
X031841Y012061D01*
X031854Y012075D01*
X031865Y012091D01*
X031873Y012109D01*
X03188Y012127D01*
X031883Y012146D01*
X031885Y012165D01*
X031883Y012185D01*
X03188Y012204D01*
X031873Y012222D01*
X031865Y012239D01*
X031854Y012255D01*
X031841Y01227D01*
X031827Y012283D01*
X03184Y012333D01*
X031846Y012341D01*
X032992D01*
X033008Y012342D01*
X033023Y012346D01*
X033038Y012352D01*
X033051Y01236D01*
X033063Y01237D01*
X033457Y012764D01*
X033467Y012776D01*
X033475Y012789D01*
X033481Y012804D01*
X033485Y012819D01*
X033486Y012835D01*
Y01374D01*
X033485Y013756D01*
X033481Y013771D01*
X033475Y013786D01*
X033467Y013799D01*
X033457Y013811D01*
X032541Y014727D01*
Y015835D01*
X032545Y015844D01*
X032573Y015869D01*
X032591Y015876D01*
X032602Y015876D01*
X032621Y015877D01*
X03264Y015881D01*
X032659Y015887D01*
X032676Y015895D01*
X032692Y015906D01*
X032707Y015919D01*
X032719Y015934D01*
X03273Y01595D01*
X032739Y015967D01*
X032745Y015985D01*
X032749Y016004D01*
X03275Y016024D01*
X032749Y016043D01*
X032745Y016062D01*
X032739Y01608D01*
X03273Y016098D01*
X032719Y016114D01*
X032707Y016128D01*
X032692Y016141D01*
X032676Y016152D01*
X032659Y01616D01*
X03264Y016167D01*
X032621Y01617D01*
X032602Y016172D01*
X032591Y016171D01*
X032573Y016179D01*
X032545Y016204D01*
X032541Y016212D01*
Y016308D01*
X032545Y016316D01*
X032573Y016341D01*
X032591Y016349D01*
X032602Y016348D01*
X032621Y016349D01*
X03264Y016353D01*
X032659Y016359D01*
X032676Y016368D01*
X032692Y016379D01*
X032707Y016391D01*
X032719Y016406D01*
X03273Y016422D01*
X032739Y016439D01*
X032745Y016458D01*
X032749Y016477D01*
X03275Y016496D01*
X032749Y016515D01*
X032745Y016534D01*
X032739Y016553D01*
X03273Y01657D01*
X032719Y016586D01*
X032707Y016601D01*
X032692Y016613D01*
X032676Y016624D01*
X032659Y016633D01*
X03264Y016639D01*
X032621Y016643D01*
X032602Y016644D01*
X032591Y016643D01*
X032573Y016651D01*
X032545Y016676D01*
X032541Y016684D01*
Y01674D01*
X032544Y016746D01*
X032558Y016761D01*
X032591Y016782D01*
X032598Y016781D01*
X032618Y016782D01*
X032637Y016786D01*
X032655Y016792D01*
X032672Y016801D01*
X032688Y016812D01*
X032703Y016825D01*
X032716Y016839D01*
X032727Y016855D01*
X032735Y016873D01*
X032741Y016891D01*
X032745Y01691D01*
X032746Y016929D01*
X032745Y016948D01*
X032741Y016967D01*
X032735Y016986D01*
X032727Y017003D01*
X032716Y017019D01*
X032703Y017034D01*
X032688Y017047D01*
X032672Y017057D01*
X032655Y017066D01*
X032637Y017072D01*
X032618Y017076D01*
X032598Y017077D01*
X032591Y017077D01*
X032558Y017097D01*
X032544Y017112D01*
X032541Y017118D01*
Y020984D01*
X03254Y021D01*
X032536Y021015D01*
X03253Y02103D01*
X032522Y021043D01*
X032512Y021055D01*
X031764Y021803D01*
X031752Y021813D01*
X031738Y021822D01*
X031724Y021828D01*
X031709Y021831D01*
X031693Y021833D01*
X027222D01*
X027214Y021832D01*
X027206Y021831D01*
X027206Y021831D01*
X027206Y021831D01*
X027198Y021829D01*
X027191Y021828D01*
X027191Y021828D01*
X027191Y021828D01*
X027183Y021825D01*
X027176Y021822D01*
X027176Y021822D01*
X027176Y021822D01*
X02717Y021818D01*
X027163Y021814D01*
X027163Y021813D01*
X027163Y021813D01*
X027157Y021808D01*
X027151Y021803D01*
X027151Y021803D01*
X027151Y021803D01*
X027146Y021797D01*
X027141Y021791D01*
X027141Y021791D01*
X027121Y021781D01*
X02711Y021778D01*
X027076Y021778D01*
X027069Y021784D01*
Y022441D01*
X027068Y022457D01*
X027064Y022472D01*
X027058Y022486D01*
X02705Y0225D01*
X027039Y022512D01*
X026803Y022748D01*
X026791Y022758D01*
X026778Y022767D01*
X026763Y022773D01*
X026748Y022776D01*
X026732Y022777D01*
X025278D01*
X025061Y022994D01*
Y025118D01*
X02506Y025134D01*
X025056Y025149D01*
X025052Y025159D01*
X02506Y025178D01*
X025079Y025205D01*
X025081Y025206D01*
X035827D01*
X035827Y025206D01*
X036024D01*
X036024Y025206D01*
X036811D01*
X036813Y025207D01*
X036857Y025205D01*
D02*
G37*
G36*
X024961Y025118D02*
Y022953D01*
X025236Y022677D01*
X026732D01*
X026969Y022441D01*
Y021679D01*
X026961Y021671D01*
X02695Y021654D01*
X026941Y021635D01*
X026934Y021616D01*
X02693Y021595D01*
X026929Y021575D01*
X02693Y021554D01*
X026934Y021534D01*
X026941Y021514D01*
X02695Y021496D01*
X026961Y021479D01*
X026969Y021471D01*
Y020709D01*
X02689Y02063D01*
X026785D01*
X02677Y02068D01*
X026772Y020681D01*
X026786Y020694D01*
X026799Y020709D01*
X02681Y020725D01*
X026818Y020742D01*
X026825Y02076D01*
X026828Y020779D01*
X02683Y020799D01*
X026828Y020818D01*
X026825Y020837D01*
X026818Y020855D01*
X02681Y020873D01*
X026799Y020889D01*
X026786Y020903D01*
X026772Y020916D01*
X026756Y020927D01*
X026738Y020935D01*
X02672Y020942D01*
X026701Y020945D01*
X026682Y020947D01*
X026662Y020945D01*
X026643Y020942D01*
X026625Y020935D01*
X026608Y020927D01*
X026592Y020916D01*
X026577Y020903D01*
X026564Y020889D01*
X026554Y020873D01*
X026545Y020855D01*
X026539Y020837D01*
X026535Y020818D01*
X026534Y020799D01*
X026535Y020779D01*
X026539Y02076D01*
X026545Y020742D01*
X026554Y020725D01*
X026564Y020709D01*
X026577Y020694D01*
X026592Y020681D01*
X026594Y02068D01*
X026578Y02063D01*
X025573D01*
X025424Y020779D01*
X025432Y020818D01*
X02544Y020834D01*
X025454Y020838D01*
X025473Y020848D01*
X02549Y020859D01*
X025505Y020873D01*
X025519Y020888D01*
X02553Y020905D01*
X02554Y020924D01*
X025546Y020943D01*
X02555Y020964D01*
X025552Y020984D01*
X02555Y021005D01*
X025546Y021025D01*
X02554Y021045D01*
X02553Y021063D01*
X025519Y02108D01*
X025505Y021096D01*
X02549Y021109D01*
X025473Y021121D01*
X025454Y02113D01*
X025435Y021137D01*
X025414Y021141D01*
X025394Y021142D01*
X025373Y021141D01*
X025353Y021137D01*
X025333Y02113D01*
X025315Y021121D01*
X025298Y021109D01*
X025282Y021096D01*
X025268Y02108D01*
X025257Y021063D01*
X025248Y021045D01*
X025243Y02103D01*
X025227Y021022D01*
X025188Y021014D01*
X024807Y021395D01*
X024804Y021412D01*
X024812Y021456D01*
X024814Y021457D01*
X024829Y02147D01*
X024842Y021485D01*
X024853Y021501D01*
X024854Y021504D01*
X024906Y0215D01*
X024906Y0215D01*
X024907Y021497D01*
X024913Y021478D01*
X024922Y021459D01*
X024934Y021442D01*
X024947Y021427D01*
X024963Y021413D01*
X02498Y021402D01*
X024999Y021392D01*
X025018Y021386D01*
X025038Y021382D01*
X025059Y02138D01*
X02508Y021382D01*
X0251Y021386D01*
X025119Y021392D01*
X025138Y021402D01*
X025155Y021413D01*
X025171Y021427D01*
X025184Y021442D01*
X025196Y021459D01*
X025205Y021478D01*
X025212Y021497D01*
X025212Y0215D01*
X025246Y021513D01*
X025255Y021514D01*
X025265Y021513D01*
X025274Y021503D01*
X025289Y021489D01*
X025306Y021477D01*
X025325Y021468D01*
X025344Y021462D01*
X025365Y021458D01*
X025385Y021456D01*
X025406Y021458D01*
X025426Y021462D01*
X025446Y021468D01*
X025464Y021477D01*
X025481Y021489D01*
X025497Y021503D01*
X02551Y021518D01*
X025522Y021535D01*
X025531Y021554D01*
X025538Y021573D01*
X025542Y021594D01*
X025543Y021614D01*
X025542Y021635D01*
X025538Y021655D01*
X025531Y021675D01*
X025522Y021693D01*
X02551Y02171D01*
X025497Y021726D01*
X025481Y021739D01*
X025464Y021751D01*
X025446Y02176D01*
X025426Y021767D01*
X025406Y021771D01*
X025385Y021772D01*
X025365Y021771D01*
X025344Y021767D01*
X025325Y02176D01*
X025306Y021751D01*
X025289Y021739D01*
X025274Y021726D01*
X02526Y02171D01*
X025249Y021693D01*
X025239Y021675D01*
X025233Y021655D01*
X025232Y021652D01*
X025198Y021639D01*
X025189Y021639D01*
X02518Y02164D01*
X025171Y02165D01*
X025155Y021663D01*
X025138Y021675D01*
X025119Y021684D01*
X0251Y021691D01*
X02508Y021695D01*
X025059Y021696D01*
X025038Y021695D01*
X025018Y021691D01*
X024999Y021684D01*
X02498Y021675D01*
X024963Y021663D01*
X024947Y02165D01*
X024934Y021634D01*
X024922Y021617D01*
X024919Y02161D01*
X024878Y021611D01*
X024867Y021615D01*
X024861Y021631D01*
X024853Y021649D01*
X024842Y021665D01*
X024829Y021679D01*
X024814Y021692D01*
X024798Y021703D01*
X024781Y021711D01*
X024763Y021718D01*
X024744Y021721D01*
X024724Y021723D01*
X024705Y021721D01*
X024686Y021718D01*
X024668Y021711D01*
X02465Y021703D01*
X024634Y021692D01*
X02462Y021679D01*
X024607Y021665D01*
X024596Y021649D01*
X024588Y021631D01*
X024581Y021613D01*
X024578Y021594D01*
X024576Y021575D01*
X024578Y021555D01*
X024581Y021537D01*
X024588Y021518D01*
X024596Y021501D01*
X024607Y021485D01*
X02462Y02147D01*
X024623Y021467D01*
X024611Y021425D01*
X024606Y021417D01*
X023259D01*
X02324Y021442D01*
X023231Y021467D01*
X023236Y021478D01*
X023243Y021497D01*
X023247Y021518D01*
X023248Y021538D01*
X023247Y021559D01*
X023243Y021579D01*
X023236Y021599D01*
X023227Y021617D01*
X023216Y021634D01*
X023202Y02165D01*
X023187Y021663D01*
X023169Y021675D01*
X023151Y021684D01*
X023131Y021691D01*
X023111Y021695D01*
X023091Y021696D01*
X02307Y021695D01*
X02305Y021691D01*
X02303Y021684D01*
X023012Y021675D01*
X022994Y021663D01*
X022979Y02165D01*
X022965Y021634D01*
X022954Y021617D01*
X022945Y021599D01*
X022938Y021579D01*
X022934Y021559D01*
X022933Y021538D01*
X022934Y021518D01*
X022938Y021497D01*
X022945Y021478D01*
X02295Y021467D01*
X022941Y021442D01*
X022922Y021417D01*
X022441D01*
X022244Y021614D01*
Y02431D01*
X022274Y024311D01*
X022304Y024315D01*
X022333Y024321D01*
X022362Y024331D01*
X02239Y024342D01*
X022417Y024356D01*
X022442Y024372D01*
X022466Y02439D01*
X022488Y024411D01*
X022508Y024433D01*
X022527Y024457D01*
X022543Y024482D01*
X022557Y024509D01*
X022568Y024537D01*
X022577Y024565D01*
X022584Y024595D01*
X022588Y024624D01*
X022589Y024655D01*
X022588Y024685D01*
X022584Y024714D01*
X022577Y024744D01*
X022568Y024772D01*
X022557Y0248D01*
X022543Y024827D01*
X022527Y024852D01*
X022508Y024876D01*
X022488Y024898D01*
X022466Y024919D01*
X022442Y024937D01*
X022417Y024953D01*
X02239Y024967D01*
X022362Y024979D01*
X022333Y024988D01*
X022304Y024994D01*
X022274Y024998D01*
X022244Y024999D01*
Y025206D01*
X024872D01*
X024961Y025118D01*
D02*
G37*
G36*
X032441Y020984D02*
Y014685D01*
X033386Y01374D01*
Y012835D01*
X032992Y012441D01*
X013425D01*
X012874Y012992D01*
Y016024D01*
X012992Y016142D01*
X017126D01*
X018189Y017205D01*
X019317D01*
X019332Y017195D01*
X019349Y017186D01*
X019367Y01718D01*
X019386Y017176D01*
X019406Y017175D01*
X019425Y017176D01*
X019444Y01718D01*
X019462Y017186D01*
X019479Y017195D01*
X019494Y017205D01*
X021063D01*
X021575Y017717D01*
Y021417D01*
X02195D01*
X021996Y021389D01*
X021998Y021369D01*
X022002Y021348D01*
X022008Y021329D01*
X022017Y02131D01*
X022029Y021293D01*
X022043Y021278D01*
X022058Y021264D01*
X022075Y021253D01*
X022094Y021243D01*
X022113Y021237D01*
X022134Y021233D01*
X022154Y021231D01*
X022175Y021233D01*
X022195Y021237D01*
X022215Y021243D01*
X022233Y021253D01*
X02225Y021264D01*
X022266Y021278D01*
X022279Y021293D01*
X022291Y02131D01*
X0223Y021329D01*
X022304Y021341D01*
X022324Y021351D01*
X022359Y021357D01*
X02237Y021346D01*
X022382Y021336D01*
X022395Y021328D01*
X02241Y021322D01*
X022425Y021318D01*
X022441Y021317D01*
X022922D01*
X022928Y021318D01*
X022935Y021318D01*
X022936Y021318D01*
X022937Y021318D01*
X022944Y02132D01*
X02295Y021321D01*
X022952Y021322D01*
X022953Y021322D01*
X022959Y021324D01*
X022965Y021327D01*
X022966Y021327D01*
X022967Y021328D01*
X022973Y021331D01*
X022979Y021335D01*
X02298Y021336D01*
X022981Y021336D01*
X022986Y02134D01*
X022991Y021345D01*
X022992Y021346D01*
X022993Y021346D01*
X022997Y021351D01*
X023001Y021356D01*
X02302Y021381D01*
X023024Y021387D01*
X023028Y021393D01*
X02303Y021392D01*
X02305Y021386D01*
X02307Y021382D01*
X023091Y02138D01*
X023111Y021382D01*
X023131Y021386D01*
X023151Y021392D01*
X023153Y021393D01*
X023157Y021387D01*
X023161Y021381D01*
X02318Y021356D01*
X023184Y021351D01*
X023188Y021346D01*
X023189Y021346D01*
X02319Y021345D01*
X023195Y02134D01*
X0232Y021336D01*
X023201Y021336D01*
X023202Y021335D01*
X023208Y021331D01*
X023214Y021328D01*
X023215Y021327D01*
X023216Y021327D01*
X023222Y021324D01*
X023228Y021322D01*
X02323Y021322D01*
X023231Y021321D01*
X023237Y02132D01*
X023244Y021318D01*
X023245Y021318D01*
X023246Y021318D01*
X023253Y021318D01*
X023259Y021317D01*
X024606D01*
X024606Y021317D01*
X024606Y021317D01*
X024614Y021318D01*
X024621Y021318D01*
X024622Y021318D01*
X024622Y021318D01*
X024629Y02132D01*
X024637Y021322D01*
X024637Y021322D01*
X024637Y021322D01*
X024644Y021325D01*
X024651Y021328D01*
X024651Y021328D01*
X024652Y021328D01*
X024658Y021332D01*
X024665Y021336D01*
X024665Y021336D01*
X024665Y021337D01*
X024668Y021339D01*
X024674Y021342D01*
X024679Y021343D01*
X024694Y021343D01*
X024705Y021341D01*
X024717Y021339D01*
X024721Y021338D01*
X024726Y021334D01*
X02473Y021332D01*
X024732Y02133D01*
X024736Y021324D01*
X025117Y020943D01*
X025119Y020942D01*
X025121Y02094D01*
X025125Y020937D01*
X025129Y020933D01*
X025131Y020932D01*
X025133Y02093D01*
X025138Y020928D01*
X025143Y020925D01*
X025145Y020924D01*
X025147Y020923D01*
X025152Y020921D01*
X025157Y020919D01*
X025159Y020918D01*
X025162Y020918D01*
X025167Y020916D01*
X025173Y020915D01*
X025175Y020915D01*
X025177Y020915D01*
X025183Y020914D01*
X025188Y020914D01*
X025191Y020914D01*
X025193Y020914D01*
X025198Y020915D01*
X025204Y020915D01*
X025206Y020916D01*
X025208Y020916D01*
X025248Y020924D01*
X025248Y020924D01*
X025248Y020924D01*
X025257Y020905D01*
X025268Y020888D01*
X025282Y020873D01*
X025298Y020859D01*
X025315Y020848D01*
X025333Y020838D01*
X025334Y020838D01*
X025333Y020838D01*
X025325Y020799D01*
X025325Y020797D01*
X025325Y020795D01*
X025324Y020789D01*
X025323Y020783D01*
X025324Y020781D01*
X025323Y020779D01*
X025324Y020773D01*
X025324Y020768D01*
X025324Y020765D01*
X025325Y020763D01*
X025326Y020758D01*
X025327Y020752D01*
X025328Y02075D01*
X025328Y020748D01*
X02533Y020743D01*
X025332Y020737D01*
X025333Y020735D01*
X025334Y020733D01*
X025337Y020728D01*
X02534Y020724D01*
X025341Y020722D01*
X025343Y02072D01*
X025346Y020716D01*
X02535Y020711D01*
X025351Y02071D01*
X025353Y020708D01*
X025502Y020559D01*
X025514Y020549D01*
X025527Y020541D01*
X025542Y020535D01*
X025557Y020531D01*
X025573Y02053D01*
X026578D01*
X026579Y02053D01*
X02658Y02053D01*
X026587Y02053D01*
X026594Y020531D01*
X026595Y020531D01*
X026596Y020531D01*
X026603Y020533D01*
X026609Y020535D01*
X02661Y020535D01*
X026611Y020535D01*
X026618Y020538D01*
X026624Y020541D01*
X026625Y020541D01*
X026626Y020541D01*
X026632Y020545D01*
X026637Y020549D01*
X026638Y020549D01*
X026639Y02055D01*
X026644Y020555D01*
X026649Y020559D01*
X02665Y02056D01*
X026651Y02056D01*
X026652Y020561D01*
X026655Y020563D01*
X026664Y020566D01*
X026669Y020567D01*
X026694D01*
X026699Y020566D01*
X026708Y020563D01*
X026712Y020561D01*
X026713Y02056D01*
X026713Y02056D01*
X026714Y020559D01*
X026719Y020555D01*
X026724Y02055D01*
X026725Y020549D01*
X026726Y020549D01*
X026732Y020545D01*
X026738Y020541D01*
X026739Y020541D01*
X026739Y020541D01*
X026746Y020538D01*
X026752Y020535D01*
X026753Y020535D01*
X026754Y020535D01*
X026761Y020533D01*
X026767Y020531D01*
X026768Y020531D01*
X026769Y020531D01*
X026776Y02053D01*
X026783Y02053D01*
X026784Y02053D01*
X026785Y02053D01*
X02689D01*
X026905Y020531D01*
X026921Y020535D01*
X026935Y020541D01*
X026949Y020549D01*
X026961Y020559D01*
X027039Y020638D01*
X02705Y02065D01*
X027058Y020663D01*
X027064Y020678D01*
X027068Y020693D01*
X027069Y020709D01*
Y0214D01*
X027087Y021417D01*
X027107Y021418D01*
X027127Y021422D01*
X027147Y021429D01*
X027166Y021438D01*
X027183Y02145D01*
X027198Y021463D01*
X027212Y021479D01*
X027223Y021496D01*
X027232Y021514D01*
X027239Y021534D01*
X027243Y021554D01*
X027244Y021575D01*
X027243Y021595D01*
X027239Y021616D01*
X027232Y021635D01*
X027223Y021654D01*
X027212Y021671D01*
X027202Y021682D01*
X027204Y021698D01*
X027222Y021732D01*
X031693D01*
X032441Y020984D01*
D02*
G37*
%LPC*%
G36*
X013387Y024999D02*
X013101D01*
X013079Y024998D01*
X013056Y024994D01*
X013035Y024988D01*
X013014Y024979D01*
X012994Y024968D01*
X012975Y024955D01*
X012958Y02494D01*
X012943Y024923D01*
X01293Y024905D01*
X012919Y024885D01*
X012911Y024864D01*
X012904Y024842D01*
X012901Y02482D01*
X012899Y024797D01*
Y024512D01*
X012901Y024489D01*
X012904Y024467D01*
X012911Y024445D01*
X012919Y024424D01*
X01293Y024404D01*
X012943Y024386D01*
X012958Y024369D01*
X012975Y024354D01*
X012994Y024341D01*
X013014Y02433D01*
X013035Y024321D01*
X013056Y024315D01*
X013079Y024311D01*
X013101Y02431D01*
X013387D01*
X013409Y024311D01*
X013432Y024315D01*
X013454Y024321D01*
X013474Y02433D01*
X013494Y024341D01*
X013513Y024354D01*
X01353Y024369D01*
X013545Y024386D01*
X013558Y024404D01*
X013569Y024424D01*
X013578Y024445D01*
X013584Y024467D01*
X013588Y024489D01*
X013589Y024512D01*
Y024797D01*
X013588Y02482D01*
X013584Y024842D01*
X013578Y024864D01*
X013569Y024885D01*
X013558Y024905D01*
X013545Y024923D01*
X01353Y02494D01*
X013513Y024955D01*
X013494Y024968D01*
X013474Y024979D01*
X013454Y024988D01*
X013432Y024994D01*
X013409Y024998D01*
X013387Y024999D01*
D02*
G37*
G36*
X021244Y024999D02*
X021214Y024998D01*
X021184Y024994D01*
X021155Y024988D01*
X021126Y024979D01*
X021098Y024967D01*
X021072Y024953D01*
X021046Y024937D01*
X021022Y024919D01*
X021Y024898D01*
X02098Y024876D01*
X020962Y024852D01*
X020945Y024827D01*
X020932Y0248D01*
X02092Y024772D01*
X020911Y024744D01*
X020905Y024714D01*
X020901Y024685D01*
X020899Y024655D01*
X020901Y024624D01*
X020905Y024595D01*
X020911Y024565D01*
X02092Y024537D01*
X020932Y024509D01*
X020945Y024482D01*
X020962Y024457D01*
X02098Y024433D01*
X021Y024411D01*
X021022Y02439D01*
X021046Y024372D01*
X021072Y024356D01*
X021098Y024342D01*
X021126Y024331D01*
X021155Y024321D01*
X021184Y024315D01*
X021214Y024311D01*
X021244Y02431D01*
X021274Y024311D01*
X021304Y024315D01*
X021333Y024321D01*
X021362Y024331D01*
X02139Y024342D01*
X021416Y024356D01*
X021442Y024372D01*
X021466Y02439D01*
X021488Y024411D01*
X021508Y024433D01*
X021527Y024457D01*
X021543Y024482D01*
X021557Y024509D01*
X021568Y024537D01*
X021577Y024565D01*
X021584Y024595D01*
X021588Y024624D01*
X021589Y024655D01*
X021588Y024685D01*
X021584Y024714D01*
X021577Y024744D01*
X021568Y024772D01*
X021557Y0248D01*
X021543Y024827D01*
X021527Y024852D01*
X021508Y024876D01*
X021488Y024898D01*
X021466Y024919D01*
X021442Y024937D01*
X021416Y024953D01*
X02139Y024967D01*
X021362Y024979D01*
X021333Y024988D01*
X021304Y024994D01*
X021274Y024998D01*
X021244Y024999D01*
D02*
G37*
G36*
X020244D02*
X020214Y024998D01*
X020184Y024994D01*
X020155Y024988D01*
X020126Y024979D01*
X020098Y024967D01*
X020072Y024953D01*
X020046Y024937D01*
X020022Y024919D01*
X02Y024898D01*
X01998Y024876D01*
X019962Y024852D01*
X019945Y024827D01*
X019932Y0248D01*
X01992Y024772D01*
X019911Y024744D01*
X019905Y024714D01*
X019901Y024685D01*
X019899Y024655D01*
X019901Y024624D01*
X019905Y024595D01*
X019911Y024565D01*
X01992Y024537D01*
X019932Y024509D01*
X019945Y024482D01*
X019962Y024457D01*
X01998Y024433D01*
X02Y024411D01*
X020022Y02439D01*
X020046Y024372D01*
X020072Y024356D01*
X020098Y024342D01*
X020126Y024331D01*
X020155Y024321D01*
X020184Y024315D01*
X020214Y024311D01*
X020244Y02431D01*
X020274Y024311D01*
X020304Y024315D01*
X020333Y024321D01*
X020362Y024331D01*
X02039Y024342D01*
X020417Y024356D01*
X020442Y024372D01*
X020466Y02439D01*
X020488Y024411D01*
X020508Y024433D01*
X020527Y024457D01*
X020543Y024482D01*
X020557Y024509D01*
X020568Y024537D01*
X020577Y024565D01*
X020584Y024595D01*
X020588Y024624D01*
X020589Y024655D01*
X020588Y024685D01*
X020584Y024714D01*
X020577Y024744D01*
X020568Y024772D01*
X020557Y0248D01*
X020543Y024827D01*
X020527Y024852D01*
X020508Y024876D01*
X020488Y024898D01*
X020466Y024919D01*
X020442Y024937D01*
X020417Y024953D01*
X02039Y024967D01*
X020362Y024979D01*
X020333Y024988D01*
X020304Y024994D01*
X020274Y024998D01*
X020244Y024999D01*
D02*
G37*
G36*
X018244Y024999D02*
X018214Y024998D01*
X018184Y024994D01*
X018155Y024988D01*
X018126Y024979D01*
X018098Y024967D01*
X018072Y024953D01*
X018046Y024937D01*
X018022Y024919D01*
X018Y024898D01*
X01798Y024876D01*
X017962Y024852D01*
X017945Y024827D01*
X017932Y0248D01*
X01792Y024772D01*
X017911Y024744D01*
X017905Y024714D01*
X017901Y024685D01*
X017899Y024655D01*
X017901Y024624D01*
X017905Y024595D01*
X017911Y024565D01*
X01792Y024537D01*
X017932Y024509D01*
X017945Y024482D01*
X017962Y024457D01*
X01798Y024433D01*
X018Y024411D01*
X018022Y02439D01*
X018046Y024372D01*
X018072Y024356D01*
X018098Y024342D01*
X018126Y02433D01*
X018155Y024321D01*
X018184Y024315D01*
X018214Y024311D01*
X018244Y02431D01*
X018274Y024311D01*
X018304Y024315D01*
X018333Y024321D01*
X018362Y02433D01*
X01839Y024342D01*
X018417Y024356D01*
X018442Y024372D01*
X018466Y02439D01*
X018488Y024411D01*
X018508Y024433D01*
X018527Y024457D01*
X018543Y024482D01*
X018557Y024509D01*
X018568Y024537D01*
X018577Y024565D01*
X018584Y024595D01*
X018588Y024624D01*
X018589Y024655D01*
X018588Y024685D01*
X018584Y024714D01*
X018577Y024744D01*
X018568Y024772D01*
X018557Y0248D01*
X018543Y024827D01*
X018527Y024852D01*
X018508Y024876D01*
X018488Y024898D01*
X018466Y024919D01*
X018442Y024937D01*
X018417Y024953D01*
X01839Y024967D01*
X018362Y024979D01*
X018333Y024988D01*
X018304Y024994D01*
X018274Y024998D01*
X018244Y024999D01*
D02*
G37*
G36*
X016244D02*
X016214Y024998D01*
X016184Y024994D01*
X016155Y024988D01*
X016126Y024979D01*
X016098Y024967D01*
X016072Y024953D01*
X016046Y024937D01*
X016022Y024919D01*
X016Y024898D01*
X01598Y024876D01*
X015962Y024852D01*
X015945Y024827D01*
X015932Y0248D01*
X01592Y024772D01*
X015911Y024744D01*
X015905Y024714D01*
X015901Y024685D01*
X015899Y024655D01*
X015901Y024624D01*
X015905Y024595D01*
X015911Y024565D01*
X01592Y024537D01*
X015932Y024509D01*
X015945Y024482D01*
X015962Y024457D01*
X01598Y024433D01*
X016Y024411D01*
X016022Y02439D01*
X016046Y024372D01*
X016072Y024356D01*
X016098Y024342D01*
X016126Y02433D01*
X016155Y024321D01*
X016184Y024315D01*
X016214Y024311D01*
X016244Y02431D01*
X016274Y024311D01*
X016304Y024315D01*
X016333Y024321D01*
X016362Y02433D01*
X01639Y024342D01*
X016416Y024356D01*
X016442Y024372D01*
X016466Y02439D01*
X016488Y024411D01*
X016508Y024433D01*
X016527Y024457D01*
X016543Y024482D01*
X016557Y024509D01*
X016568Y024537D01*
X016577Y024565D01*
X016584Y024595D01*
X016588Y024624D01*
X016589Y024655D01*
X016588Y024685D01*
X016584Y024714D01*
X016577Y024744D01*
X016568Y024772D01*
X016557Y0248D01*
X016543Y024827D01*
X016527Y024852D01*
X016508Y024876D01*
X016488Y024898D01*
X016466Y024919D01*
X016442Y024937D01*
X016416Y024953D01*
X01639Y024967D01*
X016362Y024979D01*
X016333Y024988D01*
X016304Y024994D01*
X016274Y024998D01*
X016244Y024999D01*
D02*
G37*
G36*
X014244D02*
X014214Y024998D01*
X014184Y024994D01*
X014155Y024988D01*
X014126Y024979D01*
X014098Y024967D01*
X014072Y024953D01*
X014046Y024937D01*
X014022Y024919D01*
X014Y024898D01*
X01398Y024876D01*
X013962Y024852D01*
X013945Y024827D01*
X013932Y0248D01*
X01392Y024772D01*
X013911Y024744D01*
X013905Y024714D01*
X013901Y024685D01*
X013899Y024655D01*
X013901Y024624D01*
X013905Y024595D01*
X013911Y024565D01*
X01392Y024537D01*
X013932Y024509D01*
X013945Y024482D01*
X013962Y024457D01*
X01398Y024433D01*
X014Y024411D01*
X014022Y02439D01*
X014046Y024372D01*
X014072Y024356D01*
X014098Y024342D01*
X014126Y02433D01*
X014155Y024321D01*
X014184Y024315D01*
X014214Y024311D01*
X014244Y02431D01*
X014274Y024311D01*
X014304Y024315D01*
X014333Y024321D01*
X014362Y02433D01*
X01439Y024342D01*
X014417Y024356D01*
X014442Y024372D01*
X014466Y02439D01*
X014488Y024411D01*
X014508Y024433D01*
X014527Y024457D01*
X014543Y024482D01*
X014557Y024509D01*
X014568Y024537D01*
X014577Y024565D01*
X014584Y024595D01*
X014588Y024624D01*
X014589Y024655D01*
X014588Y024685D01*
X014584Y024714D01*
X014577Y024744D01*
X014568Y024772D01*
X014557Y0248D01*
X014543Y024827D01*
X014527Y024852D01*
X014508Y024876D01*
X014488Y024898D01*
X014466Y024919D01*
X014442Y024937D01*
X014417Y024953D01*
X01439Y024967D01*
X014362Y024979D01*
X014333Y024988D01*
X014304Y024994D01*
X014274Y024998D01*
X014244Y024999D01*
D02*
G37*
G36*
X019244Y024999D02*
X019214Y024998D01*
X019184Y024994D01*
X019155Y024988D01*
X019126Y024979D01*
X019098Y024967D01*
X019072Y024953D01*
X019046Y024937D01*
X019022Y024919D01*
X019Y024898D01*
X01898Y024876D01*
X018962Y024852D01*
X018945Y024827D01*
X018932Y0248D01*
X01892Y024772D01*
X018911Y024744D01*
X018905Y024714D01*
X018901Y024685D01*
X018899Y024655D01*
X018901Y024624D01*
X018905Y024595D01*
X018911Y024565D01*
X01892Y024537D01*
X018932Y024509D01*
X018945Y024482D01*
X018962Y024457D01*
X01898Y024433D01*
X019Y024411D01*
X019022Y02439D01*
X019046Y024372D01*
X019072Y024356D01*
X019098Y024342D01*
X019126Y02433D01*
X019155Y024321D01*
X019184Y024315D01*
X019214Y024311D01*
X019244Y02431D01*
X019274Y024311D01*
X019304Y024315D01*
X019333Y024321D01*
X019362Y02433D01*
X01939Y024342D01*
X019417Y024356D01*
X019442Y024372D01*
X019466Y02439D01*
X019488Y024411D01*
X019508Y024433D01*
X019527Y024457D01*
X019543Y024482D01*
X019557Y024509D01*
X019568Y024537D01*
X019577Y024565D01*
X019584Y024595D01*
X019588Y024624D01*
X019589Y024655D01*
X019588Y024685D01*
X019584Y024714D01*
X019577Y024744D01*
X019568Y024772D01*
X019557Y0248D01*
X019543Y024827D01*
X019527Y024852D01*
X019508Y024876D01*
X019488Y024898D01*
X019466Y024919D01*
X019442Y024937D01*
X019417Y024953D01*
X01939Y024967D01*
X019362Y024979D01*
X019333Y024988D01*
X019304Y024994D01*
X019274Y024998D01*
X019244Y024999D01*
D02*
G37*
G36*
X017244Y024999D02*
X017214Y024998D01*
X017184Y024994D01*
X017155Y024988D01*
X017126Y024979D01*
X017098Y024967D01*
X017072Y024953D01*
X017046Y024937D01*
X017022Y024919D01*
X017Y024898D01*
X01698Y024876D01*
X016962Y024852D01*
X016945Y024827D01*
X016932Y0248D01*
X01692Y024772D01*
X016911Y024744D01*
X016905Y024714D01*
X016901Y024685D01*
X016899Y024655D01*
X016901Y024624D01*
X016905Y024595D01*
X016911Y024565D01*
X01692Y024537D01*
X016932Y024509D01*
X016945Y024482D01*
X016962Y024457D01*
X01698Y024433D01*
X017Y024411D01*
X017022Y02439D01*
X017046Y024372D01*
X017072Y024356D01*
X017098Y024342D01*
X017126Y02433D01*
X017155Y024321D01*
X017184Y024315D01*
X017214Y024311D01*
X017244Y02431D01*
X017274Y024311D01*
X017304Y024315D01*
X017333Y024321D01*
X017362Y02433D01*
X01739Y024342D01*
X017416Y024356D01*
X017442Y024372D01*
X017466Y02439D01*
X017488Y024411D01*
X017508Y024433D01*
X017527Y024457D01*
X017543Y024482D01*
X017557Y024509D01*
X017568Y024537D01*
X017577Y024565D01*
X017584Y024595D01*
X017588Y024624D01*
X017589Y024655D01*
X017588Y024685D01*
X017584Y024714D01*
X017577Y024744D01*
X017568Y024772D01*
X017557Y0248D01*
X017543Y024827D01*
X017527Y024852D01*
X017508Y024876D01*
X017488Y024898D01*
X017466Y024919D01*
X017442Y024937D01*
X017416Y024953D01*
X01739Y024967D01*
X017362Y024979D01*
X017333Y024988D01*
X017304Y024994D01*
X017274Y024998D01*
X017244Y024999D01*
D02*
G37*
G36*
X015244D02*
X015214Y024998D01*
X015184Y024994D01*
X015155Y024988D01*
X015126Y024979D01*
X015098Y024967D01*
X015072Y024953D01*
X015046Y024937D01*
X015022Y024919D01*
X015Y024898D01*
X01498Y024876D01*
X014962Y024852D01*
X014945Y024827D01*
X014932Y0248D01*
X01492Y024772D01*
X014911Y024744D01*
X014905Y024714D01*
X014901Y024685D01*
X014899Y024655D01*
X014901Y024624D01*
X014905Y024595D01*
X014911Y024565D01*
X01492Y024537D01*
X014932Y024509D01*
X014945Y024482D01*
X014962Y024457D01*
X01498Y024433D01*
X015Y024411D01*
X015022Y02439D01*
X015046Y024372D01*
X015072Y024356D01*
X015098Y024342D01*
X015126Y02433D01*
X015155Y024321D01*
X015184Y024315D01*
X015214Y024311D01*
X015244Y02431D01*
X015274Y024311D01*
X015304Y024315D01*
X015333Y024321D01*
X015362Y02433D01*
X01539Y024342D01*
X015417Y024356D01*
X015442Y024372D01*
X015466Y02439D01*
X015488Y024411D01*
X015508Y024433D01*
X015527Y024457D01*
X015543Y024482D01*
X015557Y024509D01*
X015568Y024537D01*
X015577Y024565D01*
X015584Y024595D01*
X015588Y024624D01*
X015589Y024655D01*
X015588Y024685D01*
X015584Y024714D01*
X015577Y024744D01*
X015568Y024772D01*
X015557Y0248D01*
X015543Y024827D01*
X015527Y024852D01*
X015508Y024876D01*
X015488Y024898D01*
X015466Y024919D01*
X015442Y024937D01*
X015417Y024953D01*
X01539Y024967D01*
X015362Y024979D01*
X015333Y024988D01*
X015304Y024994D01*
X015274Y024998D01*
X015244Y024999D01*
D02*
G37*
G36*
X027087Y024884D02*
X027056Y024882D01*
X027025Y024878D01*
X026995Y02487D01*
X026965Y02486D01*
X026937Y024846D01*
X026911Y02483D01*
X026886Y024812D01*
X026863Y024791D01*
X026842Y024768D01*
X026823Y024743D01*
X026807Y024716D01*
X026794Y024688D01*
X026783Y024659D01*
X026776Y024629D01*
X026771Y024598D01*
X02677Y024567D01*
X026771Y024536D01*
X026776Y024505D01*
X026783Y024475D01*
X026794Y024446D01*
X026807Y024418D01*
X026823Y024391D01*
X026842Y024366D01*
X026863Y024343D01*
X026886Y024322D01*
X026911Y024303D01*
X026937Y024287D01*
X026965Y024274D01*
X026995Y024264D01*
X027025Y024256D01*
X027056Y024252D01*
X027087Y02425D01*
X027118Y024252D01*
X027148Y024256D01*
X027179Y024264D01*
X027208Y024274D01*
X027236Y024287D01*
X027263Y024303D01*
X027288Y024322D01*
X027311Y024343D01*
X027332Y024366D01*
X02735Y024391D01*
X027366Y024418D01*
X027379Y024446D01*
X02739Y024475D01*
X027397Y024505D01*
X027402Y024536D01*
X027404Y024567D01*
X027402Y024598D01*
X027397Y024629D01*
X02739Y024659D01*
X027379Y024688D01*
X027366Y024716D01*
X02735Y024743D01*
X027332Y024768D01*
X027311Y024791D01*
X027288Y024812D01*
X027263Y02483D01*
X027236Y024846D01*
X027208Y02486D01*
X027179Y02487D01*
X027148Y024878D01*
X027118Y024882D01*
X027087Y024884D01*
D02*
G37*
G36*
X026299D02*
X026268Y024882D01*
X026237Y024878D01*
X026207Y02487D01*
X026178Y02486D01*
X02615Y024846D01*
X026123Y02483D01*
X026098Y024812D01*
X026075Y024791D01*
X026054Y024768D01*
X026036Y024743D01*
X02602Y024716D01*
X026006Y024688D01*
X025996Y024659D01*
X025988Y024629D01*
X025984Y024598D01*
X025982Y024567D01*
X025984Y024536D01*
X025988Y024505D01*
X025996Y024475D01*
X026006Y024446D01*
X02602Y024418D01*
X026036Y024391D01*
X026054Y024366D01*
X026075Y024343D01*
X026098Y024322D01*
X026123Y024303D01*
X02615Y024287D01*
X026178Y024274D01*
X026207Y024264D01*
X026237Y024256D01*
X026268Y024252D01*
X026299Y02425D01*
X02633Y024252D01*
X026361Y024256D01*
X026391Y024264D01*
X02642Y024274D01*
X026449Y024287D01*
X026475Y024303D01*
X0265Y024322D01*
X026523Y024343D01*
X026544Y024366D01*
X026563Y024391D01*
X026579Y024418D01*
X026592Y024446D01*
X026602Y024475D01*
X02661Y024505D01*
X026615Y024536D01*
X026616Y024567D01*
X026615Y024598D01*
X02661Y024629D01*
X026602Y024659D01*
X026592Y024688D01*
X026579Y024716D01*
X026563Y024743D01*
X026544Y024768D01*
X026523Y024791D01*
X0265Y024812D01*
X026475Y02483D01*
X026449Y024846D01*
X02642Y02486D01*
X026391Y02487D01*
X026361Y024878D01*
X02633Y024882D01*
X026299Y024884D01*
D02*
G37*
G36*
X028209Y025069D02*
X028169Y025068D01*
X02813Y025063D01*
X028091Y025055D01*
X028053Y025045D01*
X028016Y025031D01*
X027981Y025015D01*
X027946Y024995D01*
X027913Y024973D01*
X027882Y024949D01*
X027853Y024922D01*
X027827Y024893D01*
X027802Y024862D01*
X02778Y024829D01*
X027761Y024795D01*
X027745Y024759D01*
X027731Y024722D01*
X02772Y024684D01*
X027712Y024646D01*
X027708Y024606D01*
X027706Y024567D01*
X027708Y024528D01*
X027712Y024488D01*
X02772Y02445D01*
X027731Y024412D01*
X027745Y024375D01*
X027761Y024339D01*
X02778Y024304D01*
X027802Y024272D01*
X027827Y024241D01*
X027853Y024212D01*
X027882Y024185D01*
X027913Y024161D01*
X027946Y024139D01*
X027981Y024119D01*
X028016Y024103D01*
X028053Y024089D01*
X028091Y024078D01*
X02813Y024071D01*
X028169Y024066D01*
X028209Y024065D01*
X028248Y024066D01*
X028287Y024071D01*
X028326Y024078D01*
X028364Y024089D01*
X028401Y024103D01*
X028437Y024119D01*
X028471Y024139D01*
X028504Y024161D01*
X028535Y024185D01*
X028564Y024212D01*
X028591Y024241D01*
X028615Y024272D01*
X028637Y024304D01*
X028656Y024339D01*
X028673Y024375D01*
X028686Y024412D01*
X028697Y02445D01*
X028705Y024488D01*
X028709Y024528D01*
X028711Y024567D01*
X028709Y024606D01*
X028705Y024646D01*
X028697Y024684D01*
X028686Y024722D01*
X028673Y024759D01*
X028656Y024795D01*
X028637Y024829D01*
X028615Y024862D01*
X028591Y024893D01*
X028564Y024922D01*
X028535Y024949D01*
X028504Y024973D01*
X028471Y024995D01*
X028437Y025015D01*
X028401Y025031D01*
X028364Y025045D01*
X028326Y025055D01*
X028287Y025063D01*
X028248Y025068D01*
X028209Y025069D01*
D02*
G37*
G36*
X031205Y024572D02*
X031173Y02457D01*
X031141Y024566D01*
X03111Y024558D01*
X03108Y024547D01*
X031051Y024534D01*
X031024Y024517D01*
X030998Y024498D01*
X030975Y024477D01*
X030953Y024453D01*
X030934Y024427D01*
X030918Y0244D01*
X030904Y024371D01*
X030894Y024341D01*
X030886Y02431D01*
X030881Y024279D01*
X030879Y024247D01*
X030881Y024215D01*
X030886Y024183D01*
X030894Y024152D01*
X030904Y024122D01*
X030918Y024094D01*
X030934Y024066D01*
X030953Y024041D01*
X030975Y024017D01*
X030998Y023995D01*
X031024Y023976D01*
X031051Y02396D01*
X03108Y023946D01*
X03111Y023936D01*
X031141Y023928D01*
X031173Y023923D01*
X031205Y023922D01*
X031237Y023923D01*
X031268Y023928D01*
X031299Y023936D01*
X031329Y023946D01*
X031358Y02396D01*
X031385Y023976D01*
X031411Y023995D01*
X031435Y024017D01*
X031456Y024041D01*
X031475Y024066D01*
X031491Y024094D01*
X031505Y024122D01*
X031516Y024152D01*
X031524Y024183D01*
X031528Y024215D01*
X03153Y024247D01*
X031528Y024279D01*
X031524Y02431D01*
X031516Y024341D01*
X031505Y024371D01*
X031491Y0244D01*
X031475Y024427D01*
X031456Y024453D01*
X031435Y024477D01*
X031411Y024498D01*
X031385Y024517D01*
X031358Y024534D01*
X031329Y024547D01*
X031299Y024558D01*
X031268Y024566D01*
X031237Y02457D01*
X031205Y024572D01*
D02*
G37*
G36*
X035Y024572D02*
X034968Y02457D01*
X034937Y024566D01*
X034906Y024558D01*
X034876Y024547D01*
X034847Y024534D01*
X034819Y024517D01*
X034794Y024498D01*
X03477Y024477D01*
X034749Y024453D01*
X03473Y024427D01*
X034713Y0244D01*
X0347Y024371D01*
X034689Y024341D01*
X034681Y02431D01*
X034676Y024279D01*
X034675Y024247D01*
X034676Y024215D01*
X034681Y024183D01*
X034689Y024152D01*
X0347Y024122D01*
X034713Y024094D01*
X03473Y024066D01*
X034749Y024041D01*
X03477Y024017D01*
X034794Y023995D01*
X034819Y023976D01*
X034847Y02396D01*
X034876Y023946D01*
X034906Y023936D01*
X034937Y023928D01*
X034968Y023923D01*
X035Y023922D01*
X035032Y023923D01*
X035063Y023928D01*
X035094Y023936D01*
X035124Y023946D01*
X035153Y02396D01*
X035181Y023976D01*
X035206Y023995D01*
X03523Y024017D01*
X035251Y024041D01*
X03527Y024066D01*
X035287Y024094D01*
X0353Y024122D01*
X035311Y024152D01*
X035319Y024183D01*
X035324Y024215D01*
X035325Y024247D01*
X035324Y024279D01*
X035319Y02431D01*
X035311Y024341D01*
X0353Y024371D01*
X035287Y0244D01*
X03527Y024427D01*
X035251Y024453D01*
X03523Y024477D01*
X035206Y024498D01*
X035181Y024517D01*
X035153Y024534D01*
X035124Y024547D01*
X035094Y024558D01*
X035063Y024566D01*
X035032Y02457D01*
X035Y024572D01*
D02*
G37*
G36*
X036574Y024846D02*
X036458D01*
X036446Y024845D01*
X036332Y024822D01*
X036321Y024818D01*
X036213Y024774D01*
X036203Y024768D01*
X036106Y024704D01*
X036106Y024704D01*
X036097Y024696D01*
X036015Y024614D01*
X036015Y024614D01*
X036008Y024605D01*
X035943Y024509D01*
X035938Y024498D01*
X035893Y024391D01*
X03589Y02438D01*
X035867Y024266D01*
X035866Y024254D01*
Y024138D01*
X035867Y024126D01*
X03589Y024012D01*
X035893Y024001D01*
X035938Y023893D01*
X035943Y023883D01*
X036008Y023786D01*
X036008Y023786D01*
X036015Y023777D01*
X036097Y023695D01*
X036097Y023695D01*
X036106Y023688D01*
X036203Y023623D01*
X036213Y023618D01*
X036321Y023573D01*
X036332Y02357D01*
X036446Y023547D01*
X036458Y023546D01*
X036574D01*
X036585Y023547D01*
X0367Y02357D01*
X036711Y023573D01*
X036818Y023618D01*
X036828Y023623D01*
X036925Y023688D01*
X036925Y023688D01*
X036934Y023695D01*
X037016Y023777D01*
X037016Y023777D01*
X037024Y023786D01*
X037088Y023883D01*
X037094Y023893D01*
X037138Y024001D01*
X037142Y024012D01*
X037164Y024126D01*
X037166Y024138D01*
Y024254D01*
X037164Y024266D01*
X037142Y02438D01*
X037138Y024391D01*
X037094Y024498D01*
X037088Y024509D01*
X037024Y024605D01*
X037024Y024605D01*
X037016Y024614D01*
X036934Y024696D01*
X036934Y024696D01*
X036925Y024704D01*
X036828Y024768D01*
X036818Y024774D01*
X036711Y024818D01*
X0367Y024822D01*
X036585Y024845D01*
X036574Y024846D01*
D02*
G37*
G36*
X011918Y024875D02*
X011873Y024874D01*
X011829Y024869D01*
X011785Y024862D01*
X011742Y024852D01*
X011699Y024839D01*
X011658Y024824D01*
X011617Y024805D01*
X011578Y024784D01*
X01154Y024761D01*
X011504Y024735D01*
X01147Y024707D01*
X011437Y024676D01*
X011407Y024644D01*
X011379Y024609D01*
X011353Y024573D01*
X011329Y024536D01*
X011308Y024496D01*
X01129Y024456D01*
X011274Y024414D01*
X011261Y024372D01*
X011251Y024328D01*
X011244Y024285D01*
X01124Y02424D01*
X011238Y024196D01*
X01124Y024151D01*
X011244Y024107D01*
X011251Y024063D01*
X011261Y02402D01*
X011274Y023977D01*
X01129Y023936D01*
X011308Y023895D01*
X011329Y023856D01*
X011353Y023818D01*
X011379Y023782D01*
X011407Y023748D01*
X011437Y023715D01*
X01147Y023685D01*
X011504Y023657D01*
X01154Y023631D01*
X011578Y023607D01*
X011617Y023586D01*
X011658Y023568D01*
X011699Y023552D01*
X011742Y023539D01*
X011785Y023529D01*
X011829Y023522D01*
X011873Y023518D01*
X011918Y023516D01*
X011962Y023518D01*
X012006Y023522D01*
X01205Y023529D01*
X012094Y023539D01*
X012136Y023552D01*
X012178Y023568D01*
X012218Y023586D01*
X012257Y023607D01*
X012295Y023631D01*
X012331Y023657D01*
X012366Y023685D01*
X012398Y023715D01*
X012429Y023748D01*
X012457Y023782D01*
X012483Y023818D01*
X012506Y023856D01*
X012527Y023895D01*
X012545Y023936D01*
X012561Y023977D01*
X012574Y02402D01*
X012584Y024063D01*
X012591Y024107D01*
X012596Y024151D01*
X012597Y024196D01*
X012596Y02424D01*
X012591Y024285D01*
X012584Y024328D01*
X012574Y024372D01*
X012561Y024414D01*
X012545Y024456D01*
X012527Y024496D01*
X012506Y024536D01*
X012483Y024573D01*
X012457Y024609D01*
X012429Y024644D01*
X012398Y024676D01*
X012366Y024707D01*
X012331Y024735D01*
X012295Y024761D01*
X012257Y024784D01*
X012218Y024805D01*
X012178Y024824D01*
X012136Y024839D01*
X012094Y024852D01*
X01205Y024862D01*
X012006Y024869D01*
X011962Y024874D01*
X011918Y024875D01*
D02*
G37*
G36*
X013071Y023337D02*
X013052Y023336D01*
X013033Y023332D01*
X013014Y023326D01*
X012997Y023317D01*
X012981Y023306D01*
X012966Y023294D01*
X012953Y023279D01*
X012943Y023263D01*
X012934Y023246D01*
X012928Y023227D01*
X012924Y023208D01*
X012923Y023189D01*
X012924Y02317D01*
X012928Y023151D01*
X012934Y023132D01*
X012943Y023115D01*
X012953Y023099D01*
X012966Y023084D01*
X012981Y023072D01*
X012997Y023061D01*
X013014Y023052D01*
X013033Y023046D01*
X013052Y023042D01*
X013071Y023041D01*
X01309Y023042D01*
X013109Y023046D01*
X013127Y023052D01*
X013145Y023061D01*
X013161Y023072D01*
X013175Y023084D01*
X013188Y023099D01*
X013199Y023115D01*
X013208Y023132D01*
X013214Y023151D01*
X013218Y02317D01*
X013219Y023189D01*
X013218Y023208D01*
X013214Y023227D01*
X013208Y023246D01*
X013199Y023263D01*
X013188Y023279D01*
X013175Y023294D01*
X013161Y023306D01*
X013145Y023317D01*
X013127Y023326D01*
X013109Y023332D01*
X01309Y023336D01*
X013071Y023337D01*
D02*
G37*
G36*
X031699Y023651D02*
X031665Y023649D01*
X031632Y023645D01*
X031599Y023638D01*
X031567Y023628D01*
X031536Y023615D01*
X031507Y023599D01*
X031478Y023581D01*
X031452Y023561D01*
X031427Y023538D01*
X031404Y023513D01*
X031384Y023487D01*
X031366Y023459D01*
X031351Y023429D01*
X031338Y023398D01*
X031328Y023366D01*
X03132Y023333D01*
X031316Y0233D01*
X031315Y023267D01*
X031316Y023233D01*
X03132Y0232D01*
X031328Y023167D01*
X031338Y023135D01*
X031351Y023104D01*
X031366Y023074D01*
X031384Y023046D01*
X031404Y02302D01*
X031427Y022995D01*
X031452Y022972D01*
X031478Y022952D01*
X031507Y022934D01*
X031536Y022918D01*
X031567Y022905D01*
X031599Y022895D01*
X031632Y022888D01*
X031665Y022884D01*
X031699Y022882D01*
X031732Y022884D01*
X031766Y022888D01*
X031798Y022895D01*
X03183Y022905D01*
X031861Y022918D01*
X031891Y022934D01*
X031919Y022952D01*
X031946Y022972D01*
X03197Y022995D01*
X031993Y02302D01*
X032014Y023046D01*
X032032Y023074D01*
X032047Y023104D01*
X03206Y023135D01*
X03207Y023167D01*
X032077Y0232D01*
X032082Y023233D01*
X032083Y023267D01*
X032082Y0233D01*
X032077Y023333D01*
X03207Y023366D01*
X03206Y023398D01*
X032047Y023429D01*
X032032Y023459D01*
X032014Y023487D01*
X031993Y023513D01*
X03197Y023538D01*
X031946Y023561D01*
X031919Y023581D01*
X031891Y023599D01*
X031861Y023615D01*
X03183Y023628D01*
X031798Y023638D01*
X031766Y023645D01*
X031732Y023649D01*
X031699Y023651D01*
D02*
G37*
G36*
X032734Y023651D02*
X032701Y023649D01*
X032668Y023645D01*
X032635Y023638D01*
X032603Y023628D01*
X032572Y023615D01*
X032542Y023599D01*
X032514Y023581D01*
X032487Y023561D01*
X032463Y023538D01*
X03244Y023513D01*
X03242Y023487D01*
X032402Y023459D01*
X032386Y023429D01*
X032373Y023398D01*
X032363Y023366D01*
X032356Y023333D01*
X032351Y0233D01*
X03235Y023267D01*
X032351Y023233D01*
X032356Y0232D01*
X032363Y023167D01*
X032373Y023135D01*
X032386Y023104D01*
X032402Y023074D01*
X03242Y023046D01*
X03244Y02302D01*
X032463Y022995D01*
X032487Y022972D01*
X032514Y022952D01*
X032542Y022934D01*
X032572Y022918D01*
X032603Y022905D01*
X032635Y022895D01*
X032668Y022888D01*
X032701Y022884D01*
X032734Y022882D01*
X032768Y022884D01*
X032801Y022888D01*
X032834Y022895D01*
X032866Y022905D01*
X032897Y022918D01*
X032926Y022934D01*
X032955Y022952D01*
X032981Y022972D01*
X033006Y022995D01*
X033029Y02302D01*
X033049Y023046D01*
X033067Y023074D01*
X033082Y023104D01*
X033095Y023135D01*
X033105Y023167D01*
X033113Y0232D01*
X033117Y023233D01*
X033118Y023267D01*
X033117Y0233D01*
X033113Y023333D01*
X033105Y023366D01*
X033095Y023398D01*
X033082Y023429D01*
X033067Y023459D01*
X033049Y023487D01*
X033029Y023513D01*
X033006Y023538D01*
X032981Y023561D01*
X032955Y023581D01*
X032926Y023599D01*
X032897Y023615D01*
X032866Y023628D01*
X032834Y023638D01*
X032801Y023645D01*
X032768Y023649D01*
X032734Y023651D01*
D02*
G37*
G36*
X028939Y023651D02*
X028905Y023649D01*
X028872Y023645D01*
X02884Y023638D01*
X028808Y023628D01*
X028777Y023615D01*
X028747Y023599D01*
X028719Y023581D01*
X028692Y023561D01*
X028667Y023538D01*
X028645Y023513D01*
X028624Y023487D01*
X028606Y023459D01*
X028591Y023429D01*
X028578Y023398D01*
X028568Y023366D01*
X028561Y023333D01*
X028556Y0233D01*
X028555Y023267D01*
X028556Y023233D01*
X028561Y0232D01*
X028568Y023167D01*
X028578Y023135D01*
X028591Y023104D01*
X028606Y023074D01*
X028624Y023046D01*
X028645Y02302D01*
X028667Y022995D01*
X028692Y022972D01*
X028719Y022952D01*
X028747Y022934D01*
X028777Y022918D01*
X028808Y022905D01*
X02884Y022895D01*
X028872Y022888D01*
X028905Y022884D01*
X028939Y022882D01*
X028972Y022884D01*
X029006Y022888D01*
X029038Y022895D01*
X02907Y022905D01*
X029101Y022918D01*
X029131Y022934D01*
X029159Y022952D01*
X029186Y022972D01*
X029211Y022995D01*
X029233Y02302D01*
X029254Y023046D01*
X029272Y023074D01*
X029287Y023104D01*
X0293Y023135D01*
X02931Y023167D01*
X029317Y0232D01*
X029322Y023233D01*
X029323Y023267D01*
X029322Y0233D01*
X029317Y023333D01*
X02931Y023366D01*
X0293Y023398D01*
X029287Y023429D01*
X029272Y023459D01*
X029254Y023487D01*
X029233Y023513D01*
X029211Y023538D01*
X029186Y023561D01*
X029159Y023581D01*
X029131Y023599D01*
X029101Y023615D01*
X02907Y023628D01*
X029038Y023638D01*
X029006Y023645D01*
X028972Y023649D01*
X028939Y023651D01*
D02*
G37*
G36*
X035494Y023651D02*
X035461Y023649D01*
X035427Y023645D01*
X035395Y023638D01*
X035363Y023628D01*
X035332Y023615D01*
X035302Y023599D01*
X035274Y023581D01*
X035247Y023561D01*
X035222Y023538D01*
X0352Y023513D01*
X035179Y023487D01*
X035161Y023459D01*
X035146Y023429D01*
X035133Y023398D01*
X035123Y023366D01*
X035116Y023333D01*
X035111Y0233D01*
X03511Y023267D01*
X035111Y023233D01*
X035116Y0232D01*
X035123Y023167D01*
X035133Y023135D01*
X035146Y023104D01*
X035161Y023074D01*
X035179Y023046D01*
X0352Y02302D01*
X035222Y022995D01*
X035247Y022972D01*
X035274Y022952D01*
X035302Y022934D01*
X035332Y022918D01*
X035363Y022905D01*
X035395Y022895D01*
X035427Y022888D01*
X035461Y022884D01*
X035494Y022882D01*
X035528Y022884D01*
X035561Y022888D01*
X035594Y022895D01*
X035626Y022905D01*
X035656Y022918D01*
X035686Y022934D01*
X035714Y022952D01*
X035741Y022972D01*
X035766Y022995D01*
X035788Y02302D01*
X035809Y023046D01*
X035827Y023074D01*
X035842Y023104D01*
X035855Y023135D01*
X035865Y023167D01*
X035872Y0232D01*
X035877Y023233D01*
X035878Y023267D01*
X035877Y0233D01*
X035872Y023333D01*
X035865Y023366D01*
X035855Y023398D01*
X035842Y023429D01*
X035827Y023459D01*
X035809Y023487D01*
X035788Y023513D01*
X035766Y023538D01*
X035741Y023561D01*
X035714Y023581D01*
X035686Y023599D01*
X035656Y023615D01*
X035626Y023628D01*
X035594Y023638D01*
X035561Y023645D01*
X035528Y023649D01*
X035494Y023651D01*
D02*
G37*
G36*
X021732Y022864D02*
X021713Y022863D01*
X021694Y022859D01*
X021676Y022853D01*
X021658Y022845D01*
X021642Y022834D01*
X021628Y022821D01*
X021615Y022807D01*
X021604Y022791D01*
X021596Y022773D01*
X021589Y022755D01*
X021586Y022736D01*
X021584Y022717D01*
X021586Y022697D01*
X021589Y022678D01*
X021596Y02266D01*
X021604Y022643D01*
X021615Y022626D01*
X021628Y022612D01*
X021642Y022599D01*
X021658Y022588D01*
X021676Y02258D01*
X021694Y022574D01*
X021713Y02257D01*
X021732Y022569D01*
X021752Y02257D01*
X021771Y022574D01*
X021789Y02258D01*
X021806Y022588D01*
X021822Y022599D01*
X021837Y022612D01*
X02185Y022626D01*
X02186Y022643D01*
X021869Y02266D01*
X021875Y022678D01*
X021879Y022697D01*
X02188Y022717D01*
X021879Y022736D01*
X021875Y022755D01*
X021869Y022773D01*
X02186Y022791D01*
X02185Y022807D01*
X021837Y022821D01*
X021822Y022834D01*
X021806Y022845D01*
X021789Y022853D01*
X021771Y022859D01*
X021752Y022863D01*
X021732Y022864D01*
D02*
G37*
G36*
X016132Y022815D02*
X016113Y022814D01*
X016094Y02281D01*
X016075Y022804D01*
X016058Y022795D01*
X016042Y022785D01*
X016027Y022772D01*
X016015Y022757D01*
X016004Y022741D01*
X015995Y022724D01*
X015989Y022706D01*
X015985Y022687D01*
X015984Y022667D01*
X015985Y022648D01*
X015989Y022629D01*
X015995Y022611D01*
X016004Y022593D01*
X016015Y022577D01*
X016027Y022563D01*
X016042Y02255D01*
X016058Y022539D01*
X016075Y022531D01*
X016094Y022524D01*
X016113Y022521D01*
X016132Y022519D01*
X016151Y022521D01*
X01617Y022524D01*
X016189Y022531D01*
X016206Y022539D01*
X016222Y02255D01*
X016237Y022563D01*
X016249Y022577D01*
X01626Y022593D01*
X016269Y022611D01*
X016275Y022629D01*
X016279Y022648D01*
X01628Y022667D01*
X016279Y022687D01*
X016275Y022706D01*
X016269Y022724D01*
X01626Y022741D01*
X016249Y022757D01*
X016237Y022772D01*
X016222Y022785D01*
X016206Y022795D01*
X016189Y022804D01*
X01617Y02281D01*
X016151Y022814D01*
X016132Y022815D01*
D02*
G37*
G36*
X033583Y022628D02*
X033563Y022627D01*
X033544Y022623D01*
X033526Y022617D01*
X033509Y022608D01*
X033493Y022598D01*
X033478Y022585D01*
X033465Y02257D01*
X033455Y022554D01*
X033446Y022537D01*
X03344Y022519D01*
X033436Y0225D01*
X033435Y02248D01*
X033436Y022461D01*
X03344Y022442D01*
X033446Y022424D01*
X033455Y022406D01*
X033465Y02239D01*
X033478Y022376D01*
X033493Y022363D01*
X033509Y022352D01*
X033526Y022344D01*
X033544Y022337D01*
X033563Y022334D01*
X033583Y022332D01*
X033602Y022334D01*
X033621Y022337D01*
X033639Y022344D01*
X033657Y022352D01*
X033673Y022363D01*
X033687Y022376D01*
X0337Y02239D01*
X033711Y022406D01*
X033719Y022424D01*
X033726Y022442D01*
X033729Y022461D01*
X033731Y02248D01*
X033729Y0225D01*
X033726Y022519D01*
X033719Y022537D01*
X033711Y022554D01*
X0337Y02257D01*
X033687Y022585D01*
X033673Y022598D01*
X033657Y022608D01*
X033639Y022617D01*
X033621Y022623D01*
X033602Y022627D01*
X033583Y022628D01*
D02*
G37*
G36*
X029843D02*
X029823Y022627D01*
X029804Y022623D01*
X029786Y022617D01*
X029769Y022608D01*
X029752Y022598D01*
X029738Y022585D01*
X029725Y02257D01*
X029714Y022554D01*
X029706Y022537D01*
X0297Y022519D01*
X029696Y0225D01*
X029695Y02248D01*
X029696Y022461D01*
X0297Y022442D01*
X029706Y022424D01*
X029714Y022406D01*
X029725Y02239D01*
X029738Y022376D01*
X029752Y022363D01*
X029769Y022352D01*
X029786Y022344D01*
X029804Y022337D01*
X029823Y022334D01*
X029843Y022332D01*
X029862Y022334D01*
X029881Y022337D01*
X029899Y022344D01*
X029916Y022352D01*
X029933Y022363D01*
X029947Y022376D01*
X02996Y02239D01*
X029971Y022406D01*
X029979Y022424D01*
X029985Y022442D01*
X029989Y022461D01*
X02999Y02248D01*
X029989Y0225D01*
X029985Y022519D01*
X029979Y022537D01*
X029971Y022554D01*
X02996Y02257D01*
X029947Y022585D01*
X029933Y022598D01*
X029916Y022608D01*
X029899Y022617D01*
X029881Y022623D01*
X029862Y022627D01*
X029843Y022628D01*
D02*
G37*
G36*
X035276Y02255D02*
X035256Y022548D01*
X035237Y022544D01*
X035219Y022538D01*
X035202Y02253D01*
X035186Y022519D01*
X035171Y022506D01*
X035158Y022492D01*
X035147Y022476D01*
X035139Y022458D01*
X035133Y02244D01*
X035129Y022421D01*
X035128Y022402D01*
X035129Y022382D01*
X035133Y022363D01*
X035139Y022345D01*
X035147Y022328D01*
X035158Y022312D01*
X035171Y022297D01*
X035186Y022284D01*
X035202Y022273D01*
X035219Y022265D01*
X035237Y022259D01*
X035256Y022255D01*
X035276Y022254D01*
X035295Y022255D01*
X035314Y022259D01*
X035332Y022265D01*
X03535Y022273D01*
X035366Y022284D01*
X03538Y022297D01*
X035393Y022312D01*
X035404Y022328D01*
X035412Y022345D01*
X035419Y022363D01*
X035422Y022382D01*
X035424Y022402D01*
X035422Y022421D01*
X035419Y02244D01*
X035412Y022458D01*
X035404Y022476D01*
X035393Y022492D01*
X03538Y022506D01*
X035366Y022519D01*
X03535Y02253D01*
X035332Y022538D01*
X035314Y022544D01*
X035295Y022548D01*
X035276Y02255D01*
D02*
G37*
G36*
X034921D02*
X034902Y022548D01*
X034883Y022544D01*
X034865Y022538D01*
X034847Y02253D01*
X034831Y022519D01*
X034817Y022506D01*
X034804Y022492D01*
X034793Y022476D01*
X034785Y022458D01*
X034778Y02244D01*
X034775Y022421D01*
X034773Y022402D01*
X034775Y022382D01*
X034778Y022363D01*
X034785Y022345D01*
X034793Y022328D01*
X034804Y022312D01*
X034817Y022297D01*
X034831Y022284D01*
X034847Y022273D01*
X034865Y022265D01*
X034883Y022259D01*
X034902Y022255D01*
X034921Y022254D01*
X034941Y022255D01*
X03496Y022259D01*
X034978Y022265D01*
X034995Y022273D01*
X035011Y022284D01*
X035026Y022297D01*
X035039Y022312D01*
X035049Y022328D01*
X035058Y022345D01*
X035064Y022363D01*
X035068Y022382D01*
X035069Y022402D01*
X035068Y022421D01*
X035064Y02244D01*
X035058Y022458D01*
X035049Y022476D01*
X035039Y022492D01*
X035026Y022506D01*
X035011Y022519D01*
X034995Y02253D01*
X034978Y022538D01*
X03496Y022544D01*
X034941Y022548D01*
X034921Y02255D01*
D02*
G37*
G36*
X036728Y02277D02*
X03669Y022769D01*
X036651Y022765D01*
X036613Y022758D01*
X036576Y022748D01*
X036539Y022736D01*
X036503Y022721D01*
X036469Y022704D01*
X036435Y022684D01*
X036404Y022662D01*
X036374Y022638D01*
X036345Y022611D01*
X036319Y022583D01*
X036295Y022553D01*
X036273Y022521D01*
X036253Y022488D01*
X036236Y022453D01*
X036221Y022418D01*
X036209Y022381D01*
X036199Y022343D01*
X036192Y022305D01*
X036188Y022267D01*
X036187Y022228D01*
X036188Y02219D01*
X036192Y022151D01*
X036199Y022113D01*
X036209Y022076D01*
X036221Y022039D01*
X036236Y022003D01*
X036253Y021969D01*
X036273Y021935D01*
X036295Y021904D01*
X036319Y021874D01*
X036345Y021845D01*
X036374Y021819D01*
X036404Y021795D01*
X036435Y021773D01*
X036469Y021753D01*
X036503Y021736D01*
X036539Y021721D01*
X036576Y021709D01*
X036613Y021699D01*
X036651Y021692D01*
X03669Y021688D01*
X036728Y021687D01*
X036767Y021688D01*
X036805Y021692D01*
X036843Y021699D01*
X036881Y021709D01*
X036918Y021721D01*
X036953Y021736D01*
X036988Y021753D01*
X037021Y021773D01*
X037053Y021795D01*
X037083Y021819D01*
X037111Y021845D01*
X037138Y021874D01*
X037162Y021904D01*
X037184Y021935D01*
X037204Y021969D01*
X037221Y022003D01*
X037236Y022039D01*
X037248Y022076D01*
X037258Y022113D01*
X037265Y022151D01*
X037269Y02219D01*
X03727Y022228D01*
X037269Y022267D01*
X037265Y022305D01*
X037258Y022343D01*
X037248Y022381D01*
X037236Y022418D01*
X037221Y022453D01*
X037204Y022488D01*
X037184Y022521D01*
X037162Y022553D01*
X037138Y022583D01*
X037111Y022611D01*
X037083Y022638D01*
X037053Y022662D01*
X037021Y022684D01*
X036988Y022704D01*
X036953Y022721D01*
X036918Y022736D01*
X036881Y022748D01*
X036843Y022758D01*
X036805Y022765D01*
X036767Y022769D01*
X036728Y02277D01*
D02*
G37*
G36*
X012319D02*
X01228Y022769D01*
X012242Y022765D01*
X012204Y022758D01*
X012166Y022748D01*
X01213Y022736D01*
X012094Y022721D01*
X012059Y022704D01*
X012026Y022684D01*
X011994Y022662D01*
X011964Y022638D01*
X011936Y022611D01*
X01191Y022583D01*
X011885Y022553D01*
X011863Y022521D01*
X011843Y022488D01*
X011826Y022453D01*
X011811Y022418D01*
X011799Y022381D01*
X01179Y022343D01*
X011783Y022305D01*
X011779Y022267D01*
X011777Y022228D01*
X011779Y02219D01*
X011783Y022151D01*
X01179Y022113D01*
X011799Y022076D01*
X011811Y022039D01*
X011826Y022003D01*
X011843Y021969D01*
X011863Y021935D01*
X011885Y021904D01*
X01191Y021874D01*
X011936Y021845D01*
X011964Y021819D01*
X011994Y021795D01*
X012026Y021773D01*
X012059Y021753D01*
X012094Y021736D01*
X01213Y021721D01*
X012166Y021709D01*
X012204Y021699D01*
X012242Y021692D01*
X01228Y021688D01*
X012319Y021687D01*
X012358Y021688D01*
X012396Y021692D01*
X012434Y021699D01*
X012472Y021709D01*
X012508Y021721D01*
X012544Y021736D01*
X012579Y021753D01*
X012612Y021773D01*
X012644Y021795D01*
X012674Y021819D01*
X012702Y021845D01*
X012728Y021874D01*
X012753Y021904D01*
X012775Y021935D01*
X012794Y021969D01*
X012812Y022003D01*
X012826Y022039D01*
X012839Y022076D01*
X012848Y022113D01*
X012855Y022151D01*
X012859Y02219D01*
X012861Y022228D01*
X012859Y022267D01*
X012855Y022305D01*
X012848Y022343D01*
X012839Y022381D01*
X012826Y022418D01*
X012812Y022453D01*
X012794Y022488D01*
X012775Y022521D01*
X012753Y022553D01*
X012728Y022583D01*
X012702Y022611D01*
X012674Y022638D01*
X012644Y022662D01*
X012612Y022684D01*
X012579Y022704D01*
X012544Y022721D01*
X012508Y022736D01*
X012472Y022748D01*
X012434Y022758D01*
X012396Y022765D01*
X012358Y022769D01*
X012319Y02277D01*
D02*
G37*
G36*
X019659Y021916D02*
X019639Y021915D01*
X019618Y021911D01*
X019599Y021904D01*
X01958Y021895D01*
X019563Y021883D01*
X019548Y02187D01*
X019534Y021854D01*
X019523Y021837D01*
X019513Y021818D01*
X019507Y021799D01*
X019503Y021779D01*
X019501Y021758D01*
X019503Y021737D01*
X019507Y021717D01*
X019513Y021698D01*
X019523Y021679D01*
X019534Y021662D01*
X019548Y021646D01*
X019563Y021633D01*
X01958Y021621D01*
X019599Y021612D01*
X019618Y021606D01*
X019639Y021602D01*
X019659Y0216D01*
X01968Y021602D01*
X0197Y021606D01*
X01972Y021612D01*
X019738Y021621D01*
X019755Y021633D01*
X019771Y021646D01*
X019784Y021662D01*
X019796Y021679D01*
X019805Y021698D01*
X019812Y021717D01*
X019816Y021737D01*
X019817Y021758D01*
X019816Y021779D01*
X019812Y021799D01*
X019805Y021818D01*
X019796Y021837D01*
X019784Y021854D01*
X019771Y02187D01*
X019755Y021883D01*
X019738Y021895D01*
X01972Y021904D01*
X0197Y021911D01*
X01968Y021915D01*
X019659Y021916D01*
D02*
G37*
G36*
X032835Y021526D02*
X032815Y021525D01*
X032796Y021521D01*
X032778Y021515D01*
X032761Y021506D01*
X032745Y021495D01*
X03273Y021483D01*
X032717Y021468D01*
X032707Y021452D01*
X032698Y021435D01*
X032692Y021416D01*
X032688Y021397D01*
X032687Y021378D01*
X032688Y021359D01*
X032692Y02134D01*
X032698Y021321D01*
X032707Y021304D01*
X032717Y021288D01*
X03273Y021273D01*
X032745Y021261D01*
X032761Y02125D01*
X032778Y021241D01*
X032796Y021235D01*
X032815Y021231D01*
X032835Y02123D01*
X032854Y021231D01*
X032873Y021235D01*
X032891Y021241D01*
X032909Y02125D01*
X032925Y021261D01*
X032939Y021273D01*
X032952Y021288D01*
X032963Y021304D01*
X032971Y021321D01*
X032978Y02134D01*
X032981Y021359D01*
X032983Y021378D01*
X032981Y021397D01*
X032978Y021416D01*
X032971Y021435D01*
X032963Y021452D01*
X032952Y021468D01*
X032939Y021483D01*
X032925Y021495D01*
X032909Y021506D01*
X032891Y021515D01*
X032873Y021521D01*
X032854Y021525D01*
X032835Y021526D01*
D02*
G37*
G36*
X012953Y021496D02*
X012932Y021495D01*
X012912Y021491D01*
X012892Y021484D01*
X012874Y021475D01*
X012857Y021464D01*
X012841Y02145D01*
X012828Y021435D01*
X012816Y021417D01*
X012807Y021399D01*
X0128Y021379D01*
X012796Y021359D01*
X012795Y021339D01*
X012796Y021318D01*
X0128Y021298D01*
X012807Y021278D01*
X012816Y02126D01*
X012828Y021243D01*
X012841Y021227D01*
X012857Y021213D01*
X012874Y021202D01*
X012892Y021193D01*
X012912Y021186D01*
X012932Y021182D01*
X012953Y021181D01*
X012973Y021182D01*
X012994Y021186D01*
X013013Y021193D01*
X013032Y021202D01*
X013049Y021213D01*
X013064Y021227D01*
X013078Y021243D01*
X013089Y02126D01*
X013099Y021278D01*
X013105Y021298D01*
X013109Y021318D01*
X013111Y021339D01*
X013109Y021359D01*
X013105Y021379D01*
X013099Y021399D01*
X013089Y021417D01*
X013078Y021435D01*
X013064Y02145D01*
X013049Y021464D01*
X013032Y021475D01*
X013013Y021484D01*
X012994Y021491D01*
X012973Y021495D01*
X012953Y021496D01*
D02*
G37*
G36*
X019453Y021286D02*
X019432Y021285D01*
X019412Y021281D01*
X019392Y021274D01*
X019374Y021265D01*
X019356Y021253D01*
X019341Y02124D01*
X019327Y021224D01*
X019316Y021207D01*
X019307Y021189D01*
X0193Y021169D01*
X019296Y021149D01*
X019295Y021128D01*
X019296Y021108D01*
X0193Y021087D01*
X019307Y021068D01*
X019316Y021049D01*
X019327Y021032D01*
X019341Y021017D01*
X019356Y021003D01*
X019374Y020991D01*
X019392Y020982D01*
X019412Y020976D01*
X019432Y020972D01*
X019453Y02097D01*
X019473Y020972D01*
X019493Y020976D01*
X019513Y020982D01*
X019531Y020991D01*
X019549Y021003D01*
X019564Y021017D01*
X019578Y021032D01*
X019589Y021049D01*
X019598Y021068D01*
X019605Y021087D01*
X019609Y021108D01*
X01961Y021128D01*
X019609Y021149D01*
X019605Y021169D01*
X019598Y021189D01*
X019589Y021207D01*
X019578Y021224D01*
X019564Y02124D01*
X019549Y021253D01*
X019531Y021265D01*
X019513Y021274D01*
X019493Y021281D01*
X019473Y021285D01*
X019453Y021286D01*
D02*
G37*
G36*
X033317Y021044D02*
X033298Y021042D01*
X033279Y021039D01*
X03326Y021032D01*
X033243Y021024D01*
X033227Y021013D01*
X033212Y021D01*
X0332Y020986D01*
X033189Y02097D01*
X03318Y020952D01*
X033174Y020934D01*
X03317Y020915D01*
X033169Y020896D01*
X03317Y020876D01*
X033174Y020857D01*
X03318Y020839D01*
X033189Y020822D01*
X0332Y020806D01*
X033212Y020791D01*
X033227Y020778D01*
X033243Y020768D01*
X03326Y020759D01*
X033279Y020753D01*
X033298Y020749D01*
X033317Y020748D01*
X033336Y020749D01*
X033355Y020753D01*
X033374Y020759D01*
X033391Y020768D01*
X033407Y020778D01*
X033422Y020791D01*
X033434Y020806D01*
X033445Y020822D01*
X033454Y020839D01*
X03346Y020857D01*
X033464Y020876D01*
X033465Y020896D01*
X033464Y020915D01*
X03346Y020934D01*
X033454Y020952D01*
X033445Y02097D01*
X033434Y020986D01*
X033422Y021D01*
X033407Y021013D01*
X033391Y021024D01*
X033374Y021032D01*
X033355Y021039D01*
X033336Y021042D01*
X033317Y021044D01*
D02*
G37*
G36*
X036417Y020935D02*
X036398Y020934D01*
X036379Y02093D01*
X036361Y020924D01*
X036343Y020916D01*
X036327Y020905D01*
X036313Y020892D01*
X0363Y020877D01*
X036289Y020861D01*
X036281Y020844D01*
X036274Y020826D01*
X036271Y020807D01*
X036269Y020787D01*
X036271Y020768D01*
X036274Y020749D01*
X036281Y020731D01*
X036289Y020713D01*
X0363Y020697D01*
X036313Y020683D01*
X036327Y02067D01*
X036343Y020659D01*
X036361Y020651D01*
X036379Y020644D01*
X036398Y020641D01*
X036417Y020639D01*
X036437Y020641D01*
X036456Y020644D01*
X036474Y020651D01*
X036491Y020659D01*
X036507Y02067D01*
X036522Y020683D01*
X036535Y020697D01*
X036545Y020713D01*
X036554Y020731D01*
X03656Y020749D01*
X036564Y020768D01*
X036565Y020787D01*
X036564Y020807D01*
X03656Y020826D01*
X036554Y020844D01*
X036545Y020861D01*
X036535Y020877D01*
X036522Y020892D01*
X036507Y020905D01*
X036491Y020916D01*
X036474Y020924D01*
X036456Y02093D01*
X036437Y020934D01*
X036417Y020935D01*
D02*
G37*
G36*
X016378Y021063D02*
X016359Y021062D01*
X01634Y021058D01*
X016321Y021052D01*
X016304Y021043D01*
X016288Y021033D01*
X016273Y02102D01*
X016261Y021005D01*
X01625Y020989D01*
X016241Y020972D01*
X016235Y020954D01*
X016231Y020935D01*
X01623Y020915D01*
X016231Y020896D01*
X016235Y020877D01*
X016241Y020859D01*
X01625Y020841D01*
X016261Y020825D01*
X016273Y020811D01*
X016288Y020798D01*
X016304Y020787D01*
X016321Y020779D01*
X01634Y020772D01*
X016359Y020769D01*
X016378Y020767D01*
X016397Y020769D01*
X016416Y020772D01*
X016429Y020777D01*
X016452Y020762D01*
X01647Y02074D01*
X016467Y020728D01*
X016466Y020709D01*
X016467Y020689D01*
X016471Y02067D01*
X016477Y020652D01*
X016463Y020624D01*
X016435Y020609D01*
X016416Y020615D01*
X016397Y020619D01*
X016378Y02062D01*
X016359Y020619D01*
X01634Y020615D01*
X016321Y020609D01*
X016304Y020601D01*
X016288Y02059D01*
X016273Y020577D01*
X016261Y020563D01*
X01625Y020546D01*
X016241Y020529D01*
X016235Y020511D01*
X016231Y020492D01*
X01623Y020472D01*
X016231Y020453D01*
X016235Y020434D01*
X016241Y020416D01*
X01625Y020398D01*
X016261Y020382D01*
X016273Y020368D01*
X016288Y020355D01*
X016304Y020344D01*
X016321Y020336D01*
X01634Y02033D01*
X016359Y020326D01*
X016378Y020324D01*
X016397Y020326D01*
X016416Y02033D01*
X016435Y020336D01*
X016463Y020321D01*
X016477Y020293D01*
X016471Y020275D01*
X016467Y020256D01*
X016466Y020236D01*
X016467Y020217D01*
X016471Y020198D01*
X016477Y02018D01*
X016486Y020162D01*
X016497Y020146D01*
X01651Y020132D01*
X016524Y020119D01*
X01654Y020108D01*
X016558Y0201D01*
X016576Y020093D01*
X016595Y02009D01*
X016614Y020088D01*
X016633Y02009D01*
X016652Y020093D01*
X016671Y0201D01*
X016688Y020108D01*
X016704Y020119D01*
X016719Y020132D01*
X016732Y020146D01*
X016742Y020162D01*
X016751Y02018D01*
X016757Y020198D01*
X016761Y020217D01*
X016762Y020236D01*
X016761Y020256D01*
X016757Y020275D01*
X016751Y020293D01*
X016742Y02031D01*
X016732Y020326D01*
X016719Y020341D01*
X016704Y020354D01*
X016688Y020364D01*
X016671Y020373D01*
X016652Y020379D01*
X016633Y020383D01*
X016614Y020384D01*
X016595Y020383D01*
X016576Y020379D01*
X016558Y020373D01*
X01653Y020388D01*
X016515Y020416D01*
X016521Y020434D01*
X016525Y020453D01*
X016526Y020472D01*
X016525Y020492D01*
X016521Y020511D01*
X016515Y020529D01*
X01653Y020557D01*
X016558Y020572D01*
X016576Y020566D01*
X016595Y020562D01*
X016614Y020561D01*
X016633Y020562D01*
X016652Y020566D01*
X016671Y020572D01*
X016688Y020581D01*
X016704Y020591D01*
X016719Y020604D01*
X016732Y020619D01*
X016742Y020635D01*
X016751Y020652D01*
X016757Y02067D01*
X016761Y020689D01*
X016762Y020709D01*
X016761Y020728D01*
X016757Y020747D01*
X016751Y020765D01*
X016742Y020783D01*
X016732Y020799D01*
X016719Y020813D01*
X016704Y020826D01*
X016688Y020837D01*
X016671Y020845D01*
X016652Y020852D01*
X016633Y020855D01*
X016614Y020857D01*
X016595Y020855D01*
X016576Y020852D01*
X016564Y020847D01*
X01654Y020862D01*
X016522Y020884D01*
X016525Y020896D01*
X016526Y020915D01*
X016525Y020935D01*
X016521Y020954D01*
X016515Y020972D01*
X016506Y020989D01*
X016495Y021005D01*
X016483Y02102D01*
X016468Y021033D01*
X016452Y021043D01*
X016435Y021052D01*
X016416Y021058D01*
X016397Y021062D01*
X016378Y021063D01*
D02*
G37*
G36*
X013858Y020778D02*
X013839Y020777D01*
X01382Y020773D01*
X013802Y020767D01*
X013784Y020758D01*
X013768Y020747D01*
X013754Y020735D01*
X013741Y02072D01*
X01373Y020704D01*
X013722Y020687D01*
X013715Y020668D01*
X013712Y020649D01*
X01371Y02063D01*
X013712Y020611D01*
X013715Y020592D01*
X013722Y020573D01*
X01373Y020556D01*
X013741Y02054D01*
X013754Y020525D01*
X013768Y020513D01*
X013784Y020502D01*
X013802Y020493D01*
X01382Y020487D01*
X013839Y020483D01*
X013858Y020482D01*
X013878Y020483D01*
X013897Y020487D01*
X013915Y020493D01*
X013932Y020502D01*
X013948Y020513D01*
X013963Y020525D01*
X013976Y02054D01*
X013986Y020556D01*
X013995Y020573D01*
X014001Y020592D01*
X014005Y020611D01*
X014006Y02063D01*
X014005Y020649D01*
X014001Y020668D01*
X013995Y020687D01*
X013986Y020704D01*
X013976Y02072D01*
X013963Y020735D01*
X013948Y020747D01*
X013932Y020758D01*
X013915Y020767D01*
X013897Y020773D01*
X013878Y020777D01*
X013858Y020778D01*
D02*
G37*
G36*
X019659Y020656D02*
X019639Y020655D01*
X019618Y020651D01*
X019599Y020644D01*
X01958Y020635D01*
X019563Y020623D01*
X019548Y02061D01*
X019534Y020594D01*
X019523Y020577D01*
X019513Y020559D01*
X019507Y020539D01*
X019503Y020519D01*
X019501Y020498D01*
X019503Y020478D01*
X019507Y020457D01*
X019513Y020438D01*
X019523Y020419D01*
X019534Y020402D01*
X019548Y020387D01*
X019563Y020373D01*
X01958Y020362D01*
X019599Y020352D01*
X019618Y020346D01*
X019639Y020342D01*
X019659Y02034D01*
X01968Y020342D01*
X0197Y020346D01*
X01972Y020352D01*
X019738Y020362D01*
X019755Y020373D01*
X019771Y020387D01*
X019784Y020402D01*
X019796Y020419D01*
X019805Y020438D01*
X019812Y020457D01*
X019816Y020478D01*
X019817Y020498D01*
X019816Y020519D01*
X019812Y020539D01*
X019805Y020559D01*
X019796Y020577D01*
X019784Y020594D01*
X019771Y02061D01*
X019755Y020623D01*
X019738Y020635D01*
X01972Y020644D01*
X0197Y020651D01*
X01968Y020655D01*
X019659Y020656D01*
D02*
G37*
G36*
X018346Y02062D02*
X018327Y020619D01*
X018308Y020615D01*
X01829Y020609D01*
X018272Y020601D01*
X018256Y02059D01*
X018242Y020577D01*
X018229Y020563D01*
X018218Y020546D01*
X01821Y020529D01*
X018204Y020511D01*
X0182Y020492D01*
X018198Y020472D01*
X0182Y020453D01*
X018204Y020434D01*
X01821Y020416D01*
X018218Y020398D01*
X018229Y020382D01*
X018242Y020368D01*
X018256Y020355D01*
X018272Y020344D01*
X01829Y020336D01*
X018308Y02033D01*
X018327Y020326D01*
X018346Y020324D01*
X018366Y020326D01*
X018385Y02033D01*
X018403Y020336D01*
X01842Y020344D01*
X018437Y020355D01*
X018451Y020368D01*
X018464Y020382D01*
X018475Y020398D01*
X018483Y020416D01*
X018489Y020434D01*
X018493Y020453D01*
X018494Y020472D01*
X018493Y020492D01*
X018489Y020511D01*
X018483Y020529D01*
X018475Y020546D01*
X018464Y020563D01*
X018451Y020577D01*
X018437Y02059D01*
X01842Y020601D01*
X018403Y020609D01*
X018385Y020615D01*
X018366Y020619D01*
X018346Y02062D01*
D02*
G37*
G36*
X036417Y020581D02*
X036398Y02058D01*
X036379Y020576D01*
X036361Y02057D01*
X036343Y020561D01*
X036327Y02055D01*
X036313Y020538D01*
X0363Y020523D01*
X036289Y020507D01*
X036281Y02049D01*
X036274Y020471D01*
X036271Y020452D01*
X036269Y020433D01*
X036271Y020414D01*
X036274Y020395D01*
X036281Y020376D01*
X036289Y020359D01*
X0363Y020343D01*
X036313Y020328D01*
X036327Y020316D01*
X036343Y020305D01*
X036361Y020296D01*
X036379Y02029D01*
X036398Y020286D01*
X036417Y020285D01*
X036437Y020286D01*
X036456Y02029D01*
X036474Y020296D01*
X036491Y020305D01*
X036507Y020316D01*
X036522Y020328D01*
X036535Y020343D01*
X036545Y020359D01*
X036554Y020376D01*
X03656Y020395D01*
X036564Y020414D01*
X036565Y020433D01*
X036564Y020452D01*
X03656Y020471D01*
X036554Y02049D01*
X036545Y020507D01*
X036535Y020523D01*
X036522Y020538D01*
X036507Y02055D01*
X036491Y020561D01*
X036474Y02057D01*
X036456Y020576D01*
X036437Y02058D01*
X036417Y020581D01*
D02*
G37*
G36*
Y020227D02*
X036398Y020225D01*
X036379Y020222D01*
X036361Y020215D01*
X036343Y020207D01*
X036327Y020196D01*
X036313Y020183D01*
X0363Y020169D01*
X036289Y020153D01*
X036281Y020135D01*
X036274Y020117D01*
X036271Y020098D01*
X036269Y020079D01*
X036271Y020059D01*
X036274Y02004D01*
X036281Y020022D01*
X036289Y020005D01*
X0363Y019989D01*
X036313Y019974D01*
X036327Y019961D01*
X036343Y019951D01*
X036361Y019942D01*
X036379Y019936D01*
X036398Y019932D01*
X036417Y019931D01*
X036437Y019932D01*
X036456Y019936D01*
X036474Y019942D01*
X036491Y019951D01*
X036507Y019961D01*
X036522Y019974D01*
X036535Y019989D01*
X036545Y020005D01*
X036554Y020022D01*
X03656Y02004D01*
X036564Y020059D01*
X036565Y020079D01*
X036564Y020098D01*
X03656Y020117D01*
X036554Y020135D01*
X036545Y020153D01*
X036535Y020169D01*
X036522Y020183D01*
X036507Y020196D01*
X036491Y020207D01*
X036474Y020215D01*
X036456Y020222D01*
X036437Y020225D01*
X036417Y020227D01*
D02*
G37*
G36*
X011535Y020553D02*
X011505Y020552D01*
X011476Y020548D01*
X011446Y020542D01*
X011417Y020533D01*
X01139Y020521D01*
X011363Y020507D01*
X011338Y020491D01*
X011314Y020473D01*
X011292Y020452D01*
X011271Y02043D01*
X011253Y020406D01*
X011237Y020381D01*
X011223Y020354D01*
X011211Y020327D01*
X011202Y020298D01*
X011196Y020269D01*
X011192Y020239D01*
X011191Y020209D01*
X011192Y020179D01*
X011196Y020149D01*
X011202Y020119D01*
X011211Y020091D01*
X011223Y020063D01*
X011237Y020036D01*
X011253Y020011D01*
X011271Y019987D01*
X011292Y019965D01*
X011314Y019945D01*
X011338Y019926D01*
X011363Y01991D01*
X01139Y019896D01*
X011417Y019885D01*
X011446Y019876D01*
X011476Y019869D01*
X011505Y019865D01*
X011535Y019864D01*
X011565Y019865D01*
X011595Y019869D01*
X011625Y019876D01*
X011653Y019885D01*
X011681Y019896D01*
X011708Y01991D01*
X011733Y019926D01*
X011757Y019945D01*
X011779Y019965D01*
X0118Y019987D01*
X011818Y020011D01*
X011834Y020036D01*
X011848Y020063D01*
X011859Y020091D01*
X011868Y020119D01*
X011875Y020149D01*
X011879Y020179D01*
X01188Y020209D01*
X011879Y020239D01*
X011875Y020269D01*
X011868Y020298D01*
X011859Y020327D01*
X011848Y020354D01*
X011834Y020381D01*
X011818Y020406D01*
X0118Y02043D01*
X011779Y020452D01*
X011757Y020473D01*
X011733Y020491D01*
X011708Y020507D01*
X011681Y020521D01*
X011653Y020533D01*
X011625Y020542D01*
X011595Y020548D01*
X011565Y020552D01*
X011535Y020553D01*
D02*
G37*
G36*
X015866Y019754D02*
X015847Y019753D01*
X015828Y019749D01*
X01581Y019743D01*
X015792Y019734D01*
X015776Y019724D01*
X015762Y019711D01*
X015749Y019696D01*
X015738Y01968D01*
X015729Y019663D01*
X015723Y019645D01*
X015719Y019626D01*
X015718Y019606D01*
X015719Y019587D01*
X015723Y019568D01*
X015729Y01955D01*
X015738Y019532D01*
X015749Y019516D01*
X015762Y019502D01*
X015776Y019489D01*
X015792Y019478D01*
X01581Y01947D01*
X015828Y019463D01*
X015847Y01946D01*
X015866Y019458D01*
X015885Y01946D01*
X015904Y019463D01*
X015923Y01947D01*
X01594Y019478D01*
X015956Y019489D01*
X015971Y019502D01*
X015984Y019516D01*
X015994Y019532D01*
X016003Y01955D01*
X016009Y019568D01*
X016013Y019587D01*
X016014Y019606D01*
X016013Y019626D01*
X016009Y019645D01*
X016003Y019663D01*
X015994Y01968D01*
X015984Y019696D01*
X015971Y019711D01*
X015956Y019724D01*
X01594Y019734D01*
X015923Y019743D01*
X015904Y019749D01*
X015885Y019753D01*
X015866Y019754D01*
D02*
G37*
G36*
X015472D02*
X015453Y019753D01*
X015434Y019749D01*
X015416Y019743D01*
X015398Y019734D01*
X015382Y019724D01*
X015368Y019711D01*
X015355Y019696D01*
X015344Y01968D01*
X015336Y019663D01*
X01533Y019645D01*
X015326Y019626D01*
X015324Y019606D01*
X015326Y019587D01*
X01533Y019568D01*
X015336Y01955D01*
X015344Y019532D01*
X015355Y019516D01*
X015368Y019502D01*
X015382Y019489D01*
X015398Y019478D01*
X015416Y01947D01*
X015434Y019463D01*
X015453Y01946D01*
X015472Y019458D01*
X015492Y01946D01*
X015511Y019463D01*
X015529Y01947D01*
X015546Y019478D01*
X015563Y019489D01*
X015577Y019502D01*
X01559Y019516D01*
X015601Y019532D01*
X015609Y01955D01*
X015615Y019568D01*
X015619Y019587D01*
X01562Y019606D01*
X015619Y019626D01*
X015615Y019645D01*
X015609Y019663D01*
X015601Y01968D01*
X01559Y019696D01*
X015577Y019711D01*
X015563Y019724D01*
X015546Y019734D01*
X015529Y019743D01*
X015511Y019749D01*
X015492Y019753D01*
X015472Y019754D01*
D02*
G37*
G36*
X015079D02*
X015059Y019753D01*
X01504Y019749D01*
X015022Y019743D01*
X015005Y019734D01*
X014989Y019724D01*
X014974Y019711D01*
X014961Y019696D01*
X014951Y01968D01*
X014942Y019663D01*
X014936Y019645D01*
X014932Y019626D01*
X014931Y019606D01*
X014932Y019587D01*
X014936Y019568D01*
X014942Y01955D01*
X014951Y019532D01*
X014961Y019516D01*
X014974Y019502D01*
X014989Y019489D01*
X015005Y019478D01*
X015022Y01947D01*
X01504Y019463D01*
X015059Y01946D01*
X015079Y019458D01*
X015098Y01946D01*
X015117Y019463D01*
X015135Y01947D01*
X015153Y019478D01*
X015169Y019489D01*
X015183Y019502D01*
X015196Y019516D01*
X015207Y019532D01*
X015215Y01955D01*
X015222Y019568D01*
X015225Y019587D01*
X015227Y019606D01*
X015225Y019626D01*
X015222Y019645D01*
X015215Y019663D01*
X015207Y01968D01*
X015196Y019696D01*
X015183Y019711D01*
X015169Y019724D01*
X015153Y019734D01*
X015135Y019743D01*
X015117Y019749D01*
X015098Y019753D01*
X015079Y019754D01*
D02*
G37*
G36*
X019567Y019715D02*
X019548Y019714D01*
X019529Y01971D01*
X01951Y019704D01*
X019493Y019695D01*
X019477Y019684D01*
X019462Y019672D01*
X01945Y019657D01*
X019439Y019641D01*
X01943Y019624D01*
X019424Y019605D01*
X01942Y019586D01*
X019419Y019567D01*
X01942Y019548D01*
X019424Y019529D01*
X01943Y01951D01*
X019439Y019493D01*
X01945Y019477D01*
X019462Y019462D01*
X019477Y01945D01*
X019493Y019439D01*
X01951Y01943D01*
X019529Y019424D01*
X019548Y01942D01*
X019567Y019419D01*
X019586Y01942D01*
X019605Y019424D01*
X019624Y01943D01*
X019641Y019439D01*
X019657Y01945D01*
X019672Y019462D01*
X019684Y019477D01*
X019695Y019493D01*
X019704Y01951D01*
X01971Y019529D01*
X019714Y019548D01*
X019715Y019567D01*
X019714Y019586D01*
X01971Y019605D01*
X019704Y019624D01*
X019695Y019641D01*
X019684Y019657D01*
X019672Y019672D01*
X019657Y019684D01*
X019641Y019695D01*
X019624Y019704D01*
X019605Y01971D01*
X019586Y019714D01*
X019567Y019715D01*
D02*
G37*
G36*
X035356Y019833D02*
X035337Y019832D01*
X035318Y019828D01*
X0353Y019822D01*
X035282Y019813D01*
X035266Y019802D01*
X035252Y01979D01*
X035239Y019775D01*
X035228Y019759D01*
X03522Y019742D01*
X035213Y019723D01*
X03521Y019704D01*
X035208Y019685D01*
X03521Y019666D01*
X035213Y019647D01*
X03522Y019628D01*
X035228Y019611D01*
X035239Y019595D01*
X035252Y01958D01*
X035266Y019568D01*
X035282Y019557D01*
X035286Y019555D01*
X035291Y019537D01*
Y019518D01*
X035286Y0195D01*
X035282Y019498D01*
X035266Y019487D01*
X035252Y019475D01*
X035239Y01946D01*
X035228Y019444D01*
X03522Y019427D01*
X035213Y019408D01*
X03521Y019389D01*
X035208Y01937D01*
X03521Y019351D01*
X035213Y019332D01*
X03522Y019313D01*
X035228Y019296D01*
X035239Y01928D01*
X035252Y019265D01*
X035266Y019253D01*
X035282Y019242D01*
X0353Y019233D01*
X035318Y019227D01*
X035337Y019223D01*
X035356Y019222D01*
X035376Y019223D01*
X035395Y019227D01*
X035413Y019233D01*
X03543Y019242D01*
X035446Y019253D01*
X035461Y019265D01*
X035474Y01928D01*
X035484Y019296D01*
X035493Y019313D01*
X035499Y019332D01*
X035503Y019351D01*
X035504Y01937D01*
X035503Y019389D01*
X035499Y019408D01*
X035493Y019427D01*
X035484Y019444D01*
X035474Y01946D01*
X035461Y019475D01*
X035446Y019487D01*
X03543Y019498D01*
X035426Y0195D01*
X035421Y019518D01*
Y019537D01*
X035426Y019555D01*
X03543Y019557D01*
X035446Y019568D01*
X035461Y01958D01*
X035474Y019595D01*
X035484Y019611D01*
X035493Y019628D01*
X035499Y019647D01*
X035503Y019666D01*
X035504Y019685D01*
X035503Y019704D01*
X035499Y019723D01*
X035493Y019742D01*
X035484Y019759D01*
X035474Y019775D01*
X035461Y01979D01*
X035446Y019802D01*
X03543Y019813D01*
X035413Y019822D01*
X035395Y019828D01*
X035376Y019832D01*
X035356Y019833D01*
D02*
G37*
G36*
X019567Y019321D02*
X019548Y01932D01*
X019529Y019316D01*
X01951Y01931D01*
X019493Y019301D01*
X019477Y019291D01*
X019462Y019278D01*
X01945Y019263D01*
X019439Y019247D01*
X01943Y01923D01*
X019424Y019212D01*
X01942Y019193D01*
X019419Y019173D01*
X01942Y019154D01*
X019424Y019135D01*
X01943Y019117D01*
X019439Y019099D01*
X01945Y019083D01*
X019462Y019069D01*
X019477Y019056D01*
X019493Y019045D01*
X01951Y019037D01*
X019529Y01903D01*
X019548Y019027D01*
X019567Y019025D01*
X019586Y019027D01*
X019605Y01903D01*
X019624Y019037D01*
X019641Y019045D01*
X019657Y019056D01*
X019672Y019069D01*
X019684Y019083D01*
X019695Y019099D01*
X019704Y019117D01*
X01971Y019135D01*
X019714Y019154D01*
X019715Y019173D01*
X019714Y019193D01*
X01971Y019212D01*
X019704Y01923D01*
X019695Y019247D01*
X019684Y019263D01*
X019672Y019278D01*
X019657Y019291D01*
X019641Y019301D01*
X019624Y01931D01*
X019605Y019316D01*
X019586Y01932D01*
X019567Y019321D01*
D02*
G37*
G36*
X020934Y019185D02*
X020913Y019183D01*
X020893Y019179D01*
X020873Y019173D01*
X020855Y019164D01*
X020838Y019152D01*
X020822Y019139D01*
X020808Y019123D01*
X020797Y019106D01*
X020788Y019087D01*
X020781Y019068D01*
X020777Y019048D01*
X020776Y019027D01*
X020777Y019006D01*
X020781Y018986D01*
X020788Y018967D01*
X020797Y018948D01*
X020808Y018931D01*
X020822Y018915D01*
X020838Y018902D01*
X020855Y01889D01*
X020873Y018881D01*
X020893Y018875D01*
X020913Y018871D01*
X020934Y018869D01*
X020954Y018871D01*
X020975Y018875D01*
X020994Y018881D01*
X021013Y01889D01*
X02103Y018902D01*
X021045Y018915D01*
X021059Y018931D01*
X02107Y018948D01*
X021079Y018967D01*
X021086Y018986D01*
X02109Y019006D01*
X021091Y019027D01*
X02109Y019048D01*
X021086Y019068D01*
X021079Y019087D01*
X02107Y019106D01*
X021059Y019123D01*
X021045Y019139D01*
X02103Y019152D01*
X021013Y019164D01*
X020994Y019173D01*
X020975Y019179D01*
X020954Y019183D01*
X020934Y019185D01*
D02*
G37*
G36*
X020138Y019153D02*
X020118Y019152D01*
X020097Y019148D01*
X020078Y019141D01*
X020059Y019132D01*
X020042Y019121D01*
X020027Y019107D01*
X020013Y019092D01*
X020002Y019075D01*
X019992Y019056D01*
X019986Y019036D01*
X019982Y019016D01*
X01998Y018996D01*
X019982Y018975D01*
X019986Y018955D01*
X019992Y018935D01*
X020002Y018917D01*
X020013Y0189D01*
X020027Y018884D01*
X020042Y01887D01*
X020059Y018859D01*
X020078Y01885D01*
X020097Y018843D01*
X020118Y018839D01*
X020138Y018838D01*
X020159Y018839D01*
X020179Y018843D01*
X020199Y01885D01*
X020217Y018859D01*
X020234Y01887D01*
X02025Y018884D01*
X020263Y0189D01*
X020275Y018917D01*
X020284Y018935D01*
X020291Y018955D01*
X020295Y018975D01*
X020296Y018996D01*
X020295Y019016D01*
X020291Y019036D01*
X020284Y019056D01*
X020275Y019075D01*
X020263Y019092D01*
X02025Y019107D01*
X020234Y019121D01*
X020217Y019132D01*
X020199Y019141D01*
X020179Y019148D01*
X020159Y019152D01*
X020138Y019153D01*
D02*
G37*
G36*
X018268Y018888D02*
X018248Y018887D01*
X018229Y018883D01*
X018211Y018877D01*
X018194Y018868D01*
X018178Y018858D01*
X018163Y018845D01*
X01815Y01883D01*
X01814Y018814D01*
X018131Y018797D01*
X018125Y018778D01*
X018121Y018759D01*
X01812Y01874D01*
X018121Y018721D01*
X018125Y018702D01*
X018131Y018684D01*
X01814Y018666D01*
X01815Y01865D01*
X018163Y018636D01*
X018178Y018623D01*
X018194Y018612D01*
X018211Y018603D01*
X018229Y018597D01*
X018248Y018593D01*
X018268Y018592D01*
X018287Y018593D01*
X018306Y018597D01*
X018324Y018603D01*
X018342Y018612D01*
X018358Y018623D01*
X018372Y018636D01*
X018385Y01865D01*
X018396Y018666D01*
X018404Y018684D01*
X018411Y018702D01*
X018414Y018721D01*
X018416Y01874D01*
X018414Y018759D01*
X018411Y018778D01*
X018404Y018797D01*
X018396Y018814D01*
X018385Y01883D01*
X018372Y018845D01*
X018358Y018858D01*
X018342Y018868D01*
X018324Y018877D01*
X018306Y018883D01*
X018287Y018887D01*
X018268Y018888D01*
D02*
G37*
G36*
X035118Y018858D02*
X035099Y018856D01*
X03508Y018853D01*
X035061Y018846D01*
X035044Y018838D01*
X035028Y018827D01*
X035013Y018814D01*
X035001Y0188D01*
X03499Y018784D01*
X034981Y018766D01*
X034975Y018748D01*
X034971Y018729D01*
X03497Y01871D01*
X034971Y01869D01*
X034975Y018671D01*
X034981Y018653D01*
X03499Y018636D01*
X035001Y01862D01*
X035013Y018605D01*
X035028Y018592D01*
X035044Y018582D01*
X035061Y018573D01*
X03508Y018567D01*
X035099Y018563D01*
X035118Y018562D01*
X035137Y018563D01*
X035156Y018567D01*
X035175Y018573D01*
X035192Y018582D01*
X035208Y018592D01*
X035223Y018605D01*
X035235Y01862D01*
X035246Y018636D01*
X035255Y018653D01*
X035261Y018671D01*
X035265Y01869D01*
X035266Y01871D01*
X035265Y018729D01*
X035261Y018748D01*
X035255Y018766D01*
X035246Y018784D01*
X035235Y0188D01*
X035223Y018814D01*
X035208Y018827D01*
X035192Y018838D01*
X035175Y018846D01*
X035156Y018853D01*
X035137Y018856D01*
X035118Y018858D01*
D02*
G37*
G36*
X015866Y018721D02*
X015847Y01872D01*
X015828Y018716D01*
X01581Y01871D01*
X015792Y018701D01*
X015776Y01869D01*
X015762Y018677D01*
X015749Y018663D01*
X015738Y018647D01*
X015729Y018629D01*
X015723Y018611D01*
X015719Y018592D01*
X015718Y018573D01*
X015719Y018554D01*
X015723Y018535D01*
X015729Y018516D01*
X015738Y018499D01*
X015749Y018483D01*
X015762Y018468D01*
X015776Y018455D01*
X015792Y018445D01*
X01581Y018436D01*
X015828Y01843D01*
X015847Y018426D01*
X015866Y018425D01*
X015885Y018426D01*
X015904Y01843D01*
X015923Y018436D01*
X01594Y018445D01*
X015956Y018455D01*
X015971Y018468D01*
X015984Y018483D01*
X015994Y018499D01*
X016003Y018516D01*
X016009Y018535D01*
X016013Y018554D01*
X016014Y018573D01*
X016013Y018592D01*
X016009Y018611D01*
X016003Y018629D01*
X015994Y018647D01*
X015984Y018663D01*
X015971Y018677D01*
X015956Y01869D01*
X01594Y018701D01*
X015923Y01871D01*
X015904Y018716D01*
X015885Y01872D01*
X015866Y018721D01*
D02*
G37*
G36*
X037087Y018613D02*
X037067Y018611D01*
X037048Y018607D01*
X03703Y018601D01*
X037013Y018593D01*
X036997Y018582D01*
X036982Y018569D01*
X036969Y018555D01*
X036958Y018539D01*
X03695Y018521D01*
X036944Y018503D01*
X03694Y018484D01*
X036939Y018465D01*
X03694Y018445D01*
X036944Y018426D01*
X03695Y018408D01*
X036958Y018391D01*
X036969Y018375D01*
X036982Y01836D01*
X036997Y018347D01*
X037013Y018336D01*
X03703Y018328D01*
X037048Y018322D01*
X037067Y018318D01*
X037087Y018317D01*
X037106Y018318D01*
X037125Y018322D01*
X037143Y018328D01*
X037161Y018336D01*
X037177Y018347D01*
X037191Y01836D01*
X037204Y018375D01*
X037215Y018391D01*
X037223Y018408D01*
X03723Y018426D01*
X037233Y018445D01*
X037235Y018465D01*
X037233Y018484D01*
X03723Y018503D01*
X037223Y018521D01*
X037215Y018539D01*
X037204Y018555D01*
X037191Y018569D01*
X037177Y018582D01*
X037161Y018593D01*
X037143Y018601D01*
X037125Y018607D01*
X037106Y018611D01*
X037087Y018613D01*
D02*
G37*
G36*
X035118Y018464D02*
X035099Y018463D01*
X03508Y018459D01*
X035061Y018453D01*
X035044Y018444D01*
X035028Y018433D01*
X035013Y018421D01*
X035001Y018406D01*
X03499Y01839D01*
X034981Y018373D01*
X034975Y018354D01*
X034971Y018335D01*
X03497Y018316D01*
X034971Y018297D01*
X034975Y018278D01*
X034981Y018259D01*
X03499Y018242D01*
X035001Y018226D01*
X035013Y018211D01*
X035028Y018199D01*
X035044Y018188D01*
X035061Y018179D01*
X03508Y018173D01*
X035099Y018169D01*
X035118Y018168D01*
X035137Y018169D01*
X035156Y018173D01*
X035175Y018179D01*
X035192Y018188D01*
X035208Y018199D01*
X035223Y018211D01*
X035235Y018226D01*
X035246Y018242D01*
X035255Y018259D01*
X035261Y018278D01*
X035265Y018297D01*
X035266Y018316D01*
X035265Y018335D01*
X035261Y018354D01*
X035255Y018373D01*
X035246Y01839D01*
X035235Y018406D01*
X035223Y018421D01*
X035208Y018433D01*
X035192Y018444D01*
X035175Y018453D01*
X035156Y018459D01*
X035137Y018463D01*
X035118Y018464D01*
D02*
G37*
G36*
X020591Y018337D02*
X020571Y018336D01*
X020552Y018332D01*
X020534Y018326D01*
X020517Y018317D01*
X0205Y018306D01*
X020486Y018294D01*
X020473Y018279D01*
X020462Y018263D01*
X020454Y018246D01*
X020448Y018227D01*
X020444Y018208D01*
X020443Y018189D01*
X020444Y01817D01*
X020448Y018151D01*
X020454Y018132D01*
X020462Y018115D01*
X020473Y018099D01*
X020486Y018084D01*
X0205Y018072D01*
X020517Y018061D01*
X020534Y018052D01*
X020552Y018046D01*
X020571Y018042D01*
X020591Y018041D01*
X02061Y018042D01*
X020629Y018046D01*
X020647Y018052D01*
X020665Y018061D01*
X020681Y018072D01*
X020695Y018084D01*
X020708Y018099D01*
X020719Y018115D01*
X020727Y018132D01*
X020733Y018151D01*
X020737Y01817D01*
X020739Y018189D01*
X020737Y018208D01*
X020733Y018227D01*
X020727Y018246D01*
X020719Y018263D01*
X020708Y018279D01*
X020695Y018294D01*
X020681Y018306D01*
X020665Y018317D01*
X020647Y018326D01*
X020629Y018332D01*
X02061Y018336D01*
X020591Y018337D01*
D02*
G37*
G36*
X037087Y018219D02*
X037067Y018218D01*
X037048Y018214D01*
X03703Y018208D01*
X037013Y018199D01*
X036997Y018188D01*
X036982Y018175D01*
X036969Y018161D01*
X036958Y018145D01*
X03695Y018127D01*
X036944Y018109D01*
X03694Y01809D01*
X036939Y018071D01*
X03694Y018052D01*
X036944Y018033D01*
X03695Y018014D01*
X036958Y017997D01*
X036969Y017981D01*
X036982Y017966D01*
X036997Y017953D01*
X037013Y017943D01*
X03703Y017934D01*
X037048Y017928D01*
X037067Y017924D01*
X037087Y017923D01*
X037106Y017924D01*
X037125Y017928D01*
X037143Y017934D01*
X037161Y017943D01*
X037177Y017953D01*
X037191Y017966D01*
X037204Y017981D01*
X037215Y017997D01*
X037223Y018014D01*
X03723Y018033D01*
X037233Y018052D01*
X037235Y018071D01*
X037233Y01809D01*
X03723Y018109D01*
X037223Y018127D01*
X037215Y018145D01*
X037204Y018161D01*
X037191Y018175D01*
X037177Y018188D01*
X037161Y018199D01*
X037143Y018208D01*
X037125Y018214D01*
X037106Y018218D01*
X037087Y018219D01*
D02*
G37*
G36*
X012825Y017864D02*
X012805Y017863D01*
X012787Y017859D01*
X012768Y017853D01*
X012751Y017845D01*
X012735Y017834D01*
X01272Y017821D01*
X012707Y017807D01*
X012697Y017791D01*
X012688Y017773D01*
X012682Y017755D01*
X012678Y017736D01*
X012677Y017717D01*
X012678Y017697D01*
X012682Y017678D01*
X012688Y01766D01*
X012697Y017643D01*
X012707Y017626D01*
X01272Y017612D01*
X012735Y017599D01*
X012751Y017588D01*
X012768Y01758D01*
X012787Y017574D01*
X012805Y01757D01*
X012825Y017569D01*
X012844Y01757D01*
X012863Y017574D01*
X012881Y01758D01*
X012899Y017588D01*
X012915Y017599D01*
X012929Y017612D01*
X012942Y017626D01*
X012953Y017643D01*
X012961Y01766D01*
X012968Y017678D01*
X012971Y017697D01*
X012973Y017717D01*
X012971Y017736D01*
X012968Y017755D01*
X012961Y017773D01*
X012953Y017791D01*
X012942Y017807D01*
X012929Y017821D01*
X012915Y017834D01*
X012899Y017845D01*
X012881Y017853D01*
X012863Y017859D01*
X012844Y017863D01*
X012825Y017864D01*
D02*
G37*
G36*
X012421Y017855D02*
X012402Y017853D01*
X012383Y01785D01*
X012365Y017843D01*
X012347Y017835D01*
X012331Y017824D01*
X012317Y017811D01*
X012304Y017797D01*
X012293Y017781D01*
X012285Y017763D01*
X012278Y017745D01*
X012275Y017726D01*
X012273Y017707D01*
X012275Y017687D01*
X012278Y017668D01*
X012285Y01765D01*
X012293Y017633D01*
X012304Y017617D01*
X012317Y017602D01*
X012331Y017589D01*
X012347Y017579D01*
X012365Y01757D01*
X012383Y017564D01*
X012402Y01756D01*
X012421Y017559D01*
X012441Y01756D01*
X01246Y017564D01*
X012478Y01757D01*
X012495Y017579D01*
X012511Y017589D01*
X012526Y017602D01*
X012539Y017617D01*
X012549Y017633D01*
X012558Y01765D01*
X012564Y017668D01*
X012568Y017687D01*
X012569Y017707D01*
X012568Y017726D01*
X012564Y017745D01*
X012558Y017763D01*
X012549Y017781D01*
X012539Y017797D01*
X012526Y017811D01*
X012511Y017824D01*
X012495Y017835D01*
X012478Y017843D01*
X01246Y01785D01*
X012441Y017853D01*
X012421Y017855D01*
D02*
G37*
G36*
X021024Y017835D02*
X021003Y017834D01*
X020983Y01783D01*
X020963Y017823D01*
X020945Y017814D01*
X020928Y017802D01*
X020912Y017789D01*
X020898Y017773D01*
X020887Y017756D01*
X020878Y017738D01*
X020871Y017718D01*
X020867Y017698D01*
X020866Y017677D01*
X020867Y017657D01*
X020871Y017636D01*
X020878Y017617D01*
X020887Y017598D01*
X020898Y017581D01*
X020912Y017566D01*
X020928Y017552D01*
X020945Y01754D01*
X020963Y017531D01*
X020983Y017525D01*
X021003Y017521D01*
X021024Y017519D01*
X021044Y017521D01*
X021064Y017525D01*
X021084Y017531D01*
X021103Y01754D01*
X02112Y017552D01*
X021135Y017566D01*
X021149Y017581D01*
X02116Y017598D01*
X021169Y017617D01*
X021176Y017636D01*
X02118Y017657D01*
X021181Y017677D01*
X02118Y017698D01*
X021176Y017718D01*
X021169Y017738D01*
X02116Y017756D01*
X021149Y017773D01*
X021135Y017789D01*
X02112Y017802D01*
X021103Y017814D01*
X021084Y017823D01*
X021064Y01783D01*
X021044Y017834D01*
X021024Y017835D01*
D02*
G37*
G36*
X016417Y016802D02*
X016398Y0168D01*
X016379Y016796D01*
X016361Y01679D01*
X016343Y016782D01*
X016327Y016771D01*
X016313Y016758D01*
X0163Y016744D01*
X016299Y016742D01*
X016282Y016737D01*
X016258D01*
X016241Y016742D01*
X016239Y016744D01*
X016227Y016758D01*
X016212Y016771D01*
X016196Y016782D01*
X016179Y01679D01*
X01616Y016796D01*
X016141Y0168D01*
X016122Y016802D01*
X016103Y0168D01*
X016084Y016796D01*
X016065Y01679D01*
X016048Y016782D01*
X016032Y016771D01*
X016017Y016758D01*
X016005Y016744D01*
X016004Y016742D01*
X015986Y016737D01*
X015962D01*
X015945Y016742D01*
X015944Y016744D01*
X015931Y016758D01*
X015917Y016771D01*
X015901Y016782D01*
X015883Y01679D01*
X015865Y016796D01*
X015846Y0168D01*
X015827Y016802D01*
X015807Y0168D01*
X015788Y016796D01*
X01577Y01679D01*
X015753Y016782D01*
X015737Y016771D01*
X015722Y016758D01*
X015709Y016744D01*
X015699Y016728D01*
X01569Y01671D01*
X015684Y016692D01*
X01568Y016673D01*
X015679Y016654D01*
X01568Y016634D01*
X015684Y016615D01*
X01569Y016597D01*
X015699Y01658D01*
X015709Y016563D01*
X015722Y016549D01*
X015737Y016536D01*
X015753Y016525D01*
X01577Y016517D01*
X015788Y016511D01*
X015807Y016507D01*
X015827Y016506D01*
X015846Y016507D01*
X015865Y016511D01*
X015883Y016517D01*
X015901Y016525D01*
X015917Y016536D01*
X015931Y016549D01*
X015944Y016563D01*
X015945Y016565D01*
X015962Y01657D01*
X015986D01*
X016004Y016565D01*
X016005Y016563D01*
X016017Y016549D01*
X016032Y016536D01*
X016048Y016525D01*
X016065Y016517D01*
X016084Y016511D01*
X016103Y016507D01*
X016122Y016506D01*
X016141Y016507D01*
X01616Y016511D01*
X016179Y016517D01*
X016196Y016525D01*
X016212Y016536D01*
X016227Y016549D01*
X016239Y016563D01*
X016241Y016565D01*
X016258Y01657D01*
X016282D01*
X016299Y016565D01*
X0163Y016563D01*
X016313Y016549D01*
X016327Y016536D01*
X016343Y016525D01*
X016361Y016517D01*
X016379Y016511D01*
X016398Y016507D01*
X016417Y016506D01*
X016437Y016507D01*
X016456Y016511D01*
X016474Y016517D01*
X016491Y016525D01*
X016507Y016536D01*
X016522Y016549D01*
X016535Y016563D01*
X016545Y01658D01*
X016554Y016597D01*
X01656Y016615D01*
X016564Y016634D01*
X016565Y016654D01*
X016564Y016673D01*
X01656Y016692D01*
X016554Y01671D01*
X016545Y016728D01*
X016535Y016744D01*
X016522Y016758D01*
X016507Y016771D01*
X016491Y016782D01*
X016474Y01679D01*
X016456Y016796D01*
X016437Y0168D01*
X016417Y016802D01*
D02*
G37*
G36*
X012156Y016989D02*
X012136Y016987D01*
X012117Y016983D01*
X012099Y016977D01*
X012082Y016969D01*
X012065Y016958D01*
X012051Y016945D01*
X012038Y016931D01*
X012027Y016915D01*
X012019Y016897D01*
X012013Y016879D01*
X012009Y01686D01*
X012008Y016841D01*
X012009Y016821D01*
X012013Y016802D01*
X012019Y016784D01*
X012027Y016767D01*
X012038Y01675D01*
X012051Y016736D01*
X012065Y016723D01*
X012082Y016712D01*
X012099Y016704D01*
X012117Y016698D01*
X012136Y016694D01*
X012156Y016693D01*
X012175Y016694D01*
X012194Y016698D01*
X012212Y016704D01*
X012229Y016712D01*
X012246Y016723D01*
X01226Y016736D01*
X012273Y01675D01*
X012284Y016767D01*
X012292Y016784D01*
X012298Y016802D01*
X012302Y016821D01*
X012303Y016841D01*
X012302Y01686D01*
X012298Y016879D01*
X012292Y016897D01*
X012284Y016915D01*
X012273Y016931D01*
X01226Y016945D01*
X012246Y016958D01*
X012229Y016969D01*
X012212Y016977D01*
X012194Y016983D01*
X012175Y016987D01*
X012156Y016989D01*
D02*
G37*
G36*
X013091Y01687D02*
X013071Y016869D01*
X013052Y016865D01*
X013034Y016859D01*
X013017Y016851D01*
X013Y01684D01*
X012986Y016827D01*
X012973Y016813D01*
X012962Y016796D01*
X012954Y016779D01*
X012948Y016761D01*
X012944Y016742D01*
X012943Y016722D01*
X012944Y016703D01*
X012948Y016684D01*
X012954Y016666D01*
X012962Y016648D01*
X012973Y016632D01*
X012986Y016618D01*
X013Y016605D01*
X013017Y016594D01*
X013034Y016586D01*
X013052Y01658D01*
X013071Y016576D01*
X013091Y016574D01*
X01311Y016576D01*
X013129Y01658D01*
X013147Y016586D01*
X013165Y016594D01*
X013181Y016605D01*
X013195Y016618D01*
X013208Y016632D01*
X013219Y016648D01*
X013227Y016666D01*
X013233Y016684D01*
X013237Y016703D01*
X013239Y016722D01*
X013237Y016742D01*
X013233Y016761D01*
X013227Y016779D01*
X013219Y016796D01*
X013208Y016813D01*
X013195Y016827D01*
X013181Y01684D01*
X013165Y016851D01*
X013147Y016859D01*
X013129Y016865D01*
X01311Y016869D01*
X013091Y01687D01*
D02*
G37*
G36*
X012835Y016555D02*
X012815Y016554D01*
X012796Y01655D01*
X012778Y016544D01*
X012761Y016536D01*
X012745Y016525D01*
X01273Y016512D01*
X012717Y016498D01*
X012707Y016481D01*
X012698Y016464D01*
X012692Y016446D01*
X012688Y016427D01*
X012687Y016407D01*
X012688Y016388D01*
X012692Y016369D01*
X012698Y016351D01*
X012707Y016334D01*
X012717Y016317D01*
X01273Y016303D01*
X012745Y01629D01*
X012761Y016279D01*
X012778Y016271D01*
X012796Y016265D01*
X012815Y016261D01*
X012835Y01626D01*
X012854Y016261D01*
X012873Y016265D01*
X012891Y016271D01*
X012909Y016279D01*
X012925Y01629D01*
X012939Y016303D01*
X012952Y016317D01*
X012963Y016334D01*
X012971Y016351D01*
X012978Y016369D01*
X012981Y016388D01*
X012983Y016407D01*
X012981Y016427D01*
X012978Y016446D01*
X012971Y016464D01*
X012963Y016481D01*
X012952Y016498D01*
X012939Y016512D01*
X012925Y016525D01*
X012909Y016536D01*
X012891Y016544D01*
X012873Y01655D01*
X012854Y016554D01*
X012835Y016555D01*
D02*
G37*
G36*
X035118Y01625D02*
X035099Y016249D01*
X03508Y016245D01*
X035061Y016239D01*
X035044Y01623D01*
X035028Y01622D01*
X035013Y016207D01*
X035001Y016192D01*
X03499Y016176D01*
X034981Y016159D01*
X034975Y016141D01*
X034971Y016122D01*
X03497Y016102D01*
X034971Y016083D01*
X034975Y016064D01*
X034981Y016046D01*
X03499Y016028D01*
X035001Y016012D01*
X035013Y015998D01*
X035028Y015985D01*
X035044Y015974D01*
X035061Y015966D01*
X03508Y015959D01*
X035099Y015956D01*
X035118Y015954D01*
X035137Y015956D01*
X035156Y015959D01*
X035175Y015966D01*
X035192Y015974D01*
X035208Y015985D01*
X035223Y015998D01*
X035235Y016012D01*
X035246Y016028D01*
X035255Y016046D01*
X035261Y016064D01*
X035265Y016083D01*
X035266Y016102D01*
X035265Y016122D01*
X035261Y016141D01*
X035255Y016159D01*
X035246Y016176D01*
X035235Y016192D01*
X035223Y016207D01*
X035208Y01622D01*
X035192Y01623D01*
X035175Y016239D01*
X035156Y016245D01*
X035137Y016249D01*
X035118Y01625D01*
D02*
G37*
G36*
X035118Y015857D02*
X035099Y015855D01*
X03508Y015852D01*
X035061Y015845D01*
X035044Y015837D01*
X035028Y015826D01*
X035013Y015813D01*
X035001Y015799D01*
X03499Y015783D01*
X034981Y015765D01*
X034975Y015747D01*
X034971Y015728D01*
X03497Y015709D01*
X034971Y015689D01*
X034975Y01567D01*
X034981Y015652D01*
X03499Y015635D01*
X035001Y015619D01*
X035013Y015604D01*
X035028Y015591D01*
X035044Y015581D01*
X035061Y015572D01*
X03508Y015566D01*
X035099Y015562D01*
X035118Y015561D01*
X035137Y015562D01*
X035156Y015566D01*
X035175Y015572D01*
X035192Y015581D01*
X035208Y015591D01*
X035223Y015604D01*
X035235Y015619D01*
X035246Y015635D01*
X035255Y015652D01*
X035261Y01567D01*
X035265Y015689D01*
X035266Y015709D01*
X035265Y015728D01*
X035261Y015747D01*
X035255Y015765D01*
X035246Y015783D01*
X035235Y015799D01*
X035223Y015813D01*
X035208Y015826D01*
X035192Y015837D01*
X035175Y015845D01*
X035156Y015852D01*
X035137Y015855D01*
X035118Y015857D01*
D02*
G37*
G36*
X012362Y015266D02*
X012343Y015265D01*
X012324Y015261D01*
X012306Y015255D01*
X012288Y015246D01*
X012272Y015235D01*
X012258Y015223D01*
X012245Y015208D01*
X012234Y015192D01*
X012226Y015175D01*
X012219Y015156D01*
X012216Y015137D01*
X012214Y015118D01*
X012216Y015099D01*
X012219Y01508D01*
X012226Y015061D01*
X012234Y015044D01*
X012245Y015028D01*
X012258Y015013D01*
X012272Y015001D01*
X012288Y01499D01*
X012306Y014981D01*
X012324Y014975D01*
X012343Y014971D01*
X012362Y01497D01*
X012382Y014971D01*
X0124Y014975D01*
X012419Y014981D01*
X012436Y01499D01*
X012452Y015001D01*
X012467Y015013D01*
X01248Y015028D01*
X01249Y015044D01*
X012499Y015061D01*
X012505Y01508D01*
X012509Y015099D01*
X01251Y015118D01*
X012509Y015137D01*
X012505Y015156D01*
X012499Y015175D01*
X01249Y015192D01*
X01248Y015208D01*
X012467Y015223D01*
X012452Y015235D01*
X012436Y015246D01*
X012419Y015255D01*
X0124Y015261D01*
X012382Y015265D01*
X012362Y015266D01*
D02*
G37*
G36*
X033543Y015079D02*
X033523Y015078D01*
X033502Y015074D01*
X033483Y015067D01*
X033464Y015058D01*
X033447Y015046D01*
X033432Y015033D01*
X033418Y015017D01*
X033407Y015D01*
X033398Y014982D01*
X033391Y014962D01*
X033341D01*
X033335Y014982D01*
X033326Y015D01*
X033314Y015017D01*
X033301Y015033D01*
X033285Y015046D01*
X033268Y015058D01*
X033249Y015067D01*
X03323Y015074D01*
X03321Y015078D01*
X033189Y015079D01*
X033168Y015078D01*
X033148Y015074D01*
X033129Y015067D01*
X03311Y015058D01*
X033093Y015046D01*
X033077Y015033D01*
X033064Y015017D01*
X033052Y015D01*
X033043Y014982D01*
X033037Y014962D01*
X033033Y014942D01*
X033031Y014921D01*
X033033Y014901D01*
X033037Y01488D01*
X033043Y014861D01*
X033052Y014842D01*
X033064Y014825D01*
X033077Y01481D01*
X033093Y014796D01*
X03311Y014785D01*
X033129Y014775D01*
X033148Y014769D01*
X033168Y014765D01*
X033189Y014763D01*
X03321Y014765D01*
X03323Y014769D01*
X033249Y014775D01*
X033268Y014785D01*
X033285Y014796D01*
X033301Y01481D01*
X033314Y014825D01*
X033326Y014842D01*
X033335Y014861D01*
X033341Y01488D01*
X033391D01*
X033398Y014861D01*
X033407Y014842D01*
X033418Y014825D01*
X033432Y01481D01*
X033447Y014796D01*
X033464Y014785D01*
X033483Y014775D01*
X033502Y014769D01*
X033523Y014765D01*
X033543Y014763D01*
X033564Y014765D01*
X033584Y014769D01*
X033604Y014775D01*
X033622Y014785D01*
X033639Y014796D01*
X033655Y01481D01*
X033669Y014825D01*
X03368Y014842D01*
X033689Y014861D01*
X033696Y01488D01*
X0337Y014901D01*
X033701Y014921D01*
X0337Y014942D01*
X033696Y014962D01*
X033689Y014982D01*
X03368Y015D01*
X033669Y015017D01*
X033655Y015033D01*
X033639Y015046D01*
X033622Y015058D01*
X033604Y015067D01*
X033584Y015074D01*
X033564Y015078D01*
X033543Y015079D01*
D02*
G37*
G36*
X036299Y014922D02*
X036279Y01492D01*
X036258Y014916D01*
X036239Y01491D01*
X03622Y0149D01*
X036203Y014889D01*
X036188Y014875D01*
X036174Y01486D01*
X036163Y014843D01*
X036153Y014824D01*
X036147Y014805D01*
X036143Y014784D01*
X036141Y014764D01*
X036143Y014743D01*
X036147Y014723D01*
X036153Y014703D01*
X036163Y014685D01*
X036174Y014668D01*
X036188Y014652D01*
X036203Y014639D01*
X03622Y014627D01*
X036239Y014618D01*
X036258Y014611D01*
X036279Y014607D01*
X036299Y014606D01*
X03632Y014607D01*
X03634Y014611D01*
X03636Y014618D01*
X036378Y014627D01*
X036395Y014639D01*
X036411Y014652D01*
X036424Y014668D01*
X036436Y014685D01*
X036445Y014703D01*
X036452Y014723D01*
X036456Y014743D01*
X036457Y014764D01*
X036456Y014784D01*
X036452Y014805D01*
X036445Y014824D01*
X036436Y014843D01*
X036424Y01486D01*
X036411Y014875D01*
X036395Y014889D01*
X036378Y0149D01*
X03636Y01491D01*
X03634Y014916D01*
X03632Y01492D01*
X036299Y014922D01*
D02*
G37*
G36*
X033622Y014489D02*
X033601Y014487D01*
X033581Y014483D01*
X033562Y014477D01*
X033543Y014467D01*
X033526Y014456D01*
X03351Y014442D01*
X033497Y014427D01*
X033485Y01441D01*
X033476Y014391D01*
X03347Y014372D01*
X03342D01*
X033414Y014391D01*
X033404Y01441D01*
X033393Y014427D01*
X033379Y014442D01*
X033364Y014456D01*
X033347Y014467D01*
X033328Y014477D01*
X033309Y014483D01*
X033288Y014487D01*
X033268Y014489D01*
X033247Y014487D01*
X033227Y014483D01*
X033207Y014477D01*
X033189Y014467D01*
X033172Y014456D01*
X033156Y014442D01*
X033143Y014427D01*
X033131Y01441D01*
X033122Y014391D01*
X033115Y014372D01*
X033111Y014351D01*
X03311Y014331D01*
X033111Y01431D01*
X033115Y01429D01*
X033122Y01427D01*
X033131Y014252D01*
X033143Y014235D01*
X033156Y014219D01*
X033172Y014205D01*
X033189Y014194D01*
X033207Y014185D01*
X033227Y014178D01*
X033247Y014174D01*
X033268Y014173D01*
X033288Y014174D01*
X033309Y014178D01*
X033328Y014185D01*
X033347Y014194D01*
X033364Y014205D01*
X033379Y014219D01*
X033393Y014235D01*
X033404Y014252D01*
X033414Y01427D01*
X03342Y01429D01*
X03347D01*
X033476Y01427D01*
X033485Y014252D01*
X033497Y014235D01*
X03351Y014219D01*
X033526Y014205D01*
X033543Y014194D01*
X033562Y014185D01*
X033581Y014178D01*
X033601Y014174D01*
X033622Y014173D01*
X033643Y014174D01*
X033663Y014178D01*
X033682Y014185D01*
X033701Y014194D01*
X033718Y014205D01*
X033734Y014219D01*
X033747Y014235D01*
X033759Y014252D01*
X033768Y01427D01*
X033774Y01429D01*
X033779Y01431D01*
X03378Y014331D01*
X033779Y014351D01*
X033774Y014372D01*
X033768Y014391D01*
X033759Y01441D01*
X033747Y014427D01*
X033734Y014442D01*
X033718Y014456D01*
X033701Y014467D01*
X033682Y014477D01*
X033663Y014483D01*
X033643Y014487D01*
X033622Y014489D01*
D02*
G37*
G36*
X035541Y014705D02*
X035521Y014704D01*
X0355Y0147D01*
X035481Y014693D01*
X035462Y014684D01*
X035445Y014672D01*
X03543Y014659D01*
X035416Y014643D01*
X035405Y014626D01*
X035396Y014608D01*
X035389Y014588D01*
X035385Y014568D01*
X035384Y014547D01*
X035385Y014527D01*
X035389Y014506D01*
X035396Y014487D01*
X035405Y014468D01*
X035416Y014451D01*
X03543Y014436D01*
X035445Y014422D01*
X035462Y014411D01*
X035481Y014401D01*
X0355Y014395D01*
X035521Y014391D01*
X035541Y014389D01*
X035562Y014391D01*
X035567Y014392D01*
X035599Y01437D01*
X035611Y014352D01*
X03561Y014341D01*
X035611Y01432D01*
X035615Y0143D01*
X035622Y01428D01*
X035631Y014262D01*
X035643Y014244D01*
X035656Y014229D01*
X035672Y014215D01*
X035689Y014204D01*
X035707Y014195D01*
X035727Y014188D01*
X035747Y014184D01*
X035768Y014183D01*
X035788Y014184D01*
X035809Y014188D01*
X035828Y014195D01*
X035847Y014204D01*
X035864Y014215D01*
X035879Y014229D01*
X035893Y014244D01*
X035904Y014262D01*
X035914Y01428D01*
X03592Y0143D01*
X035924Y01432D01*
X035926Y014341D01*
X035924Y014361D01*
X03592Y014381D01*
X035914Y014401D01*
X035904Y014419D01*
X035893Y014437D01*
X035879Y014452D01*
X035864Y014466D01*
X035847Y014477D01*
X035828Y014486D01*
X035809Y014493D01*
X035788Y014497D01*
X035768Y014498D01*
X035747Y014497D01*
X035742Y014496D01*
X03571Y014518D01*
X035698Y014536D01*
X035699Y014547D01*
X035698Y014568D01*
X035694Y014588D01*
X035687Y014608D01*
X035678Y014626D01*
X035667Y014643D01*
X035653Y014659D01*
X035637Y014672D01*
X03562Y014684D01*
X035602Y014693D01*
X035582Y0147D01*
X035562Y014704D01*
X035541Y014705D01*
D02*
G37*
G36*
X034682Y014124D02*
X034397D01*
X034374Y014123D01*
X034352Y014119D01*
X03433Y014113D01*
X034309Y014104D01*
X034289Y014093D01*
X034271Y01408D01*
X034254Y014065D01*
X034239Y014048D01*
X034226Y01403D01*
X034215Y01401D01*
X034206Y013989D01*
X0342Y013967D01*
X034196Y013945D01*
X034195Y013922D01*
Y013637D01*
X034196Y013614D01*
X0342Y013592D01*
X034206Y01357D01*
X034215Y013549D01*
X034226Y013529D01*
X034239Y013511D01*
X034254Y013494D01*
X034271Y013479D01*
X034289Y013466D01*
X034309Y013455D01*
X03433Y013446D01*
X034352Y01344D01*
X034374Y013436D01*
X034397Y013435D01*
X034682D01*
X034705Y013436D01*
X034727Y01344D01*
X034749Y013446D01*
X03477Y013455D01*
X03479Y013466D01*
X034808Y013479D01*
X034825Y013494D01*
X03484Y013511D01*
X034853Y013529D01*
X034864Y013549D01*
X034873Y01357D01*
X034879Y013592D01*
X034883Y013614D01*
X034884Y013637D01*
Y013922D01*
X034883Y013945D01*
X034879Y013967D01*
X034873Y013989D01*
X034864Y01401D01*
X034853Y01403D01*
X03484Y014048D01*
X034825Y014065D01*
X034808Y01408D01*
X03479Y014093D01*
X03477Y014104D01*
X034749Y014113D01*
X034727Y014119D01*
X034705Y014123D01*
X034682Y014124D01*
D02*
G37*
G36*
X035539Y014124D02*
X035509Y014123D01*
X035479Y014119D01*
X03545Y014113D01*
X035421Y014104D01*
X035394Y014092D01*
X035367Y014078D01*
X035342Y014062D01*
X035318Y014044D01*
X035296Y014023D01*
X035275Y014001D01*
X035257Y013977D01*
X035241Y013952D01*
X035227Y013925D01*
X035215Y013897D01*
X035206Y013869D01*
X0352Y013839D01*
X035196Y01381D01*
X035195Y01378D01*
X035196Y013749D01*
X0352Y01372D01*
X035206Y01369D01*
X035215Y013662D01*
X035227Y013634D01*
X035241Y013607D01*
X035257Y013582D01*
X035275Y013558D01*
X035296Y013536D01*
X035318Y013515D01*
X035342Y013497D01*
X035367Y013481D01*
X035394Y013467D01*
X035421Y013456D01*
X03545Y013446D01*
X035479Y01344D01*
X035509Y013436D01*
X035539Y013435D01*
X035569Y013436D01*
X035599Y01344D01*
X035629Y013446D01*
X035657Y013456D01*
X035685Y013467D01*
X035712Y013481D01*
X035737Y013497D01*
X035761Y013515D01*
X035783Y013536D01*
X035804Y013558D01*
X035822Y013582D01*
X035838Y013607D01*
X035852Y013634D01*
X035863Y013662D01*
X035872Y01369D01*
X035879Y01372D01*
X035883Y013749D01*
X035884Y01378D01*
X035883Y01381D01*
X035879Y013839D01*
X035872Y013869D01*
X035863Y013897D01*
X035852Y013925D01*
X035838Y013952D01*
X035822Y013977D01*
X035804Y014001D01*
X035783Y014023D01*
X035761Y014044D01*
X035737Y014062D01*
X035712Y014078D01*
X035685Y014092D01*
X035657Y014104D01*
X035629Y014113D01*
X035599Y014119D01*
X035569Y014123D01*
X035539Y014124D01*
D02*
G37*
G36*
X036728Y014376D02*
X03669Y014375D01*
X036651Y014371D01*
X036613Y014364D01*
X036576Y014354D01*
X036539Y014342D01*
X036503Y014327D01*
X036469Y01431D01*
X036435Y01429D01*
X036404Y014268D01*
X036374Y014244D01*
X036345Y014218D01*
X036319Y014189D01*
X036295Y014159D01*
X036273Y014128D01*
X036253Y014094D01*
X036236Y01406D01*
X036221Y014024D01*
X036209Y013987D01*
X036199Y01395D01*
X036192Y013912D01*
X036188Y013873D01*
X036187Y013835D01*
X036188Y013796D01*
X036192Y013758D01*
X036199Y01372D01*
X036209Y013682D01*
X036221Y013645D01*
X036236Y01361D01*
X036253Y013575D01*
X036273Y013542D01*
X036295Y01351D01*
X036319Y01348D01*
X036345Y013452D01*
X036374Y013425D01*
X036404Y013401D01*
X036435Y013379D01*
X036469Y013359D01*
X036503Y013342D01*
X036539Y013327D01*
X036576Y013315D01*
X036613Y013305D01*
X036651Y013298D01*
X03669Y013294D01*
X036728Y013293D01*
X036767Y013294D01*
X036805Y013298D01*
X036843Y013305D01*
X036881Y013315D01*
X036918Y013327D01*
X036953Y013342D01*
X036988Y013359D01*
X037021Y013379D01*
X037053Y013401D01*
X037083Y013425D01*
X037111Y013452D01*
X037138Y01348D01*
X037162Y01351D01*
X037184Y013542D01*
X037204Y013575D01*
X037221Y01361D01*
X037236Y013645D01*
X037248Y013682D01*
X037258Y01372D01*
X037265Y013758D01*
X037269Y013796D01*
X03727Y013835D01*
X037269Y013873D01*
X037265Y013912D01*
X037258Y01395D01*
X037248Y013987D01*
X037236Y014024D01*
X037221Y01406D01*
X037204Y014094D01*
X037184Y014128D01*
X037162Y014159D01*
X037138Y014189D01*
X037111Y014218D01*
X037083Y014244D01*
X037053Y014268D01*
X037021Y01429D01*
X036988Y01431D01*
X036953Y014327D01*
X036918Y014342D01*
X036881Y014354D01*
X036843Y014364D01*
X036805Y014371D01*
X036767Y014375D01*
X036728Y014376D01*
D02*
G37*
G36*
X034553Y012313D02*
X034534Y012312D01*
X034515Y012308D01*
X034496Y012302D01*
X034479Y012293D01*
X034463Y012283D01*
X034448Y01227D01*
X034436Y012255D01*
X034425Y012239D01*
X034416Y012222D01*
X03441Y012204D01*
X034406Y012185D01*
X034405Y012165D01*
X034406Y012146D01*
X03441Y012127D01*
X034416Y012109D01*
X034425Y012091D01*
X034436Y012075D01*
X034448Y012061D01*
X034463Y012048D01*
X034479Y012037D01*
X034496Y012029D01*
X034515Y012022D01*
X034534Y012019D01*
X034553Y012017D01*
X034572Y012019D01*
X034591Y012022D01*
X03461Y012029D01*
X034627Y012037D01*
X034643Y012048D01*
X034658Y012061D01*
X03467Y012075D01*
X034681Y012091D01*
X03469Y012109D01*
X034696Y012127D01*
X0347Y012146D01*
X034701Y012165D01*
X0347Y012185D01*
X034696Y012204D01*
X03469Y012222D01*
X034681Y012239D01*
X03467Y012255D01*
X034658Y01227D01*
X034643Y012283D01*
X034627Y012293D01*
X03461Y012302D01*
X034591Y012308D01*
X034572Y012312D01*
X034553Y012313D01*
D02*
G37*
G36*
X03416D02*
X034141Y012312D01*
X034122Y012308D01*
X034104Y012302D01*
X034086Y012293D01*
X03407Y012283D01*
X034056Y01227D01*
X034043Y012255D01*
X034032Y012239D01*
X034023Y012222D01*
X034017Y012204D01*
X034014Y012185D01*
X034012Y012165D01*
X034014Y012146D01*
X034017Y012127D01*
X034023Y012109D01*
X034032Y012091D01*
X034043Y012075D01*
X034056Y012061D01*
X03407Y012048D01*
X034086Y012037D01*
X034104Y012029D01*
X034122Y012022D01*
X034141Y012019D01*
X03416Y012017D01*
X034179Y012019D01*
X034198Y012022D01*
X034217Y012029D01*
X034234Y012037D01*
X03425Y012048D01*
X034265Y012061D01*
X034278Y012075D01*
X034288Y012091D01*
X034297Y012109D01*
X034303Y012127D01*
X034307Y012146D01*
X034308Y012165D01*
X034307Y012185D01*
X034303Y012204D01*
X034297Y012222D01*
X034288Y012239D01*
X034278Y012255D01*
X034265Y01227D01*
X03425Y012283D01*
X034234Y012293D01*
X034217Y012302D01*
X034198Y012308D01*
X034179Y012312D01*
X03416Y012313D01*
D02*
G37*
G36*
X036574Y01251D02*
X036458D01*
X036446Y012509D01*
X036332Y012486D01*
X036321Y012482D01*
X036213Y012438D01*
X036203Y012432D01*
X036106Y012368D01*
X036106Y012368D01*
X036097Y01236D01*
X036015Y012278D01*
X036015Y012278D01*
X036008Y012269D01*
X035943Y012172D01*
X035938Y012162D01*
X035893Y012055D01*
X03589Y012044D01*
X035867Y01193D01*
X035866Y011918D01*
Y011802D01*
X035867Y01179D01*
X03589Y011676D01*
X035893Y011665D01*
X035938Y011557D01*
X035943Y011547D01*
X036008Y01145D01*
X036008Y01145D01*
X036015Y011441D01*
X036097Y011359D01*
X036097Y011359D01*
X036106Y011352D01*
X036203Y011287D01*
X036213Y011282D01*
X036321Y011237D01*
X036332Y011234D01*
X036446Y011211D01*
X036458Y01121D01*
X036574D01*
X036585Y011211D01*
X0367Y011234D01*
X036711Y011237D01*
X036818Y011282D01*
X036828Y011287D01*
X036925Y011352D01*
X036925Y011352D01*
X036934Y011359D01*
X037016Y011441D01*
X037016Y011441D01*
X037024Y01145D01*
X037088Y011547D01*
X037094Y011557D01*
X037138Y011665D01*
X037142Y011676D01*
X037164Y01179D01*
X037166Y011802D01*
Y011918D01*
X037164Y01193D01*
X037142Y012044D01*
X037138Y012055D01*
X037094Y012162D01*
X037088Y012172D01*
X037024Y012269D01*
X037024Y012269D01*
X037016Y012278D01*
X036934Y01236D01*
X036934Y01236D01*
X036925Y012368D01*
X036828Y012432D01*
X036818Y012438D01*
X036711Y012482D01*
X0367Y012486D01*
X036585Y012509D01*
X036574Y01251D01*
D02*
G37*
G36*
X011918Y012547D02*
X011873Y012545D01*
X011829Y012541D01*
X011785Y012534D01*
X011742Y012524D01*
X011699Y012511D01*
X011658Y012495D01*
X011617Y012477D01*
X011578Y012456D01*
X01154Y012432D01*
X011504Y012406D01*
X01147Y012378D01*
X011437Y012348D01*
X011407Y012315D01*
X011379Y012281D01*
X011353Y012245D01*
X011329Y012207D01*
X011308Y012168D01*
X01129Y012127D01*
X011274Y012086D01*
X011261Y012043D01*
X011251Y012D01*
X011244Y011956D01*
X01124Y011912D01*
X011238Y011867D01*
X01124Y011823D01*
X011244Y011778D01*
X011251Y011735D01*
X011261Y011691D01*
X011274Y011649D01*
X01129Y011607D01*
X011308Y011567D01*
X011329Y011527D01*
X011353Y01149D01*
X011379Y011454D01*
X011407Y011419D01*
X011437Y011387D01*
X01147Y011356D01*
X011504Y011328D01*
X01154Y011302D01*
X011578Y011279D01*
X011617Y011258D01*
X011658Y011239D01*
X011699Y011224D01*
X011742Y011211D01*
X011785Y011201D01*
X011829Y011193D01*
X011873Y011189D01*
X011918Y011188D01*
X011962Y011189D01*
X012006Y011193D01*
X01205Y011201D01*
X012094Y011211D01*
X012136Y011224D01*
X012178Y011239D01*
X012218Y011258D01*
X012257Y011279D01*
X012295Y011302D01*
X012331Y011328D01*
X012366Y011356D01*
X012398Y011387D01*
X012429Y011419D01*
X012457Y011454D01*
X012483Y01149D01*
X012506Y011527D01*
X012527Y011567D01*
X012545Y011607D01*
X012561Y011649D01*
X012574Y011691D01*
X012584Y011735D01*
X012591Y011778D01*
X012596Y011823D01*
X012597Y011867D01*
X012596Y011912D01*
X012591Y011956D01*
X012584Y012D01*
X012574Y012043D01*
X012561Y012086D01*
X012545Y012127D01*
X012527Y012168D01*
X012506Y012207D01*
X012483Y012245D01*
X012457Y012281D01*
X012429Y012315D01*
X012398Y012348D01*
X012366Y012378D01*
X012331Y012406D01*
X012295Y012432D01*
X012257Y012456D01*
X012218Y012477D01*
X012178Y012495D01*
X012136Y012511D01*
X012094Y012524D01*
X01205Y012534D01*
X012006Y012541D01*
X011962Y012545D01*
X011918Y012547D01*
D02*
G37*
G36*
X02439Y025069D02*
X02435Y025068D01*
X024311Y025063D01*
X024272Y025055D01*
X024235Y025045D01*
X024198Y025031D01*
X024162Y025015D01*
X024127Y024995D01*
X024094Y024973D01*
X024064Y024949D01*
X024035Y024922D01*
X024008Y024893D01*
X023983Y024862D01*
X023961Y024829D01*
X023942Y024795D01*
X023926Y024759D01*
X023912Y024722D01*
X023901Y024684D01*
X023894Y024646D01*
X023889Y024606D01*
X023887Y024567D01*
X023889Y024528D01*
X023894Y024488D01*
X023901Y02445D01*
X023912Y024412D01*
X023926Y024375D01*
X023942Y024339D01*
X023961Y024304D01*
X023983Y024272D01*
X024008Y024241D01*
X024035Y024212D01*
X024064Y024185D01*
X024094Y024161D01*
X024127Y024139D01*
X024162Y024119D01*
X024198Y024103D01*
X024235Y024089D01*
X024272Y024078D01*
X024311Y024071D01*
X02435Y024066D01*
X02439Y024065D01*
X024429Y024066D01*
X024468Y024071D01*
X024507Y024078D01*
X024545Y024089D01*
X024582Y024103D01*
X024618Y024119D01*
X024652Y024139D01*
X024685Y024161D01*
X024716Y024185D01*
X024745Y024212D01*
X024772Y024241D01*
X024796Y024272D01*
X024818Y024304D01*
X024837Y024339D01*
X024854Y024375D01*
X024868Y024412D01*
X024878Y02445D01*
X024886Y024488D01*
X024891Y024528D01*
X024892Y024567D01*
X024891Y024606D01*
X024886Y024646D01*
X024878Y024684D01*
X024868Y024722D01*
X024854Y024759D01*
X024837Y024795D01*
X024818Y024829D01*
X024796Y024862D01*
X024772Y024893D01*
X024745Y024922D01*
X024716Y024949D01*
X024685Y024973D01*
X024652Y024995D01*
X024618Y025015D01*
X024582Y025031D01*
X024545Y025045D01*
X024507Y025055D01*
X024468Y025063D01*
X024429Y025068D01*
X02439Y025069D01*
D02*
G37*
G36*
X02252Y023849D02*
X0225Y023847D01*
X022481Y023844D01*
X022463Y023837D01*
X022446Y023829D01*
X02243Y023818D01*
X022415Y023805D01*
X022402Y023791D01*
X022392Y023775D01*
X022383Y023757D01*
X022377Y023739D01*
X022373Y02372D01*
X022372Y023701D01*
X022373Y023681D01*
X022377Y023662D01*
X022383Y023644D01*
X022392Y023627D01*
X022402Y023611D01*
X022415Y023596D01*
X02243Y023583D01*
X022446Y023573D01*
X022463Y023564D01*
X022481Y023558D01*
X0225Y023554D01*
X02252Y023553D01*
X022539Y023554D01*
X022558Y023558D01*
X022576Y023564D01*
X022594Y023573D01*
X02261Y023583D01*
X022624Y023596D01*
X022637Y023611D01*
X022648Y023627D01*
X022656Y023644D01*
X022663Y023662D01*
X022666Y023681D01*
X022668Y023701D01*
X022666Y02372D01*
X022663Y023739D01*
X022656Y023757D01*
X022648Y023775D01*
X022637Y023791D01*
X022624Y023805D01*
X02261Y023818D01*
X022594Y023829D01*
X022576Y023837D01*
X022558Y023844D01*
X022539Y023847D01*
X02252Y023849D01*
D02*
G37*
G36*
X02315Y0238D02*
X02313Y023798D01*
X023111Y023794D01*
X023093Y023788D01*
X023076Y02378D01*
X02306Y023769D01*
X023045Y023756D01*
X023032Y023742D01*
X023021Y023726D01*
X023013Y023708D01*
X023007Y02369D01*
X023003Y023671D01*
X023002Y023652D01*
X023003Y023632D01*
X023007Y023613D01*
X023013Y023595D01*
X023021Y023578D01*
X023032Y023562D01*
X023045Y023547D01*
X02306Y023534D01*
X023076Y023523D01*
X023093Y023515D01*
X023111Y023509D01*
X02313Y023505D01*
X02315Y023504D01*
X023169Y023505D01*
X023188Y023509D01*
X023206Y023515D01*
X023224Y023523D01*
X02324Y023534D01*
X023254Y023547D01*
X023267Y023562D01*
X023278Y023578D01*
X023286Y023595D01*
X023293Y023613D01*
X023296Y023632D01*
X023298Y023652D01*
X023296Y023671D01*
X023293Y02369D01*
X023286Y023708D01*
X023278Y023726D01*
X023267Y023742D01*
X023254Y023756D01*
X02324Y023769D01*
X023224Y02378D01*
X023206Y023788D01*
X023188Y023794D01*
X023169Y023798D01*
X02315Y0238D01*
D02*
G37*
G36*
X02374Y023721D02*
X023721Y02372D01*
X023702Y023716D01*
X023684Y02371D01*
X023666Y023701D01*
X02365Y02369D01*
X023636Y023677D01*
X023623Y023663D01*
X023612Y023647D01*
X023603Y023629D01*
X023597Y023611D01*
X023593Y023592D01*
X023592Y023573D01*
X023593Y023554D01*
X023597Y023535D01*
X023603Y023516D01*
X023612Y023499D01*
X023623Y023483D01*
X023636Y023468D01*
X02365Y023455D01*
X023666Y023445D01*
X023684Y023436D01*
X023702Y02343D01*
X023721Y023426D01*
X02374Y023425D01*
X023759Y023426D01*
X023778Y02343D01*
X023797Y023436D01*
X023814Y023445D01*
X02383Y023455D01*
X023845Y023468D01*
X023858Y023483D01*
X023868Y023499D01*
X023877Y023516D01*
X023883Y023535D01*
X023887Y023554D01*
X023888Y023573D01*
X023887Y023592D01*
X023883Y023611D01*
X023877Y023629D01*
X023868Y023647D01*
X023858Y023663D01*
X023845Y023677D01*
X02383Y02369D01*
X023814Y023701D01*
X023797Y02371D01*
X023778Y023716D01*
X023759Y02372D01*
X02374Y023721D01*
D02*
G37*
G36*
X02248Y023219D02*
X022461Y023218D01*
X022442Y023214D01*
X022424Y023208D01*
X022406Y023199D01*
X02239Y023188D01*
X022376Y023175D01*
X022363Y023161D01*
X022352Y023145D01*
X022344Y023127D01*
X022337Y023109D01*
X022334Y02309D01*
X022332Y023071D01*
X022334Y023052D01*
X022337Y023033D01*
X022344Y023014D01*
X022352Y022997D01*
X022363Y022981D01*
X022376Y022966D01*
X02239Y022953D01*
X022406Y022943D01*
X022424Y022934D01*
X022442Y022928D01*
X022461Y022924D01*
X02248Y022923D01*
X0225Y022924D01*
X022519Y022928D01*
X022537Y022934D01*
X022554Y022943D01*
X02257Y022953D01*
X022585Y022966D01*
X022598Y022981D01*
X022608Y022997D01*
X022617Y023014D01*
X022623Y023033D01*
X022627Y023052D01*
X022628Y023071D01*
X022627Y02309D01*
X022623Y023109D01*
X022617Y023127D01*
X022608Y023145D01*
X022598Y023161D01*
X022585Y023175D01*
X02257Y023188D01*
X022554Y023199D01*
X022537Y023208D01*
X022519Y023214D01*
X0225Y023218D01*
X02248Y023219D01*
D02*
G37*
G36*
X022835Y023179D02*
X022815Y023178D01*
X022796Y023174D01*
X022778Y023168D01*
X022761Y02316D01*
X022745Y023149D01*
X02273Y023136D01*
X022717Y023122D01*
X022707Y023105D01*
X022698Y023088D01*
X022692Y02307D01*
X022688Y023051D01*
X022687Y023031D01*
X022688Y023012D01*
X022692Y022993D01*
X022698Y022975D01*
X022707Y022958D01*
X022717Y022941D01*
X02273Y022927D01*
X022745Y022914D01*
X022761Y022903D01*
X022778Y022895D01*
X022796Y022889D01*
X022815Y022885D01*
X022835Y022884D01*
X022854Y022885D01*
X022873Y022889D01*
X022891Y022895D01*
X022909Y022903D01*
X022925Y022914D01*
X022939Y022927D01*
X022952Y022941D01*
X022963Y022958D01*
X022971Y022975D01*
X022978Y022993D01*
X022981Y023012D01*
X022983Y023031D01*
X022981Y023051D01*
X022978Y02307D01*
X022971Y023088D01*
X022963Y023105D01*
X022952Y023122D01*
X022939Y023136D01*
X022925Y023149D01*
X022909Y02316D01*
X022891Y023168D01*
X022873Y023174D01*
X022854Y023178D01*
X022835Y023179D01*
D02*
G37*
G36*
X02313Y022953D02*
X023111Y022952D01*
X023092Y022948D01*
X023073Y022942D01*
X023056Y022933D01*
X02304Y022922D01*
X023025Y02291D01*
X023013Y022895D01*
X023002Y022879D01*
X022993Y022862D01*
X022987Y022843D01*
X022983Y022824D01*
X022982Y022805D01*
X022983Y022786D01*
X022987Y022767D01*
X022993Y022748D01*
X023002Y022731D01*
X023013Y022715D01*
X023025Y022701D01*
X02304Y022688D01*
X023056Y022677D01*
X023073Y022668D01*
X023092Y022662D01*
X023111Y022658D01*
X02313Y022657D01*
X023149Y022658D01*
X023168Y022662D01*
X023187Y022668D01*
X023204Y022677D01*
X02322Y022688D01*
X023235Y022701D01*
X023247Y022715D01*
X023258Y022731D01*
X023267Y022748D01*
X023273Y022767D01*
X023277Y022786D01*
X023278Y022805D01*
X023277Y022824D01*
X023273Y022843D01*
X023267Y022862D01*
X023258Y022879D01*
X023247Y022895D01*
X023235Y02291D01*
X02322Y022922D01*
X023204Y022933D01*
X023187Y022942D01*
X023168Y022948D01*
X023149Y022952D01*
X02313Y022953D01*
D02*
G37*
G36*
X026505Y022156D02*
X026486Y022155D01*
X026467Y022151D01*
X026448Y022145D01*
X026431Y022136D01*
X026415Y022126D01*
X0264Y022113D01*
X026388Y022098D01*
X026377Y022082D01*
X026368Y022065D01*
X026362Y022047D01*
X026358Y022028D01*
X026357Y022008D01*
X026358Y021989D01*
X026362Y02197D01*
X026368Y021952D01*
X026377Y021934D01*
X026388Y021918D01*
X0264Y021904D01*
X026415Y021891D01*
X026431Y02188D01*
X026448Y021872D01*
X026467Y021865D01*
X026486Y021862D01*
X026505Y02186D01*
X026524Y021862D01*
X026543Y021865D01*
X026562Y021872D01*
X026579Y02188D01*
X026595Y021891D01*
X02661Y021904D01*
X026622Y021918D01*
X026633Y021934D01*
X026642Y021952D01*
X026648Y02197D01*
X026652Y021989D01*
X026653Y022008D01*
X026652Y022028D01*
X026648Y022047D01*
X026642Y022065D01*
X026633Y022082D01*
X026622Y022098D01*
X02661Y022113D01*
X026595Y022126D01*
X026579Y022136D01*
X026562Y022145D01*
X026543Y022151D01*
X026524Y022155D01*
X026505Y022156D01*
D02*
G37*
G36*
X025405Y019972D02*
X025384Y019971D01*
X025364Y019967D01*
X025345Y01996D01*
X025326Y019951D01*
X025309Y01994D01*
X025293Y019926D01*
X02528Y01991D01*
X025268Y019893D01*
X025259Y019875D01*
X025252Y019855D01*
X025248Y019835D01*
X025247Y019814D01*
X025248Y019794D01*
X025252Y019774D01*
X025259Y019754D01*
X025268Y019735D01*
X02528Y019718D01*
X025293Y019703D01*
X025309Y019689D01*
X025326Y019678D01*
X025345Y019669D01*
X025364Y019662D01*
X025384Y019658D01*
X025405Y019657D01*
X025426Y019658D01*
X025446Y019662D01*
X025465Y019669D01*
X025484Y019678D01*
X025501Y019689D01*
X025517Y019703D01*
X02553Y019718D01*
X025542Y019735D01*
X025551Y019754D01*
X025557Y019774D01*
X025561Y019794D01*
X025563Y019814D01*
X025561Y019835D01*
X025557Y019855D01*
X025551Y019875D01*
X025542Y019893D01*
X02553Y01991D01*
X025517Y019926D01*
X025501Y01994D01*
X025484Y019951D01*
X025465Y01996D01*
X025446Y019967D01*
X025426Y019971D01*
X025405Y019972D01*
D02*
G37*
G36*
X022165Y019961D02*
X022145Y01996D01*
X022125Y019956D01*
X022105Y019949D01*
X022086Y01994D01*
X022069Y019928D01*
X022054Y019915D01*
X02204Y019899D01*
X022029Y019882D01*
X02202Y019864D01*
X022013Y019844D01*
X022009Y019824D01*
X022008Y019803D01*
X022009Y019783D01*
X022013Y019762D01*
X02202Y019743D01*
X022029Y019724D01*
X02204Y019707D01*
X022054Y019692D01*
X022069Y019678D01*
X022086Y019666D01*
X022105Y019657D01*
X022125Y019651D01*
X022145Y019647D01*
X022165Y019645D01*
X022186Y019647D01*
X022206Y019651D01*
X022226Y019657D01*
X022244Y019666D01*
X022261Y019678D01*
X022277Y019692D01*
X022291Y019707D01*
X022302Y019724D01*
X022311Y019743D01*
X022318Y019762D01*
X022322Y019783D01*
X022323Y019803D01*
X022322Y019824D01*
X022318Y019844D01*
X022311Y019864D01*
X022302Y019882D01*
X022291Y019899D01*
X022277Y019915D01*
X022261Y019928D01*
X022244Y01994D01*
X022226Y019949D01*
X022206Y019956D01*
X022186Y01996D01*
X022165Y019961D01*
D02*
G37*
G36*
X028372Y019892D02*
X028353Y01989D01*
X028334Y019887D01*
X028316Y01988D01*
X028298Y019872D01*
X028282Y019861D01*
X028268Y019848D01*
X028255Y019834D01*
X028244Y019818D01*
X028236Y0198D01*
X028229Y019782D01*
X028226Y019763D01*
X028224Y019744D01*
X028226Y019724D01*
X028229Y019705D01*
X028236Y019687D01*
X028244Y01967D01*
X028255Y019654D01*
X028268Y019639D01*
X028282Y019626D01*
X028298Y019615D01*
X028316Y019607D01*
X028334Y019601D01*
X028353Y019597D01*
X028372Y019596D01*
X028392Y019597D01*
X028411Y019601D01*
X028429Y019607D01*
X028446Y019615D01*
X028462Y019626D01*
X028477Y019639D01*
X02849Y019654D01*
X0285Y01967D01*
X028509Y019687D01*
X028515Y019705D01*
X028519Y019724D01*
X02852Y019744D01*
X028519Y019763D01*
X028515Y019782D01*
X028509Y0198D01*
X0285Y019818D01*
X02849Y019834D01*
X028477Y019848D01*
X028462Y019861D01*
X028446Y019872D01*
X028429Y01988D01*
X028411Y019887D01*
X028392Y01989D01*
X028372Y019892D01*
D02*
G37*
G36*
X022154Y019578D02*
X022134Y019577D01*
X022113Y019573D01*
X022094Y019566D01*
X022075Y019557D01*
X022058Y019546D01*
X022043Y019532D01*
X022029Y019517D01*
X022017Y0195D01*
X022008Y019481D01*
X022002Y019462D01*
X021998Y019441D01*
X021996Y019421D01*
X021998Y0194D01*
X022002Y01938D01*
X022008Y01936D01*
X022017Y019342D01*
X022029Y019325D01*
X022043Y019309D01*
X022058Y019295D01*
X022075Y019284D01*
X022094Y019275D01*
X022113Y019268D01*
X022134Y019264D01*
X022154Y019263D01*
X022175Y019264D01*
X022195Y019268D01*
X022215Y019275D01*
X022233Y019284D01*
X02225Y019295D01*
X022266Y019309D01*
X022279Y019325D01*
X022291Y019342D01*
X0223Y01936D01*
X022307Y01938D01*
X022311Y0194D01*
X022312Y019421D01*
X022311Y019441D01*
X022307Y019462D01*
X0223Y019481D01*
X022291Y0195D01*
X022279Y019517D01*
X022266Y019532D01*
X02225Y019546D01*
X022233Y019557D01*
X022215Y019566D01*
X022195Y019573D01*
X022175Y019577D01*
X022154Y019578D01*
D02*
G37*
G36*
X025394Y019567D02*
X025373Y019566D01*
X025353Y019562D01*
X025333Y019555D01*
X025315Y019546D01*
X025298Y019535D01*
X025282Y019521D01*
X025268Y019506D01*
X025257Y019488D01*
X025248Y01947D01*
X025241Y01945D01*
X025237Y01943D01*
X025236Y019409D01*
X025237Y019389D01*
X025241Y019369D01*
X025248Y019349D01*
X025257Y019331D01*
X025268Y019313D01*
X025282Y019298D01*
X025298Y019284D01*
X025315Y019273D01*
X025333Y019264D01*
X025353Y019257D01*
X025373Y019253D01*
X025394Y019252D01*
X025414Y019253D01*
X025435Y019257D01*
X025454Y019264D01*
X025473Y019273D01*
X02549Y019284D01*
X025505Y019298D01*
X025519Y019313D01*
X02553Y019331D01*
X02554Y019349D01*
X025546Y019369D01*
X02555Y019389D01*
X025552Y019409D01*
X02555Y01943D01*
X025546Y01945D01*
X02554Y01947D01*
X02553Y019488D01*
X025519Y019506D01*
X025505Y019521D01*
X02549Y019535D01*
X025473Y019546D01*
X025454Y019555D01*
X025435Y019562D01*
X025414Y019566D01*
X025394Y019567D01*
D02*
G37*
G36*
X022165Y019174D02*
X022145Y019172D01*
X022125Y019168D01*
X022105Y019162D01*
X022086Y019152D01*
X022069Y019141D01*
X022054Y019127D01*
X02204Y019112D01*
X022029Y019095D01*
X02202Y019076D01*
X022013Y019057D01*
X022009Y019036D01*
X022008Y019016D01*
X022009Y018995D01*
X022013Y018975D01*
X02202Y018955D01*
X022029Y018937D01*
X02204Y01892D01*
X022054Y018904D01*
X022069Y018891D01*
X022086Y018879D01*
X022105Y01887D01*
X022125Y018863D01*
X022145Y018859D01*
X022165Y018858D01*
X022186Y018859D01*
X022206Y018863D01*
X022226Y01887D01*
X022244Y018879D01*
X022261Y018891D01*
X022277Y018904D01*
X022291Y01892D01*
X022302Y018937D01*
X022311Y018955D01*
X022318Y018975D01*
X022322Y018995D01*
X022323Y019016D01*
X022322Y019036D01*
X022318Y019057D01*
X022311Y019076D01*
X022302Y019095D01*
X022291Y019112D01*
X022277Y019127D01*
X022261Y019141D01*
X022244Y019152D01*
X022226Y019162D01*
X022206Y019168D01*
X022186Y019172D01*
X022165Y019174D01*
D02*
G37*
G36*
X027165Y019055D02*
X027145Y019054D01*
X027125Y01905D01*
X027105Y019043D01*
X027086Y019034D01*
X027069Y019023D01*
X027054Y019009D01*
X02704Y018994D01*
X027029Y018977D01*
X02702Y018958D01*
X027013Y018938D01*
X027009Y018918D01*
X027008Y018898D01*
X027009Y018877D01*
X027013Y018857D01*
X02702Y018837D01*
X027029Y018819D01*
X02704Y018802D01*
X027054Y018786D01*
X027069Y018772D01*
X027086Y018761D01*
X027105Y018752D01*
X027125Y018745D01*
X027145Y018741D01*
X027165Y01874D01*
X027186Y018741D01*
X027206Y018745D01*
X027226Y018752D01*
X027244Y018761D01*
X027261Y018772D01*
X027277Y018786D01*
X027291Y018802D01*
X027302Y018819D01*
X027311Y018837D01*
X027318Y018857D01*
X027322Y018877D01*
X027323Y018898D01*
X027322Y018918D01*
X027318Y018938D01*
X027311Y018958D01*
X027302Y018977D01*
X027291Y018994D01*
X027277Y019009D01*
X027261Y019023D01*
X027244Y019034D01*
X027226Y019043D01*
X027206Y01905D01*
X027186Y019054D01*
X027165Y019055D01*
D02*
G37*
G36*
X027619Y018767D02*
X027599Y018765D01*
X02758Y018762D01*
X027562Y018755D01*
X027545Y018747D01*
X027529Y018736D01*
X027514Y018723D01*
X027501Y018709D01*
X02749Y018693D01*
X027482Y018675D01*
X027476Y018657D01*
X027472Y018638D01*
X027471Y018619D01*
X027472Y018599D01*
X027476Y01858D01*
X027482Y018562D01*
X02749Y018545D01*
X027501Y018529D01*
X027514Y018514D01*
X027529Y018501D01*
X027545Y018491D01*
X027562Y018482D01*
X02758Y018476D01*
X027599Y018472D01*
X027619Y018471D01*
X027638Y018472D01*
X027657Y018476D01*
X027675Y018482D01*
X027693Y018491D01*
X027709Y018501D01*
X027723Y018514D01*
X027736Y018529D01*
X027747Y018545D01*
X027755Y018562D01*
X027761Y01858D01*
X027765Y018599D01*
X027767Y018619D01*
X027765Y018638D01*
X027761Y018657D01*
X027755Y018675D01*
X027747Y018693D01*
X027736Y018709D01*
X027723Y018723D01*
X027709Y018736D01*
X027693Y018747D01*
X027675Y018755D01*
X027657Y018762D01*
X027638Y018765D01*
X027619Y018767D01*
D02*
G37*
G36*
X022165Y01878D02*
X022145Y018779D01*
X022125Y018774D01*
X022105Y018768D01*
X022086Y018759D01*
X022069Y018747D01*
X022054Y018734D01*
X02204Y018718D01*
X022029Y018701D01*
X02202Y018682D01*
X022013Y018663D01*
X022009Y018643D01*
X022008Y018622D01*
X022009Y018601D01*
X022013Y018581D01*
X02202Y018562D01*
X022029Y018543D01*
X02204Y018526D01*
X022054Y01851D01*
X022069Y018497D01*
X022086Y018485D01*
X022105Y018476D01*
X022125Y01847D01*
X022145Y018466D01*
X022165Y018464D01*
X022186Y018466D01*
X022206Y01847D01*
X022226Y018476D01*
X022244Y018485D01*
X022261Y018497D01*
X022277Y01851D01*
X022291Y018526D01*
X022302Y018543D01*
X022311Y018562D01*
X022318Y018581D01*
X022322Y018601D01*
X022323Y018622D01*
X022322Y018643D01*
X022318Y018663D01*
X022311Y018682D01*
X022302Y018701D01*
X022291Y018718D01*
X022277Y018734D01*
X022261Y018747D01*
X022244Y018759D01*
X022226Y018768D01*
X022206Y018774D01*
X022186Y018779D01*
X022165Y01878D01*
D02*
G37*
G36*
X029331Y018652D02*
X029311Y018651D01*
X029292Y018647D01*
X029274Y018641D01*
X029257Y018632D01*
X029241Y018621D01*
X029226Y018609D01*
X029213Y018594D01*
X029203Y018578D01*
X029194Y018561D01*
X029188Y018542D01*
X029184Y018523D01*
X029183Y018504D01*
X029184Y018485D01*
X029188Y018466D01*
X029194Y018447D01*
X029203Y01843D01*
X029213Y018414D01*
X029226Y018399D01*
X029241Y018387D01*
X029257Y018376D01*
X029274Y018367D01*
X029292Y018361D01*
X029311Y018357D01*
X029331Y018356D01*
X02935Y018357D01*
X029369Y018361D01*
X029387Y018367D01*
X029405Y018376D01*
X029421Y018387D01*
X029435Y018399D01*
X029448Y018414D01*
X029459Y01843D01*
X029467Y018447D01*
X029474Y018466D01*
X029477Y018485D01*
X029479Y018504D01*
X029477Y018523D01*
X029474Y018542D01*
X029467Y018561D01*
X029459Y018578D01*
X029448Y018594D01*
X029435Y018609D01*
X029421Y018621D01*
X029405Y018632D01*
X029387Y018641D01*
X029369Y018647D01*
X02935Y018651D01*
X029331Y018652D01*
D02*
G37*
G36*
X030945Y018583D02*
X030924Y018582D01*
X030904Y018578D01*
X030884Y018571D01*
X030866Y018562D01*
X030849Y01855D01*
X030833Y018537D01*
X03082Y018521D01*
X030808Y018504D01*
X030799Y018486D01*
X030792Y018466D01*
X030788Y018446D01*
X030787Y018425D01*
X030788Y018405D01*
X030792Y018384D01*
X030799Y018365D01*
X030808Y018346D01*
X03082Y018329D01*
X030833Y018314D01*
X030849Y0183D01*
X030866Y018289D01*
X030884Y018279D01*
X030904Y018273D01*
X030924Y018269D01*
X030945Y018267D01*
X030965Y018269D01*
X030986Y018273D01*
X031005Y018279D01*
X031024Y018289D01*
X031041Y0183D01*
X031056Y018314D01*
X03107Y018329D01*
X031082Y018346D01*
X031091Y018365D01*
X031097Y018384D01*
X031101Y018405D01*
X031103Y018425D01*
X031101Y018446D01*
X031097Y018466D01*
X031091Y018486D01*
X031082Y018504D01*
X03107Y018521D01*
X031056Y018537D01*
X031041Y01855D01*
X031024Y018562D01*
X031005Y018571D01*
X030986Y018578D01*
X030965Y018582D01*
X030945Y018583D01*
D02*
G37*
G36*
X031378Y018544D02*
X031357Y018542D01*
X031337Y018538D01*
X031318Y018532D01*
X031299Y018522D01*
X031282Y018511D01*
X031266Y018497D01*
X031253Y018482D01*
X031241Y018465D01*
X031232Y018446D01*
X031226Y018427D01*
X031221Y018406D01*
X03122Y018386D01*
X031221Y018365D01*
X031226Y018345D01*
X031232Y018325D01*
X031241Y018307D01*
X031253Y01829D01*
X031266Y018274D01*
X031282Y018261D01*
X031299Y018249D01*
X031318Y01824D01*
X031337Y018233D01*
X031357Y018229D01*
X031378Y018228D01*
X031399Y018229D01*
X031419Y018233D01*
X031438Y01824D01*
X031457Y018249D01*
X031474Y018261D01*
X03149Y018274D01*
X031503Y01829D01*
X031515Y018307D01*
X031524Y018325D01*
X03153Y018345D01*
X031534Y018365D01*
X031536Y018386D01*
X031534Y018406D01*
X03153Y018427D01*
X031524Y018446D01*
X031515Y018465D01*
X031503Y018482D01*
X03149Y018497D01*
X031474Y018511D01*
X031457Y018522D01*
X031438Y018532D01*
X031419Y018538D01*
X031399Y018542D01*
X031378Y018544D01*
D02*
G37*
G36*
X026575Y018386D02*
X026554Y018385D01*
X026534Y018381D01*
X026514Y018374D01*
X026496Y018365D01*
X026479Y018354D01*
X026463Y01834D01*
X02645Y018324D01*
X026438Y018307D01*
X026429Y018289D01*
X026422Y018269D01*
X026418Y018249D01*
X026417Y018228D01*
X026418Y018208D01*
X026422Y018188D01*
X026429Y018168D01*
X026438Y018149D01*
X02645Y018132D01*
X026463Y018117D01*
X026479Y018103D01*
X026496Y018092D01*
X026514Y018083D01*
X026534Y018076D01*
X026554Y018072D01*
X026575Y018071D01*
X026595Y018072D01*
X026616Y018076D01*
X026635Y018083D01*
X026654Y018092D01*
X026671Y018103D01*
X026686Y018117D01*
X0267Y018132D01*
X026711Y018149D01*
X026721Y018168D01*
X026727Y018188D01*
X026731Y018208D01*
X026733Y018228D01*
X026731Y018249D01*
X026727Y018269D01*
X026721Y018289D01*
X026711Y018307D01*
X0267Y018324D01*
X026686Y01834D01*
X026671Y018354D01*
X026654Y018365D01*
X026635Y018374D01*
X026616Y018381D01*
X026595Y018385D01*
X026575Y018386D01*
D02*
G37*
G36*
X029606Y017786D02*
X029587Y017784D01*
X029568Y017781D01*
X02955Y017774D01*
X029532Y017766D01*
X029516Y017755D01*
X029502Y017742D01*
X029489Y017728D01*
X029478Y017712D01*
X02947Y017694D01*
X029463Y017676D01*
X02946Y017657D01*
X029458Y017638D01*
X02946Y017618D01*
X029463Y0176D01*
X02947Y017581D01*
X029478Y017564D01*
X029489Y017548D01*
X029502Y017533D01*
X029516Y01752D01*
X029532Y01751D01*
X02955Y017501D01*
X029568Y017495D01*
X029587Y017491D01*
X029606Y01749D01*
X029626Y017491D01*
X029645Y017495D01*
X029663Y017501D01*
X02968Y01751D01*
X029696Y01752D01*
X029711Y017533D01*
X029724Y017548D01*
X029734Y017564D01*
X029743Y017581D01*
X029749Y0176D01*
X029753Y017618D01*
X029754Y017638D01*
X029753Y017657D01*
X029749Y017676D01*
X029743Y017694D01*
X029734Y017712D01*
X029724Y017728D01*
X029711Y017742D01*
X029696Y017755D01*
X02968Y017766D01*
X029663Y017774D01*
X029645Y017781D01*
X029626Y017784D01*
X029606Y017786D01*
D02*
G37*
G36*
X031854Y017431D02*
X031835Y01743D01*
X031816Y017426D01*
X031797Y01742D01*
X03178Y017412D01*
X031764Y017401D01*
X031749Y017388D01*
X031736Y017374D01*
X031726Y017357D01*
X031717Y01734D01*
X031711Y017322D01*
X031707Y017303D01*
X031706Y017283D01*
X031707Y017264D01*
X031711Y017245D01*
X031717Y017227D01*
X031726Y017209D01*
X031736Y017193D01*
X031749Y017179D01*
X031764Y017166D01*
X03178Y017155D01*
X031797Y017147D01*
X031816Y017141D01*
X031835Y017137D01*
X031854Y017136D01*
X031873Y017137D01*
X031892Y017141D01*
X03191Y017147D01*
X031928Y017155D01*
X031944Y017166D01*
X031958Y017179D01*
X031971Y017193D01*
X031982Y017209D01*
X031991Y017227D01*
X031997Y017245D01*
X032001Y017264D01*
X032002Y017283D01*
X032001Y017303D01*
X031997Y017322D01*
X031991Y01734D01*
X031982Y017357D01*
X031971Y017374D01*
X031958Y017388D01*
X031944Y017401D01*
X031928Y017412D01*
X03191Y01742D01*
X031892Y017426D01*
X031873Y01743D01*
X031854Y017431D01*
D02*
G37*
G36*
X026693Y017205D02*
X026672Y017204D01*
X026652Y0172D01*
X026633Y017193D01*
X026614Y017184D01*
X026597Y017172D01*
X026581Y017159D01*
X026568Y017143D01*
X026564Y017138D01*
X02654Y017132D01*
X02653D01*
X026506Y017138D01*
X026503Y017143D01*
X02649Y017159D01*
X026474Y017172D01*
X026457Y017184D01*
X026438Y017193D01*
X026419Y0172D01*
X026399Y017204D01*
X026378Y017205D01*
X026357Y017204D01*
X026337Y0172D01*
X026318Y017193D01*
X026299Y017184D01*
X026282Y017172D01*
X026266Y017159D01*
X026253Y017143D01*
X026241Y017126D01*
X026232Y017108D01*
X026226Y017088D01*
X026221Y017068D01*
X02622Y017047D01*
X026221Y017027D01*
X026226Y017006D01*
X026232Y016987D01*
X026241Y016968D01*
X026253Y016951D01*
X026266Y016936D01*
X026282Y016922D01*
X026299Y016911D01*
X026318Y016901D01*
X026337Y016895D01*
X026357Y016891D01*
X026378Y016889D01*
X026399Y016891D01*
X026419Y016895D01*
X026438Y016901D01*
X026457Y016911D01*
X026474Y016922D01*
X02649Y016936D01*
X026503Y016951D01*
X026506Y016956D01*
X02653Y016962D01*
X02654D01*
X026564Y016956D01*
X026568Y016951D01*
X026581Y016936D01*
X026597Y016922D01*
X026614Y016911D01*
X026633Y016901D01*
X026652Y016895D01*
X026672Y016891D01*
X026693Y016889D01*
X026714Y016891D01*
X026734Y016895D01*
X026753Y016901D01*
X026772Y016911D01*
X026789Y016922D01*
X026805Y016936D01*
X026818Y016951D01*
X02683Y016968D01*
X026839Y016987D01*
X026845Y017006D01*
X026849Y017027D01*
X026851Y017047D01*
X026849Y017068D01*
X026845Y017088D01*
X026839Y017108D01*
X02683Y017126D01*
X026818Y017143D01*
X026805Y017159D01*
X026789Y017172D01*
X026772Y017184D01*
X026753Y017193D01*
X026734Y0172D01*
X026714Y017204D01*
X026693Y017205D01*
D02*
G37*
G36*
X028478Y01688D02*
X028458Y016879D01*
X028439Y016875D01*
X028421Y016869D01*
X028404Y01686D01*
X028387Y01685D01*
X028373Y016837D01*
X02836Y016822D01*
X028349Y016806D01*
X028341Y016789D01*
X028335Y016771D01*
X028331Y016752D01*
X02833Y016732D01*
X028331Y016713D01*
X028335Y016694D01*
X028341Y016676D01*
X028349Y016658D01*
X02836Y016642D01*
X028373Y016628D01*
X028387Y016615D01*
X028404Y016604D01*
X028421Y016596D01*
X028439Y016589D01*
X028458Y016586D01*
X028478Y016584D01*
X028497Y016586D01*
X028516Y016589D01*
X028534Y016596D01*
X028552Y016604D01*
X028568Y016615D01*
X028582Y016628D01*
X028595Y016642D01*
X028606Y016658D01*
X028614Y016676D01*
X02862Y016694D01*
X028624Y016713D01*
X028626Y016732D01*
X028624Y016752D01*
X02862Y016771D01*
X028614Y016789D01*
X028606Y016806D01*
X028595Y016822D01*
X028582Y016837D01*
X028568Y01685D01*
X028552Y01686D01*
X028534Y016869D01*
X028516Y016875D01*
X028497Y016879D01*
X028478Y01688D01*
D02*
G37*
G36*
X027835D02*
X027815Y016879D01*
X027796Y016875D01*
X027778Y016869D01*
X027761Y01686D01*
X027745Y01685D01*
X02773Y016837D01*
X027717Y016822D01*
X027707Y016806D01*
X027698Y016789D01*
X027692Y016771D01*
X027688Y016752D01*
X027687Y016732D01*
X027688Y016713D01*
X027692Y016694D01*
X027698Y016676D01*
X027707Y016658D01*
X027717Y016642D01*
X02773Y016628D01*
X027745Y016615D01*
X027761Y016604D01*
X027778Y016596D01*
X027796Y016589D01*
X027815Y016586D01*
X027835Y016584D01*
X027854Y016586D01*
X027873Y016589D01*
X027891Y016596D01*
X027909Y016604D01*
X027925Y016615D01*
X027939Y016628D01*
X027952Y016642D01*
X027963Y016658D01*
X027971Y016676D01*
X027978Y016694D01*
X027981Y016713D01*
X027983Y016732D01*
X027981Y016752D01*
X027978Y016771D01*
X027971Y016789D01*
X027963Y016806D01*
X027952Y016822D01*
X027939Y016837D01*
X027925Y01685D01*
X027909Y01686D01*
X027891Y016869D01*
X027873Y016875D01*
X027854Y016879D01*
X027835Y01688D01*
D02*
G37*
G36*
X01937Y016772D02*
X019349Y016771D01*
X019329Y016767D01*
X01931Y01676D01*
X019291Y016751D01*
X019274Y016739D01*
X019258Y016726D01*
X019245Y01671D01*
X019233Y016693D01*
X019224Y016675D01*
X019218Y016655D01*
X019214Y016635D01*
X019212Y016614D01*
X019214Y016594D01*
X019218Y016573D01*
X019224Y016554D01*
X019233Y016535D01*
X019245Y016518D01*
X019258Y016503D01*
X019274Y016489D01*
X019291Y016478D01*
X01931Y016468D01*
X019329Y016462D01*
X019349Y016458D01*
X01937Y016456D01*
X019391Y016458D01*
X019411Y016462D01*
X01943Y016468D01*
X019449Y016478D01*
X019466Y016489D01*
X019482Y016503D01*
X019495Y016518D01*
X019507Y016535D01*
X019516Y016554D01*
X019523Y016573D01*
X019527Y016594D01*
X019528Y016614D01*
X019527Y016635D01*
X019523Y016655D01*
X019516Y016675D01*
X019507Y016693D01*
X019495Y01671D01*
X019482Y016726D01*
X019466Y016739D01*
X019449Y016751D01*
X01943Y01676D01*
X019411Y016767D01*
X019391Y016771D01*
X01937Y016772D01*
D02*
G37*
G36*
X018185Y016683D02*
X018166Y016682D01*
X018147Y016678D01*
X018128Y016672D01*
X018111Y016664D01*
X018095Y016653D01*
X01808Y01664D01*
X018068Y016625D01*
X018057Y016609D01*
X018048Y016592D01*
X018042Y016574D01*
X018038Y016555D01*
X018037Y016535D01*
X018038Y016516D01*
X018042Y016497D01*
X018048Y016479D01*
X018057Y016461D01*
X018068Y016445D01*
X01808Y016431D01*
X018095Y016418D01*
X018111Y016407D01*
X018128Y016399D01*
X018147Y016393D01*
X018164Y016389D01*
X018167Y016385D01*
X018178Y016338D01*
X018178Y016338D01*
X018163Y016325D01*
X01815Y016311D01*
X01814Y016294D01*
X018131Y016277D01*
X018125Y016259D01*
X018121Y01624D01*
X01812Y01622D01*
X018121Y016201D01*
X018125Y016182D01*
X018131Y016164D01*
X01814Y016147D01*
X01815Y01613D01*
X018163Y016116D01*
X018178Y016103D01*
X018194Y016092D01*
X018211Y016084D01*
X018229Y016078D01*
X018248Y016074D01*
X018268Y016073D01*
X018287Y016074D01*
X018306Y016078D01*
X018324Y016084D01*
X018342Y016092D01*
X018358Y016103D01*
X018372Y016116D01*
X018385Y01613D01*
X018396Y016147D01*
X018404Y016164D01*
X018411Y016182D01*
X018414Y016201D01*
X018416Y01622D01*
X018414Y01624D01*
X018411Y016259D01*
X018404Y016277D01*
X018396Y016294D01*
X018385Y016311D01*
X018372Y016325D01*
X018358Y016338D01*
X018342Y016349D01*
X018324Y016357D01*
X018306Y016363D01*
X018289Y016367D01*
X018286Y01637D01*
X018275Y016418D01*
X018275Y016418D01*
X01829Y016431D01*
X018302Y016445D01*
X018313Y016461D01*
X018322Y016479D01*
X018328Y016497D01*
X018332Y016516D01*
X018333Y016535D01*
X018332Y016555D01*
X018328Y016574D01*
X018322Y016592D01*
X018313Y016609D01*
X018302Y016625D01*
X01829Y01664D01*
X018275Y016653D01*
X018259Y016664D01*
X018242Y016672D01*
X018223Y016678D01*
X018204Y016682D01*
X018185Y016683D01*
D02*
G37*
G36*
X021417Y016329D02*
X021398Y016328D01*
X021379Y016324D01*
X021361Y016318D01*
X021343Y016309D01*
X021327Y016298D01*
X021313Y016286D01*
X0213Y016271D01*
X021289Y016255D01*
X021281Y016238D01*
X021274Y016219D01*
X021271Y0162D01*
X021269Y016181D01*
X021271Y016162D01*
X021274Y016143D01*
X021281Y016124D01*
X021289Y016107D01*
X0213Y016091D01*
X021313Y016076D01*
X021327Y016064D01*
X021343Y016053D01*
X021361Y016044D01*
X021379Y016038D01*
X021398Y016034D01*
X021417Y016033D01*
X021437Y016034D01*
X021456Y016038D01*
X021474Y016044D01*
X021491Y016053D01*
X021507Y016064D01*
X021522Y016076D01*
X021535Y016091D01*
X021545Y016107D01*
X021554Y016124D01*
X02156Y016143D01*
X021564Y016162D01*
X021565Y016181D01*
X021564Y0162D01*
X02156Y016219D01*
X021554Y016238D01*
X021545Y016255D01*
X021535Y016271D01*
X021522Y016286D01*
X021507Y016298D01*
X021491Y016309D01*
X021474Y016318D01*
X021456Y016324D01*
X021437Y016328D01*
X021417Y016329D01*
D02*
G37*
G36*
X019882Y0163D02*
X019861Y016298D01*
X019841Y016294D01*
X019821Y016288D01*
X019803Y016278D01*
X019786Y016267D01*
X01977Y016253D01*
X019757Y016238D01*
X019745Y016221D01*
X019736Y016202D01*
X019729Y016183D01*
X019725Y016162D01*
X019724Y016142D01*
X019725Y016121D01*
X019729Y016101D01*
X019736Y016081D01*
X019745Y016063D01*
X019757Y016046D01*
X01977Y01603D01*
X019786Y016017D01*
X019803Y016005D01*
X019821Y015996D01*
X019841Y015989D01*
X019861Y015985D01*
X019882Y015984D01*
X019902Y015985D01*
X019923Y015989D01*
X019942Y015996D01*
X019961Y016005D01*
X019978Y016017D01*
X019993Y01603D01*
X020007Y016046D01*
X020019Y016063D01*
X020028Y016081D01*
X020034Y016101D01*
X020038Y016121D01*
X02004Y016142D01*
X020038Y016162D01*
X020034Y016183D01*
X020028Y016202D01*
X020019Y016221D01*
X020007Y016238D01*
X019993Y016253D01*
X019978Y016267D01*
X019961Y016278D01*
X019942Y016288D01*
X019923Y016294D01*
X019902Y016298D01*
X019882Y0163D01*
D02*
G37*
G36*
X031496Y015945D02*
X031475Y015944D01*
X031455Y01594D01*
X031436Y015933D01*
X031417Y015924D01*
X0314Y015913D01*
X031384Y015899D01*
X031371Y015883D01*
X031359Y015866D01*
X03135Y015848D01*
X031344Y015828D01*
X03134Y015808D01*
X031338Y015787D01*
X03134Y015767D01*
X031344Y015747D01*
X03135Y015727D01*
X031359Y015708D01*
X031371Y015691D01*
X031384Y015676D01*
X0314Y015662D01*
X031417Y015651D01*
X031436Y015642D01*
X031455Y015635D01*
X031475Y015631D01*
X031496Y01563D01*
X031517Y015631D01*
X031537Y015635D01*
X031556Y015642D01*
X031575Y015651D01*
X031592Y015662D01*
X031608Y015676D01*
X031621Y015691D01*
X031633Y015708D01*
X031642Y015727D01*
X031648Y015747D01*
X031653Y015767D01*
X031654Y015787D01*
X031653Y015808D01*
X031648Y015828D01*
X031642Y015848D01*
X031633Y015866D01*
X031621Y015883D01*
X031608Y015899D01*
X031592Y015913D01*
X031575Y015924D01*
X031556Y015933D01*
X031537Y01594D01*
X031517Y015944D01*
X031496Y015945D01*
D02*
G37*
G36*
X028858Y015906D02*
X028838Y015905D01*
X028817Y0159D01*
X028798Y015894D01*
X028779Y015885D01*
X028762Y015873D01*
X028747Y01586D01*
X028733Y015844D01*
X028722Y015827D01*
X028712Y015808D01*
X028706Y015789D01*
X028702Y015769D01*
X0287Y015748D01*
X028702Y015727D01*
X028706Y015707D01*
X028712Y015688D01*
X028722Y015669D01*
X028733Y015652D01*
X028747Y015636D01*
X028762Y015623D01*
X028779Y015611D01*
X028798Y015602D01*
X028817Y015596D01*
X028838Y015592D01*
X028858Y01559D01*
X028879Y015592D01*
X028899Y015596D01*
X028919Y015602D01*
X028937Y015611D01*
X028954Y015623D01*
X02897Y015636D01*
X028983Y015652D01*
X028995Y015669D01*
X029004Y015688D01*
X029011Y015707D01*
X029015Y015727D01*
X029016Y015748D01*
X029015Y015769D01*
X029011Y015789D01*
X029004Y015808D01*
X028995Y015827D01*
X028983Y015844D01*
X02897Y01586D01*
X028954Y015873D01*
X028937Y015885D01*
X028919Y015894D01*
X028899Y0159D01*
X028879Y015905D01*
X028858Y015906D01*
D02*
G37*
G36*
X016181Y014685D02*
X016161Y014684D01*
X01614Y01468D01*
X016121Y014673D01*
X016102Y014664D01*
X016085Y014653D01*
X01607Y014639D01*
X016056Y014624D01*
X016053Y014619D01*
X016029Y014613D01*
X016019D01*
X015995Y014619D01*
X015991Y014624D01*
X015978Y014639D01*
X015962Y014653D01*
X015945Y014664D01*
X015927Y014673D01*
X015907Y01468D01*
X015887Y014684D01*
X015866Y014685D01*
X015846Y014684D01*
X015825Y01468D01*
X015806Y014673D01*
X015787Y014664D01*
X01577Y014653D01*
X015755Y014639D01*
X015741Y014624D01*
X015729Y014606D01*
X01572Y014588D01*
X015714Y014568D01*
X01571Y014548D01*
X015708Y014528D01*
X01571Y014507D01*
X015714Y014487D01*
X01572Y014467D01*
X015729Y014449D01*
X015741Y014431D01*
X015755Y014416D01*
X01577Y014402D01*
X015787Y014391D01*
X015806Y014382D01*
X015825Y014375D01*
X015846Y014371D01*
X015866Y01437D01*
X015887Y014371D01*
X015907Y014375D01*
X015927Y014382D01*
X015945Y014391D01*
X015962Y014402D01*
X015978Y014416D01*
X015991Y014431D01*
X015995Y014436D01*
X016019Y014442D01*
X016029D01*
X016053Y014436D01*
X016056Y014431D01*
X01607Y014416D01*
X016085Y014402D01*
X016102Y014391D01*
X016121Y014382D01*
X01614Y014375D01*
X016161Y014371D01*
X016181Y01437D01*
X016202Y014371D01*
X016222Y014375D01*
X016242Y014382D01*
X01626Y014391D01*
X016277Y014402D01*
X016293Y014416D01*
X016306Y014431D01*
X016318Y014449D01*
X016327Y014467D01*
X016334Y014487D01*
X016338Y014507D01*
X016339Y014528D01*
X016338Y014548D01*
X016334Y014568D01*
X016327Y014588D01*
X016318Y014606D01*
X016306Y014624D01*
X016293Y014639D01*
X016277Y014653D01*
X01626Y014664D01*
X016242Y014673D01*
X016222Y01468D01*
X016202Y014684D01*
X016181Y014685D01*
D02*
G37*
G36*
X01937Y013061D02*
X019351Y01306D01*
X019332Y013056D01*
X019313Y01305D01*
X019296Y013042D01*
X01928Y013031D01*
X019265Y013018D01*
X019253Y013003D01*
X019242Y012987D01*
X019233Y01297D01*
X019227Y012952D01*
X019223Y012933D01*
X019222Y012913D01*
X019223Y012894D01*
X019227Y012875D01*
X019233Y012857D01*
X019242Y012839D01*
X019253Y012823D01*
X019265Y012809D01*
X019265Y012782D01*
X019253Y012767D01*
X019242Y012751D01*
X019233Y012734D01*
X019227Y012715D01*
X019223Y012696D01*
X019222Y012677D01*
X019223Y012658D01*
X019227Y012639D01*
X019233Y012621D01*
X019242Y012603D01*
X019253Y012587D01*
X019265Y012573D01*
X01928Y01256D01*
X019296Y012549D01*
X019313Y01254D01*
X019332Y012534D01*
X019351Y01253D01*
X01937Y012529D01*
X019389Y01253D01*
X019408Y012534D01*
X019427Y01254D01*
X019444Y012549D01*
X01946Y01256D01*
X019475Y012573D01*
X019487Y012587D01*
X019498Y012603D01*
X019507Y012621D01*
X019513Y012639D01*
X019517Y012658D01*
X019518Y012677D01*
X019517Y012696D01*
X019513Y012715D01*
X019507Y012734D01*
X019498Y012751D01*
X019487Y012767D01*
X019475Y012782D01*
X019475Y012809D01*
X019487Y012823D01*
X019498Y012839D01*
X019507Y012857D01*
X019513Y012875D01*
X019517Y012894D01*
X019518Y012913D01*
X019517Y012933D01*
X019513Y012952D01*
X019507Y01297D01*
X019498Y012987D01*
X019487Y013003D01*
X019475Y013018D01*
X01946Y013031D01*
X019444Y013042D01*
X019427Y01305D01*
X019408Y013056D01*
X019389Y01306D01*
X01937Y013061D01*
D02*
G37*
%LPD*%
D59*
X033228Y024247D02*
D03*
X029433Y024247D02*
D03*
D60*
X025512Y024567D02*
D03*
D63*
X023244Y024655D02*
D03*
D64*
X011535Y021209D02*
D03*
D65*
X028346Y020984D02*
D03*
X031857Y015157D02*
D03*
X024499Y018425D02*
D03*
X023987Y018189D02*
D03*
X02437Y01874D02*
D03*
X027047Y017835D02*
D03*
X022511Y021527D02*
D03*
X026715Y021597D02*
D03*
X026715Y021204D02*
D03*
X015856Y014193D02*
D03*
X016171D02*
D03*
X022165Y020984D02*
D03*
X029613Y015157D02*
D03*
X028235Y015157D02*
D03*
X026934Y015157D02*
D03*
X025633D02*
D03*
X024333D02*
D03*
X023032D02*
D03*
X020616D02*
D03*
X019394Y015157D02*
D03*
X018386Y016968D02*
D03*
D66*
X024509Y02126D02*
D03*
X018957Y013819D02*
D03*
X01937Y013425D02*
D03*
X015787Y01252D02*
D03*
X025427Y018436D02*
D03*
X026682Y020405D02*
D03*
X012478Y012741D02*
D03*
X012478Y01312D02*
D03*
X032248Y017283D02*
D03*
X021772Y02189D02*
D03*
X023291Y018623D02*
D03*
X023291Y019042D02*
D03*
X023291Y019435D02*
D03*
X028367Y018973D02*
D03*
X028372Y01935D02*
D03*
X024921Y020748D02*
D03*
X036339Y018583D02*
D03*
X034136Y01937D02*
D03*
X035356Y016693D02*
D03*
X034136Y015748D02*
D03*
X016378Y012559D02*
D03*
X013248Y013504D02*
D03*
X013563Y014016D02*
D03*
X015295Y015925D02*
D03*
X018445Y013307D02*
D03*
X013158Y015653D02*
D03*
X014744Y015689D02*
D03*
X029213Y017638D02*
D03*
X019335Y017845D02*
D03*
X017126Y017323D02*
D03*
X022008Y016968D02*
D03*
X017244Y014724D02*
D03*
X035157Y017638D02*
D03*
X029843Y022913D02*
D03*
X033583Y022913D02*
D03*
X032205Y015472D02*
D03*
X033091Y013583D02*
D03*
X026654D02*
D03*
X012141Y015974D02*
D03*
X014163Y022697D02*
D03*
X015098Y023051D02*
D03*
X013465Y02063D02*
D03*
M02*
