G04*
G04 #@! TF.GenerationSoftware,Altium Limited,Altium Designer,18.1.6 (161)*
G04*
G04 Layer_Color=32896*
%FSTAX24Y24*%
%MOIN*%
G70*
G01*
G75*
%ADD16C,0.0039*%
%ADD18C,0.0060*%
%ADD110C,0.0050*%
%ADD112C,0.0020*%
D16*
X034663Y019906D02*
X035203Y019906D01*
X035203Y020986D01*
X034663Y020986D02*
X035203Y020986D01*
X034663Y019906D02*
X034663Y020986D01*
X034034Y01991D02*
X034034Y02099D01*
X034574Y02099D01*
Y01991D02*
Y02099D01*
X034034Y01991D02*
X034574Y01991D01*
X030265Y016007D02*
X030265Y015467D01*
X031345Y015467D01*
X031345Y016007D02*
X031345Y015467D01*
X030265Y016007D02*
X031345D01*
X029094Y015467D02*
X030174D01*
X029094Y016007D02*
X029094Y015467D01*
X029094Y016007D02*
X030174D01*
X030174Y015467D01*
X016625Y016609D02*
X017705D01*
X017705Y016069D01*
X016625Y016069D02*
X017705Y016069D01*
X016625Y016069D02*
X016625Y016609D01*
Y015439D02*
Y015979D01*
Y015439D02*
X017705Y015439D01*
X017705Y015979D02*
X017705Y015439D01*
X016625Y015979D02*
X017705D01*
D18*
X022142Y022551D02*
X025404Y022551D01*
X025404Y022021D01*
X025883Y021542D02*
X025883Y022021D01*
X025404D02*
X025883D01*
X025883Y021542D02*
X026413Y021542D01*
Y018279D02*
Y021542D01*
X025883Y018279D02*
X026413Y018279D01*
X025883Y017801D02*
Y018279D01*
X025404Y017801D02*
X025883Y017801D01*
X025404Y017271D02*
Y017801D01*
X022142Y017271D02*
X025404D01*
X022142Y017801D02*
X022142Y017271D01*
X021663Y017801D02*
X022142Y017801D01*
X021663Y017801D02*
X021663Y018279D01*
X021133Y018279D02*
X021663Y018279D01*
X021133Y021542D02*
X021663Y021542D01*
X021133Y018279D02*
X021133Y021542D01*
X021663Y021542D02*
Y022021D01*
X022142Y022021D01*
Y022551D01*
D110*
X023858Y025236D02*
X023858Y02378D01*
X025827Y02378D01*
X02874Y02378D02*
Y025236D01*
X026772Y02378D02*
X02874D01*
X023858Y025236D02*
X02874D01*
X027087Y025236D02*
X027087Y027205D01*
X025866Y023976D02*
X025866Y02378D01*
X026772D02*
Y023976D01*
X026299Y027205D02*
X027087Y027205D01*
X026299Y027323D02*
X026299Y027205D01*
X026299Y027323D02*
X027087Y027323D01*
X027087Y027205D01*
X026299Y025236D02*
X026299Y027205D01*
X025866Y023976D02*
X026772Y023976D01*
D112*
X027461Y023307D02*
G03*
X027461Y023307I-000689J0D01*
G01*
X034705Y01685D02*
G03*
X034705Y01685I-000689J0D01*
G01*
X03613Y010213D02*
G03*
X03613Y010213I0J-0D01*
G01*
X013484Y020315D02*
G03*
X013484Y020315I-000689J0D01*
G01*
X007969Y019618D02*
G03*
X007969Y019618I-0J-0D01*
G01*
X013248Y021693D02*
G03*
X013248Y021693I-000295J0D01*
G01*
X036358Y01311D02*
G03*
X036358Y01311I-000295J0D01*
G01*
X028642Y019134D02*
X03002Y019134D01*
X028642Y020709D02*
X03002Y020709D01*
X03002Y019134D01*
X028642Y019134D02*
X028642Y020709D01*
X035302Y022064D02*
X035302Y02167D01*
X036089Y022064D02*
X036089Y02167D01*
X035302Y02167D02*
X036089Y02167D01*
X035302Y022064D02*
X036089D01*
X035302Y02122D02*
X035302Y021614D01*
X036089D02*
X036089Y02122D01*
X035302Y02122D02*
X036089Y02122D01*
X035302Y021614D02*
X036089D01*
X03374Y022283D02*
X034528D01*
X03374Y022677D02*
X034528Y022677D01*
X03374Y022283D02*
Y022677D01*
X034528Y022283D02*
X034528Y022677D01*
X03374Y02311D02*
X03374Y022717D01*
X034528Y02311D02*
X034528Y022717D01*
X03374D02*
X034528D01*
X03374Y02311D02*
X034528D01*
X035534Y021004D02*
X037305D01*
X035534Y019705D02*
X037305D01*
X035534D02*
Y021004D01*
X037305Y019705D02*
Y021004D01*
X036251Y021713D02*
X037432Y021713D01*
X036251Y021122D02*
X037432Y021122D01*
X037432Y021713D02*
X037432Y021122D01*
X036251Y021713D02*
X036251Y021122D01*
Y023484D02*
X037432Y023484D01*
X036251Y022894D02*
X037432Y022894D01*
X037432Y023484D02*
X037432Y022894D01*
X036251Y022894D02*
X036251Y023484D01*
X033325Y025373D02*
X033325Y027597D01*
X035984Y023757D02*
X035984Y022569D01*
X032244Y023757D02*
X032244Y022569D01*
X035984D01*
X032244Y023757D02*
X032616Y023757D01*
X032616Y025373D02*
X032616Y023757D01*
X033325Y027597D02*
X034904Y027597D01*
X032616Y025373D02*
X033325Y025373D01*
X034904D02*
X034904Y027597D01*
X034904Y025373D02*
X035612Y025373D01*
X035612Y023757D01*
X035984Y023757D01*
X02953Y027597D02*
X02953Y025373D01*
X032189Y022569D02*
X032189Y023757D01*
X028449Y022569D02*
X028449Y023757D01*
X028449Y022569D02*
X032189D01*
X028449Y023757D02*
X028821Y023757D01*
X028821Y025373D02*
X028821Y023757D01*
X02953Y027597D02*
X031108Y027597D01*
X028821Y025373D02*
X02953Y025373D01*
X031108Y027597D02*
X031108Y025373D01*
X031817Y025373D01*
Y023757D02*
Y025373D01*
Y023757D02*
X032189D01*
X03Y02311D02*
X030787Y02311D01*
X03Y022717D02*
X030787Y022717D01*
Y02311D01*
X03Y022717D02*
X03Y02311D01*
X030787Y022283D02*
X030787Y022677D01*
X03Y022283D02*
Y022677D01*
X030787Y022677D01*
X03Y022283D02*
X030787D01*
X012709Y025221D02*
X015047Y025221D01*
X012709Y024115D02*
X023811Y024115D01*
X012709Y024115D02*
X012709Y025221D01*
X013866Y025221D02*
X023811Y025221D01*
X023811Y024115D02*
X023811Y025221D01*
X019823Y021561D02*
X020611D01*
X019823Y021955D02*
X020611Y021955D01*
X019823Y021561D02*
Y021955D01*
X020611Y021955D02*
X020611Y021561D01*
X020867Y020734D02*
Y021522D01*
X019489Y020734D02*
Y021522D01*
X020867D01*
X019489Y020734D02*
X020867D01*
X019823Y020695D02*
X019823Y020301D01*
X020611Y020695D02*
X020611Y020301D01*
X019823D02*
X020611D01*
X019823Y020695D02*
X020611D01*
X020493Y019435D02*
X020886Y019435D01*
X020493Y020223D02*
X020886Y020223D01*
X020886Y019435D02*
X020886Y020223D01*
X020493Y020223D02*
X020493Y019435D01*
X019843Y01912D02*
X020434Y01912D01*
X019843Y020301D02*
X020434Y020301D01*
Y01912D02*
Y020301D01*
X019843Y01912D02*
X019843Y020301D01*
X028484Y021181D02*
Y021968D01*
X027106Y021181D02*
Y021968D01*
X028484D01*
X027106Y021181D02*
X028484D01*
X028209Y020787D02*
X028209Y021181D01*
X027422Y020787D02*
Y021181D01*
X028209Y021181D01*
X027422Y020787D02*
X028209D01*
X027422Y020774D02*
X027815Y020774D01*
X027422Y019986D02*
X027815Y019986D01*
X027422Y019986D02*
X027422Y020774D01*
X027815Y020774D02*
X027815Y019986D01*
X028209D01*
X027815Y020774D02*
X028209D01*
Y019986D02*
Y020774D01*
X027815Y019986D02*
Y020774D01*
X027821Y019153D02*
X028215D01*
X027821Y01994D02*
X028215Y01994D01*
X028215Y019153D01*
X027821Y01994D02*
X027821Y019153D01*
X027427Y01994D02*
X027821Y01994D01*
X027427Y019153D02*
X027821Y019153D01*
X027427Y019153D02*
Y01994D01*
X027821Y01994D02*
X027821Y019153D01*
X028209Y018776D02*
X028209Y01917D01*
X027422Y018776D02*
Y01917D01*
X028209Y01917D01*
X027422Y018776D02*
X028209Y018776D01*
X029134Y019055D02*
X029134Y018661D01*
X029921Y018661D02*
X029921Y019055D01*
X029134Y018661D02*
X029921Y018661D01*
X029134Y019055D02*
X029921Y019055D01*
X032224Y018504D02*
Y019291D01*
X030453Y018504D02*
Y019291D01*
X032224D01*
X030453Y018504D02*
X032224D01*
X032444Y017126D02*
X032444Y016732D01*
X031657Y017126D02*
X031657Y016732D01*
X031657Y017126D02*
X032444Y017126D01*
X031657Y016732D02*
X032444Y016732D01*
X031657Y016693D02*
X032444Y016693D01*
X031657Y016299D02*
X032444Y016299D01*
X032444Y016693D02*
X032444Y016299D01*
X031657Y016299D02*
Y016693D01*
Y015827D02*
X032444D01*
X031657Y01622D02*
X032444Y01622D01*
X031657Y015827D02*
X031657Y01622D01*
X032444Y01622D02*
X032444Y015827D01*
X029016Y01748D02*
X029016Y017087D01*
X029803D02*
X029803Y01748D01*
X029016Y017087D02*
X029803D01*
X029016Y01748D02*
X029803Y01748D01*
X029016Y016614D02*
X029803Y016614D01*
X029016Y017008D02*
X029803Y017008D01*
X029016Y017008D02*
X029016Y016614D01*
X029803Y016614D02*
X029803Y017008D01*
X030906Y014921D02*
X031693Y014921D01*
X030906Y014528D02*
X031693Y014528D01*
X031693Y014921D01*
X030906Y014921D02*
X030906Y014528D01*
X030906Y014961D02*
X031693Y014961D01*
X030906Y015354D02*
X031693Y015354D01*
X030906Y015354D02*
X030906Y014961D01*
X031693Y014961D02*
Y015354D01*
X028661Y014961D02*
X029449D01*
X028661Y015354D02*
X029449Y015354D01*
X028661Y014961D02*
X028661Y015354D01*
X029449Y015354D02*
X029449Y014961D01*
X028661Y014528D02*
X028661Y014921D01*
X029449Y014921D02*
X029449Y014528D01*
X028661Y014528D02*
X029449Y014528D01*
X028661Y014921D02*
X029449Y014921D01*
X027283Y014961D02*
X028071D01*
X027283Y015354D02*
X028071Y015354D01*
X027283Y014961D02*
Y015354D01*
X028071Y015354D02*
X028071Y014961D01*
X027283Y014921D02*
X027283Y014528D01*
X028071Y014921D02*
X028071Y014528D01*
X027283D02*
X028071D01*
X027283Y014921D02*
X028071D01*
X025983Y014961D02*
X02677Y014961D01*
X025983Y015354D02*
X02677Y015354D01*
X025983Y014961D02*
X025983Y015354D01*
X02677Y015354D02*
X02677Y014961D01*
X025983Y014921D02*
X02677Y014921D01*
X025983Y014528D02*
X02677Y014528D01*
X02677Y014921D01*
X025983Y014921D02*
X025983Y014528D01*
X024682Y014961D02*
X025469D01*
X024682Y015354D02*
X025469Y015354D01*
X024682Y015354D02*
X024682Y014961D01*
X025469Y015354D02*
X025469Y014961D01*
X024682Y014921D02*
X025469D01*
X024682Y014528D02*
X025469D01*
X025469Y014921D02*
X025469Y014528D01*
X024682Y014921D02*
X024682Y014528D01*
X023381Y014921D02*
X024169D01*
X023381Y014528D02*
X024169Y014528D01*
X024169Y014921D02*
X024169Y014528D01*
X023381Y014921D02*
X023381Y014528D01*
X023381Y014961D02*
X024169D01*
X023381Y015354D02*
X024169Y015354D01*
X023381Y015354D02*
X023381Y014961D01*
X024169Y015354D02*
X024169Y014961D01*
X02208D02*
X022868D01*
X02208Y015354D02*
X022868Y015354D01*
X02208Y015354D02*
X02208Y014961D01*
X022868Y015354D02*
X022868Y014961D01*
X02208Y014528D02*
X02208Y014921D01*
X022868D02*
X022868Y014528D01*
X02208Y014528D02*
X022868Y014528D01*
X02208Y014921D02*
X022868D01*
X02078Y015354D02*
X021567D01*
X02078Y014961D02*
X021567D01*
X021567Y015354D02*
X021567Y014961D01*
X02078Y015354D02*
X02078Y014961D01*
X021567Y014528D02*
X021567Y014921D01*
X02078Y014528D02*
Y014921D01*
X021567Y014921D01*
X02078Y014528D02*
X021567D01*
X020266Y014921D02*
X020266Y014528D01*
X019479D02*
Y014921D01*
X020266Y014921D01*
X019479Y014528D02*
X020266D01*
X019479Y015354D02*
X020266Y015354D01*
X019479Y014961D02*
X020266Y014961D01*
X020266Y015354D01*
X019479Y015354D02*
X019479Y014961D01*
X01878Y017165D02*
X01878Y016772D01*
X019567Y016772D02*
X019567Y017165D01*
X01878Y016772D02*
X019567Y016772D01*
X01878Y017165D02*
X019567D01*
X017244Y017283D02*
X018032Y017283D01*
X017244Y01689D02*
X018032Y01689D01*
X018032Y017283D02*
X018032Y01689D01*
X017244Y017283D02*
X017244Y01689D01*
X016693Y015315D02*
X016693Y014528D01*
X017087D02*
Y015315D01*
X016693Y015315D02*
X017087Y015315D01*
X016693Y014528D02*
X017087D01*
X01626Y015315D02*
X016654Y015315D01*
X01626Y014528D02*
X016654Y014528D01*
X01626Y014528D02*
X01626Y015315D01*
X016654Y015315D02*
X016654Y014528D01*
X03343Y015136D02*
Y015809D01*
X033232Y015136D02*
X03343Y015136D01*
X033232Y015038D02*
X033232Y015136D01*
X03252Y015038D02*
X033232Y015038D01*
X032321Y015136D02*
X03252Y015136D01*
X03252Y015038D01*
X032321Y015809D02*
X032321Y015136D01*
X032321Y015809D02*
X03252Y015809D01*
X03252Y015907D02*
X033232Y015907D01*
X03252Y015907D02*
X03252Y015809D01*
X033232Y015907D02*
X033232Y015809D01*
X03343Y015809D01*
X035226Y019556D02*
X037608Y019556D01*
X035226Y017076D02*
X037608Y017076D01*
X037608Y019556D01*
X035226Y019556D02*
X035226Y017076D01*
X035226Y016949D02*
X035226Y014469D01*
X037608Y016949D02*
X037608Y014469D01*
X035226Y014469D02*
X037608Y014469D01*
X035226Y016949D02*
X037608Y016949D01*
X036102Y014331D02*
X036102Y013228D01*
X033976Y014331D02*
X033976Y013228D01*
X036102Y013228D01*
X033976Y014331D02*
X036102Y014331D01*
X032919Y013214D02*
X035399D01*
X032919Y010832D02*
X035399D01*
X032919D02*
Y013214D01*
X035399Y010832D02*
Y013214D01*
X031748Y013404D02*
X031947D01*
Y013306D02*
Y013404D01*
X032659Y013306D02*
Y013404D01*
X031947Y013306D02*
X032659D01*
Y013404D02*
X032858D01*
Y014076D01*
X032659D02*
Y014175D01*
Y014076D02*
X032858D01*
X031947Y014175D02*
X032659D01*
X031947Y014076D02*
Y014175D01*
X031748Y014076D02*
X031947D01*
X031748Y013404D02*
Y014076D01*
X032582Y010832D02*
Y013214D01*
X030102Y010832D02*
Y013214D01*
Y010832D02*
X032582D01*
X030102Y013214D02*
X032582D01*
X027285D02*
X029765D01*
X027285Y010832D02*
X029765D01*
X027285D02*
Y013214D01*
X029765Y010832D02*
Y013214D01*
X025312Y013404D02*
X02551D01*
Y013306D02*
Y013404D01*
X026222Y013306D02*
Y013404D01*
X02551Y013306D02*
X026222D01*
Y013404D02*
X026421D01*
Y014076D01*
X026222D02*
Y014175D01*
Y014076D02*
X026421D01*
X02551Y014175D02*
X026222D01*
X02551Y014076D02*
Y014175D01*
X025312Y014076D02*
X02551D01*
X025312Y013404D02*
Y014076D01*
X024468Y013214D02*
X026948D01*
X024468Y010832D02*
X026948D01*
X024468D02*
Y013214D01*
X026948Y010832D02*
Y013214D01*
X02165D02*
X024131D01*
X02165Y010832D02*
X024131D01*
X02165D02*
Y013214D01*
X024131Y010832D02*
Y013214D01*
X018833D02*
X021314D01*
X018833Y010832D02*
X021314D01*
X018833D02*
Y013214D01*
X021314Y010832D02*
Y013214D01*
X016926Y013404D02*
Y014076D01*
X017124D01*
Y014175D01*
X017836D01*
Y014076D02*
X018035D01*
X017836D02*
Y014175D01*
X018035Y013404D02*
Y014076D01*
X017836Y013404D02*
X018035D01*
X017124Y013306D02*
X017836D01*
Y013404D01*
X017124Y013306D02*
Y013404D01*
X016926D02*
X017124D01*
X016016Y013214D02*
X018496D01*
X016016Y010832D02*
X018496D01*
X016016D02*
Y013214D01*
X018496Y010832D02*
Y013214D01*
X013199Y013214D02*
X015679Y013214D01*
X013199Y010832D02*
X015679D01*
X013199D02*
X013199Y013214D01*
X015679Y013214D02*
X015679Y010832D01*
X012392Y012923D02*
X012392Y013317D01*
X011604Y013317D02*
X011604Y012923D01*
X011604Y013317D02*
X012392Y013317D01*
X011604Y012923D02*
X012392Y012923D01*
X012392Y012938D02*
X012392Y012544D01*
X011604Y012544D02*
X011604Y012938D01*
X012392D01*
X011604Y012544D02*
X012392Y012544D01*
X011132Y014286D02*
X01623Y014286D01*
X011132Y019503D02*
X01623D01*
X011132D02*
X011132Y014286D01*
X01623Y019503D02*
X01623Y014286D01*
X012087Y019646D02*
Y021772D01*
X010984Y019646D02*
Y021772D01*
X012087D01*
X010984Y019646D02*
X012087D01*
X013228Y021232D02*
X013228Y02413D01*
X018425Y021232D02*
X018425Y02413D01*
X013228Y02413D02*
X018425Y02413D01*
X013228Y021232D02*
X018425D01*
X031535Y01623D02*
Y017628D01*
X029882Y01623D02*
Y017628D01*
X031535D01*
X029882Y01623D02*
X031535D01*
X019724Y017667D02*
X021378Y017667D01*
X019724Y01627D02*
X021378D01*
Y017667D01*
X019724Y01627D02*
X019724Y017667D01*
X021811Y016378D02*
Y017165D01*
X021417Y016378D02*
X021417Y017165D01*
X021417Y016378D02*
X021811Y016378D01*
X021417Y017165D02*
X021811Y017165D01*
X032441Y019842D02*
X032441Y02122D01*
X033228Y019842D02*
X033228Y02122D01*
X032441D02*
X033228D01*
X032441Y019842D02*
X033228Y019842D01*
X032402Y019331D02*
X032402Y021555D01*
X030118Y019331D02*
Y020913D01*
X03076Y021555D01*
X030118Y019331D02*
X032402Y019331D01*
X03076Y021555D02*
X032402Y021555D01*
M02*
