G04*
G04 #@! TF.GenerationSoftware,Altium Limited,Altium Designer,18.1.6 (161)*
G04*
G04 Layer_Color=16711935*
%FSTAX24Y24*%
%MOIN*%
G70*
G01*
G75*
G04:AMPARAMS|DCode=33|XSize=33.6mil|YSize=33.6mil|CornerRadius=6.6mil|HoleSize=0mil|Usage=FLASHONLY|Rotation=270.000|XOffset=0mil|YOffset=0mil|HoleType=Round|Shape=RoundedRectangle|*
%AMROUNDEDRECTD33*
21,1,0.0336,0.0205,0,0,270.0*
21,1,0.0205,0.0336,0,0,270.0*
1,1,0.0131,-0.0102,-0.0102*
1,1,0.0131,-0.0102,0.0102*
1,1,0.0131,0.0102,0.0102*
1,1,0.0131,0.0102,-0.0102*
%
%ADD33ROUNDEDRECTD33*%
G04:AMPARAMS|DCode=35|XSize=33.6mil|YSize=33.6mil|CornerRadius=6.6mil|HoleSize=0mil|Usage=FLASHONLY|Rotation=0.000|XOffset=0mil|YOffset=0mil|HoleType=Round|Shape=RoundedRectangle|*
%AMROUNDEDRECTD35*
21,1,0.0336,0.0205,0,0,0.0*
21,1,0.0205,0.0336,0,0,0.0*
1,1,0.0131,0.0102,-0.0102*
1,1,0.0131,-0.0102,-0.0102*
1,1,0.0131,-0.0102,0.0102*
1,1,0.0131,0.0102,0.0102*
%
%ADD35ROUNDEDRECTD35*%
%ADD36C,0.0474*%
%ADD37R,0.0375X0.0434*%
%ADD38R,0.0434X0.0375*%
G04:AMPARAMS|DCode=40|XSize=31.6mil|YSize=47.4mil|CornerRadius=5.2mil|HoleSize=0mil|Usage=FLASHONLY|Rotation=270.000|XOffset=0mil|YOffset=0mil|HoleType=Round|Shape=RoundedRectangle|*
%AMROUNDEDRECTD40*
21,1,0.0316,0.0370,0,0,270.0*
21,1,0.0213,0.0474,0,0,270.0*
1,1,0.0104,-0.0185,-0.0106*
1,1,0.0104,-0.0185,0.0106*
1,1,0.0104,0.0185,0.0106*
1,1,0.0104,0.0185,-0.0106*
%
%ADD40ROUNDEDRECTD40*%
G04:AMPARAMS|DCode=41|XSize=47.4mil|YSize=43.4mil|CornerRadius=7.5mil|HoleSize=0mil|Usage=FLASHONLY|Rotation=0.000|XOffset=0mil|YOffset=0mil|HoleType=Round|Shape=RoundedRectangle|*
%AMROUNDEDRECTD41*
21,1,0.0474,0.0283,0,0,0.0*
21,1,0.0323,0.0434,0,0,0.0*
1,1,0.0151,0.0161,-0.0142*
1,1,0.0151,-0.0161,-0.0142*
1,1,0.0151,-0.0161,0.0142*
1,1,0.0151,0.0161,0.0142*
%
%ADD41ROUNDEDRECTD41*%
%ADD47C,0.0730*%
%ADD48C,0.0611*%
%ADD49C,0.0595*%
%ADD50C,0.0966*%
G04:AMPARAMS|DCode=51|XSize=65.1mil|YSize=65.1mil|CornerRadius=18.3mil|HoleSize=0mil|Usage=FLASHONLY|Rotation=270.000|XOffset=0mil|YOffset=0mil|HoleType=Round|Shape=RoundedRectangle|*
%AMROUNDEDRECTD51*
21,1,0.0651,0.0285,0,0,270.0*
21,1,0.0285,0.0651,0,0,270.0*
1,1,0.0365,-0.0143,-0.0143*
1,1,0.0365,-0.0143,0.0143*
1,1,0.0365,0.0143,0.0143*
1,1,0.0365,0.0143,-0.0143*
%
%ADD51ROUNDEDRECTD51*%
%ADD52C,0.0651*%
G04:AMPARAMS|DCode=53|XSize=65.1mil|YSize=65.1mil|CornerRadius=18.3mil|HoleSize=0mil|Usage=FLASHONLY|Rotation=180.000|XOffset=0mil|YOffset=0mil|HoleType=Round|Shape=RoundedRectangle|*
%AMROUNDEDRECTD53*
21,1,0.0651,0.0285,0,0,180.0*
21,1,0.0285,0.0651,0,0,180.0*
1,1,0.0365,-0.0143,0.0143*
1,1,0.0365,0.0143,0.0143*
1,1,0.0365,0.0143,-0.0143*
1,1,0.0365,-0.0143,-0.0143*
%
%ADD53ROUNDEDRECTD53*%
G04:AMPARAMS|DCode=90|XSize=31.6mil|YSize=47.4mil|CornerRadius=6.4mil|HoleSize=0mil|Usage=FLASHONLY|Rotation=0.000|XOffset=0mil|YOffset=0mil|HoleType=Round|Shape=RoundedRectangle|*
%AMROUNDEDRECTD90*
21,1,0.0316,0.0346,0,0,0.0*
21,1,0.0189,0.0474,0,0,0.0*
1,1,0.0127,0.0094,-0.0173*
1,1,0.0127,-0.0094,-0.0173*
1,1,0.0127,-0.0094,0.0173*
1,1,0.0127,0.0094,0.0173*
%
%ADD90ROUNDEDRECTD90*%
%ADD91R,0.0789X0.0356*%
G04:AMPARAMS|DCode=92|XSize=39.5mil|YSize=39.5mil|CornerRadius=7.9mil|HoleSize=0mil|Usage=FLASHONLY|Rotation=270.000|XOffset=0mil|YOffset=0mil|HoleType=Round|Shape=RoundedRectangle|*
%AMROUNDEDRECTD92*
21,1,0.0395,0.0236,0,0,270.0*
21,1,0.0236,0.0395,0,0,270.0*
1,1,0.0159,-0.0118,-0.0118*
1,1,0.0159,-0.0118,0.0118*
1,1,0.0159,0.0118,0.0118*
1,1,0.0159,0.0118,-0.0118*
%
%ADD92ROUNDEDRECTD92*%
G04:AMPARAMS|DCode=93|XSize=63.1mil|YSize=49.3mil|CornerRadius=8.1mil|HoleSize=0mil|Usage=FLASHONLY|Rotation=90.000|XOffset=0mil|YOffset=0mil|HoleType=Round|Shape=RoundedRectangle|*
%AMROUNDEDRECTD93*
21,1,0.0631,0.0331,0,0,90.0*
21,1,0.0469,0.0493,0,0,90.0*
1,1,0.0163,0.0165,0.0234*
1,1,0.0163,0.0165,-0.0234*
1,1,0.0163,-0.0165,-0.0234*
1,1,0.0163,-0.0165,0.0234*
%
%ADD93ROUNDEDRECTD93*%
G04:AMPARAMS|DCode=94|XSize=19.8mil|YSize=71mil|CornerRadius=7mil|HoleSize=0mil|Usage=FLASHONLY|Rotation=180.000|XOffset=0mil|YOffset=0mil|HoleType=Round|Shape=RoundedRectangle|*
%AMROUNDEDRECTD94*
21,1,0.0198,0.0571,0,0,180.0*
21,1,0.0059,0.0710,0,0,180.0*
1,1,0.0139,-0.0030,0.0285*
1,1,0.0139,0.0030,0.0285*
1,1,0.0139,0.0030,-0.0285*
1,1,0.0139,-0.0030,-0.0285*
%
%ADD94ROUNDEDRECTD94*%
G04:AMPARAMS|DCode=95|XSize=19.8mil|YSize=71mil|CornerRadius=7mil|HoleSize=0mil|Usage=FLASHONLY|Rotation=270.000|XOffset=0mil|YOffset=0mil|HoleType=Round|Shape=RoundedRectangle|*
%AMROUNDEDRECTD95*
21,1,0.0198,0.0571,0,0,270.0*
21,1,0.0059,0.0710,0,0,270.0*
1,1,0.0139,-0.0285,-0.0030*
1,1,0.0139,-0.0285,0.0030*
1,1,0.0139,0.0285,0.0030*
1,1,0.0139,0.0285,-0.0030*
%
%ADD95ROUNDEDRECTD95*%
G04:AMPARAMS|DCode=96|XSize=43.4mil|YSize=45.4mil|CornerRadius=7.5mil|HoleSize=0mil|Usage=FLASHONLY|Rotation=90.000|XOffset=0mil|YOffset=0mil|HoleType=Round|Shape=RoundedRectangle|*
%AMROUNDEDRECTD96*
21,1,0.0434,0.0303,0,0,90.0*
21,1,0.0283,0.0454,0,0,90.0*
1,1,0.0151,0.0152,0.0142*
1,1,0.0151,0.0152,-0.0142*
1,1,0.0151,-0.0152,-0.0142*
1,1,0.0151,-0.0152,0.0142*
%
%ADD96ROUNDEDRECTD96*%
G04:AMPARAMS|DCode=97|XSize=34.4mil|YSize=19.8mil|CornerRadius=5.5mil|HoleSize=0mil|Usage=FLASHONLY|Rotation=0.000|XOffset=0mil|YOffset=0mil|HoleType=Round|Shape=RoundedRectangle|*
%AMROUNDEDRECTD97*
21,1,0.0344,0.0089,0,0,0.0*
21,1,0.0234,0.0198,0,0,0.0*
1,1,0.0110,0.0117,-0.0044*
1,1,0.0110,-0.0117,-0.0044*
1,1,0.0110,-0.0117,0.0044*
1,1,0.0110,0.0117,0.0044*
%
%ADD97ROUNDEDRECTD97*%
G04:AMPARAMS|DCode=98|XSize=67.1mil|YSize=31.6mil|CornerRadius=9.9mil|HoleSize=0mil|Usage=FLASHONLY|Rotation=180.000|XOffset=0mil|YOffset=0mil|HoleType=Round|Shape=RoundedRectangle|*
%AMROUNDEDRECTD98*
21,1,0.0671,0.0118,0,0,180.0*
21,1,0.0472,0.0316,0,0,180.0*
1,1,0.0198,-0.0236,0.0059*
1,1,0.0198,0.0236,0.0059*
1,1,0.0198,0.0236,-0.0059*
1,1,0.0198,-0.0236,-0.0059*
%
%ADD98ROUNDEDRECTD98*%
G04:AMPARAMS|DCode=99|XSize=55.2mil|YSize=78.9mil|CornerRadius=8.7mil|HoleSize=0mil|Usage=FLASHONLY|Rotation=90.000|XOffset=0mil|YOffset=0mil|HoleType=Round|Shape=RoundedRectangle|*
%AMROUNDEDRECTD99*
21,1,0.0552,0.0614,0,0,90.0*
21,1,0.0378,0.0789,0,0,90.0*
1,1,0.0174,0.0307,0.0189*
1,1,0.0174,0.0307,-0.0189*
1,1,0.0174,-0.0307,-0.0189*
1,1,0.0174,-0.0307,0.0189*
%
%ADD99ROUNDEDRECTD99*%
G04:AMPARAMS|DCode=100|XSize=67.1mil|YSize=31.6mil|CornerRadius=9.9mil|HoleSize=0mil|Usage=FLASHONLY|Rotation=90.000|XOffset=0mil|YOffset=0mil|HoleType=Round|Shape=RoundedRectangle|*
%AMROUNDEDRECTD100*
21,1,0.0671,0.0118,0,0,90.0*
21,1,0.0472,0.0316,0,0,90.0*
1,1,0.0198,0.0059,0.0236*
1,1,0.0198,0.0059,-0.0236*
1,1,0.0198,-0.0059,-0.0236*
1,1,0.0198,-0.0059,0.0236*
%
%ADD100ROUNDEDRECTD100*%
G04:AMPARAMS|DCode=101|XSize=55.2mil|YSize=78.9mil|CornerRadius=8.7mil|HoleSize=0mil|Usage=FLASHONLY|Rotation=0.000|XOffset=0mil|YOffset=0mil|HoleType=Round|Shape=RoundedRectangle|*
%AMROUNDEDRECTD101*
21,1,0.0552,0.0614,0,0,0.0*
21,1,0.0378,0.0789,0,0,0.0*
1,1,0.0174,0.0189,-0.0307*
1,1,0.0174,-0.0189,-0.0307*
1,1,0.0174,-0.0189,0.0307*
1,1,0.0174,0.0189,0.0307*
%
%ADD101ROUNDEDRECTD101*%
G04:AMPARAMS|DCode=102|XSize=35.6mil|YSize=76.9mil|CornerRadius=7.4mil|HoleSize=0mil|Usage=FLASHONLY|Rotation=90.000|XOffset=0mil|YOffset=0mil|HoleType=Round|Shape=RoundedRectangle|*
%AMROUNDEDRECTD102*
21,1,0.0356,0.0620,0,0,90.0*
21,1,0.0207,0.0769,0,0,90.0*
1,1,0.0149,0.0310,0.0103*
1,1,0.0149,0.0310,-0.0103*
1,1,0.0149,-0.0310,-0.0103*
1,1,0.0149,-0.0310,0.0103*
%
%ADD102ROUNDEDRECTD102*%
G04:AMPARAMS|DCode=103|XSize=47.4mil|YSize=69mil|CornerRadius=8.9mil|HoleSize=0mil|Usage=FLASHONLY|Rotation=90.000|XOffset=0mil|YOffset=0mil|HoleType=Round|Shape=RoundedRectangle|*
%AMROUNDEDRECTD103*
21,1,0.0474,0.0512,0,0,90.0*
21,1,0.0295,0.0690,0,0,90.0*
1,1,0.0178,0.0256,0.0148*
1,1,0.0178,0.0256,-0.0148*
1,1,0.0178,-0.0256,-0.0148*
1,1,0.0178,-0.0256,0.0148*
%
%ADD103ROUNDEDRECTD103*%
G04:AMPARAMS|DCode=104|XSize=67.1mil|YSize=67.1mil|CornerRadius=11.4mil|HoleSize=0mil|Usage=FLASHONLY|Rotation=90.000|XOffset=0mil|YOffset=0mil|HoleType=Round|Shape=RoundedRectangle|*
%AMROUNDEDRECTD104*
21,1,0.0671,0.0443,0,0,90.0*
21,1,0.0443,0.0671,0,0,90.0*
1,1,0.0228,0.0221,0.0221*
1,1,0.0228,0.0221,-0.0221*
1,1,0.0228,-0.0221,-0.0221*
1,1,0.0228,-0.0221,0.0221*
%
%ADD104ROUNDEDRECTD104*%
G04:AMPARAMS|DCode=105|XSize=59.2mil|YSize=67.1mil|CornerRadius=10.4mil|HoleSize=0mil|Usage=FLASHONLY|Rotation=90.000|XOffset=0mil|YOffset=0mil|HoleType=Round|Shape=RoundedRectangle|*
%AMROUNDEDRECTD105*
21,1,0.0592,0.0463,0,0,90.0*
21,1,0.0384,0.0671,0,0,90.0*
1,1,0.0208,0.0231,0.0192*
1,1,0.0208,0.0231,-0.0192*
1,1,0.0208,-0.0231,-0.0192*
1,1,0.0208,-0.0231,0.0192*
%
%ADD105ROUNDEDRECTD105*%
G04:AMPARAMS|DCode=106|XSize=39.5mil|YSize=63.1mil|CornerRadius=7.9mil|HoleSize=0mil|Usage=FLASHONLY|Rotation=90.000|XOffset=0mil|YOffset=0mil|HoleType=Round|Shape=RoundedRectangle|*
%AMROUNDEDRECTD106*
21,1,0.0395,0.0472,0,0,90.0*
21,1,0.0236,0.0631,0,0,90.0*
1,1,0.0159,0.0236,0.0118*
1,1,0.0159,0.0236,-0.0118*
1,1,0.0159,-0.0236,-0.0118*
1,1,0.0159,-0.0236,0.0118*
%
%ADD106ROUNDEDRECTD106*%
G04:AMPARAMS|DCode=107|XSize=117.8mil|YSize=37.1mil|CornerRadius=11.3mil|HoleSize=0mil|Usage=FLASHONLY|Rotation=270.000|XOffset=0mil|YOffset=0mil|HoleType=Round|Shape=RoundedRectangle|*
%AMROUNDEDRECTD107*
21,1,0.1178,0.0146,0,0,270.0*
21,1,0.0953,0.0371,0,0,270.0*
1,1,0.0226,-0.0073,-0.0476*
1,1,0.0226,-0.0073,0.0476*
1,1,0.0226,0.0073,0.0476*
1,1,0.0226,0.0073,-0.0476*
%
%ADD107ROUNDEDRECTD107*%
G04:AMPARAMS|DCode=108|XSize=63.1mil|YSize=49.3mil|CornerRadius=8.1mil|HoleSize=0mil|Usage=FLASHONLY|Rotation=0.000|XOffset=0mil|YOffset=0mil|HoleType=Round|Shape=RoundedRectangle|*
%AMROUNDEDRECTD108*
21,1,0.0631,0.0331,0,0,0.0*
21,1,0.0469,0.0493,0,0,0.0*
1,1,0.0163,0.0234,-0.0165*
1,1,0.0163,-0.0234,-0.0165*
1,1,0.0163,-0.0234,0.0165*
1,1,0.0163,0.0234,0.0165*
%
%ADD108ROUNDEDRECTD108*%
G04:AMPARAMS|DCode=109|XSize=74.9mil|YSize=47.4mil|CornerRadius=13.8mil|HoleSize=0mil|Usage=FLASHONLY|Rotation=180.000|XOffset=0mil|YOffset=0mil|HoleType=Round|Shape=RoundedRectangle|*
%AMROUNDEDRECTD109*
21,1,0.0749,0.0197,0,0,180.0*
21,1,0.0472,0.0474,0,0,180.0*
1,1,0.0277,-0.0236,0.0098*
1,1,0.0277,0.0236,0.0098*
1,1,0.0277,0.0236,-0.0098*
1,1,0.0277,-0.0236,-0.0098*
%
%ADD109ROUNDEDRECTD109*%
G36*
X02683Y023895D02*
X026868Y02389D01*
X026906Y023883D01*
X026943Y023873D01*
X02698Y02386D01*
X027016Y023845D01*
X02705Y023828D01*
X027084Y023809D01*
X027116Y023787D01*
X027146Y023764D01*
X027176Y023738D01*
X027203Y023711D01*
X027228Y023682D01*
X027252Y023651D01*
X027273Y023619D01*
X027293Y023586D01*
X02731Y023551D01*
X027325Y023515D01*
X027337Y023479D01*
X027347Y023441D01*
X027355Y023403D01*
X02736Y023365D01*
X027362Y023326D01*
Y023307D01*
Y023288D01*
X02736Y023249D01*
X027355Y023211D01*
X027347Y023173D01*
X027337Y023136D01*
X027325Y023099D01*
X02731Y023063D01*
X027293Y023029D01*
X027273Y022995D01*
X027252Y022963D01*
X027228Y022932D01*
X027203Y022903D01*
X027176Y022876D01*
X027146Y02285D01*
X027116Y022827D01*
X027084Y022805D01*
X02705Y022786D01*
X027016Y022769D01*
X02698Y022754D01*
X026943Y022742D01*
X026906Y022732D01*
X026868Y022724D01*
X02683Y022719D01*
X026791Y022717D01*
X026752D01*
X026714Y022719D01*
X026675Y022724D01*
X026637Y022732D01*
X0266Y022742D01*
X026564Y022754D01*
X026528Y022769D01*
X026493Y022786D01*
X02646Y022805D01*
X026427Y022827D01*
X026397Y02285D01*
X026368Y022876D01*
X02634Y022903D01*
X026315Y022932D01*
X026291Y022963D01*
X02627Y022995D01*
X026251Y023029D01*
X026233Y023063D01*
X026219Y023099D01*
X026206Y023136D01*
X026196Y023173D01*
X026189Y023211D01*
X026184Y023249D01*
X026181Y023288D01*
Y023307D01*
Y023326D01*
X026184Y023365D01*
X026189Y023403D01*
X026196Y023441D01*
X026206Y023479D01*
X026219Y023515D01*
X026233Y023551D01*
X026251Y023586D01*
X02627Y023619D01*
X026291Y023651D01*
X026315Y023682D01*
X02634Y023711D01*
X026368Y023738D01*
X026397Y023764D01*
X026427Y023787D01*
X02646Y023809D01*
X026493Y023828D01*
X026528Y023845D01*
X026564Y02386D01*
X0266Y023873D01*
X026637Y023883D01*
X026675Y02389D01*
X026714Y023895D01*
X026752Y023898D01*
X026791D01*
X02683Y023895D01*
D02*
G37*
G36*
X034521Y020568D02*
X034307Y020408D01*
X034087Y020573D01*
X034087Y020947D01*
X034521Y020947D01*
X034521Y020568D01*
D02*
G37*
G36*
X035149Y020564D02*
X034936Y020404D01*
X034716Y020569D01*
X034716Y020943D01*
X035149Y020943D01*
X035149Y020564D01*
D02*
G37*
G36*
X034304Y02037D02*
X034521Y020533D01*
X034521Y019992D01*
X034087Y019992D01*
Y02054D01*
X034304Y02037D01*
D02*
G37*
G36*
X034932Y020366D02*
X03515Y020529D01*
X03515Y019988D01*
X034716Y019988D01*
X034716Y020536D01*
X034932Y020366D01*
D02*
G37*
G36*
X012853Y020903D02*
X012892Y020898D01*
X012929Y02089D01*
X012967Y02088D01*
X013003Y020868D01*
X013039Y020853D01*
X013074Y020836D01*
X013107Y020817D01*
X013139Y020795D01*
X01317Y020772D01*
X013199Y020746D01*
X013227Y020719D01*
X013252Y02069D01*
X013276Y020659D01*
X013297Y020627D01*
X013316Y020593D01*
X013333Y020559D01*
X013348Y020523D01*
X013361Y020486D01*
X013371Y020449D01*
X013378Y020411D01*
X013383Y020373D01*
X013386Y020334D01*
Y020315D01*
Y020296D01*
X013383Y020257D01*
X013378Y020219D01*
X013371Y020181D01*
X013361Y020143D01*
X013348Y020107D01*
X013333Y020071D01*
X013316Y020036D01*
X013297Y020003D01*
X013276Y019971D01*
X013252Y01994D01*
X013227Y019911D01*
X013199Y019884D01*
X01317Y019858D01*
X013139Y019835D01*
X013107Y019813D01*
X013074Y019794D01*
X013039Y019777D01*
X013003Y019762D01*
X012967Y01975D01*
X012929Y01974D01*
X012892Y019732D01*
X012853Y019727D01*
X012815Y019724D01*
X012776D01*
X012737Y019727D01*
X012699Y019732D01*
X012661Y01974D01*
X012624Y01975D01*
X012587Y019762D01*
X012551Y019777D01*
X012517Y019794D01*
X012483Y019813D01*
X012451Y019835D01*
X01242Y019858D01*
X012391Y019884D01*
X012364Y019911D01*
X012339Y01994D01*
X012315Y019971D01*
X012294Y020003D01*
X012274Y020036D01*
X012257Y020071D01*
X012242Y020107D01*
X01223Y020143D01*
X01222Y020181D01*
X012212Y020219D01*
X012207Y020257D01*
X012205Y020296D01*
Y020315D01*
Y020334D01*
X012207Y020373D01*
X012212Y020411D01*
X01222Y020449D01*
X01223Y020486D01*
X012242Y020523D01*
X012257Y020559D01*
X012274Y020593D01*
X012294Y020627D01*
X012315Y020659D01*
X012339Y02069D01*
X012364Y020719D01*
X012391Y020746D01*
X01242Y020772D01*
X012451Y020795D01*
X012483Y020817D01*
X012517Y020836D01*
X012551Y020853D01*
X012587Y020868D01*
X012624Y02088D01*
X012661Y02089D01*
X012699Y020898D01*
X012737Y020903D01*
X012776Y020906D01*
X012815D01*
X012853Y020903D01*
D02*
G37*
G36*
X034074Y017438D02*
X034112Y017433D01*
X03415Y017426D01*
X034187Y017416D01*
X034224Y017403D01*
X03426Y017389D01*
X034294Y017371D01*
X034328Y017352D01*
X03436Y017331D01*
X034391Y017307D01*
X03442Y017282D01*
X034447Y017254D01*
X034472Y017225D01*
X034496Y017195D01*
X034518Y017162D01*
X034537Y017129D01*
X034554Y017094D01*
X034569Y017059D01*
X034581Y017022D01*
X034591Y016985D01*
X034599Y016947D01*
X034604Y016908D01*
X034606Y01687D01*
Y01685D01*
Y016831D01*
X034604Y016792D01*
X034599Y016754D01*
X034591Y016716D01*
X034581Y016679D01*
X034569Y016642D01*
X034554Y016607D01*
X034537Y016572D01*
X034518Y016538D01*
X034496Y016506D01*
X034472Y016476D01*
X034447Y016446D01*
X03442Y016419D01*
X034391Y016394D01*
X03436Y01637D01*
X034328Y016349D01*
X034294Y016329D01*
X03426Y016312D01*
X034224Y016297D01*
X034187Y016285D01*
X03415Y016275D01*
X034112Y016267D01*
X034074Y016262D01*
X034035Y01626D01*
X033996D01*
X033958Y016262D01*
X033919Y016267D01*
X033882Y016275D01*
X033844Y016285D01*
X033808Y016297D01*
X033772Y016312D01*
X033737Y016329D01*
X033704Y016349D01*
X033672Y01637D01*
X033641Y016394D01*
X033612Y016419D01*
X033584Y016446D01*
X033559Y016476D01*
X033535Y016506D01*
X033514Y016538D01*
X033495Y016572D01*
X033478Y016607D01*
X033463Y016642D01*
X03345Y016679D01*
X03344Y016716D01*
X033433Y016754D01*
X033428Y016792D01*
X033425Y016831D01*
Y01685D01*
Y01687D01*
X033428Y016908D01*
X033433Y016947D01*
X03344Y016985D01*
X03345Y017022D01*
X033463Y017059D01*
X033478Y017094D01*
X033495Y017129D01*
X033514Y017162D01*
X033535Y017195D01*
X033559Y017225D01*
X033584Y017254D01*
X033612Y017282D01*
X033641Y017307D01*
X033672Y017331D01*
X033704Y017352D01*
X033737Y017371D01*
X033772Y017389D01*
X033808Y017403D01*
X033844Y017416D01*
X033882Y017426D01*
X033919Y017433D01*
X033958Y017438D01*
X033996Y017441D01*
X034035D01*
X034074Y017438D01*
D02*
G37*
G36*
X017663Y016555D02*
Y016122D01*
X017283Y016122D01*
X017123Y016335D01*
X017289Y016556D01*
X017663Y016555D01*
D02*
G37*
G36*
X017256Y016555D02*
X017085Y016339D01*
X017248Y016121D01*
X016707Y016121D01*
X016708Y016555D01*
X017256Y016555D01*
D02*
G37*
G36*
X030092Y015954D02*
X030092Y01552D01*
X029544D01*
X029715Y015737D01*
X029551Y015954D01*
X030092Y015954D01*
D02*
G37*
G36*
X029676Y01574D02*
X029511Y01552D01*
X029137Y01552D01*
X029137Y015954D01*
X029517Y015954D01*
X029676Y01574D01*
D02*
G37*
G36*
X031302Y015954D02*
X031302Y01552D01*
X030923Y01552D01*
X030763Y015733D01*
X030928Y015954D01*
X031302Y015954D01*
D02*
G37*
G36*
X030896Y015954D02*
X030725Y015737D01*
X030888Y01552D01*
X030347Y01552D01*
X030347Y015954D01*
X030896Y015954D01*
D02*
G37*
G36*
X017663Y015926D02*
X017663Y015492D01*
X017283Y015492D01*
X017123Y015705D01*
X017289Y015926D01*
X017663Y015926D01*
D02*
G37*
G36*
X017256Y015926D02*
X017085Y015709D01*
X017248Y015491D01*
X016707Y015492D01*
X016708Y015926D01*
X017256Y015926D01*
D02*
G37*
D33*
X035892Y021867D02*
D03*
X035498D02*
D03*
X035892Y021417D02*
D03*
X035498Y021417D02*
D03*
X034331Y02248D02*
D03*
X033937Y02248D02*
D03*
X034331Y022913D02*
D03*
X033937D02*
D03*
X030197Y022913D02*
D03*
X030591Y022913D02*
D03*
X030197Y02248D02*
D03*
X030591Y02248D02*
D03*
X020414Y021758D02*
D03*
X02002Y021758D02*
D03*
X020414Y020498D02*
D03*
X02002Y020498D02*
D03*
X027619Y020984D02*
D03*
X028012Y020984D02*
D03*
X027619Y018973D02*
D03*
X028012Y018973D02*
D03*
X029724Y018858D02*
D03*
X029331Y018858D02*
D03*
X031854Y016929D02*
D03*
X032248Y016929D02*
D03*
X031854Y016496D02*
D03*
X032248D02*
D03*
X032248Y016024D02*
D03*
X031854Y016024D02*
D03*
X029606Y017283D02*
D03*
X029213Y017283D02*
D03*
X029606Y016811D02*
D03*
X029213Y016811D02*
D03*
X031102Y014724D02*
D03*
X031496Y014724D02*
D03*
Y015157D02*
D03*
X031102Y015157D02*
D03*
X029252Y015157D02*
D03*
X028858Y015157D02*
D03*
X029252Y014724D02*
D03*
X028858Y014724D02*
D03*
X027874Y015157D02*
D03*
X02748Y015157D02*
D03*
X027874Y014724D02*
D03*
X02748Y014724D02*
D03*
X026573Y015157D02*
D03*
X02618Y015157D02*
D03*
X02618Y014724D02*
D03*
X026573Y014724D02*
D03*
X025272Y015157D02*
D03*
X024879Y015157D02*
D03*
X024879Y014724D02*
D03*
X025272Y014724D02*
D03*
X023578Y014724D02*
D03*
X023972Y014724D02*
D03*
X023972Y015157D02*
D03*
X023578Y015157D02*
D03*
X022671Y015157D02*
D03*
X022277Y015157D02*
D03*
X022671Y014724D02*
D03*
X022277Y014724D02*
D03*
X020976Y015157D02*
D03*
X02137Y015157D02*
D03*
X020976Y014724D02*
D03*
X02137Y014724D02*
D03*
X019676Y014724D02*
D03*
X020069Y014724D02*
D03*
X019676Y015157D02*
D03*
X020069Y015157D02*
D03*
X01937Y016968D02*
D03*
X018976Y016968D02*
D03*
X017441Y017087D02*
D03*
X017835Y017087D02*
D03*
X011801Y01312D02*
D03*
X012195Y01312D02*
D03*
X011801Y012741D02*
D03*
X012195D02*
D03*
D35*
X020689Y020026D02*
D03*
X020689Y019632D02*
D03*
X027619Y020183D02*
D03*
X027619Y020577D02*
D03*
X028012Y020577D02*
D03*
Y020183D02*
D03*
X028018Y019744D02*
D03*
Y01935D02*
D03*
X027624Y01935D02*
D03*
X027624Y019744D02*
D03*
X01689Y014724D02*
D03*
X01689Y015118D02*
D03*
X016457Y014724D02*
D03*
X016457Y015118D02*
D03*
X021614Y016968D02*
D03*
Y016575D02*
D03*
D36*
X012953Y021693D02*
D03*
X036063Y01311D02*
D03*
D37*
X031115Y015737D02*
D03*
X030535Y015737D02*
D03*
X029905Y015737D02*
D03*
X029324Y015737D02*
D03*
X016895Y016339D02*
D03*
X017475Y016339D02*
D03*
X017475Y015709D02*
D03*
X016895Y015709D02*
D03*
D38*
X034933Y020756D02*
D03*
X034933Y020175D02*
D03*
X034304Y02018D02*
D03*
X034304Y02076D02*
D03*
D40*
X030177Y017303D02*
D03*
Y016555D02*
D03*
X03124D02*
D03*
Y016929D02*
D03*
Y017303D02*
D03*
X02002Y016594D02*
D03*
X02002Y016968D02*
D03*
Y017343D02*
D03*
X021083Y017343D02*
D03*
X021083Y016594D02*
D03*
D41*
X020138Y019396D02*
D03*
X020138Y020026D02*
D03*
D47*
X035494Y023267D02*
D03*
X032734Y023267D02*
D03*
X031699Y023267D02*
D03*
X028939Y023267D02*
D03*
D48*
X035Y024247D02*
D03*
X033228D02*
D03*
X031205Y024247D02*
D03*
X029433Y024247D02*
D03*
D49*
X027087Y024567D02*
D03*
X026299D02*
D03*
X025512Y024567D02*
D03*
D50*
X02439Y024567D02*
D03*
X028209Y024567D02*
D03*
D51*
X013244Y024655D02*
D03*
X034539Y01378D02*
D03*
D52*
X023244Y024655D02*
D03*
X022244Y024655D02*
D03*
X021244D02*
D03*
X020244D02*
D03*
X019244Y024655D02*
D03*
X018244Y024655D02*
D03*
X017244Y024655D02*
D03*
X015244D02*
D03*
X014244Y024655D02*
D03*
X016244D02*
D03*
X035539Y01378D02*
D03*
X011535Y020209D02*
D03*
D53*
X011535Y021209D02*
D03*
D90*
X029705Y019449D02*
D03*
X028957Y019449D02*
D03*
X029331Y020394D02*
D03*
D91*
X035731Y020059D02*
D03*
Y02065D02*
D03*
X037109D02*
D03*
Y020059D02*
D03*
D92*
X037146Y021417D02*
D03*
X036556Y021417D02*
D03*
X037146Y023189D02*
D03*
X036556Y023189D02*
D03*
D93*
X020542Y021128D02*
D03*
X019813D02*
D03*
X028159Y021575D02*
D03*
X027431D02*
D03*
D94*
X025256Y022188D02*
D03*
X025059Y022188D02*
D03*
X024862Y022188D02*
D03*
X024665Y022188D02*
D03*
X024469D02*
D03*
X024272Y022188D02*
D03*
X024075D02*
D03*
X023878Y022188D02*
D03*
X023681Y022188D02*
D03*
X023484Y022188D02*
D03*
X023287D02*
D03*
X023091D02*
D03*
X022894Y022188D02*
D03*
X022697Y022188D02*
D03*
X0225Y022188D02*
D03*
X022303Y022188D02*
D03*
X022303Y017638D02*
D03*
X0225Y017638D02*
D03*
X022697Y017638D02*
D03*
X022894Y017638D02*
D03*
X023091D02*
D03*
X023287Y017638D02*
D03*
X023484D02*
D03*
X023681Y017638D02*
D03*
X023878Y017638D02*
D03*
X024075Y017638D02*
D03*
X024272D02*
D03*
X024469D02*
D03*
X024665Y017638D02*
D03*
X024862Y017638D02*
D03*
X025059Y017638D02*
D03*
X025256Y017638D02*
D03*
D95*
X026055Y018436D02*
D03*
X026055Y018633D02*
D03*
X026055Y01883D02*
D03*
X026055Y019027D02*
D03*
Y019224D02*
D03*
X026055Y019421D02*
D03*
Y019618D02*
D03*
X026055Y019814D02*
D03*
X026055Y020011D02*
D03*
X026055Y020208D02*
D03*
Y020405D02*
D03*
Y020602D02*
D03*
X026055Y020799D02*
D03*
X026055Y020995D02*
D03*
X026055Y021192D02*
D03*
X026055Y021389D02*
D03*
X021505Y021389D02*
D03*
X021505Y021192D02*
D03*
X021505Y020995D02*
D03*
X021505Y020799D02*
D03*
Y020602D02*
D03*
X021505Y020405D02*
D03*
Y020208D02*
D03*
X021505Y020011D02*
D03*
X021505Y019814D02*
D03*
X021505Y019618D02*
D03*
Y019421D02*
D03*
Y019224D02*
D03*
X021505Y019027D02*
D03*
X021505Y01883D02*
D03*
X021505Y018633D02*
D03*
X021505Y018436D02*
D03*
D96*
X030719Y018898D02*
D03*
X031959D02*
D03*
D97*
X032584Y015276D02*
D03*
X032584Y015472D02*
D03*
X032584Y015669D02*
D03*
X033167Y015669D02*
D03*
Y015472D02*
D03*
X033167Y015276D02*
D03*
X032012Y013937D02*
D03*
Y01374D02*
D03*
Y013543D02*
D03*
X032594D02*
D03*
Y01374D02*
D03*
Y013937D02*
D03*
X025575D02*
D03*
Y01374D02*
D03*
Y013543D02*
D03*
X026157D02*
D03*
Y01374D02*
D03*
Y013937D02*
D03*
X017772D02*
D03*
Y01374D02*
D03*
Y013543D02*
D03*
X017189D02*
D03*
Y01374D02*
D03*
Y013937D02*
D03*
D98*
X035629Y018316D02*
D03*
X035629Y01871D02*
D03*
X035629Y017922D02*
D03*
X035629Y015315D02*
D03*
X035629Y016102D02*
D03*
X035629Y015709D02*
D03*
D99*
X037155Y01741D02*
D03*
X037155Y019221D02*
D03*
X037155Y016614D02*
D03*
X037155Y014803D02*
D03*
D100*
X033766Y01281D02*
D03*
X034553D02*
D03*
X034159D02*
D03*
X031342D02*
D03*
X031736D02*
D03*
X030948D02*
D03*
X028131D02*
D03*
X028919D02*
D03*
X028525D02*
D03*
X025314D02*
D03*
X026101D02*
D03*
X025708D02*
D03*
X022497D02*
D03*
X023284D02*
D03*
X022891D02*
D03*
X01968D02*
D03*
X020467D02*
D03*
X020073D02*
D03*
X016862D02*
D03*
X01765D02*
D03*
X017256D02*
D03*
X014045Y01281D02*
D03*
X014833Y01281D02*
D03*
X014439D02*
D03*
D101*
X035065Y011284D02*
D03*
X033254D02*
D03*
X030437D02*
D03*
X032248D02*
D03*
X02943D02*
D03*
X027619D02*
D03*
X026613D02*
D03*
X024802D02*
D03*
X023796D02*
D03*
X021985D02*
D03*
X020979D02*
D03*
X019168D02*
D03*
X018162D02*
D03*
X016351D02*
D03*
X015345Y011284D02*
D03*
X013533Y011284D02*
D03*
D102*
X011575Y015979D02*
D03*
X011575Y016412D02*
D03*
X011575Y017279D02*
D03*
Y015546D02*
D03*
X011575Y015113D02*
D03*
X011575Y018145D02*
D03*
X011575Y017712D02*
D03*
X011575Y016845D02*
D03*
D103*
X015827Y01908D02*
D03*
D104*
X011624Y019109D02*
D03*
D105*
X011624Y014641D02*
D03*
D106*
X014872Y019237D02*
D03*
D107*
X013577Y023482D02*
D03*
Y02188D02*
D03*
X014077Y023482D02*
D03*
X014077Y02188D02*
D03*
X014577Y023482D02*
D03*
X014577Y02188D02*
D03*
X015077Y02188D02*
D03*
X015577Y023482D02*
D03*
X015577Y02188D02*
D03*
X016077Y023482D02*
D03*
X016077Y02188D02*
D03*
X016577Y023482D02*
D03*
X016577Y02188D02*
D03*
X017077Y023482D02*
D03*
Y02188D02*
D03*
X017577Y023482D02*
D03*
X017577Y02188D02*
D03*
X018077Y023482D02*
D03*
X018077Y02188D02*
D03*
D108*
X032835Y020896D02*
D03*
X032835Y020167D02*
D03*
D109*
X030551Y019724D02*
D03*
X031969D02*
D03*
X031969Y021102D02*
D03*
M02*
