G04*
G04 #@! TF.GenerationSoftware,Altium Limited,Altium Designer,18.1.6 (161)*
G04*
G04 Layer_Color=8388736*
%FSTAX24Y24*%
%MOIN*%
G70*
G01*
G75*
G04:AMPARAMS|DCode=33|XSize=33.6mil|YSize=33.6mil|CornerRadius=6.6mil|HoleSize=0mil|Usage=FLASHONLY|Rotation=270.000|XOffset=0mil|YOffset=0mil|HoleType=Round|Shape=RoundedRectangle|*
%AMROUNDEDRECTD33*
21,1,0.0336,0.0205,0,0,270.0*
21,1,0.0205,0.0336,0,0,270.0*
1,1,0.0131,-0.0102,-0.0102*
1,1,0.0131,-0.0102,0.0102*
1,1,0.0131,0.0102,0.0102*
1,1,0.0131,0.0102,-0.0102*
%
%ADD33ROUNDEDRECTD33*%
G04:AMPARAMS|DCode=34|XSize=15.9mil|YSize=52.9mil|CornerRadius=6mil|HoleSize=0mil|Usage=FLASHONLY|Rotation=90.000|XOffset=0mil|YOffset=0mil|HoleType=Round|Shape=RoundedRectangle|*
%AMROUNDEDRECTD34*
21,1,0.0159,0.0409,0,0,90.0*
21,1,0.0039,0.0529,0,0,90.0*
1,1,0.0119,0.0205,0.0020*
1,1,0.0119,0.0205,-0.0020*
1,1,0.0119,-0.0205,-0.0020*
1,1,0.0119,-0.0205,0.0020*
%
%ADD34ROUNDEDRECTD34*%
G04:AMPARAMS|DCode=35|XSize=33.6mil|YSize=33.6mil|CornerRadius=6.6mil|HoleSize=0mil|Usage=FLASHONLY|Rotation=0.000|XOffset=0mil|YOffset=0mil|HoleType=Round|Shape=RoundedRectangle|*
%AMROUNDEDRECTD35*
21,1,0.0336,0.0205,0,0,0.0*
21,1,0.0205,0.0336,0,0,0.0*
1,1,0.0131,0.0102,-0.0102*
1,1,0.0131,-0.0102,-0.0102*
1,1,0.0131,-0.0102,0.0102*
1,1,0.0131,0.0102,0.0102*
%
%ADD35ROUNDEDRECTD35*%
%ADD36C,0.0474*%
%ADD37R,0.0375X0.0434*%
%ADD38R,0.0434X0.0375*%
G04:AMPARAMS|DCode=39|XSize=45.4mil|YSize=55.2mil|CornerRadius=8.7mil|HoleSize=0mil|Usage=FLASHONLY|Rotation=90.000|XOffset=0mil|YOffset=0mil|HoleType=Round|Shape=RoundedRectangle|*
%AMROUNDEDRECTD39*
21,1,0.0454,0.0379,0,0,90.0*
21,1,0.0281,0.0552,0,0,90.0*
1,1,0.0174,0.0189,0.0140*
1,1,0.0174,0.0189,-0.0140*
1,1,0.0174,-0.0189,-0.0140*
1,1,0.0174,-0.0189,0.0140*
%
%ADD39ROUNDEDRECTD39*%
G04:AMPARAMS|DCode=40|XSize=31.6mil|YSize=47.4mil|CornerRadius=5.2mil|HoleSize=0mil|Usage=FLASHONLY|Rotation=270.000|XOffset=0mil|YOffset=0mil|HoleType=Round|Shape=RoundedRectangle|*
%AMROUNDEDRECTD40*
21,1,0.0316,0.0370,0,0,270.0*
21,1,0.0213,0.0474,0,0,270.0*
1,1,0.0104,-0.0185,-0.0106*
1,1,0.0104,-0.0185,0.0106*
1,1,0.0104,0.0185,0.0106*
1,1,0.0104,0.0185,-0.0106*
%
%ADD40ROUNDEDRECTD40*%
G04:AMPARAMS|DCode=41|XSize=47.4mil|YSize=43.4mil|CornerRadius=7.5mil|HoleSize=0mil|Usage=FLASHONLY|Rotation=0.000|XOffset=0mil|YOffset=0mil|HoleType=Round|Shape=RoundedRectangle|*
%AMROUNDEDRECTD41*
21,1,0.0474,0.0283,0,0,0.0*
21,1,0.0323,0.0434,0,0,0.0*
1,1,0.0151,0.0161,-0.0142*
1,1,0.0151,-0.0161,-0.0142*
1,1,0.0151,-0.0161,0.0142*
1,1,0.0151,0.0161,0.0142*
%
%ADD41ROUNDEDRECTD41*%
G04:AMPARAMS|DCode=42|XSize=47.4mil|YSize=43.4mil|CornerRadius=7.5mil|HoleSize=0mil|Usage=FLASHONLY|Rotation=270.000|XOffset=0mil|YOffset=0mil|HoleType=Round|Shape=RoundedRectangle|*
%AMROUNDEDRECTD42*
21,1,0.0474,0.0283,0,0,270.0*
21,1,0.0323,0.0434,0,0,270.0*
1,1,0.0151,-0.0142,-0.0161*
1,1,0.0151,-0.0142,0.0161*
1,1,0.0151,0.0142,0.0161*
1,1,0.0151,0.0142,-0.0161*
%
%ADD42ROUNDEDRECTD42*%
G04:AMPARAMS|DCode=43|XSize=76.9mil|YSize=53.3mil|CornerRadius=8.5mil|HoleSize=0mil|Usage=FLASHONLY|Rotation=0.000|XOffset=0mil|YOffset=0mil|HoleType=Round|Shape=RoundedRectangle|*
%AMROUNDEDRECTD43*
21,1,0.0769,0.0362,0,0,0.0*
21,1,0.0598,0.0533,0,0,0.0*
1,1,0.0171,0.0299,-0.0181*
1,1,0.0171,-0.0299,-0.0181*
1,1,0.0171,-0.0299,0.0181*
1,1,0.0171,0.0299,0.0181*
%
%ADD43ROUNDEDRECTD43*%
%ADD44O,0.0395X0.0178*%
%ADD45O,0.0178X0.0395*%
G04:AMPARAMS|DCode=46|XSize=104.5mil|YSize=104.5mil|CornerRadius=16.1mil|HoleSize=0mil|Usage=FLASHONLY|Rotation=180.000|XOffset=0mil|YOffset=0mil|HoleType=Round|Shape=RoundedRectangle|*
%AMROUNDEDRECTD46*
21,1,0.1045,0.0723,0,0,180.0*
21,1,0.0723,0.1045,0,0,180.0*
1,1,0.0321,-0.0362,0.0362*
1,1,0.0321,0.0362,0.0362*
1,1,0.0321,0.0362,-0.0362*
1,1,0.0321,-0.0362,-0.0362*
%
%ADD46ROUNDEDRECTD46*%
%ADD47C,0.0730*%
%ADD48C,0.0611*%
%ADD49C,0.0595*%
%ADD50C,0.0966*%
G04:AMPARAMS|DCode=51|XSize=65.1mil|YSize=65.1mil|CornerRadius=18.3mil|HoleSize=0mil|Usage=FLASHONLY|Rotation=270.000|XOffset=0mil|YOffset=0mil|HoleType=Round|Shape=RoundedRectangle|*
%AMROUNDEDRECTD51*
21,1,0.0651,0.0285,0,0,270.0*
21,1,0.0285,0.0651,0,0,270.0*
1,1,0.0365,-0.0143,-0.0143*
1,1,0.0365,-0.0143,0.0143*
1,1,0.0365,0.0143,0.0143*
1,1,0.0365,0.0143,-0.0143*
%
%ADD51ROUNDEDRECTD51*%
%ADD52C,0.0651*%
G04:AMPARAMS|DCode=53|XSize=65.1mil|YSize=65.1mil|CornerRadius=18.3mil|HoleSize=0mil|Usage=FLASHONLY|Rotation=180.000|XOffset=0mil|YOffset=0mil|HoleType=Round|Shape=RoundedRectangle|*
%AMROUNDEDRECTD53*
21,1,0.0651,0.0285,0,0,180.0*
21,1,0.0285,0.0651,0,0,180.0*
1,1,0.0365,-0.0143,0.0143*
1,1,0.0365,0.0143,0.0143*
1,1,0.0365,0.0143,-0.0143*
1,1,0.0365,-0.0143,-0.0143*
%
%ADD53ROUNDEDRECTD53*%
G36*
X023976Y021732D02*
X024147Y021515D01*
X023599Y021515D01*
X023599Y021949D01*
X02414Y02195D01*
X023976Y021732D01*
D02*
G37*
G36*
X024554Y021949D02*
X024554Y021515D01*
X02418Y021515D01*
X024015Y021736D01*
X024174Y021949D01*
X024554Y021949D01*
D02*
G37*
G36*
X023327Y020114D02*
X02311Y020277D01*
X022893Y020106D01*
X022893Y020655D01*
X023327Y020655D01*
X023327Y020114D01*
D02*
G37*
G36*
X023327Y020079D02*
X023327Y0197D01*
X022893Y0197D01*
X022893Y020074D01*
X023114Y020239D01*
X023327Y020079D01*
D02*
G37*
G36*
X033365Y020667D02*
X033403Y020662D01*
X033441Y020654D01*
X033479Y020644D01*
X033515Y020632D01*
X033551Y020617D01*
X033586Y0206D01*
X033619Y020581D01*
X033651Y020559D01*
X033682Y020535D01*
X033711Y02051D01*
X033738Y020483D01*
X033764Y020454D01*
X033787Y020423D01*
X033809Y020391D01*
X033828Y020357D01*
X033845Y020323D01*
X03386Y020287D01*
X033873Y02025D01*
X033883Y020213D01*
X03389Y020175D01*
X033895Y020137D01*
X033898Y020098D01*
Y020079D01*
Y020059D01*
X033895Y020021D01*
X03389Y019982D01*
X033883Y019945D01*
X033873Y019907D01*
X03386Y019871D01*
X033845Y019835D01*
X033828Y0198D01*
X033809Y019767D01*
X033787Y019735D01*
X033764Y019704D01*
X033738Y019675D01*
X033711Y019647D01*
X033682Y019622D01*
X033651Y019598D01*
X033619Y019577D01*
X033586Y019558D01*
X033551Y019541D01*
X033515Y019526D01*
X033479Y019513D01*
X033441Y019503D01*
X033403Y019496D01*
X033365Y019491D01*
X033326Y019488D01*
X033288D01*
X033249Y019491D01*
X033211Y019496D01*
X033173Y019503D01*
X033136Y019513D01*
X033099Y019526D01*
X033063Y019541D01*
X033029Y019558D01*
X032995Y019577D01*
X032963Y019598D01*
X032932Y019622D01*
X032903Y019647D01*
X032876Y019675D01*
X03285Y019704D01*
X032827Y019735D01*
X032805Y019767D01*
X032786Y0198D01*
X032769Y019835D01*
X032754Y019871D01*
X032742Y019907D01*
X032732Y019945D01*
X032724Y019982D01*
X032719Y020021D01*
X032717Y020059D01*
Y020079D01*
Y020098D01*
X032719Y020137D01*
X032724Y020175D01*
X032732Y020213D01*
X032742Y02025D01*
X032754Y020287D01*
X032769Y020323D01*
X032786Y020357D01*
X032805Y020391D01*
X032827Y020423D01*
X03285Y020454D01*
X032876Y020483D01*
X032903Y02051D01*
X032932Y020535D01*
X032963Y020559D01*
X032995Y020581D01*
X033029Y0206D01*
X033063Y020617D01*
X033099Y020632D01*
X033136Y020644D01*
X033173Y020654D01*
X033211Y020662D01*
X033249Y020667D01*
X033288Y020669D01*
X033326D01*
X033365Y020667D01*
D02*
G37*
G36*
X027361Y019291D02*
X027531Y019074D01*
X026983Y019074D01*
X026983Y019508D01*
X027524Y019509D01*
X027361Y019291D01*
D02*
G37*
G36*
X027938Y019508D02*
Y019074D01*
X027564Y019074D01*
X027399Y019295D01*
X027559Y019508D01*
X027938Y019508D01*
D02*
G37*
G36*
X01183Y019407D02*
X011868Y019402D01*
X011906Y019394D01*
X011943Y019384D01*
X01198Y019372D01*
X012016Y019357D01*
X01205Y01934D01*
X012084Y019321D01*
X012116Y019299D01*
X012147Y019276D01*
X012176Y01925D01*
X012203Y019223D01*
X012228Y019194D01*
X012252Y019163D01*
X012273Y019131D01*
X012293Y019097D01*
X01231Y019063D01*
X012325Y019027D01*
X012337Y01899D01*
X012347Y018953D01*
X012355Y018915D01*
X01236Y018877D01*
X012362Y018838D01*
Y018819D01*
Y0188D01*
X01236Y018761D01*
X012355Y018723D01*
X012347Y018685D01*
X012337Y018647D01*
X012325Y018611D01*
X01231Y018575D01*
X012293Y01854D01*
X012273Y018507D01*
X012252Y018475D01*
X012228Y018444D01*
X012203Y018415D01*
X012176Y018388D01*
X012147Y018362D01*
X012116Y018339D01*
X012084Y018317D01*
X01205Y018298D01*
X012016Y018281D01*
X01198Y018266D01*
X011943Y018253D01*
X011906Y018243D01*
X011868Y018236D01*
X01183Y018231D01*
X011791Y018228D01*
X011752D01*
X011714Y018231D01*
X011675Y018236D01*
X011637Y018243D01*
X0116Y018253D01*
X011564Y018266D01*
X011528Y018281D01*
X011493Y018298D01*
X01146Y018317D01*
X011427Y018339D01*
X011397Y018362D01*
X011368Y018388D01*
X01134Y018415D01*
X011315Y018444D01*
X011291Y018475D01*
X01127Y018507D01*
X011251Y01854D01*
X011233Y018575D01*
X011219Y018611D01*
X011206Y018647D01*
X011196Y018685D01*
X011189Y018723D01*
X011184Y018761D01*
X011181Y0188D01*
Y018819D01*
Y018838D01*
X011184Y018877D01*
X011189Y018915D01*
X011196Y018953D01*
X011206Y01899D01*
X011219Y019027D01*
X011233Y019063D01*
X011251Y019097D01*
X01127Y019131D01*
X011291Y019163D01*
X011315Y019194D01*
X01134Y019223D01*
X011368Y01925D01*
X011397Y019276D01*
X011427Y019299D01*
X01146Y019321D01*
X011493Y01934D01*
X011528Y019357D01*
X011564Y019372D01*
X0116Y019384D01*
X011637Y019394D01*
X011675Y019402D01*
X011714Y019407D01*
X011752Y019409D01*
X011791D01*
X01183Y019407D01*
D02*
G37*
G36*
X020717Y017339D02*
X020497Y017174D01*
X020284Y017334D01*
X020284Y017713D01*
X020717Y017713D01*
X020717Y017339D01*
D02*
G37*
G36*
X020088Y017339D02*
X019867Y017174D01*
X019654Y017334D01*
X019654Y017713D01*
X020088D01*
X020088Y017339D01*
D02*
G37*
G36*
X020087Y016758D02*
X019653Y016758D01*
X019653Y017299D01*
X019871Y017136D01*
X020087Y017307D01*
X020087Y016758D01*
D02*
G37*
G36*
X020717Y016758D02*
X020283Y016758D01*
X020283Y017299D01*
X020501Y017136D01*
X020717Y017307D01*
Y016758D01*
D02*
G37*
G36*
X030673Y015787D02*
X030844Y015571D01*
X030295D01*
X030295Y016005D01*
X030836Y016005D01*
X030673Y015787D01*
D02*
G37*
G36*
X03125Y016004D02*
X03125Y015571D01*
X030876Y01557D01*
X030711Y015791D01*
X030871Y016004D01*
X03125Y016004D01*
D02*
G37*
G36*
X029619Y015784D02*
X029459Y01557D01*
X02908Y01557D01*
Y016004D01*
X029454Y016004D01*
X029619Y015784D01*
D02*
G37*
G36*
X030035Y016004D02*
X030035Y01557D01*
X029494Y01557D01*
X029658Y015787D01*
X029487Y016004D01*
X030035Y016004D01*
D02*
G37*
G36*
X027223Y012163D02*
X027262Y012158D01*
X0273Y01215D01*
X027337Y01214D01*
X027373Y012128D01*
X027409Y012113D01*
X027444Y012096D01*
X027477Y012077D01*
X02751Y012055D01*
X02754Y012032D01*
X027569Y012006D01*
X027597Y011979D01*
X027622Y01195D01*
X027646Y011919D01*
X027667Y011887D01*
X027686Y011853D01*
X027704Y011819D01*
X027718Y011783D01*
X027731Y011746D01*
X027741Y011709D01*
X027748Y011671D01*
X027753Y011633D01*
X027756Y011594D01*
Y011575D01*
Y011555D01*
X027753Y011517D01*
X027748Y011479D01*
X027741Y011441D01*
X027731Y011403D01*
X027718Y011367D01*
X027704Y011331D01*
X027686Y011296D01*
X027667Y011263D01*
X027646Y011231D01*
X027622Y0112D01*
X027597Y011171D01*
X027569Y011144D01*
X02754Y011118D01*
X02751Y011095D01*
X027477Y011073D01*
X027444Y011054D01*
X027409Y011037D01*
X027373Y011022D01*
X027337Y011009D01*
X0273Y010999D01*
X027262Y010992D01*
X027223Y010987D01*
X027185Y010984D01*
X027146D01*
X027107Y010987D01*
X027069Y010992D01*
X027031Y010999D01*
X026994Y011009D01*
X026957Y011022D01*
X026922Y011037D01*
X026887Y011054D01*
X026853Y011073D01*
X026821Y011095D01*
X026791Y011118D01*
X026761Y011144D01*
X026734Y011171D01*
X026709Y0112D01*
X026685Y011231D01*
X026664Y011263D01*
X026644Y011296D01*
X026627Y011331D01*
X026612Y011367D01*
X0266Y011403D01*
X02659Y011441D01*
X026582Y011479D01*
X026577Y011517D01*
X026575Y011555D01*
Y011575D01*
Y011594D01*
X026577Y011633D01*
X026582Y011671D01*
X02659Y011709D01*
X0266Y011746D01*
X026612Y011783D01*
X026627Y011819D01*
X026644Y011853D01*
X026664Y011887D01*
X026685Y011919D01*
X026709Y01195D01*
X026734Y011979D01*
X026761Y012006D01*
X026791Y012032D01*
X026821Y012055D01*
X026853Y012077D01*
X026887Y012096D01*
X026922Y012113D01*
X026957Y012128D01*
X026994Y01214D01*
X027031Y01215D01*
X027069Y012158D01*
X027107Y012163D01*
X027146Y012165D01*
X027185D01*
X027223Y012163D01*
D02*
G37*
D33*
X025777Y022008D02*
D03*
X02617Y022008D02*
D03*
X025777Y021614D02*
D03*
X02617Y021614D02*
D03*
X02617Y02122D02*
D03*
X025777D02*
D03*
X02617Y020802D02*
D03*
X025777Y020802D02*
D03*
X030871Y016339D02*
D03*
X030478D02*
D03*
X02248Y022717D02*
D03*
X022087D02*
D03*
X022126Y02189D02*
D03*
X02252Y02189D02*
D03*
X024175Y02126D02*
D03*
X023781Y02126D02*
D03*
X024724Y01874D02*
D03*
X025118Y01874D02*
D03*
X022543Y019435D02*
D03*
X022936Y019435D02*
D03*
X022543Y019042D02*
D03*
X022936Y019042D02*
D03*
X022936Y018623D02*
D03*
X022543Y018623D02*
D03*
X019871Y0182D02*
D03*
X020264Y0182D02*
D03*
X017717Y013307D02*
D03*
X01811Y013307D02*
D03*
X016732Y012559D02*
D03*
X017126Y012559D02*
D03*
X014213Y015866D02*
D03*
X013819Y015866D02*
D03*
X013898Y014016D02*
D03*
X014291Y014016D02*
D03*
X013858Y021378D02*
D03*
X013465Y021378D02*
D03*
X013465Y020984D02*
D03*
X013858Y020984D02*
D03*
D34*
X034665Y017008D02*
D03*
Y019528D02*
D03*
X035886Y01874D02*
D03*
X034665Y017953D02*
D03*
X035886Y01748D02*
D03*
Y015433D02*
D03*
Y015276D02*
D03*
Y014961D02*
D03*
Y015118D02*
D03*
X034665Y017795D02*
D03*
Y017638D02*
D03*
X035886Y01685D02*
D03*
Y016693D02*
D03*
Y016535D02*
D03*
Y016378D02*
D03*
Y01622D02*
D03*
Y016063D02*
D03*
X034665Y015591D02*
D03*
X035886Y019528D02*
D03*
X034665Y01874D02*
D03*
Y014961D02*
D03*
Y015748D02*
D03*
Y015433D02*
D03*
Y015276D02*
D03*
Y015118D02*
D03*
Y017323D02*
D03*
Y017165D02*
D03*
Y01685D02*
D03*
Y016693D02*
D03*
X035886Y021102D02*
D03*
X034665D02*
D03*
X035886Y020945D02*
D03*
X034665D02*
D03*
X035886Y020787D02*
D03*
X034665D02*
D03*
X035886Y02063D02*
D03*
X034665D02*
D03*
X035886Y020472D02*
D03*
X034665D02*
D03*
X035886Y020315D02*
D03*
X034665D02*
D03*
X035886Y020157D02*
D03*
X034665D02*
D03*
X035886Y02D02*
D03*
X034665D02*
D03*
X035886Y019843D02*
D03*
X034665D02*
D03*
X035886Y019685D02*
D03*
X034665D02*
D03*
X035886Y01937D02*
D03*
X034665D02*
D03*
X035886Y019213D02*
D03*
X034665D02*
D03*
X035886Y019055D02*
D03*
X034665D02*
D03*
X035886Y018898D02*
D03*
X034665D02*
D03*
X035886Y018583D02*
D03*
X034665D02*
D03*
X035886Y018425D02*
D03*
X034665D02*
D03*
X035886Y018268D02*
D03*
X034665D02*
D03*
X035886Y01811D02*
D03*
X034665D02*
D03*
X035886Y017953D02*
D03*
Y017795D02*
D03*
Y017638D02*
D03*
X034665Y01748D02*
D03*
X035886Y017323D02*
D03*
Y017165D02*
D03*
Y017008D02*
D03*
Y015906D02*
D03*
Y015591D02*
D03*
Y015748D02*
D03*
X034665Y016535D02*
D03*
Y01622D02*
D03*
Y016063D02*
D03*
Y015906D02*
D03*
Y016378D02*
D03*
X018876Y019055D02*
D03*
Y016535D02*
D03*
X017656Y017323D02*
D03*
X018876Y01811D02*
D03*
X017656Y018583D02*
D03*
Y02063D02*
D03*
Y020787D02*
D03*
Y021102D02*
D03*
Y020945D02*
D03*
X018876Y018268D02*
D03*
Y018425D02*
D03*
X017656Y019213D02*
D03*
Y01937D02*
D03*
Y019528D02*
D03*
Y019685D02*
D03*
Y019843D02*
D03*
Y02D02*
D03*
X018876Y020472D02*
D03*
X017656Y016535D02*
D03*
X018876Y017323D02*
D03*
Y021102D02*
D03*
Y020315D02*
D03*
Y02063D02*
D03*
Y020787D02*
D03*
Y020945D02*
D03*
Y01874D02*
D03*
Y018898D02*
D03*
Y019213D02*
D03*
Y01937D02*
D03*
X017656Y014961D02*
D03*
X018876D02*
D03*
X017656Y015118D02*
D03*
X018876D02*
D03*
X017656Y015276D02*
D03*
X018876D02*
D03*
X017656Y015433D02*
D03*
X018876D02*
D03*
X017656Y015591D02*
D03*
X018876D02*
D03*
X017656Y015748D02*
D03*
X018876D02*
D03*
X017656Y015906D02*
D03*
X018876D02*
D03*
X017656Y016063D02*
D03*
X018876D02*
D03*
X017656Y01622D02*
D03*
X018876D02*
D03*
X017656Y016378D02*
D03*
X018876D02*
D03*
X017656Y016693D02*
D03*
X018876D02*
D03*
X017656Y01685D02*
D03*
X018876D02*
D03*
X017656Y017008D02*
D03*
X018876D02*
D03*
X017656Y017165D02*
D03*
X018876D02*
D03*
X017656Y01748D02*
D03*
X018876D02*
D03*
X017656Y017638D02*
D03*
X018876D02*
D03*
X017656Y017795D02*
D03*
X018876D02*
D03*
X017656Y017953D02*
D03*
X018876D02*
D03*
X017656Y01811D02*
D03*
Y018268D02*
D03*
Y018425D02*
D03*
X018876Y018583D02*
D03*
X017656Y01874D02*
D03*
Y018898D02*
D03*
Y019055D02*
D03*
Y020157D02*
D03*
Y020472D02*
D03*
Y020315D02*
D03*
X018876Y019528D02*
D03*
Y019843D02*
D03*
Y02D02*
D03*
Y020157D02*
D03*
Y019685D02*
D03*
D35*
X037323Y015118D02*
D03*
Y015512D02*
D03*
X036929Y015118D02*
D03*
X036929Y015512D02*
D03*
X036535Y015118D02*
D03*
Y015512D02*
D03*
X031304Y016339D02*
D03*
Y016732D02*
D03*
X03088Y017113D02*
D03*
X03088Y016719D02*
D03*
X030438Y016719D02*
D03*
X030438Y017113D02*
D03*
X020512Y022323D02*
D03*
X020512Y021929D02*
D03*
X026693Y017835D02*
D03*
X026693Y017441D02*
D03*
X023987Y017441D02*
D03*
X023987Y017835D02*
D03*
X021024Y017323D02*
D03*
X021024Y016929D02*
D03*
X014744Y015354D02*
D03*
Y014961D02*
D03*
X015433Y01252D02*
D03*
X015433Y012913D02*
D03*
X011811Y016457D02*
D03*
X011811Y01685D02*
D03*
X011393D02*
D03*
Y016457D02*
D03*
X015709Y022717D02*
D03*
X015709Y022323D02*
D03*
X015315Y022323D02*
D03*
Y022717D02*
D03*
X014921Y022323D02*
D03*
X014921Y022717D02*
D03*
X014528Y022323D02*
D03*
Y022717D02*
D03*
X015866Y019252D02*
D03*
X015866Y018858D02*
D03*
X015472Y019252D02*
D03*
X015472Y018858D02*
D03*
X015079Y019252D02*
D03*
X015079Y018858D02*
D03*
D36*
X031304Y017283D02*
D03*
X021969Y01811D02*
D03*
X018937Y012126D02*
D03*
X014882Y012835D02*
D03*
X015236Y016654D02*
D03*
X011417Y015906D02*
D03*
X01252Y020208D02*
D03*
D37*
X030483Y015787D02*
D03*
X031063Y015787D02*
D03*
X029267Y015787D02*
D03*
X029848D02*
D03*
X023786Y021732D02*
D03*
X024367Y021732D02*
D03*
X02717Y019291D02*
D03*
X027751D02*
D03*
D38*
X02311Y020467D02*
D03*
X02311Y019887D02*
D03*
X020501Y016946D02*
D03*
X020501Y017526D02*
D03*
X019871Y017526D02*
D03*
X019871Y016946D02*
D03*
D39*
X023771Y020748D02*
D03*
Y019882D02*
D03*
X024421Y020748D02*
D03*
X024421Y019882D02*
D03*
D40*
X025098Y017461D02*
D03*
X025098Y018209D02*
D03*
X026161Y018209D02*
D03*
X026161Y017835D02*
D03*
X026161Y017461D02*
D03*
X016043Y013839D02*
D03*
X016043Y013465D02*
D03*
X016043Y013091D02*
D03*
X017106D02*
D03*
Y013839D02*
D03*
X013158Y01457D02*
D03*
X013158Y015318D02*
D03*
X014221Y015318D02*
D03*
X014221Y014944D02*
D03*
X014221Y01457D02*
D03*
D41*
X024499Y018071D02*
D03*
Y017441D02*
D03*
X018937Y013425D02*
D03*
X018937Y012795D02*
D03*
X015295Y015591D02*
D03*
Y014961D02*
D03*
X015433Y014094D02*
D03*
X015433Y013465D02*
D03*
X014803Y014094D02*
D03*
X014803Y013465D02*
D03*
D42*
X023504Y01811D02*
D03*
X022874Y01811D02*
D03*
X023504Y01752D02*
D03*
X022874Y01752D02*
D03*
X018346Y013819D02*
D03*
X017717Y013819D02*
D03*
X017717Y012795D02*
D03*
X018346Y012795D02*
D03*
X013583Y013504D02*
D03*
X014213Y013504D02*
D03*
D43*
X016161Y01499D02*
D03*
X016161Y016112D02*
D03*
D44*
X015965Y020374D02*
D03*
X015965Y020571D02*
D03*
Y020768D02*
D03*
X015965Y020965D02*
D03*
X015965Y021161D02*
D03*
X015965Y021358D02*
D03*
X014429Y021358D02*
D03*
X014429Y021161D02*
D03*
X014429Y020965D02*
D03*
Y020768D02*
D03*
X014429Y020571D02*
D03*
X014429Y020374D02*
D03*
D45*
X015689Y021634D02*
D03*
X015492Y021634D02*
D03*
X015295D02*
D03*
X015098D02*
D03*
X014902Y021634D02*
D03*
X014705Y021634D02*
D03*
X014705Y020098D02*
D03*
X014902Y020098D02*
D03*
X015098Y020098D02*
D03*
X015295D02*
D03*
X015492Y020098D02*
D03*
X015689Y020098D02*
D03*
D46*
X015197Y020866D02*
D03*
D47*
X035494Y023267D02*
D03*
X032734Y023267D02*
D03*
X031699Y023267D02*
D03*
X028939Y023267D02*
D03*
D48*
X035Y024247D02*
D03*
X033228D02*
D03*
X031205Y024247D02*
D03*
X029433Y024247D02*
D03*
D49*
X027087Y024567D02*
D03*
X026299D02*
D03*
X025512Y024567D02*
D03*
D50*
X02439Y024567D02*
D03*
X028209Y024567D02*
D03*
D51*
X013244Y024655D02*
D03*
X034539Y01378D02*
D03*
D52*
X023244Y024655D02*
D03*
X022244Y024655D02*
D03*
X021244D02*
D03*
X020244D02*
D03*
X019244Y024655D02*
D03*
X018244Y024655D02*
D03*
X017244Y024655D02*
D03*
X015244D02*
D03*
X014244Y024655D02*
D03*
X016244D02*
D03*
X035539Y01378D02*
D03*
X011535Y020209D02*
D03*
D53*
X011535Y021209D02*
D03*
M02*
