G04*
G04 #@! TF.GenerationSoftware,Altium Limited,Altium Designer,18.1.6 (161)*
G04*
G04 Layer_Color=128*
%FSTAX24Y24*%
%MOIN*%
G70*
G01*
G75*
%ADD115C,0.0020*%
D115*
X035238Y023267D02*
X03575D01*
X035494Y023011D02*
Y023522D01*
X032478Y023267D02*
X03299D01*
X032734Y023011D02*
Y023522D01*
X034803Y024247D02*
X035197D01*
X035Y02405D02*
Y024444D01*
X033031Y024247D02*
X033425D01*
X033228Y02405D02*
Y024444D01*
X031443Y023267D02*
X031955D01*
X031699Y023011D02*
Y023522D01*
X028683Y023267D02*
X029195D01*
X028939Y023011D02*
Y023522D01*
X031008Y024247D02*
X031402D01*
X031205Y02405D02*
Y024444D01*
X029236Y024247D02*
X02963D01*
X029433Y02405D02*
Y024444D01*
X026929Y024567D02*
X027244D01*
X027087Y024409D02*
Y024724D01*
X024094Y024567D02*
X024685D01*
X02439Y024272D02*
Y024862D01*
X027913Y024567D02*
X028504D01*
X028209Y024272D02*
Y024862D01*
X026142Y024567D02*
X026457D01*
X026299Y024409D02*
Y024724D01*
X025354Y024567D02*
X025669D01*
X025512Y024409D02*
Y024724D01*
X013087Y024655D02*
X013402D01*
X013244Y024497D02*
Y024812D01*
X023087Y024655D02*
X023402D01*
X023244Y024497D02*
Y024812D01*
X022087Y024655D02*
X022402D01*
X022244Y024497D02*
Y024812D01*
X021087Y024655D02*
X021402D01*
X021244Y024497D02*
Y024812D01*
X020087Y024655D02*
X020402D01*
X020244Y024497D02*
Y024812D01*
X019087Y024655D02*
X019402D01*
X019244Y024497D02*
Y024812D01*
X018087Y024655D02*
X018402D01*
X018244Y024497D02*
Y024812D01*
X017087Y024655D02*
X017402D01*
X017244Y024497D02*
Y024812D01*
X015087Y024655D02*
X015402D01*
X015244Y024497D02*
Y024812D01*
X014087Y024655D02*
X014402D01*
X014244Y024497D02*
Y024812D01*
X016087Y024655D02*
X016402D01*
X016244Y024497D02*
Y024812D01*
X035323Y01378D02*
X035756D01*
X035539Y013563D02*
Y013996D01*
X034323Y01378D02*
X034756D01*
X034539Y013563D02*
Y013996D01*
X011319Y021209D02*
X011752D01*
X011535Y020992D02*
Y021425D01*
X011319Y020209D02*
X011752D01*
X011535Y019992D02*
Y020425D01*
X019311Y016614D02*
X019429D01*
X01937Y016555D02*
Y016673D01*
X025326Y021614D02*
X025444D01*
X025385Y021555D02*
Y021673D01*
X02447Y02126D02*
X024549D01*
X024509Y02122D02*
Y021299D01*
X022795Y023031D02*
X022874D01*
X022835Y022992D02*
Y023071D01*
X018917Y013819D02*
X018996D01*
X018957Y01378D02*
Y013858D01*
X019331Y013425D02*
X019409D01*
X01937Y013386D02*
Y013465D01*
X015748Y01252D02*
X015827D01*
X015787Y01248D02*
Y012559D01*
X031814Y017283D02*
X031893D01*
X031854Y017244D02*
Y017323D01*
X025388Y018436D02*
X025467D01*
X025427Y018397D02*
Y018476D01*
X026642Y020405D02*
X026721D01*
X026682Y020366D02*
Y020444D01*
X012438Y012741D02*
X012517D01*
X012478Y012702D02*
Y012781D01*
X012438Y01312D02*
X012517D01*
X012478Y013081D02*
Y013159D01*
X032559Y016929D02*
X032638D01*
X032598Y01689D02*
Y016968D01*
X032208Y017283D02*
X032287D01*
X032248Y017244D02*
Y017323D01*
X033563Y014331D02*
X033681D01*
X033622Y014272D02*
Y01439D01*
X033209Y014331D02*
X033327D01*
X033268Y014272D02*
Y01439D01*
X03313Y014921D02*
X033248D01*
X033189Y014862D02*
Y01498D01*
X033484Y014921D02*
X033602D01*
X033543Y014862D02*
Y01498D01*
X012894Y021339D02*
X013012D01*
X012953Y02128D02*
Y021398D01*
X035709Y014341D02*
X035827D01*
X035768Y014282D02*
Y0144D01*
X035482Y014547D02*
X0356D01*
X035541Y014488D02*
Y014606D01*
X03624Y014764D02*
X036358D01*
X036299Y014705D02*
Y014823D01*
X012116Y016841D02*
X012195D01*
X012156Y016801D02*
Y01688D01*
X025346Y019814D02*
X025464D01*
X025405Y019755D02*
Y019873D01*
X025335Y019409D02*
X025453D01*
X025394Y01935D02*
Y019469D01*
X027028Y021575D02*
X027146D01*
X027087Y021516D02*
Y021634D01*
X028287Y020984D02*
X028406D01*
X028346Y020925D02*
Y021043D01*
X031798Y015157D02*
X031916D01*
X031857Y015098D02*
Y015217D01*
X031437Y015787D02*
X031555D01*
X031496Y015728D02*
Y015846D01*
X028799Y015748D02*
X028917D01*
X028858Y015689D02*
Y015807D01*
X02444Y018425D02*
X024558D01*
X024499Y018366D02*
Y018484D01*
X023928Y018189D02*
X024046D01*
X023987Y01813D02*
Y018248D01*
X024311Y01874D02*
X024429D01*
X02437Y018681D02*
Y018799D01*
X026988Y017835D02*
X027106D01*
X027047Y017776D02*
Y017894D01*
X026516Y018228D02*
X026634D01*
X026575Y018169D02*
Y018287D01*
X026319Y017047D02*
X026437D01*
X026378Y016988D02*
Y017106D01*
X026634Y017047D02*
X026752D01*
X026693Y016988D02*
Y017106D01*
X027795Y016732D02*
X027874D01*
X027835Y016693D02*
Y016772D01*
X021732Y02189D02*
X021811D01*
X021772Y02185D02*
Y021929D01*
X022452Y021527D02*
X02257D01*
X022511Y021468D02*
Y021586D01*
X023251Y018623D02*
X02333D01*
X023291Y018584D02*
Y018662D01*
X023251Y019042D02*
X02333D01*
X023291Y019002D02*
Y019081D01*
X023251Y019435D02*
X02333D01*
X023291Y019396D02*
Y019475D01*
X027106Y018898D02*
X027224D01*
X027165Y018839D02*
Y018957D01*
X028327Y018973D02*
X028406D01*
X028367Y018934D02*
Y019012D01*
X028333Y019744D02*
X028412D01*
X028372Y019704D02*
Y019783D01*
X027579Y018619D02*
X027658D01*
X027619Y018579D02*
Y018658D01*
X028333Y01935D02*
X028412D01*
X028372Y019311D02*
Y019389D01*
X026656Y021597D02*
X026774D01*
X026715Y021538D02*
Y021656D01*
X026656Y021204D02*
X026774D01*
X026715Y021144D02*
Y021263D01*
X025335Y020984D02*
X025453D01*
X025394Y020925D02*
Y021043D01*
X026466Y022008D02*
X026544D01*
X026505Y021969D02*
Y022048D01*
X024882Y020748D02*
X024961D01*
X024921Y020709D02*
Y020787D01*
X024685Y021575D02*
X024764D01*
X024724Y021535D02*
Y021614D01*
X023031Y021538D02*
X02315D01*
X023091Y021479D02*
Y021597D01*
X025Y021538D02*
X025118D01*
X025059Y021479D02*
Y021597D01*
X035317Y019685D02*
X035396D01*
X035356Y019646D02*
Y019724D01*
X036299Y018583D02*
X036378D01*
X036339Y018543D02*
Y018622D01*
X034096Y01937D02*
X034175D01*
X034136Y019331D02*
Y019409D01*
X035317Y01937D02*
X035396D01*
X035356Y019331D02*
Y019409D01*
X030886Y018425D02*
X031004D01*
X030945Y018366D02*
Y018484D01*
X031319Y018386D02*
X031437D01*
X031378Y018327D02*
Y018445D01*
X035317Y016693D02*
X035396D01*
X035356Y016654D02*
Y016732D01*
X034096Y015748D02*
X034175D01*
X034136Y015709D02*
Y015787D01*
X019331Y012677D02*
X019409D01*
X01937Y012638D02*
Y012717D01*
X019331Y012913D02*
X019409D01*
X01937Y012874D02*
Y012953D01*
X034514Y012165D02*
X034592D01*
X034553Y012126D02*
Y012205D01*
X016339Y012559D02*
X016417D01*
X016378Y01252D02*
Y012598D01*
X013209Y013504D02*
X013287D01*
X013248Y013465D02*
Y013543D01*
X013524Y014016D02*
X013602D01*
X013563Y013976D02*
Y014055D01*
X015797Y014193D02*
X015915D01*
X015856Y014134D02*
Y014252D01*
X016112Y014193D02*
X01623D01*
X016171Y014134D02*
Y014252D01*
X016378Y016654D02*
X016457D01*
X016417Y016614D02*
Y016693D01*
X016083Y016654D02*
X016161D01*
X016122Y016614D02*
Y016693D01*
X015787Y016654D02*
X015866D01*
X015827Y016614D02*
Y016693D01*
X015256Y015925D02*
X015335D01*
X015295Y015886D02*
Y015965D01*
X018406Y013307D02*
X018484D01*
X018445Y013268D02*
Y013346D01*
X013118Y015653D02*
X013197D01*
X013158Y015613D02*
Y015692D01*
X016122Y014528D02*
X01624D01*
X016181Y014468D02*
Y014587D01*
X015807Y014528D02*
X015925D01*
X015866Y014468D02*
Y014587D01*
X014705Y015689D02*
X014783D01*
X014744Y01565D02*
Y015728D01*
X019823Y016142D02*
X019941D01*
X019882Y016083D02*
Y016201D01*
X022095Y021389D02*
X022213D01*
X022154Y02133D02*
Y021448D01*
X022106Y020984D02*
X022224D01*
X022165Y020925D02*
Y021043D01*
X022095Y019421D02*
X022213D01*
X022154Y019362D02*
Y01948D01*
X029554Y015157D02*
X029672D01*
X029613Y015098D02*
Y015217D01*
X028176Y015157D02*
X028294D01*
X028235Y015098D02*
Y015217D01*
X026875Y015157D02*
X026993D01*
X026934Y015098D02*
Y015217D01*
X025574Y015157D02*
X025692D01*
X025633Y015098D02*
Y015217D01*
X024274Y015157D02*
X024392D01*
X024333Y015098D02*
Y015217D01*
X022973Y015157D02*
X023091D01*
X023032Y015098D02*
Y015217D01*
X020556Y015157D02*
X020675D01*
X020616Y015098D02*
Y015217D01*
X019334Y015157D02*
X019453D01*
X019394Y015098D02*
Y015217D01*
X022106Y019803D02*
X022224D01*
X022165Y019744D02*
Y019862D01*
X022106Y018622D02*
X022224D01*
X022165Y018563D02*
Y018681D01*
X020875Y019027D02*
X020993D01*
X020934Y018968D02*
Y019086D01*
X022106Y019016D02*
X022224D01*
X022165Y018957D02*
Y019075D01*
X020079Y018996D02*
X020197D01*
X020138Y018937D02*
Y019055D01*
X0196Y020498D02*
X019718D01*
X019659Y020439D02*
Y020557D01*
X019394Y021128D02*
X019512D01*
X019453Y021069D02*
Y021187D01*
X0196Y021758D02*
X019718D01*
X019659Y021699D02*
Y021817D01*
X020965Y017677D02*
X021083D01*
X021024Y017618D02*
Y017736D01*
X018228Y01622D02*
X018307D01*
X018268Y016181D02*
Y01626D01*
X018327Y016968D02*
X018445D01*
X018386Y016909D02*
Y017028D01*
X018146Y016535D02*
X018224D01*
X018185Y016496D02*
Y016575D01*
X032563Y016024D02*
X032641D01*
X032602Y015984D02*
Y016063D01*
X032563Y016496D02*
X032641D01*
X032602Y016457D02*
Y016535D01*
X029173Y017638D02*
X029252D01*
X029213Y017598D02*
Y017677D01*
X029567Y017638D02*
X029646D01*
X029606Y017598D02*
Y017677D01*
X028438Y016732D02*
X028517D01*
X028478Y016693D02*
Y016772D01*
X019295Y017845D02*
X019374D01*
X019335Y017806D02*
Y017885D01*
X017087Y017323D02*
X017165D01*
X017126Y017283D02*
Y017362D01*
X019366Y017323D02*
X019445D01*
X019406Y017283D02*
Y017362D01*
X018228Y01874D02*
X018307D01*
X018268Y018701D02*
Y01878D01*
X019528Y019173D02*
X019606D01*
X019567Y019134D02*
Y019213D01*
X019528Y019567D02*
X019606D01*
X019567Y019528D02*
Y019606D01*
X018307Y020472D02*
X018386D01*
X018346Y020433D02*
Y020512D01*
X02248Y023701D02*
X022559D01*
X02252Y023661D02*
Y02374D01*
X029291Y018504D02*
X02937D01*
X029331Y018465D02*
Y018543D01*
X033278Y020896D02*
X033356D01*
X033317Y020856D02*
Y020935D01*
X032795Y021378D02*
X032874D01*
X032835Y021339D02*
Y021417D01*
X035079Y018316D02*
X035157D01*
X035118Y018277D02*
Y018355D01*
X035079Y01871D02*
X035157D01*
X035118Y01867D02*
Y018749D01*
X023701Y023573D02*
X02378D01*
X02374Y023533D02*
Y023612D01*
X021693Y022717D02*
X021772D01*
X021732Y022677D02*
Y022756D01*
X023091Y022805D02*
X023169D01*
X02313Y022766D02*
Y022844D01*
X02311Y023652D02*
X023189D01*
X02315Y023612D02*
Y023691D01*
X022008Y023356D02*
X022087D01*
X022047Y023317D02*
Y023396D01*
X022441Y023071D02*
X02252D01*
X02248Y023031D02*
Y02311D01*
X026642Y020799D02*
X026721D01*
X026682Y020759D02*
Y020838D01*
X021969Y016968D02*
X022047D01*
X022008Y016929D02*
Y017008D01*
X021378Y016181D02*
X021457D01*
X021417Y016142D02*
Y01622D01*
X034882Y022402D02*
X034961D01*
X034921Y022362D02*
Y022441D01*
X035236Y022402D02*
X035315D01*
X035276Y022362D02*
Y022441D01*
X020551Y018189D02*
X02063D01*
X020591Y01815D02*
Y018228D01*
X017205Y014724D02*
X017283D01*
X017244Y014685D02*
Y014764D01*
X035118Y017638D02*
X035197D01*
X035157Y017598D02*
Y017677D01*
X029803Y022913D02*
X029882D01*
X029843Y022874D02*
Y022953D01*
X029803Y02248D02*
X029882D01*
X029843Y022441D02*
Y02252D01*
X033543Y022913D02*
X033622D01*
X033583Y022874D02*
Y022953D01*
X033543Y02248D02*
X033622D01*
X033583Y022441D02*
Y02252D01*
X037362Y022756D02*
X037441D01*
X037402Y022717D02*
Y022795D01*
X037283Y021063D02*
X037362D01*
X037323Y021024D02*
Y021102D01*
X037047Y018071D02*
X037126D01*
X037087Y018032D02*
Y01811D01*
X037047Y018465D02*
X037126D01*
X037087Y018425D02*
Y018504D01*
X036378Y020079D02*
X036457D01*
X036417Y020039D02*
Y020118D01*
X036378Y020433D02*
X036457D01*
X036417Y020394D02*
Y020472D01*
X036378Y020787D02*
X036457D01*
X036417Y020748D02*
Y020827D01*
X035079Y015709D02*
X035157D01*
X035118Y015669D02*
Y015748D01*
X035079Y016102D02*
X035157D01*
X035118Y016063D02*
Y016142D01*
X032165Y015472D02*
X032244D01*
X032205Y015433D02*
Y015512D01*
X033051Y013583D02*
X03313D01*
X033091Y013543D02*
Y013622D01*
X026614Y013583D02*
X026693D01*
X026654Y013543D02*
Y013622D01*
X014794Y012165D02*
X014873D01*
X014834Y012126D02*
Y012205D01*
X014401Y012165D02*
X014479D01*
X01444Y012126D02*
Y012205D01*
X017611Y012165D02*
X01769D01*
X017651Y012126D02*
Y012205D01*
X017218Y012165D02*
X017297D01*
X017257Y012126D02*
Y012205D01*
X020429Y012165D02*
X020507D01*
X020468Y012126D02*
Y012205D01*
X020035Y012165D02*
X020114D01*
X020074Y012126D02*
Y012205D01*
X023246Y012165D02*
X023325D01*
X023285Y012126D02*
Y012205D01*
X022852Y012165D02*
X022931D01*
X022891Y012126D02*
Y012205D01*
X034121Y012165D02*
X0342D01*
X03416Y012126D02*
Y012205D01*
X031697Y012165D02*
X031776D01*
X031737Y012126D02*
Y012205D01*
X031304Y012165D02*
X031382D01*
X031343Y012126D02*
Y012205D01*
X02888Y012165D02*
X028959D01*
X02892Y012126D02*
Y012205D01*
X026063Y012165D02*
X026142D01*
X026102Y012126D02*
Y012205D01*
X028486Y012165D02*
X028565D01*
X028526Y012126D02*
Y012205D01*
X025669Y012165D02*
X025748D01*
X025709Y012126D02*
Y012205D01*
X012323Y015118D02*
X012402D01*
X012362Y015079D02*
Y015157D01*
X012101Y015974D02*
X01218D01*
X012141Y015935D02*
Y016014D01*
X012785Y017717D02*
X012864D01*
X012825Y017677D02*
Y017756D01*
X012382Y017707D02*
X012461D01*
X012421Y017667D02*
Y017746D01*
X012549Y015541D02*
X012628D01*
X012589Y015502D02*
Y015581D01*
X013051Y016722D02*
X01313D01*
X013091Y016683D02*
Y016762D01*
X012795Y016407D02*
X012874D01*
X012835Y016368D02*
Y016447D01*
X013032Y023189D02*
X01311D01*
X013071Y02315D02*
Y023228D01*
X014124Y022697D02*
X014203D01*
X014163Y022657D02*
Y022736D01*
X015059Y023051D02*
X015138D01*
X015098Y023012D02*
Y023091D01*
X016093Y022667D02*
X016171D01*
X016132Y022628D02*
Y022707D01*
X013425Y02063D02*
X013504D01*
X013465Y020591D02*
Y020669D01*
X013819Y02063D02*
X013898D01*
X013858Y020591D02*
Y020669D01*
X016339Y020915D02*
X016417D01*
X016378Y020876D02*
Y020955D01*
X015827Y018573D02*
X015906D01*
X015866Y018533D02*
Y018612D01*
X015827Y019606D02*
X015906D01*
X015866Y019567D02*
Y019646D01*
X015433Y019606D02*
X015512D01*
X015472Y019567D02*
Y019646D01*
X015039Y019606D02*
X015118D01*
X015079Y019567D02*
Y019646D01*
X016575Y020236D02*
X016654D01*
X016614Y020197D02*
Y020276D01*
X016339Y020472D02*
X016417D01*
X016378Y020433D02*
Y020512D01*
X016575Y020709D02*
X016654D01*
X016614Y020669D02*
Y020748D01*
M02*
